M48
; DRILL file {KiCad (6.0.2)} date Mon Mar 28 11:20:30 2022
; FORMAT={-:-/ absolute / inch / decimal}
; #@! TF.CreationDate,2022-03-28T11:20:30-04:00
; #@! TF.GenerationSoftware,Kicad,Pcbnew,(6.0.2)
; #@! TF.FileFunction,Plated,1,2,PTH
FMAT,2
INCH
; #@! TA.AperFunction,Plated,PTH,ViaDrill
T1C0.0079
; #@! TA.AperFunction,Plated,PTH,ComponentDrill
T2C0.0315
; #@! TA.AperFunction,Plated,PTH,ComponentDrill
T3C0.0394
; #@! TA.AperFunction,Plated,PTH,ComponentDrill
T4C0.0523
%
G90
G05
T1
X1.305Y-2.315
X1.3858Y-1.1654
X1.4Y-2.145
X1.42Y-2.315
X1.4213Y-1.126
X1.4488Y-1.2283
X1.4488Y-2.1417
X1.45Y-1.71
X1.475Y-1.255
X1.484Y-1.642
X1.4843Y-1.1969
X1.485Y-1.955
X1.4882Y-2.0984
X1.499Y-1.545
X1.51Y-2.3205
X1.51Y-2.425
X1.518Y-1.682
X1.5276Y-1.4134
X1.5315Y-2.1417
X1.545Y-2.43
X1.555Y-2.195
X1.56Y-2.25
X1.5709Y-1.2598
X1.5787Y-1.9173
X1.593Y-1.735
X1.602Y-1.664
X1.613Y-1.249
X1.62Y-2.12
X1.62Y-2.18
X1.6339Y-1.9331
X1.64Y-2.285
X1.645Y-1.32
X1.6457Y-1.3661
X1.656Y-1.546
X1.6693Y-1.2087
X1.6693Y-2.063
X1.694Y-1.81
X1.7047Y-1.9291
X1.7047Y-2.0276
X1.73Y-2.495
X1.755Y-1.807
X1.7559Y-2.0276
X1.7598Y-1.9291
T2
X1.4231Y-1.47
X1.62Y-1.47
T3
X1.3457Y-1.7598
X1.4306Y-2.835
X1.4457Y-1.7598
X1.5306Y-2.835
X1.5457Y-1.7598
X1.6306Y-2.835
X1.6457Y-1.7598
T4
X1.4469Y-1.0551
X1.7283Y-1.0551
T0
M30
