%TF.GenerationSoftware,KiCad,Pcbnew,(6.0.2)*%
%TF.CreationDate,2022-03-28T23:16:35-04:00*%
%TF.ProjectId,Altimeter,416c7469-6d65-4746-9572-2e6b69636164,rev?*%
%TF.SameCoordinates,Original*%
%TF.FileFunction,Paste,Bot*%
%TF.FilePolarity,Positive*%
%FSLAX46Y46*%
G04 Gerber Fmt 4.6, Leading zero omitted, Abs format (unit mm)*
G04 Created by KiCad (PCBNEW (6.0.2)) date 2022-03-28 23:16:35*
%MOMM*%
%LPD*%
G01*
G04 APERTURE LIST*
G04 Aperture macros list*
%AMRoundRect*
0 Rectangle with rounded corners*
0 $1 Rounding radius*
0 $2 $3 $4 $5 $6 $7 $8 $9 X,Y pos of 4 corners*
0 Add a 4 corners polygon primitive as box body*
4,1,4,$2,$3,$4,$5,$6,$7,$8,$9,$2,$3,0*
0 Add four circle primitives for the rounded corners*
1,1,$1+$1,$2,$3*
1,1,$1+$1,$4,$5*
1,1,$1+$1,$6,$7*
1,1,$1+$1,$8,$9*
0 Add four rect primitives between the rounded corners*
20,1,$1+$1,$2,$3,$4,$5,0*
20,1,$1+$1,$4,$5,$6,$7,0*
20,1,$1+$1,$6,$7,$8,$9,0*
20,1,$1+$1,$8,$9,$2,$3,0*%
G04 Aperture macros list end*
%ADD10RoundRect,0.250000X0.337500X0.475000X-0.337500X0.475000X-0.337500X-0.475000X0.337500X-0.475000X0*%
%ADD11R,0.800000X0.300000*%
%ADD12R,1.750000X2.450000*%
%ADD13RoundRect,0.250000X-0.475000X0.337500X-0.475000X-0.337500X0.475000X-0.337500X0.475000X0.337500X0*%
%ADD14R,0.850000X0.300000*%
%ADD15R,1.700000X1.600000*%
%ADD16R,0.275000X0.250000*%
%ADD17R,0.250000X0.275000*%
%ADD18RoundRect,0.250000X-0.650000X0.412500X-0.650000X-0.412500X0.650000X-0.412500X0.650000X0.412500X0*%
%ADD19RoundRect,0.250000X0.475000X-0.337500X0.475000X0.337500X-0.475000X0.337500X-0.475000X-0.337500X0*%
%ADD20RoundRect,0.250000X-0.350000X-0.450000X0.350000X-0.450000X0.350000X0.450000X-0.350000X0.450000X0*%
%ADD21RoundRect,0.250000X0.650000X-0.412500X0.650000X0.412500X-0.650000X0.412500X-0.650000X-0.412500X0*%
%ADD22RoundRect,0.250000X0.700000X-0.362500X0.700000X0.362500X-0.700000X0.362500X-0.700000X-0.362500X0*%
%ADD23R,0.500000X0.400000*%
%ADD24RoundRect,0.250000X0.275000X0.350000X-0.275000X0.350000X-0.275000X-0.350000X0.275000X-0.350000X0*%
%ADD25R,1.500000X0.650000*%
%ADD26RoundRect,0.250000X0.350000X0.450000X-0.350000X0.450000X-0.350000X-0.450000X0.350000X-0.450000X0*%
%ADD27R,0.900000X0.600000*%
G04 APERTURE END LIST*
D10*
%TO.C,C1*%
X43762500Y-40675000D03*
X41687500Y-40675000D03*
%TD*%
D11*
%TO.C,IC4*%
X40489000Y-32782000D03*
X40489000Y-33282000D03*
X40489000Y-33782000D03*
X40489000Y-34282000D03*
X40489000Y-34782000D03*
X37489000Y-34782000D03*
X37489000Y-34282000D03*
X37489000Y-33782000D03*
X37489000Y-33282000D03*
X37489000Y-32782000D03*
D12*
X38989000Y-33782000D03*
%TD*%
D13*
%TO.C,C4*%
X37846000Y-55223500D03*
X37846000Y-57298500D03*
%TD*%
D14*
%TO.C,IC1*%
X40058000Y-39636000D03*
X40058000Y-40136000D03*
X40058000Y-40636000D03*
X40058000Y-41136000D03*
X37158000Y-41136000D03*
X37158000Y-40636000D03*
X37158000Y-40136000D03*
X37158000Y-39636000D03*
D15*
X38608000Y-40386000D03*
%TD*%
D13*
%TO.C,C5*%
X42225000Y-32612500D03*
X42225000Y-34687500D03*
%TD*%
D16*
%TO.C,IC3*%
X35560000Y-55638000D03*
X35560000Y-56138000D03*
X35560000Y-56638000D03*
X35560000Y-57138000D03*
D17*
X35048000Y-57151000D03*
X34548000Y-57151000D03*
D16*
X34035000Y-57138000D03*
X34035000Y-56638000D03*
X34035000Y-56138000D03*
X34035000Y-55638000D03*
D17*
X34548000Y-55626000D03*
X35048000Y-55626000D03*
%TD*%
D18*
%TO.C,C10*%
X43561000Y-47237500D03*
X43561000Y-50362500D03*
%TD*%
D19*
%TO.C,C11*%
X43925000Y-61175000D03*
X43925000Y-59100000D03*
%TD*%
D13*
%TO.C,C2*%
X35450000Y-39805700D03*
X35450000Y-41880700D03*
%TD*%
D20*
%TO.C,R1*%
X36084000Y-60071000D03*
X38084000Y-60071000D03*
%TD*%
D21*
%TO.C,C7*%
X34400000Y-49662500D03*
X34400000Y-46537500D03*
%TD*%
D22*
%TO.C,L1*%
X41100000Y-50462500D03*
X41100000Y-47137500D03*
%TD*%
D23*
%TO.C,U1*%
X40398000Y-55159000D03*
X40398000Y-55809000D03*
X40398000Y-56459000D03*
X40398000Y-57109000D03*
X41898000Y-57109000D03*
X41898000Y-56459000D03*
X41898000Y-55809000D03*
X41898000Y-55159000D03*
%TD*%
D20*
%TO.C,R2*%
X40021000Y-60071000D03*
X42021000Y-60071000D03*
%TD*%
D13*
%TO.C,C6*%
X43942000Y-55223500D03*
X43942000Y-57298500D03*
%TD*%
D24*
%TO.C,L2*%
X42425000Y-42575000D03*
X40125000Y-42575000D03*
%TD*%
D25*
%TO.C,IC2*%
X36289000Y-62103000D03*
X36289000Y-63373000D03*
X36289000Y-64643000D03*
X36289000Y-65913000D03*
X36289000Y-67183000D03*
X36289000Y-68453000D03*
X36289000Y-69723000D03*
X41689000Y-69723000D03*
X41689000Y-68453000D03*
X41689000Y-67183000D03*
X41689000Y-65913000D03*
X41689000Y-64643000D03*
X41689000Y-63373000D03*
X41689000Y-62103000D03*
%TD*%
D19*
%TO.C,C8*%
X35814000Y-34692500D03*
X35814000Y-32617500D03*
%TD*%
D26*
%TO.C,R3*%
X40878000Y-52578000D03*
X38878000Y-52578000D03*
%TD*%
D27*
%TO.C,IC5*%
X36319000Y-49718000D03*
X36319000Y-48768000D03*
X36319000Y-47818000D03*
X39119000Y-47818000D03*
X39119000Y-49718000D03*
%TD*%
D13*
%TO.C,C9*%
X33625000Y-34262500D03*
X33625000Y-36337500D03*
%TD*%
D20*
%TO.C,R4*%
X34814000Y-52578000D03*
X36814000Y-52578000D03*
%TD*%
M02*
