%TF.GenerationSoftware,KiCad,Pcbnew,(6.0.2)*%
%TF.CreationDate,2022-03-28T23:16:35-04:00*%
%TF.ProjectId,Altimeter,416c7469-6d65-4746-9572-2e6b69636164,rev?*%
%TF.SameCoordinates,Original*%
%TF.FileFunction,Legend,Bot*%
%TF.FilePolarity,Positive*%
%FSLAX46Y46*%
G04 Gerber Fmt 4.6, Leading zero omitted, Abs format (unit mm)*
G04 Created by KiCad (PCBNEW (6.0.2)) date 2022-03-28 23:16:35*
%MOMM*%
%LPD*%
G01*
G04 APERTURE LIST*
%ADD10C,0.150000*%
%ADD11C,0.254000*%
%ADD12C,0.120000*%
%ADD13C,0.250000*%
%ADD14C,0.100000*%
%ADD15C,0.200000*%
G04 APERTURE END LIST*
D10*
%TO.C,C1*%
X42891666Y-39352142D02*
X42939285Y-39399761D01*
X43082142Y-39447380D01*
X43177380Y-39447380D01*
X43320238Y-39399761D01*
X43415476Y-39304523D01*
X43463095Y-39209285D01*
X43510714Y-39018809D01*
X43510714Y-38875952D01*
X43463095Y-38685476D01*
X43415476Y-38590238D01*
X43320238Y-38495000D01*
X43177380Y-38447380D01*
X43082142Y-38447380D01*
X42939285Y-38495000D01*
X42891666Y-38542619D01*
X41939285Y-39447380D02*
X42510714Y-39447380D01*
X42225000Y-39447380D02*
X42225000Y-38447380D01*
X42320238Y-38590238D01*
X42415476Y-38685476D01*
X42510714Y-38733095D01*
D11*
%TO.C,IC4*%
X40228761Y-31562523D02*
X40228761Y-30292523D01*
X38898285Y-31441571D02*
X38958761Y-31502047D01*
X39140190Y-31562523D01*
X39261142Y-31562523D01*
X39442571Y-31502047D01*
X39563523Y-31381095D01*
X39624000Y-31260142D01*
X39684476Y-31018238D01*
X39684476Y-30836809D01*
X39624000Y-30594904D01*
X39563523Y-30473952D01*
X39442571Y-30353000D01*
X39261142Y-30292523D01*
X39140190Y-30292523D01*
X38958761Y-30353000D01*
X38898285Y-30413476D01*
X37809714Y-30715857D02*
X37809714Y-31562523D01*
X38112095Y-30232047D02*
X38414476Y-31139190D01*
X37628285Y-31139190D01*
D10*
%TO.C,C4*%
X39657142Y-55933333D02*
X39704761Y-55885714D01*
X39752380Y-55742857D01*
X39752380Y-55647619D01*
X39704761Y-55504761D01*
X39609523Y-55409523D01*
X39514285Y-55361904D01*
X39323809Y-55314285D01*
X39180952Y-55314285D01*
X38990476Y-55361904D01*
X38895238Y-55409523D01*
X38800000Y-55504761D01*
X38752380Y-55647619D01*
X38752380Y-55742857D01*
X38800000Y-55885714D01*
X38847619Y-55933333D01*
X39085714Y-56790476D02*
X39752380Y-56790476D01*
X38704761Y-56552380D02*
X39419047Y-56314285D01*
X39419047Y-56933333D01*
D11*
%TO.C,IC1*%
X39847761Y-40960523D02*
X39847761Y-39690523D01*
X38517285Y-40839571D02*
X38577761Y-40900047D01*
X38759190Y-40960523D01*
X38880142Y-40960523D01*
X39061571Y-40900047D01*
X39182523Y-40779095D01*
X39243000Y-40658142D01*
X39303476Y-40416238D01*
X39303476Y-40234809D01*
X39243000Y-39992904D01*
X39182523Y-39871952D01*
X39061571Y-39751000D01*
X38880142Y-39690523D01*
X38759190Y-39690523D01*
X38577761Y-39751000D01*
X38517285Y-39811476D01*
X37307761Y-40960523D02*
X38033476Y-40960523D01*
X37670619Y-40960523D02*
X37670619Y-39690523D01*
X37791571Y-39871952D01*
X37912523Y-39992904D01*
X38033476Y-40053380D01*
D10*
%TO.C,C5*%
X44229142Y-33401333D02*
X44276761Y-33353714D01*
X44324380Y-33210857D01*
X44324380Y-33115619D01*
X44276761Y-32972761D01*
X44181523Y-32877523D01*
X44086285Y-32829904D01*
X43895809Y-32782285D01*
X43752952Y-32782285D01*
X43562476Y-32829904D01*
X43467238Y-32877523D01*
X43372000Y-32972761D01*
X43324380Y-33115619D01*
X43324380Y-33210857D01*
X43372000Y-33353714D01*
X43419619Y-33401333D01*
X43324380Y-34306095D02*
X43324380Y-33829904D01*
X43800571Y-33782285D01*
X43752952Y-33829904D01*
X43705333Y-33925142D01*
X43705333Y-34163238D01*
X43752952Y-34258476D01*
X43800571Y-34306095D01*
X43895809Y-34353714D01*
X44133904Y-34353714D01*
X44229142Y-34306095D01*
X44276761Y-34258476D01*
X44324380Y-34163238D01*
X44324380Y-33925142D01*
X44276761Y-33829904D01*
X44229142Y-33782285D01*
D11*
%TO.C,IC3*%
X35239761Y-59374523D02*
X35239761Y-58104523D01*
X33909285Y-59253571D02*
X33969761Y-59314047D01*
X34151190Y-59374523D01*
X34272142Y-59374523D01*
X34453571Y-59314047D01*
X34574523Y-59193095D01*
X34635000Y-59072142D01*
X34695476Y-58830238D01*
X34695476Y-58648809D01*
X34635000Y-58406904D01*
X34574523Y-58285952D01*
X34453571Y-58165000D01*
X34272142Y-58104523D01*
X34151190Y-58104523D01*
X33969761Y-58165000D01*
X33909285Y-58225476D01*
X33485952Y-58104523D02*
X32699761Y-58104523D01*
X33123095Y-58588333D01*
X32941666Y-58588333D01*
X32820714Y-58648809D01*
X32760238Y-58709285D01*
X32699761Y-58830238D01*
X32699761Y-59132619D01*
X32760238Y-59253571D01*
X32820714Y-59314047D01*
X32941666Y-59374523D01*
X33304523Y-59374523D01*
X33425476Y-59314047D01*
X33485952Y-59253571D01*
D10*
%TO.C,C10*%
X42857142Y-52135142D02*
X42904761Y-52087523D01*
X42952380Y-51944666D01*
X42952380Y-51849428D01*
X42904761Y-51706571D01*
X42809523Y-51611333D01*
X42714285Y-51563714D01*
X42523809Y-51516095D01*
X42380952Y-51516095D01*
X42190476Y-51563714D01*
X42095238Y-51611333D01*
X42000000Y-51706571D01*
X41952380Y-51849428D01*
X41952380Y-51944666D01*
X42000000Y-52087523D01*
X42047619Y-52135142D01*
X42952380Y-53087523D02*
X42952380Y-52516095D01*
X42952380Y-52801809D02*
X41952380Y-52801809D01*
X42095238Y-52706571D01*
X42190476Y-52611333D01*
X42238095Y-52516095D01*
X41952380Y-53706571D02*
X41952380Y-53801809D01*
X42000000Y-53897047D01*
X42047619Y-53944666D01*
X42142857Y-53992285D01*
X42333333Y-54039904D01*
X42571428Y-54039904D01*
X42761904Y-53992285D01*
X42857142Y-53944666D01*
X42904761Y-53897047D01*
X42952380Y-53801809D01*
X42952380Y-53706571D01*
X42904761Y-53611333D01*
X42857142Y-53563714D01*
X42761904Y-53516095D01*
X42571428Y-53468476D01*
X42333333Y-53468476D01*
X42142857Y-53516095D01*
X42047619Y-53563714D01*
X42000000Y-53611333D01*
X41952380Y-53706571D01*
%TO.C,C11*%
X45962142Y-59494642D02*
X46009761Y-59447023D01*
X46057380Y-59304166D01*
X46057380Y-59208928D01*
X46009761Y-59066071D01*
X45914523Y-58970833D01*
X45819285Y-58923214D01*
X45628809Y-58875595D01*
X45485952Y-58875595D01*
X45295476Y-58923214D01*
X45200238Y-58970833D01*
X45105000Y-59066071D01*
X45057380Y-59208928D01*
X45057380Y-59304166D01*
X45105000Y-59447023D01*
X45152619Y-59494642D01*
X46057380Y-60447023D02*
X46057380Y-59875595D01*
X46057380Y-60161309D02*
X45057380Y-60161309D01*
X45200238Y-60066071D01*
X45295476Y-59970833D01*
X45343095Y-59875595D01*
X46057380Y-61399404D02*
X46057380Y-60827976D01*
X46057380Y-61113690D02*
X45057380Y-61113690D01*
X45200238Y-61018452D01*
X45295476Y-60923214D01*
X45343095Y-60827976D01*
%TO.C,C2*%
X31573142Y-39614533D02*
X31620761Y-39566914D01*
X31668380Y-39424057D01*
X31668380Y-39328819D01*
X31620761Y-39185961D01*
X31525523Y-39090723D01*
X31430285Y-39043104D01*
X31239809Y-38995485D01*
X31096952Y-38995485D01*
X30906476Y-39043104D01*
X30811238Y-39090723D01*
X30716000Y-39185961D01*
X30668380Y-39328819D01*
X30668380Y-39424057D01*
X30716000Y-39566914D01*
X30763619Y-39614533D01*
X30763619Y-39995485D02*
X30716000Y-40043104D01*
X30668380Y-40138342D01*
X30668380Y-40376438D01*
X30716000Y-40471676D01*
X30763619Y-40519295D01*
X30858857Y-40566914D01*
X30954095Y-40566914D01*
X31096952Y-40519295D01*
X31668380Y-39947866D01*
X31668380Y-40566914D01*
%TO.C,R1*%
X34166666Y-61552380D02*
X34500000Y-61076190D01*
X34738095Y-61552380D02*
X34738095Y-60552380D01*
X34357142Y-60552380D01*
X34261904Y-60600000D01*
X34214285Y-60647619D01*
X34166666Y-60742857D01*
X34166666Y-60885714D01*
X34214285Y-60980952D01*
X34261904Y-61028571D01*
X34357142Y-61076190D01*
X34738095Y-61076190D01*
X33214285Y-61552380D02*
X33785714Y-61552380D01*
X33500000Y-61552380D02*
X33500000Y-60552380D01*
X33595238Y-60695238D01*
X33690476Y-60790476D01*
X33785714Y-60838095D01*
%TO.C,C7*%
X36394142Y-45665333D02*
X36441761Y-45617714D01*
X36489380Y-45474857D01*
X36489380Y-45379619D01*
X36441761Y-45236761D01*
X36346523Y-45141523D01*
X36251285Y-45093904D01*
X36060809Y-45046285D01*
X35917952Y-45046285D01*
X35727476Y-45093904D01*
X35632238Y-45141523D01*
X35537000Y-45236761D01*
X35489380Y-45379619D01*
X35489380Y-45474857D01*
X35537000Y-45617714D01*
X35584619Y-45665333D01*
X35489380Y-45998666D02*
X35489380Y-46665333D01*
X36489380Y-46236761D01*
%TO.C,L1*%
X44231380Y-52111333D02*
X44231380Y-51635142D01*
X43231380Y-51635142D01*
X44231380Y-52968476D02*
X44231380Y-52397047D01*
X44231380Y-52682761D02*
X43231380Y-52682761D01*
X43374238Y-52587523D01*
X43469476Y-52492285D01*
X43517095Y-52397047D01*
D11*
%TO.C,U1*%
X43667619Y-52904523D02*
X43667619Y-53932619D01*
X43607142Y-54053571D01*
X43546666Y-54114047D01*
X43425714Y-54174523D01*
X43183809Y-54174523D01*
X43062857Y-54114047D01*
X43002380Y-54053571D01*
X42941904Y-53932619D01*
X42941904Y-52904523D01*
X41671904Y-54174523D02*
X42397619Y-54174523D01*
X42034761Y-54174523D02*
X42034761Y-52904523D01*
X42155714Y-53085952D01*
X42276666Y-53206904D01*
X42397619Y-53267380D01*
D10*
%TO.C,R2*%
X41266666Y-58852380D02*
X41600000Y-58376190D01*
X41838095Y-58852380D02*
X41838095Y-57852380D01*
X41457142Y-57852380D01*
X41361904Y-57900000D01*
X41314285Y-57947619D01*
X41266666Y-58042857D01*
X41266666Y-58185714D01*
X41314285Y-58280952D01*
X41361904Y-58328571D01*
X41457142Y-58376190D01*
X41838095Y-58376190D01*
X40885714Y-57947619D02*
X40838095Y-57900000D01*
X40742857Y-57852380D01*
X40504761Y-57852380D01*
X40409523Y-57900000D01*
X40361904Y-57947619D01*
X40314285Y-58042857D01*
X40314285Y-58138095D01*
X40361904Y-58280952D01*
X40933333Y-58852380D01*
X40314285Y-58852380D01*
%TO.C,C6*%
X48495142Y-54353333D02*
X48542761Y-54305714D01*
X48590380Y-54162857D01*
X48590380Y-54067619D01*
X48542761Y-53924761D01*
X48447523Y-53829523D01*
X48352285Y-53781904D01*
X48161809Y-53734285D01*
X48018952Y-53734285D01*
X47828476Y-53781904D01*
X47733238Y-53829523D01*
X47638000Y-53924761D01*
X47590380Y-54067619D01*
X47590380Y-54162857D01*
X47638000Y-54305714D01*
X47685619Y-54353333D01*
X47590380Y-55210476D02*
X47590380Y-55020000D01*
X47638000Y-54924761D01*
X47685619Y-54877142D01*
X47828476Y-54781904D01*
X48018952Y-54734285D01*
X48399904Y-54734285D01*
X48495142Y-54781904D01*
X48542761Y-54829523D01*
X48590380Y-54924761D01*
X48590380Y-55115238D01*
X48542761Y-55210476D01*
X48495142Y-55258095D01*
X48399904Y-55305714D01*
X48161809Y-55305714D01*
X48066571Y-55258095D01*
X48018952Y-55210476D01*
X47971333Y-55115238D01*
X47971333Y-54924761D01*
X48018952Y-54829523D01*
X48066571Y-54781904D01*
X48161809Y-54734285D01*
%TO.C,L2*%
X41441666Y-41477380D02*
X41917857Y-41477380D01*
X41917857Y-40477380D01*
X41155952Y-40572619D02*
X41108333Y-40525000D01*
X41013095Y-40477380D01*
X40775000Y-40477380D01*
X40679761Y-40525000D01*
X40632142Y-40572619D01*
X40584523Y-40667857D01*
X40584523Y-40763095D01*
X40632142Y-40905952D01*
X41203571Y-41477380D01*
X40584523Y-41477380D01*
D11*
%TO.C,IC2*%
X40228761Y-66487523D02*
X40228761Y-65217523D01*
X38898285Y-66366571D02*
X38958761Y-66427047D01*
X39140190Y-66487523D01*
X39261142Y-66487523D01*
X39442571Y-66427047D01*
X39563523Y-66306095D01*
X39624000Y-66185142D01*
X39684476Y-65943238D01*
X39684476Y-65761809D01*
X39624000Y-65519904D01*
X39563523Y-65398952D01*
X39442571Y-65278000D01*
X39261142Y-65217523D01*
X39140190Y-65217523D01*
X38958761Y-65278000D01*
X38898285Y-65338476D01*
X38414476Y-65338476D02*
X38354000Y-65278000D01*
X38233047Y-65217523D01*
X37930666Y-65217523D01*
X37809714Y-65278000D01*
X37749238Y-65338476D01*
X37688761Y-65459428D01*
X37688761Y-65580380D01*
X37749238Y-65761809D01*
X38474952Y-66487523D01*
X37688761Y-66487523D01*
D10*
%TO.C,C8*%
X34357142Y-33488333D02*
X34404761Y-33440714D01*
X34452380Y-33297857D01*
X34452380Y-33202619D01*
X34404761Y-33059761D01*
X34309523Y-32964523D01*
X34214285Y-32916904D01*
X34023809Y-32869285D01*
X33880952Y-32869285D01*
X33690476Y-32916904D01*
X33595238Y-32964523D01*
X33500000Y-33059761D01*
X33452380Y-33202619D01*
X33452380Y-33297857D01*
X33500000Y-33440714D01*
X33547619Y-33488333D01*
X33880952Y-34059761D02*
X33833333Y-33964523D01*
X33785714Y-33916904D01*
X33690476Y-33869285D01*
X33642857Y-33869285D01*
X33547619Y-33916904D01*
X33500000Y-33964523D01*
X33452380Y-34059761D01*
X33452380Y-34250238D01*
X33500000Y-34345476D01*
X33547619Y-34393095D01*
X33642857Y-34440714D01*
X33690476Y-34440714D01*
X33785714Y-34393095D01*
X33833333Y-34345476D01*
X33880952Y-34250238D01*
X33880952Y-34059761D01*
X33928571Y-33964523D01*
X33976190Y-33916904D01*
X34071428Y-33869285D01*
X34261904Y-33869285D01*
X34357142Y-33916904D01*
X34404761Y-33964523D01*
X34452380Y-34059761D01*
X34452380Y-34250238D01*
X34404761Y-34345476D01*
X34357142Y-34393095D01*
X34261904Y-34440714D01*
X34071428Y-34440714D01*
X33976190Y-34393095D01*
X33928571Y-34345476D01*
X33880952Y-34250238D01*
%TO.C,R3*%
X39166666Y-51452380D02*
X39500000Y-50976190D01*
X39738095Y-51452380D02*
X39738095Y-50452380D01*
X39357142Y-50452380D01*
X39261904Y-50500000D01*
X39214285Y-50547619D01*
X39166666Y-50642857D01*
X39166666Y-50785714D01*
X39214285Y-50880952D01*
X39261904Y-50928571D01*
X39357142Y-50976190D01*
X39738095Y-50976190D01*
X38833333Y-50452380D02*
X38214285Y-50452380D01*
X38547619Y-50833333D01*
X38404761Y-50833333D01*
X38309523Y-50880952D01*
X38261904Y-50928571D01*
X38214285Y-51023809D01*
X38214285Y-51261904D01*
X38261904Y-51357142D01*
X38309523Y-51404761D01*
X38404761Y-51452380D01*
X38690476Y-51452380D01*
X38785714Y-51404761D01*
X38833333Y-51357142D01*
D11*
%TO.C,IC5*%
X39139761Y-46974523D02*
X39139761Y-45704523D01*
X37809285Y-46853571D02*
X37869761Y-46914047D01*
X38051190Y-46974523D01*
X38172142Y-46974523D01*
X38353571Y-46914047D01*
X38474523Y-46793095D01*
X38535000Y-46672142D01*
X38595476Y-46430238D01*
X38595476Y-46248809D01*
X38535000Y-46006904D01*
X38474523Y-45885952D01*
X38353571Y-45765000D01*
X38172142Y-45704523D01*
X38051190Y-45704523D01*
X37869761Y-45765000D01*
X37809285Y-45825476D01*
X36660238Y-45704523D02*
X37265000Y-45704523D01*
X37325476Y-46309285D01*
X37265000Y-46248809D01*
X37144047Y-46188333D01*
X36841666Y-46188333D01*
X36720714Y-46248809D01*
X36660238Y-46309285D01*
X36599761Y-46430238D01*
X36599761Y-46732619D01*
X36660238Y-46853571D01*
X36720714Y-46914047D01*
X36841666Y-46974523D01*
X37144047Y-46974523D01*
X37265000Y-46914047D01*
X37325476Y-46853571D01*
D10*
%TO.C,C9*%
X32302142Y-35133333D02*
X32349761Y-35085714D01*
X32397380Y-34942857D01*
X32397380Y-34847619D01*
X32349761Y-34704761D01*
X32254523Y-34609523D01*
X32159285Y-34561904D01*
X31968809Y-34514285D01*
X31825952Y-34514285D01*
X31635476Y-34561904D01*
X31540238Y-34609523D01*
X31445000Y-34704761D01*
X31397380Y-34847619D01*
X31397380Y-34942857D01*
X31445000Y-35085714D01*
X31492619Y-35133333D01*
X32397380Y-35609523D02*
X32397380Y-35800000D01*
X32349761Y-35895238D01*
X32302142Y-35942857D01*
X32159285Y-36038095D01*
X31968809Y-36085714D01*
X31587857Y-36085714D01*
X31492619Y-36038095D01*
X31445000Y-35990476D01*
X31397380Y-35895238D01*
X31397380Y-35704761D01*
X31445000Y-35609523D01*
X31492619Y-35561904D01*
X31587857Y-35514285D01*
X31825952Y-35514285D01*
X31921190Y-35561904D01*
X31968809Y-35609523D01*
X32016428Y-35704761D01*
X32016428Y-35895238D01*
X31968809Y-35990476D01*
X31921190Y-36038095D01*
X31825952Y-36085714D01*
%TO.C,R4*%
X35980666Y-54452380D02*
X36314000Y-53976190D01*
X36552095Y-54452380D02*
X36552095Y-53452380D01*
X36171142Y-53452380D01*
X36075904Y-53500000D01*
X36028285Y-53547619D01*
X35980666Y-53642857D01*
X35980666Y-53785714D01*
X36028285Y-53880952D01*
X36075904Y-53928571D01*
X36171142Y-53976190D01*
X36552095Y-53976190D01*
X35123523Y-53785714D02*
X35123523Y-54452380D01*
X35361619Y-53404761D02*
X35599714Y-54119047D01*
X34980666Y-54119047D01*
D12*
%TO.C,C1*%
X42986252Y-39940000D02*
X42463748Y-39940000D01*
X42986252Y-41410000D02*
X42463748Y-41410000D01*
D13*
%TO.C,IC4*%
X41014000Y-32132000D02*
G75*
G03*
X41014000Y-32132000I-125000J0D01*
G01*
D12*
%TO.C,C4*%
X37111000Y-55999748D02*
X37111000Y-56522252D01*
X38581000Y-55999748D02*
X38581000Y-56522252D01*
D13*
%TO.C,IC1*%
X40608000Y-38986000D02*
G75*
G03*
X40608000Y-38986000I-125000J0D01*
G01*
D12*
%TO.C,C5*%
X42960000Y-33388748D02*
X42960000Y-33911252D01*
X41490000Y-33388748D02*
X41490000Y-33911252D01*
D14*
%TO.C,IC3*%
X36198000Y-55588000D02*
X36198000Y-55588000D01*
X36198000Y-55688000D02*
X36198000Y-55688000D01*
X36198000Y-55688000D02*
G75*
G03*
X36198000Y-55588000I0J50000D01*
G01*
X36198000Y-55588000D02*
G75*
G03*
X36198000Y-55688000I0J-50000D01*
G01*
D12*
%TO.C,C10*%
X42651000Y-48088748D02*
X42651000Y-49511252D01*
X44471000Y-48088748D02*
X44471000Y-49511252D01*
%TO.C,C11*%
X43190000Y-60398752D02*
X43190000Y-59876248D01*
X44660000Y-60398752D02*
X44660000Y-59876248D01*
%TO.C,C2*%
X36185000Y-40581948D02*
X36185000Y-41104452D01*
X34715000Y-40581948D02*
X34715000Y-41104452D01*
%TO.C,R1*%
X36856936Y-59336000D02*
X37311064Y-59336000D01*
X36856936Y-60806000D02*
X37311064Y-60806000D01*
%TO.C,C7*%
X33490000Y-48811252D02*
X33490000Y-47388748D01*
X35310000Y-48811252D02*
X35310000Y-47388748D01*
%TO.C,L1*%
X42010000Y-49635242D02*
X42010000Y-47964758D01*
X40190000Y-49635242D02*
X40190000Y-47964758D01*
D15*
%TO.C,U1*%
X39348000Y-55159000D02*
X39348000Y-55159000D01*
X39348000Y-55159000D02*
X39348000Y-55159000D01*
X39248000Y-55159000D02*
X39248000Y-55159000D01*
X39348000Y-55159000D02*
G75*
G03*
X39248000Y-55159000I-50000J0D01*
G01*
X39248000Y-55159000D02*
G75*
G03*
X39348000Y-55159000I50000J0D01*
G01*
X39248000Y-55159000D02*
G75*
G03*
X39348000Y-55159000I50000J0D01*
G01*
D12*
%TO.C,R2*%
X40793936Y-59336000D02*
X41248064Y-59336000D01*
X40793936Y-60806000D02*
X41248064Y-60806000D01*
%TO.C,C6*%
X43207000Y-55999748D02*
X43207000Y-56522252D01*
X44677000Y-55999748D02*
X44677000Y-56522252D01*
%TO.C,L2*%
X41685242Y-43135000D02*
X40864758Y-43135000D01*
X41685242Y-42015000D02*
X40864758Y-42015000D01*
D15*
%TO.C,IC2*%
X40589000Y-61588000D02*
X37389000Y-61588000D01*
X37389000Y-70238000D02*
X40589000Y-70238000D01*
X37389000Y-61588000D02*
X37389000Y-70238000D01*
X42439000Y-61428000D02*
X40939000Y-61428000D01*
X40589000Y-70238000D02*
X40589000Y-61588000D01*
D12*
%TO.C,C8*%
X36549000Y-33916252D02*
X36549000Y-33393748D01*
X35079000Y-33916252D02*
X35079000Y-33393748D01*
%TO.C,R3*%
X40105064Y-51843000D02*
X39650936Y-51843000D01*
X40105064Y-53313000D02*
X39650936Y-53313000D01*
D15*
%TO.C,IC5*%
X37119000Y-50218000D02*
X38319000Y-50218000D01*
X38319000Y-50218000D02*
X38319000Y-47318000D01*
X35869000Y-50268000D02*
X36769000Y-50268000D01*
X37119000Y-47318000D02*
X37119000Y-50218000D01*
X38319000Y-47318000D02*
X37119000Y-47318000D01*
D12*
%TO.C,C9*%
X32890000Y-35038748D02*
X32890000Y-35561252D01*
X34360000Y-35038748D02*
X34360000Y-35561252D01*
%TO.C,R4*%
X35586936Y-53313000D02*
X36041064Y-53313000D01*
X35586936Y-51843000D02*
X36041064Y-51843000D01*
%TD*%
M02*
