%TF.GenerationSoftware,KiCad,Pcbnew,(6.0.2)*%
%TF.CreationDate,2022-03-27T18:45:12-04:00*%
%TF.ProjectId,Altimeter,416c7469-6d65-4746-9572-2e6b69636164,rev?*%
%TF.SameCoordinates,Original*%
%TF.FileFunction,Copper,L2,Bot*%
%TF.FilePolarity,Positive*%
%FSLAX46Y46*%
G04 Gerber Fmt 4.6, Leading zero omitted, Abs format (unit mm)*
G04 Created by KiCad (PCBNEW (6.0.2)) date 2022-03-27 18:45:12*
%MOMM*%
%LPD*%
G01*
G04 APERTURE LIST*
G04 Aperture macros list*
%AMRoundRect*
0 Rectangle with rounded corners*
0 $1 Rounding radius*
0 $2 $3 $4 $5 $6 $7 $8 $9 X,Y pos of 4 corners*
0 Add a 4 corners polygon primitive as box body*
4,1,4,$2,$3,$4,$5,$6,$7,$8,$9,$2,$3,0*
0 Add four circle primitives for the rounded corners*
1,1,$1+$1,$2,$3*
1,1,$1+$1,$4,$5*
1,1,$1+$1,$6,$7*
1,1,$1+$1,$8,$9*
0 Add four rect primitives between the rounded corners*
20,1,$1+$1,$2,$3,$4,$5,0*
20,1,$1+$1,$4,$5,$6,$7,0*
20,1,$1+$1,$6,$7,$8,$9,0*
20,1,$1+$1,$8,$9,$2,$3,0*%
G04 Aperture macros list end*
%TA.AperFunction,SMDPad,CuDef*%
%ADD10R,0.275000X0.250000*%
%TD*%
%TA.AperFunction,SMDPad,CuDef*%
%ADD11R,0.250000X0.275000*%
%TD*%
%TA.AperFunction,ComponentPad*%
%ADD12R,1.350000X1.350000*%
%TD*%
%TA.AperFunction,ComponentPad*%
%ADD13O,1.350000X1.350000*%
%TD*%
%TA.AperFunction,SMDPad,CuDef*%
%ADD14RoundRect,0.250000X-0.650000X0.412500X-0.650000X-0.412500X0.650000X-0.412500X0.650000X0.412500X0*%
%TD*%
%TA.AperFunction,SMDPad,CuDef*%
%ADD15RoundRect,0.250000X-0.475000X0.337500X-0.475000X-0.337500X0.475000X-0.337500X0.475000X0.337500X0*%
%TD*%
%TA.AperFunction,ComponentPad*%
%ADD16C,1.850000*%
%TD*%
%TA.AperFunction,SMDPad,CuDef*%
%ADD17RoundRect,0.250000X0.700000X-0.362500X0.700000X0.362500X-0.700000X0.362500X-0.700000X-0.362500X0*%
%TD*%
%TA.AperFunction,SMDPad,CuDef*%
%ADD18R,0.500000X0.400000*%
%TD*%
%TA.AperFunction,SMDPad,CuDef*%
%ADD19RoundRect,0.250000X-0.350000X-0.450000X0.350000X-0.450000X0.350000X0.450000X-0.350000X0.450000X0*%
%TD*%
%TA.AperFunction,SMDPad,CuDef*%
%ADD20RoundRect,0.250000X0.350000X0.450000X-0.350000X0.450000X-0.350000X-0.450000X0.350000X-0.450000X0*%
%TD*%
%TA.AperFunction,ComponentPad*%
%ADD21C,2.000000*%
%TD*%
%TA.AperFunction,SMDPad,CuDef*%
%ADD22R,0.900000X0.600000*%
%TD*%
%TA.AperFunction,SMDPad,CuDef*%
%ADD23R,1.750000X2.450000*%
%TD*%
%TA.AperFunction,SMDPad,CuDef*%
%ADD24R,0.800000X0.300000*%
%TD*%
%TA.AperFunction,SMDPad,CuDef*%
%ADD25R,1.500000X0.650000*%
%TD*%
%TA.AperFunction,SMDPad,CuDef*%
%ADD26R,1.300000X0.450000*%
%TD*%
%TA.AperFunction,SMDPad,CuDef*%
%ADD27RoundRect,0.250000X0.475000X-0.337500X0.475000X0.337500X-0.475000X0.337500X-0.475000X-0.337500X0*%
%TD*%
%TA.AperFunction,SMDPad,CuDef*%
%ADD28RoundRect,0.250000X0.650000X-0.412500X0.650000X0.412500X-0.650000X0.412500X-0.650000X-0.412500X0*%
%TD*%
%TA.AperFunction,SMDPad,CuDef*%
%ADD29RoundRect,0.250000X-0.337500X-0.475000X0.337500X-0.475000X0.337500X0.475000X-0.337500X0.475000X0*%
%TD*%
%TA.AperFunction,ViaPad*%
%ADD30C,0.460000*%
%TD*%
%TA.AperFunction,Conductor*%
%ADD31C,0.200000*%
%TD*%
%TA.AperFunction,Conductor*%
%ADD32C,0.250000*%
%TD*%
G04 APERTURE END LIST*
D10*
%TO.P,IC3,1,SCK_SCL*%
%TO.N,/SCL*%
X35560000Y-55638000D03*
%TO.P,IC3,2,CSN*%
%TO.N,/1.8V*%
X35560000Y-56138000D03*
%TO.P,IC3,3,DOUT_A6*%
%TO.N,Earth*%
X35560000Y-56638000D03*
%TO.P,IC3,4,DIN_SDA*%
%TO.N,/SDA*%
X35560000Y-57138000D03*
D11*
%TO.P,IC3,5,NC_1*%
%TO.N,unconnected-(IC3-Pad5)*%
X35048000Y-57151000D03*
%TO.P,IC3,6,GND*%
%TO.N,Earth*%
X34548000Y-57151000D03*
D10*
%TO.P,IC3,7,VPP*%
X34035000Y-57138000D03*
%TO.P,IC3,8,NC_2*%
%TO.N,unconnected-(IC3-Pad8)*%
X34035000Y-56638000D03*
%TO.P,IC3,9,VDD*%
%TO.N,/1.8V*%
X34035000Y-56138000D03*
%TO.P,IC3,10,NC_3*%
%TO.N,unconnected-(IC3-Pad10)*%
X34035000Y-55638000D03*
D11*
%TO.P,IC3,11,INTN_2*%
%TO.N,unconnected-(IC3-Pad11)*%
X34548000Y-55626000D03*
%TO.P,IC3,12,INTN_1*%
%TO.N,unconnected-(IC3-Pad12)*%
X35048000Y-55626000D03*
%TD*%
D12*
%TO.P,J3,1,Pin_1*%
%TO.N,/PROG*%
X36830000Y-72009000D03*
D13*
%TO.P,J3,2,Pin_2*%
%TO.N,/RX*%
X38830000Y-72009000D03*
%TO.P,J3,3,Pin_3*%
%TO.N,/TX*%
X40830000Y-72009000D03*
%TD*%
D14*
%TO.P,C10,1*%
%TO.N,/1.8V*%
X43561000Y-47459500D03*
%TO.P,C10,2*%
%TO.N,Earth*%
X43561000Y-50584500D03*
%TD*%
D15*
%TO.P,C3,2*%
%TO.N,Net-(C3-Pad2)*%
X35052000Y-41953000D03*
%TO.P,C3,1*%
%TO.N,Net-(C3-Pad1)*%
X35052000Y-39878000D03*
%TD*%
D16*
%TO.P,J1,MH1,MH1*%
%TO.N,Earth*%
X35668000Y-28067000D03*
%TO.P,J1,MH2,MH2*%
X42818000Y-28067000D03*
%TD*%
D12*
%TO.P,J2,1,Pin_1*%
%TO.N,/BAT*%
X40005000Y-44704000D03*
D13*
%TO.P,J2,2,Pin_2*%
%TO.N,Earth*%
X38005000Y-44704000D03*
%TD*%
D17*
%TO.P,L1,1,1*%
%TO.N,Net-(IC5-Pad5)*%
X41021000Y-50684500D03*
%TO.P,L1,2,2*%
%TO.N,/1.8V*%
X41021000Y-47359500D03*
%TD*%
D18*
%TO.P,U1,1,GND_1*%
%TO.N,Earth*%
X40398000Y-55159000D03*
%TO.P,U1,2,RESV_1*%
X40398000Y-55809000D03*
%TO.P,U1,3,SDA*%
%TO.N,/SDA*%
X40398000Y-56459000D03*
%TO.P,U1,4,SCL*%
%TO.N,/SCL*%
X40398000Y-57109000D03*
%TO.P,U1,5,RESV_2*%
%TO.N,Earth*%
X41898000Y-57109000D03*
%TO.P,U1,6,RESV_3*%
X41898000Y-56459000D03*
%TO.P,U1,7,GND_2*%
X41898000Y-55809000D03*
%TO.P,U1,8,VDD*%
%TO.N,/1.8V*%
X41898000Y-55159000D03*
%TD*%
D19*
%TO.P,R4,1*%
%TO.N,/SDA*%
X34814000Y-52578000D03*
%TO.P,R4,2*%
%TO.N,/1.8V*%
X36814000Y-52578000D03*
%TD*%
D20*
%TO.P,R3,1*%
%TO.N,/SCL*%
X40878000Y-52578000D03*
%TO.P,R3,2*%
%TO.N,/1.8V*%
X38878000Y-52578000D03*
%TD*%
D19*
%TO.P,R2,1*%
%TO.N,/BAT_DIV*%
X40021000Y-60071000D03*
%TO.P,R2,2*%
%TO.N,Earth*%
X42021000Y-60071000D03*
%TD*%
%TO.P,R1,1*%
%TO.N,/BAT*%
X36084000Y-60071000D03*
%TO.P,R1,2*%
%TO.N,/BAT_DIV*%
X38084000Y-60071000D03*
%TD*%
D21*
%TO.P,LS1,1,+*%
%TO.N,Net-(C2-Pad1)*%
X41148000Y-37338000D03*
%TO.P,LS1,2,-*%
%TO.N,Earth*%
X36148000Y-37338000D03*
%TD*%
D22*
%TO.P,IC5,1,VIN*%
%TO.N,/BAT*%
X36319000Y-49718000D03*
%TO.P,IC5,2,GND*%
%TO.N,Earth*%
X36319000Y-48768000D03*
%TO.P,IC5,3,CE*%
X36319000Y-47818000D03*
%TO.P,IC5,4,VOUT*%
%TO.N,/1.8V*%
X39119000Y-47818000D03*
%TO.P,IC5,5,LX*%
%TO.N,Net-(IC5-Pad5)*%
X39119000Y-49718000D03*
%TD*%
D23*
%TO.P,IC4,11,EP*%
%TO.N,Earth*%
X38989000Y-33782000D03*
D24*
%TO.P,IC4,10,EN*%
%TO.N,/5V*%
X37489000Y-32782000D03*
%TO.P,IC4,9,VBAT2*%
%TO.N,/BAT*%
X37489000Y-33282000D03*
%TO.P,IC4,8,VBAT1*%
X37489000Y-33782000D03*
%TO.P,IC4,7,VSS2*%
%TO.N,Earth*%
X37489000Y-34282000D03*
%TO.P,IC4,6,TIMER*%
%TO.N,Net-(C8-Pad1)*%
X37489000Y-34782000D03*
%TO.P,IC4,5,PROG*%
%TO.N,unconnected-(IC4-Pad5)*%
X40489000Y-34782000D03*
%TO.P,IC4,4,VSS1*%
%TO.N,Earth*%
X40489000Y-34282000D03*
%TO.P,IC4,3,VDD1*%
%TO.N,/5V*%
X40489000Y-33782000D03*
%TO.P,IC4,2,VSET*%
X40489000Y-33282000D03*
%TO.P,IC4,1,STAT1*%
%TO.N,Net-(IC4-Pad1)*%
X40489000Y-32782000D03*
%TD*%
D25*
%TO.P,IC2,1,VDD*%
%TO.N,/1.8V*%
X41689000Y-62103000D03*
%TO.P,IC2,2,PA4*%
%TO.N,/BUZZER*%
X41689000Y-63373000D03*
%TO.P,IC2,3,PA5*%
%TO.N,/BAT_DIV*%
X41689000Y-64643000D03*
%TO.P,IC2,4,PA6*%
%TO.N,Earth*%
X41689000Y-65913000D03*
%TO.P,IC2,5,PA7*%
X41689000Y-67183000D03*
%TO.P,IC2,6,PB3*%
%TO.N,/RX*%
X41689000Y-68453000D03*
%TO.P,IC2,7,PB2*%
%TO.N,/TX*%
X41689000Y-69723000D03*
%TO.P,IC2,8,PB1*%
%TO.N,/SDA*%
X36289000Y-69723000D03*
%TO.P,IC2,9,PB0*%
%TO.N,/SCL*%
X36289000Y-68453000D03*
%TO.P,IC2,10,PA0(~{RESET}/UPDI)*%
%TO.N,/PROG*%
X36289000Y-67183000D03*
%TO.P,IC2,11,PA1*%
%TO.N,Earth*%
X36289000Y-65913000D03*
%TO.P,IC2,12,PA2*%
X36289000Y-64643000D03*
%TO.P,IC2,13,PA3(EXTCLK)*%
X36289000Y-63373000D03*
%TO.P,IC2,14,GND*%
X36289000Y-62103000D03*
%TD*%
D26*
%TO.P,IC1,1,SENSE*%
%TO.N,Net-(C2-Pad1)*%
X41493000Y-39411000D03*
%TO.P,IC1,2,CE*%
%TO.N,/BUZZER*%
X41493000Y-40061000D03*
%TO.P,IC1,3,VIN*%
%TO.N,/BAT*%
X41493000Y-40711000D03*
%TO.P,IC1,4,GND*%
%TO.N,Earth*%
X41493000Y-41361000D03*
%TO.P,IC1,5,PGND*%
X36993000Y-41361000D03*
%TO.P,IC1,6,C1\uFF0D*%
%TO.N,Net-(C3-Pad2)*%
X36993000Y-40711000D03*
%TO.P,IC1,7,C1\uFF0B*%
%TO.N,Net-(C3-Pad1)*%
X36993000Y-40061000D03*
%TO.P,IC1,8,VOUT*%
%TO.N,Net-(C2-Pad1)*%
X36993000Y-39411000D03*
%TD*%
D15*
%TO.P,C9,1*%
%TO.N,/BAT*%
X33655000Y-36046500D03*
%TO.P,C9,2*%
%TO.N,Earth*%
X33655000Y-38121500D03*
%TD*%
D27*
%TO.P,C8,2*%
%TO.N,Earth*%
X35814000Y-32617500D03*
%TO.P,C8,1*%
%TO.N,Net-(C8-Pad1)*%
X35814000Y-34692500D03*
%TD*%
D28*
%TO.P,C7,2*%
%TO.N,Earth*%
X34163000Y-47205500D03*
%TO.P,C7,1*%
%TO.N,/BAT*%
X34163000Y-50330500D03*
%TD*%
D15*
%TO.P,C6,1*%
%TO.N,/1.8V*%
X43942000Y-55223500D03*
%TO.P,C6,2*%
%TO.N,Earth*%
X43942000Y-57298500D03*
%TD*%
%TO.P,C5,1*%
%TO.N,/5V*%
X43053000Y-32744500D03*
%TO.P,C5,2*%
%TO.N,Earth*%
X43053000Y-34819500D03*
%TD*%
%TO.P,C4,1*%
%TO.N,/1.8V*%
X37846000Y-55223500D03*
%TO.P,C4,2*%
%TO.N,Earth*%
X37846000Y-57298500D03*
%TD*%
%TO.P,C2,1*%
%TO.N,Net-(C2-Pad1)*%
X43434000Y-37824500D03*
%TO.P,C2,2*%
%TO.N,Earth*%
X43434000Y-39899500D03*
%TD*%
D29*
%TO.P,C1,1*%
%TO.N,Earth*%
X42375000Y-43307000D03*
%TO.P,C1,2*%
%TO.N,/BAT*%
X44450000Y-43307000D03*
%TD*%
D30*
%TO.N,Earth*%
X39497000Y-55753000D03*
X41656000Y-58039000D03*
X43561000Y-38989000D03*
%TO.N,/BUZZER*%
X39624000Y-40132000D03*
X43942000Y-63373000D03*
%TO.N,/SDA*%
X39624000Y-57150000D03*
%TO.N,/SCL*%
X38354000Y-58941500D03*
%TO.N,/SDA*%
X39243000Y-61722000D03*
%TO.N,/SCL*%
X38354000Y-61595000D03*
X35560000Y-54483000D03*
X41148000Y-53848000D03*
X41148000Y-55372000D03*
%TO.N,/BAT*%
X36068000Y-58801000D03*
X33147000Y-58801000D03*
X37719000Y-49657000D03*
%TO.N,Net-(IC4-Pad1)*%
X44323000Y-31623000D03*
%TO.N,/5V*%
X37465000Y-31877000D03*
X41783000Y-33528000D03*
%TD*%
D31*
%TO.N,/SDA*%
X36722520Y-58185520D02*
X38588480Y-58185520D01*
X38588480Y-58185520D02*
X39624000Y-57150000D01*
X36449000Y-57912000D02*
X36722520Y-58185520D01*
X35616011Y-57912000D02*
X36449000Y-57912000D01*
%TO.N,/SCL*%
X40386000Y-57121000D02*
X40398000Y-57109000D01*
X40386000Y-57912000D02*
X40386000Y-57121000D01*
X39356500Y-58941500D02*
X40386000Y-57912000D01*
X38354000Y-58941500D02*
X39356500Y-58941500D01*
%TO.N,/1.8V*%
X36830000Y-56134000D02*
X34039000Y-56134000D01*
X39751000Y-54483000D02*
X38756500Y-55477500D01*
X38756500Y-55477500D02*
X37486500Y-55477500D01*
X37486500Y-55477500D02*
X36830000Y-56134000D01*
%TO.N,/SDA*%
X33292520Y-54099480D02*
X34814000Y-52578000D01*
X35616011Y-57912000D02*
X33947478Y-57912000D01*
X33947478Y-57912000D02*
X33292520Y-57257042D01*
X33292520Y-57257042D02*
X33292520Y-54099480D01*
%TO.N,/1.8V*%
X34039000Y-56134000D02*
X34035000Y-56138000D01*
X45085000Y-55118000D02*
X44047500Y-55118000D01*
X44047500Y-55118000D02*
X43942000Y-55223500D01*
X45085000Y-55118000D02*
X45085000Y-55753000D01*
X45085000Y-54229000D02*
X45085000Y-55118000D01*
X43877500Y-55159000D02*
X43942000Y-55223500D01*
X41898000Y-55159000D02*
X43877500Y-55159000D01*
X43307000Y-62103000D02*
X41689000Y-62103000D01*
X45085000Y-60325000D02*
X43307000Y-62103000D01*
X45085000Y-55753000D02*
X45085000Y-60325000D01*
X42291000Y-51435000D02*
X45085000Y-54229000D01*
X42291000Y-48729500D02*
X42291000Y-51435000D01*
X43561000Y-47459500D02*
X42291000Y-48729500D01*
%TO.N,/SDA*%
X35560000Y-57855989D02*
X35560000Y-57138000D01*
X35616011Y-57912000D02*
X35560000Y-57855989D01*
%TO.N,/SCL*%
X35560000Y-54483000D02*
X35560000Y-55638000D01*
%TO.N,/BAT*%
X32893000Y-58547000D02*
X33147000Y-58801000D01*
X32893000Y-51600500D02*
X32893000Y-58547000D01*
X34163000Y-50330500D02*
X32893000Y-51600500D01*
X44196000Y-43307000D02*
X44196000Y-41529000D01*
X44196000Y-41529000D02*
X44831000Y-41529000D01*
X43942000Y-41529000D02*
X44196000Y-41529000D01*
X44196000Y-44323000D02*
X44196000Y-43307000D01*
X43815000Y-44704000D02*
X44196000Y-44323000D01*
X40005000Y-44704000D02*
X43815000Y-44704000D01*
%TO.N,Net-(C3-Pad2)*%
X36294000Y-40711000D02*
X36993000Y-40711000D01*
X35052000Y-41953000D02*
X36294000Y-40711000D01*
%TO.N,Net-(C3-Pad1)*%
X35960000Y-39878000D02*
X35052000Y-39878000D01*
X36143000Y-40061000D02*
X35960000Y-39878000D01*
X36993000Y-40061000D02*
X36143000Y-40061000D01*
%TO.N,/BAT*%
X43161000Y-41529000D02*
X43942000Y-41529000D01*
X43942000Y-43582500D02*
X43942000Y-43053000D01*
D32*
%TO.N,Net-(IC4-Pad1)*%
X40489000Y-32028000D02*
X40489000Y-32782000D01*
X44323000Y-31623000D02*
X40894000Y-31623000D01*
X40894000Y-31623000D02*
X40489000Y-32028000D01*
D31*
%TO.N,/RX*%
X41264000Y-68453000D02*
X41689000Y-68453000D01*
X38830000Y-70887000D02*
X41264000Y-68453000D01*
X38830000Y-72009000D02*
X38830000Y-70887000D01*
%TO.N,/TX*%
X41689000Y-71150000D02*
X41689000Y-69723000D01*
X40830000Y-72009000D02*
X41689000Y-71150000D01*
%TO.N,/PROG*%
X35052000Y-67183000D02*
X36289000Y-67183000D01*
X34671000Y-67564000D02*
X35052000Y-67183000D01*
X34671000Y-70993000D02*
X34671000Y-67564000D01*
X35687000Y-72009000D02*
X34671000Y-70993000D01*
X36830000Y-72009000D02*
X35687000Y-72009000D01*
%TO.N,/BAT*%
X33782000Y-35809493D02*
X34417000Y-35174493D01*
X33782000Y-36046500D02*
X33782000Y-35809493D01*
%TO.N,/BUZZER*%
X39624000Y-40132000D02*
X41422000Y-40132000D01*
X41422000Y-40132000D02*
X41493000Y-40061000D01*
X41689000Y-63373000D02*
X43942000Y-63373000D01*
%TO.N,/SDA*%
X39624000Y-57150000D02*
X39624000Y-56530000D01*
X39624000Y-56530000D02*
X39553000Y-56459000D01*
X40398000Y-56459000D02*
X39553000Y-56459000D01*
X39243000Y-67194000D02*
X39243000Y-61722000D01*
X36714000Y-69723000D02*
X39243000Y-67194000D01*
X36289000Y-69723000D02*
X36714000Y-69723000D01*
%TO.N,/SCL*%
X38354000Y-66813000D02*
X36714000Y-68453000D01*
X38354000Y-61595000D02*
X38354000Y-66813000D01*
X36714000Y-68453000D02*
X36289000Y-68453000D01*
X41148000Y-53848000D02*
X41148000Y-52848000D01*
X41148000Y-52848000D02*
X40878000Y-52578000D01*
X41148000Y-56809000D02*
X41148000Y-55372000D01*
X40848000Y-57109000D02*
X41148000Y-56809000D01*
X40398000Y-57109000D02*
X40848000Y-57109000D01*
%TO.N,/1.8V*%
X38878000Y-53610000D02*
X39751000Y-54483000D01*
X38878000Y-52578000D02*
X38878000Y-53610000D01*
X36814000Y-52578000D02*
X38878000Y-52578000D01*
X39751000Y-54483000D02*
X41222000Y-54483000D01*
X41222000Y-54483000D02*
X41898000Y-55159000D01*
X43369500Y-55159000D02*
X43434000Y-55223500D01*
%TO.N,/BAT*%
X36084000Y-58817000D02*
X36068000Y-58801000D01*
X36084000Y-60071000D02*
X36084000Y-58817000D01*
%TO.N,/1.8V*%
X43461000Y-47359500D02*
X43561000Y-47459500D01*
X41021000Y-47359500D02*
X43461000Y-47359500D01*
%TO.N,/BAT_DIV*%
X41264000Y-64643000D02*
X41689000Y-64643000D01*
X40021000Y-63400000D02*
X41264000Y-64643000D01*
X40021000Y-60071000D02*
X40021000Y-63400000D01*
X38084000Y-60071000D02*
X40021000Y-60071000D01*
%TO.N,Earth*%
X37970000Y-44739000D02*
X38005000Y-44704000D01*
%TO.N,Net-(C8-Pad1)*%
X35649500Y-34782000D02*
X35560000Y-34692500D01*
X37489000Y-34782000D02*
X35649500Y-34782000D01*
D32*
%TO.N,/5V*%
X42269500Y-33528000D02*
X43053000Y-32744500D01*
X41783000Y-33528000D02*
X42269500Y-33528000D01*
D31*
%TO.N,/BAT*%
X42343000Y-40711000D02*
X43161000Y-41529000D01*
X41493000Y-40711000D02*
X42343000Y-40711000D01*
%TO.N,Net-(C2-Pad1)*%
X41847500Y-39411000D02*
X43434000Y-37824500D01*
X41493000Y-39411000D02*
X41847500Y-39411000D01*
X42947500Y-37338000D02*
X43434000Y-37824500D01*
X41148000Y-37338000D02*
X42947500Y-37338000D01*
D32*
%TO.N,/BAT*%
X44831000Y-36830000D02*
X43815000Y-35814000D01*
X43815000Y-35814000D02*
X36449000Y-35814000D01*
X44831000Y-41529000D02*
X44831000Y-36830000D01*
D31*
%TO.N,Net-(C2-Pad1)*%
X41493000Y-37683000D02*
X41148000Y-37338000D01*
X41493000Y-39411000D02*
X41493000Y-37683000D01*
X36993000Y-39411000D02*
X41493000Y-39411000D01*
D32*
%TO.N,/BAT*%
X40513000Y-44704000D02*
X40005000Y-44704000D01*
D31*
%TO.N,Net-(IC5-Pad5)*%
X40054500Y-49718000D02*
X41021000Y-50684500D01*
X39119000Y-49718000D02*
X40054500Y-49718000D01*
%TO.N,/1.8V*%
X40562500Y-47818000D02*
X41021000Y-47359500D01*
X39119000Y-47818000D02*
X40562500Y-47818000D01*
%TO.N,Earth*%
X34775500Y-47818000D02*
X34163000Y-47205500D01*
X36319000Y-47818000D02*
X34775500Y-47818000D01*
X36319000Y-47818000D02*
X36319000Y-48768000D01*
D32*
%TO.N,/BAT*%
X34775500Y-49718000D02*
X34163000Y-50330500D01*
X36319000Y-49718000D02*
X34775500Y-49718000D01*
X36380000Y-49657000D02*
X36319000Y-49718000D01*
X37719000Y-49657000D02*
X36380000Y-49657000D01*
X34417000Y-34210507D02*
X34417000Y-35174493D01*
X34417000Y-35174493D02*
X35032435Y-35789928D01*
X36788458Y-33780480D02*
X34847027Y-33780480D01*
X34847027Y-33780480D02*
X34417000Y-34210507D01*
X35032435Y-35789928D02*
X36473072Y-35789928D01*
X36789978Y-33782000D02*
X36788458Y-33780480D01*
X37489000Y-33782000D02*
X37489000Y-33282000D01*
X37489000Y-33782000D02*
X36789978Y-33782000D01*
%TO.N,/5V*%
X37489000Y-31901000D02*
X37465000Y-31877000D01*
X37489000Y-32782000D02*
X37489000Y-31901000D01*
X40489000Y-33782000D02*
X40489000Y-33504000D01*
X40513000Y-33528000D02*
X40489000Y-33504000D01*
X40489000Y-33504000D02*
X40489000Y-33282000D01*
X41783000Y-33528000D02*
X40513000Y-33528000D01*
%TD*%
%TA.AperFunction,Conductor*%
%TO.N,Earth*%
G36*
X42998194Y-55477806D02*
G01*
X43016500Y-55522000D01*
X43016500Y-55614834D01*
X43019481Y-55646369D01*
X43029675Y-55675398D01*
X43062749Y-55769578D01*
X43064366Y-55774184D01*
X43144850Y-55883150D01*
X43253816Y-55963634D01*
X43258224Y-55965182D01*
X43258226Y-55965183D01*
X43327824Y-55989623D01*
X43381631Y-56008519D01*
X43398058Y-56010072D01*
X43411702Y-56011362D01*
X43411710Y-56011362D01*
X43413166Y-56011500D01*
X44470834Y-56011500D01*
X44472290Y-56011362D01*
X44472298Y-56011362D01*
X44485942Y-56010072D01*
X44502369Y-56008519D01*
X44556176Y-55989623D01*
X44625774Y-55965183D01*
X44625776Y-55965182D01*
X44630184Y-55963634D01*
X44634352Y-55960556D01*
X44684867Y-55923244D01*
X44731292Y-55911712D01*
X44772273Y-55936384D01*
X44784500Y-55973517D01*
X44784500Y-60174640D01*
X44766194Y-60218834D01*
X43200835Y-61784194D01*
X43156641Y-61802500D01*
X42699594Y-61802500D01*
X42655400Y-61784194D01*
X42638295Y-61752193D01*
X42629068Y-61705806D01*
X42629068Y-61705805D01*
X42627867Y-61699769D01*
X42583552Y-61633448D01*
X42566680Y-61622174D01*
X42522347Y-61592551D01*
X42522345Y-61592550D01*
X42517231Y-61589133D01*
X42511197Y-61587933D01*
X42511195Y-61587932D01*
X42461761Y-61578099D01*
X42461758Y-61578099D01*
X42458748Y-61577500D01*
X40919252Y-61577500D01*
X40916242Y-61578099D01*
X40916239Y-61578099D01*
X40866805Y-61587932D01*
X40866803Y-61587933D01*
X40860769Y-61589133D01*
X40855655Y-61592550D01*
X40855653Y-61592551D01*
X40811320Y-61622174D01*
X40794448Y-61633448D01*
X40750133Y-61699769D01*
X40748933Y-61705803D01*
X40748932Y-61705805D01*
X40743499Y-61733120D01*
X40738500Y-61758252D01*
X40738500Y-62447748D01*
X40750133Y-62506231D01*
X40794448Y-62572552D01*
X40799562Y-62575969D01*
X40855653Y-62613449D01*
X40855655Y-62613450D01*
X40860769Y-62616867D01*
X40866803Y-62618067D01*
X40866805Y-62618068D01*
X40916239Y-62627901D01*
X40916242Y-62627901D01*
X40919252Y-62628500D01*
X42458748Y-62628500D01*
X42461758Y-62627901D01*
X42461761Y-62627901D01*
X42511195Y-62618068D01*
X42511197Y-62618067D01*
X42517231Y-62616867D01*
X42522345Y-62613450D01*
X42522347Y-62613449D01*
X42578438Y-62575969D01*
X42583552Y-62572552D01*
X42627867Y-62506231D01*
X42638295Y-62453807D01*
X42664871Y-62414033D01*
X42699594Y-62403500D01*
X43251948Y-62403500D01*
X43258036Y-62403947D01*
X43262342Y-62405425D01*
X43312454Y-62403544D01*
X43314798Y-62403500D01*
X43334948Y-62403500D01*
X43337775Y-62402974D01*
X43340642Y-62402709D01*
X43340650Y-62402800D01*
X43344912Y-62402326D01*
X43346725Y-62402258D01*
X43374208Y-62401226D01*
X43388518Y-62395078D01*
X43401746Y-62391060D01*
X43411378Y-62389266D01*
X43417053Y-62388209D01*
X43442016Y-62372822D01*
X43450117Y-62368613D01*
X43477063Y-62357036D01*
X43481949Y-62353022D01*
X43489331Y-62345640D01*
X43500730Y-62336630D01*
X43507433Y-62332498D01*
X43507434Y-62332497D01*
X43512348Y-62329468D01*
X43531512Y-62304266D01*
X43537068Y-62297903D01*
X45105306Y-60729665D01*
X45149500Y-60711359D01*
X45193694Y-60729665D01*
X45212000Y-60773859D01*
X45212000Y-73343500D01*
X45193694Y-73387694D01*
X45149500Y-73406000D01*
X32701500Y-73406000D01*
X32657306Y-73387694D01*
X32639000Y-73343500D01*
X32639000Y-60574834D01*
X35283500Y-60574834D01*
X35286481Y-60606369D01*
X35287743Y-60609962D01*
X35323351Y-60711359D01*
X35331366Y-60734184D01*
X35411850Y-60843150D01*
X35520816Y-60923634D01*
X35525224Y-60925182D01*
X35525226Y-60925183D01*
X35594824Y-60949623D01*
X35648631Y-60968519D01*
X35665058Y-60970072D01*
X35678702Y-60971362D01*
X35678710Y-60971362D01*
X35680166Y-60971500D01*
X36487834Y-60971500D01*
X36489290Y-60971362D01*
X36489298Y-60971362D01*
X36502942Y-60970072D01*
X36519369Y-60968519D01*
X36573176Y-60949623D01*
X36642774Y-60925183D01*
X36642776Y-60925182D01*
X36647184Y-60923634D01*
X36756150Y-60843150D01*
X36836634Y-60734184D01*
X36844650Y-60711359D01*
X36880257Y-60609962D01*
X36881519Y-60606369D01*
X36884500Y-60574834D01*
X36884500Y-59567166D01*
X36881519Y-59535631D01*
X36836634Y-59407816D01*
X36756150Y-59298850D01*
X36647184Y-59218366D01*
X36642776Y-59216818D01*
X36642774Y-59216817D01*
X36570743Y-59191522D01*
X36519369Y-59173481D01*
X36502942Y-59171928D01*
X36489298Y-59170638D01*
X36489290Y-59170638D01*
X36487834Y-59170500D01*
X36482109Y-59170500D01*
X36437915Y-59152194D01*
X36419609Y-59108000D01*
X36435771Y-59066059D01*
X36442335Y-59058807D01*
X36445322Y-59055507D01*
X36501588Y-58939375D01*
X36522997Y-58812120D01*
X36523133Y-58801000D01*
X36504839Y-58673259D01*
X36470861Y-58598528D01*
X36453272Y-58559843D01*
X36453271Y-58559841D01*
X36451428Y-58555788D01*
X36367193Y-58458028D01*
X36258906Y-58387841D01*
X36254641Y-58386566D01*
X36254638Y-58386564D01*
X36139541Y-58352142D01*
X36139538Y-58352142D01*
X36135273Y-58350866D01*
X36071721Y-58350478D01*
X36010684Y-58350105D01*
X36010683Y-58350105D01*
X36006231Y-58350078D01*
X35882155Y-58385539D01*
X35773019Y-58454399D01*
X35770076Y-58457731D01*
X35770074Y-58457733D01*
X35690543Y-58547785D01*
X35687596Y-58551122D01*
X35632754Y-58667932D01*
X35612901Y-58795440D01*
X35629633Y-58923394D01*
X35631426Y-58927469D01*
X35679401Y-59036500D01*
X35681605Y-59041510D01*
X35684469Y-59044917D01*
X35705263Y-59069655D01*
X35719687Y-59115264D01*
X35697636Y-59157714D01*
X35663303Y-59172094D01*
X35661815Y-59172235D01*
X35648631Y-59173481D01*
X35597257Y-59191522D01*
X35525226Y-59216817D01*
X35525224Y-59216818D01*
X35520816Y-59218366D01*
X35411850Y-59298850D01*
X35331366Y-59407816D01*
X35286481Y-59535631D01*
X35283500Y-59567166D01*
X35283500Y-60574834D01*
X32639000Y-60574834D01*
X32639000Y-59062368D01*
X32657306Y-59018174D01*
X32701500Y-58999868D01*
X32745694Y-59018174D01*
X32756336Y-59033732D01*
X32756459Y-59033655D01*
X32758230Y-59036500D01*
X32758708Y-59037199D01*
X32760605Y-59041510D01*
X32843639Y-59140291D01*
X32847344Y-59142757D01*
X32847346Y-59142759D01*
X32889229Y-59170638D01*
X32951060Y-59211796D01*
X33074233Y-59250278D01*
X33078683Y-59250360D01*
X33078686Y-59250360D01*
X33198809Y-59252562D01*
X33198812Y-59252562D01*
X33203255Y-59252643D01*
X33207546Y-59251473D01*
X33207547Y-59251473D01*
X33270180Y-59234397D01*
X33327755Y-59218700D01*
X33437724Y-59151179D01*
X33524322Y-59055507D01*
X33580588Y-58939375D01*
X33601997Y-58812120D01*
X33602133Y-58801000D01*
X33583839Y-58673259D01*
X33549861Y-58598528D01*
X33532272Y-58559843D01*
X33532271Y-58559841D01*
X33530428Y-58555788D01*
X33446193Y-58458028D01*
X33337906Y-58387841D01*
X33238089Y-58357989D01*
X33200996Y-58327789D01*
X33193500Y-58298111D01*
X33193500Y-57733881D01*
X33211806Y-57689687D01*
X33256000Y-57671381D01*
X33300194Y-57689687D01*
X33696062Y-58085555D01*
X33700054Y-58090180D01*
X33702053Y-58094269D01*
X33706283Y-58098193D01*
X33738825Y-58128380D01*
X33740514Y-58130007D01*
X33754754Y-58144247D01*
X33757129Y-58145876D01*
X33759347Y-58147719D01*
X33759288Y-58147790D01*
X33762635Y-58150466D01*
X33784124Y-58170401D01*
X33798589Y-58176172D01*
X33810781Y-58182682D01*
X33818865Y-58188228D01*
X33818868Y-58188229D01*
X33823624Y-58191492D01*
X33848305Y-58197349D01*
X33852148Y-58198261D01*
X33860865Y-58201017D01*
X33888100Y-58211883D01*
X33892491Y-58212314D01*
X33892493Y-58212314D01*
X33892633Y-58212327D01*
X33894393Y-58212500D01*
X33904835Y-58212500D01*
X33919266Y-58214189D01*
X33932544Y-58217340D01*
X33963913Y-58213071D01*
X33972340Y-58212500D01*
X35573368Y-58212500D01*
X35587798Y-58214189D01*
X35601077Y-58217340D01*
X35632446Y-58213071D01*
X35640873Y-58212500D01*
X36298641Y-58212500D01*
X36342835Y-58230806D01*
X36471104Y-58359075D01*
X36475096Y-58363700D01*
X36477095Y-58367789D01*
X36481325Y-58371713D01*
X36513867Y-58401900D01*
X36515556Y-58403527D01*
X36529797Y-58417768D01*
X36532168Y-58419395D01*
X36534387Y-58421239D01*
X36534328Y-58421309D01*
X36537676Y-58423986D01*
X36559166Y-58443921D01*
X36564524Y-58446059D01*
X36564526Y-58446060D01*
X36573628Y-58449691D01*
X36585818Y-58456199D01*
X36598666Y-58465013D01*
X36622753Y-58470729D01*
X36627190Y-58471782D01*
X36635919Y-58474542D01*
X36663142Y-58485403D01*
X36669435Y-58486020D01*
X36679877Y-58486020D01*
X36694307Y-58487709D01*
X36707586Y-58490860D01*
X36738955Y-58486591D01*
X36747382Y-58486020D01*
X38018055Y-58486020D01*
X38062249Y-58504326D01*
X38080555Y-58548520D01*
X38062249Y-58592714D01*
X38061746Y-58593179D01*
X38059019Y-58594899D01*
X37973596Y-58691622D01*
X37918754Y-58808432D01*
X37898901Y-58935940D01*
X37915633Y-59063894D01*
X37917426Y-59067970D01*
X37917427Y-59067972D01*
X37923964Y-59082829D01*
X37925007Y-59130653D01*
X37891928Y-59165207D01*
X37866757Y-59170500D01*
X37680166Y-59170500D01*
X37678710Y-59170638D01*
X37678702Y-59170638D01*
X37665058Y-59171928D01*
X37648631Y-59173481D01*
X37597257Y-59191522D01*
X37525226Y-59216817D01*
X37525224Y-59216818D01*
X37520816Y-59218366D01*
X37411850Y-59298850D01*
X37331366Y-59407816D01*
X37286481Y-59535631D01*
X37283500Y-59567166D01*
X37283500Y-60574834D01*
X37286481Y-60606369D01*
X37287743Y-60609962D01*
X37323351Y-60711359D01*
X37331366Y-60734184D01*
X37411850Y-60843150D01*
X37520816Y-60923634D01*
X37525224Y-60925182D01*
X37525226Y-60925183D01*
X37594824Y-60949623D01*
X37648631Y-60968519D01*
X37665058Y-60970072D01*
X37678702Y-60971362D01*
X37678710Y-60971362D01*
X37680166Y-60971500D01*
X38487834Y-60971500D01*
X38489290Y-60971362D01*
X38489298Y-60971362D01*
X38502942Y-60970072D01*
X38519369Y-60968519D01*
X38573176Y-60949623D01*
X38642774Y-60925183D01*
X38642776Y-60925182D01*
X38647184Y-60923634D01*
X38756150Y-60843150D01*
X38836634Y-60734184D01*
X38844650Y-60711359D01*
X38880257Y-60609962D01*
X38881519Y-60606369D01*
X38884500Y-60574834D01*
X38884500Y-60434000D01*
X38902806Y-60389806D01*
X38947000Y-60371500D01*
X39158000Y-60371500D01*
X39202194Y-60389806D01*
X39220500Y-60434000D01*
X39220500Y-60574834D01*
X39223481Y-60606369D01*
X39224743Y-60609962D01*
X39260351Y-60711359D01*
X39268366Y-60734184D01*
X39348850Y-60843150D01*
X39457816Y-60923634D01*
X39462224Y-60925182D01*
X39462226Y-60925183D01*
X39531824Y-60949623D01*
X39585631Y-60968519D01*
X39602058Y-60970072D01*
X39615702Y-60971362D01*
X39615710Y-60971362D01*
X39617166Y-60971500D01*
X39658000Y-60971500D01*
X39702194Y-60989806D01*
X39720500Y-61034000D01*
X39720500Y-61417682D01*
X39702194Y-61461876D01*
X39658000Y-61480182D01*
X39610652Y-61458479D01*
X39545101Y-61382403D01*
X39542193Y-61379028D01*
X39433906Y-61308841D01*
X39429641Y-61307566D01*
X39429638Y-61307564D01*
X39314541Y-61273142D01*
X39314538Y-61273142D01*
X39310273Y-61271866D01*
X39246721Y-61271478D01*
X39185684Y-61271105D01*
X39185683Y-61271105D01*
X39181231Y-61271078D01*
X39057155Y-61306539D01*
X38948019Y-61375399D01*
X38945076Y-61378731D01*
X38945074Y-61378733D01*
X38880516Y-61451831D01*
X38837540Y-61472838D01*
X38792297Y-61457304D01*
X38776775Y-61436327D01*
X38739272Y-61353843D01*
X38739271Y-61353841D01*
X38737428Y-61349788D01*
X38653193Y-61252028D01*
X38544906Y-61181841D01*
X38540641Y-61180566D01*
X38540638Y-61180564D01*
X38425541Y-61146142D01*
X38425538Y-61146142D01*
X38421273Y-61144866D01*
X38357721Y-61144478D01*
X38296684Y-61144105D01*
X38296683Y-61144105D01*
X38292231Y-61144078D01*
X38168155Y-61179539D01*
X38059019Y-61248399D01*
X38056076Y-61251731D01*
X38056074Y-61251733D01*
X38007671Y-61306539D01*
X37973596Y-61345122D01*
X37918754Y-61461932D01*
X37898901Y-61589440D01*
X37915633Y-61717394D01*
X37917426Y-61721469D01*
X37945026Y-61784194D01*
X37967605Y-61835510D01*
X37970469Y-61838917D01*
X38038843Y-61920258D01*
X38053500Y-61960474D01*
X38053500Y-66662641D01*
X38035194Y-66706835D01*
X37346194Y-67395835D01*
X37302000Y-67414141D01*
X37257806Y-67395835D01*
X37239500Y-67351641D01*
X37239500Y-66838252D01*
X37231208Y-66796566D01*
X37229068Y-66785805D01*
X37229067Y-66785803D01*
X37227867Y-66779769D01*
X37183552Y-66713448D01*
X37146259Y-66688529D01*
X37122347Y-66672551D01*
X37122345Y-66672550D01*
X37117231Y-66669133D01*
X37111197Y-66667933D01*
X37111195Y-66667932D01*
X37061761Y-66658099D01*
X37061758Y-66658099D01*
X37058748Y-66657500D01*
X35519252Y-66657500D01*
X35516242Y-66658099D01*
X35516239Y-66658099D01*
X35466805Y-66667932D01*
X35466803Y-66667933D01*
X35460769Y-66669133D01*
X35455655Y-66672550D01*
X35455653Y-66672551D01*
X35431741Y-66688529D01*
X35394448Y-66713448D01*
X35350133Y-66779769D01*
X35348932Y-66785805D01*
X35348932Y-66785806D01*
X35339705Y-66832193D01*
X35313129Y-66871967D01*
X35278406Y-66882500D01*
X35107052Y-66882500D01*
X35100964Y-66882053D01*
X35096658Y-66880575D01*
X35047359Y-66882425D01*
X35046545Y-66882456D01*
X35044201Y-66882500D01*
X35024052Y-66882500D01*
X35021225Y-66883026D01*
X35018358Y-66883291D01*
X35018350Y-66883200D01*
X35014088Y-66883674D01*
X34990559Y-66884557D01*
X34990557Y-66884558D01*
X34984791Y-66884774D01*
X34979488Y-66887053D01*
X34979486Y-66887053D01*
X34970482Y-66890921D01*
X34957256Y-66894939D01*
X34947623Y-66896733D01*
X34947618Y-66896735D01*
X34941947Y-66897791D01*
X34916984Y-66913178D01*
X34908883Y-66917387D01*
X34881937Y-66928964D01*
X34877051Y-66932978D01*
X34869669Y-66940360D01*
X34858270Y-66949370D01*
X34857748Y-66949692D01*
X34846652Y-66956532D01*
X34831579Y-66976354D01*
X34827488Y-66981734D01*
X34821932Y-66988097D01*
X34497445Y-67312584D01*
X34492820Y-67316576D01*
X34488731Y-67318575D01*
X34484807Y-67322805D01*
X34454620Y-67355347D01*
X34452993Y-67357036D01*
X34438752Y-67371277D01*
X34437125Y-67373648D01*
X34435281Y-67375867D01*
X34435211Y-67375808D01*
X34432534Y-67379156D01*
X34412599Y-67400646D01*
X34407215Y-67414141D01*
X34406829Y-67415109D01*
X34400318Y-67427303D01*
X34394772Y-67435387D01*
X34394771Y-67435390D01*
X34391508Y-67440146D01*
X34390176Y-67445761D01*
X34384739Y-67468670D01*
X34381983Y-67477387D01*
X34371117Y-67504622D01*
X34370500Y-67510915D01*
X34370500Y-67521357D01*
X34368811Y-67535788D01*
X34365660Y-67549066D01*
X34366438Y-67554782D01*
X34369929Y-67580434D01*
X34370500Y-67588862D01*
X34370500Y-70937948D01*
X34370053Y-70944036D01*
X34368575Y-70948342D01*
X34370430Y-70997769D01*
X34370456Y-70998454D01*
X34370500Y-71000798D01*
X34370500Y-71020948D01*
X34371026Y-71023775D01*
X34371291Y-71026642D01*
X34371200Y-71026650D01*
X34371674Y-71030912D01*
X34372774Y-71060208D01*
X34375051Y-71065507D01*
X34378922Y-71074518D01*
X34382940Y-71087746D01*
X34385791Y-71103053D01*
X34401178Y-71128016D01*
X34405387Y-71136117D01*
X34416964Y-71163063D01*
X34420978Y-71167949D01*
X34428360Y-71175331D01*
X34437370Y-71186730D01*
X34441015Y-71192643D01*
X34444532Y-71198348D01*
X34450762Y-71203085D01*
X34469734Y-71217512D01*
X34476097Y-71223068D01*
X35435584Y-72182555D01*
X35439576Y-72187180D01*
X35441575Y-72191269D01*
X35445805Y-72195193D01*
X35478347Y-72225380D01*
X35480036Y-72227007D01*
X35494277Y-72241248D01*
X35496648Y-72242875D01*
X35498867Y-72244719D01*
X35498808Y-72244789D01*
X35502156Y-72247466D01*
X35523646Y-72267401D01*
X35538111Y-72273172D01*
X35550303Y-72279682D01*
X35558387Y-72285228D01*
X35558390Y-72285229D01*
X35563146Y-72288492D01*
X35587827Y-72294349D01*
X35591670Y-72295261D01*
X35600387Y-72298017D01*
X35627622Y-72308883D01*
X35632013Y-72309314D01*
X35632015Y-72309314D01*
X35632155Y-72309327D01*
X35633915Y-72309500D01*
X35644357Y-72309500D01*
X35658788Y-72311189D01*
X35672066Y-72314340D01*
X35703435Y-72310071D01*
X35711862Y-72309500D01*
X35892000Y-72309500D01*
X35936194Y-72327806D01*
X35954500Y-72372000D01*
X35954500Y-72703748D01*
X35966133Y-72762231D01*
X35969550Y-72767345D01*
X35969551Y-72767347D01*
X35999174Y-72811680D01*
X36010448Y-72828552D01*
X36015562Y-72831969D01*
X36071653Y-72869449D01*
X36071655Y-72869450D01*
X36076769Y-72872867D01*
X36082803Y-72874067D01*
X36082805Y-72874068D01*
X36132239Y-72883901D01*
X36132242Y-72883901D01*
X36135252Y-72884500D01*
X37524748Y-72884500D01*
X37527758Y-72883901D01*
X37527761Y-72883901D01*
X37577195Y-72874068D01*
X37577197Y-72874067D01*
X37583231Y-72872867D01*
X37588345Y-72869450D01*
X37588347Y-72869449D01*
X37644438Y-72831969D01*
X37649552Y-72828552D01*
X37660826Y-72811680D01*
X37690449Y-72767347D01*
X37690450Y-72767345D01*
X37693867Y-72762231D01*
X37705500Y-72703748D01*
X37705500Y-72009000D01*
X37949678Y-72009000D01*
X37968915Y-72192029D01*
X38025786Y-72367059D01*
X38027421Y-72369891D01*
X38027422Y-72369893D01*
X38071795Y-72446749D01*
X38117805Y-72526440D01*
X38240950Y-72663207D01*
X38389839Y-72771381D01*
X38557966Y-72846236D01*
X38561173Y-72846918D01*
X38561174Y-72846918D01*
X38688903Y-72874068D01*
X38737981Y-72884500D01*
X38922019Y-72884500D01*
X38971097Y-72874068D01*
X39098826Y-72846918D01*
X39098827Y-72846918D01*
X39102034Y-72846236D01*
X39270161Y-72771381D01*
X39419050Y-72663207D01*
X39542195Y-72526440D01*
X39588205Y-72446749D01*
X39632578Y-72369893D01*
X39632579Y-72369891D01*
X39634214Y-72367059D01*
X39691085Y-72192029D01*
X39710322Y-72009000D01*
X39691085Y-71825971D01*
X39634214Y-71650941D01*
X39631362Y-71646000D01*
X39543831Y-71494394D01*
X39542195Y-71491560D01*
X39419050Y-71354793D01*
X39270161Y-71246619D01*
X39167578Y-71200946D01*
X39134651Y-71166248D01*
X39130500Y-71143850D01*
X39130500Y-71037359D01*
X39148806Y-70993165D01*
X40631806Y-69510165D01*
X40676000Y-69491859D01*
X40720194Y-69510165D01*
X40738500Y-69554359D01*
X40738500Y-70067748D01*
X40750133Y-70126231D01*
X40794448Y-70192552D01*
X40799562Y-70195969D01*
X40855653Y-70233449D01*
X40855655Y-70233450D01*
X40860769Y-70236867D01*
X40866803Y-70238067D01*
X40866805Y-70238068D01*
X40916239Y-70247901D01*
X40916242Y-70247901D01*
X40919252Y-70248500D01*
X41326000Y-70248500D01*
X41370194Y-70266806D01*
X41388500Y-70311000D01*
X41388500Y-70999641D01*
X41370194Y-71043835D01*
X41229438Y-71184591D01*
X41185244Y-71202897D01*
X41159825Y-71197494D01*
X41102034Y-71171764D01*
X40970711Y-71143850D01*
X40925228Y-71134182D01*
X40925227Y-71134182D01*
X40922019Y-71133500D01*
X40737981Y-71133500D01*
X40734773Y-71134182D01*
X40734772Y-71134182D01*
X40561174Y-71171082D01*
X40561173Y-71171082D01*
X40557966Y-71171764D01*
X40389839Y-71246619D01*
X40240950Y-71354793D01*
X40117805Y-71491560D01*
X40116169Y-71494394D01*
X40028639Y-71646000D01*
X40025786Y-71650941D01*
X39968915Y-71825971D01*
X39949678Y-72009000D01*
X39968915Y-72192029D01*
X40025786Y-72367059D01*
X40027421Y-72369891D01*
X40027422Y-72369893D01*
X40071795Y-72446749D01*
X40117805Y-72526440D01*
X40240950Y-72663207D01*
X40389839Y-72771381D01*
X40557966Y-72846236D01*
X40561173Y-72846918D01*
X40561174Y-72846918D01*
X40688903Y-72874068D01*
X40737981Y-72884500D01*
X40922019Y-72884500D01*
X40971097Y-72874068D01*
X41098826Y-72846918D01*
X41098827Y-72846918D01*
X41102034Y-72846236D01*
X41270161Y-72771381D01*
X41419050Y-72663207D01*
X41542195Y-72526440D01*
X41588205Y-72446749D01*
X41632578Y-72369893D01*
X41632579Y-72369891D01*
X41634214Y-72367059D01*
X41691085Y-72192029D01*
X41710322Y-72009000D01*
X41691085Y-71825971D01*
X41640854Y-71671377D01*
X41644607Y-71623690D01*
X41656101Y-71607870D01*
X41862555Y-71401416D01*
X41867180Y-71397424D01*
X41871269Y-71395425D01*
X41905380Y-71358653D01*
X41907007Y-71356964D01*
X41921247Y-71342724D01*
X41922876Y-71340349D01*
X41924719Y-71338131D01*
X41924790Y-71338190D01*
X41927468Y-71334841D01*
X41943475Y-71317586D01*
X41947401Y-71313354D01*
X41953172Y-71298889D01*
X41959682Y-71286697D01*
X41965228Y-71278613D01*
X41965229Y-71278610D01*
X41968492Y-71273854D01*
X41975261Y-71245330D01*
X41978017Y-71236613D01*
X41988883Y-71209378D01*
X41989500Y-71203085D01*
X41989500Y-71192643D01*
X41991189Y-71178212D01*
X41993008Y-71170547D01*
X41994340Y-71164934D01*
X41990071Y-71133565D01*
X41989500Y-71125138D01*
X41989500Y-70311000D01*
X42007806Y-70266806D01*
X42052000Y-70248500D01*
X42458748Y-70248500D01*
X42461758Y-70247901D01*
X42461761Y-70247901D01*
X42511195Y-70238068D01*
X42511197Y-70238067D01*
X42517231Y-70236867D01*
X42522345Y-70233450D01*
X42522347Y-70233449D01*
X42578438Y-70195969D01*
X42583552Y-70192552D01*
X42627867Y-70126231D01*
X42639500Y-70067748D01*
X42639500Y-69378252D01*
X42627867Y-69319769D01*
X42583552Y-69253448D01*
X42566680Y-69242174D01*
X42522347Y-69212551D01*
X42522345Y-69212550D01*
X42517231Y-69209133D01*
X42511197Y-69207933D01*
X42511195Y-69207932D01*
X42461761Y-69198099D01*
X42461758Y-69198099D01*
X42458748Y-69197500D01*
X41095359Y-69197500D01*
X41051165Y-69179194D01*
X41032859Y-69135000D01*
X41051165Y-69090806D01*
X41145165Y-68996806D01*
X41189359Y-68978500D01*
X42458748Y-68978500D01*
X42461758Y-68977901D01*
X42461761Y-68977901D01*
X42511195Y-68968068D01*
X42511197Y-68968067D01*
X42517231Y-68966867D01*
X42522345Y-68963450D01*
X42522347Y-68963449D01*
X42578438Y-68925969D01*
X42583552Y-68922552D01*
X42627867Y-68856231D01*
X42639500Y-68797748D01*
X42639500Y-68108252D01*
X42627867Y-68049769D01*
X42583552Y-67983448D01*
X42566680Y-67972174D01*
X42522347Y-67942551D01*
X42522345Y-67942550D01*
X42517231Y-67939133D01*
X42511197Y-67937933D01*
X42511195Y-67937932D01*
X42461761Y-67928099D01*
X42461758Y-67928099D01*
X42458748Y-67927500D01*
X40919252Y-67927500D01*
X40916242Y-67928099D01*
X40916239Y-67928099D01*
X40866805Y-67937932D01*
X40866803Y-67937933D01*
X40860769Y-67939133D01*
X40855655Y-67942550D01*
X40855653Y-67942551D01*
X40811320Y-67972174D01*
X40794448Y-67983448D01*
X40750133Y-68049769D01*
X40738500Y-68108252D01*
X40738500Y-68527641D01*
X40720194Y-68571835D01*
X38656445Y-70635584D01*
X38651820Y-70639576D01*
X38647731Y-70641575D01*
X38643807Y-70645805D01*
X38613620Y-70678347D01*
X38611993Y-70680036D01*
X38597752Y-70694277D01*
X38596125Y-70696648D01*
X38594281Y-70698867D01*
X38594211Y-70698808D01*
X38591534Y-70702156D01*
X38571599Y-70723646D01*
X38565829Y-70738109D01*
X38559318Y-70750303D01*
X38553772Y-70758387D01*
X38553771Y-70758390D01*
X38550508Y-70763146D01*
X38549176Y-70768761D01*
X38543739Y-70791670D01*
X38540983Y-70800387D01*
X38530117Y-70827622D01*
X38529500Y-70833915D01*
X38529500Y-70844357D01*
X38527811Y-70858788D01*
X38524660Y-70872066D01*
X38525438Y-70877782D01*
X38528929Y-70903434D01*
X38529500Y-70911862D01*
X38529500Y-71143850D01*
X38511194Y-71188044D01*
X38492423Y-71200946D01*
X38389839Y-71246619D01*
X38240950Y-71354793D01*
X38117805Y-71491560D01*
X38116169Y-71494394D01*
X38028639Y-71646000D01*
X38025786Y-71650941D01*
X37968915Y-71825971D01*
X37949678Y-72009000D01*
X37705500Y-72009000D01*
X37705500Y-71314252D01*
X37702445Y-71298891D01*
X37695068Y-71261805D01*
X37695067Y-71261803D01*
X37693867Y-71255769D01*
X37689038Y-71248541D01*
X37657638Y-71201550D01*
X37649552Y-71189448D01*
X37628425Y-71175331D01*
X37588347Y-71148551D01*
X37588345Y-71148550D01*
X37583231Y-71145133D01*
X37577197Y-71143933D01*
X37577195Y-71143932D01*
X37527761Y-71134099D01*
X37527758Y-71134099D01*
X37524748Y-71133500D01*
X36135252Y-71133500D01*
X36132242Y-71134099D01*
X36132239Y-71134099D01*
X36082805Y-71143932D01*
X36082803Y-71143933D01*
X36076769Y-71145133D01*
X36071655Y-71148550D01*
X36071653Y-71148551D01*
X36031575Y-71175331D01*
X36010448Y-71189448D01*
X36002362Y-71201550D01*
X35970963Y-71248541D01*
X35966133Y-71255769D01*
X35964933Y-71261803D01*
X35964932Y-71261805D01*
X35957555Y-71298891D01*
X35954500Y-71314252D01*
X35954500Y-71646000D01*
X35936194Y-71690194D01*
X35892000Y-71708500D01*
X35837359Y-71708500D01*
X35793165Y-71690194D01*
X34989806Y-70886835D01*
X34971500Y-70842641D01*
X34971500Y-67714359D01*
X34989806Y-67670165D01*
X35158166Y-67501806D01*
X35202360Y-67483500D01*
X35278406Y-67483500D01*
X35322600Y-67501806D01*
X35339705Y-67533807D01*
X35350133Y-67586231D01*
X35394448Y-67652552D01*
X35399562Y-67655969D01*
X35455653Y-67693449D01*
X35455655Y-67693450D01*
X35460769Y-67696867D01*
X35466803Y-67698067D01*
X35466805Y-67698068D01*
X35516239Y-67707901D01*
X35516242Y-67707901D01*
X35519252Y-67708500D01*
X36882641Y-67708500D01*
X36926835Y-67726806D01*
X36945141Y-67771000D01*
X36926835Y-67815194D01*
X36832835Y-67909194D01*
X36788641Y-67927500D01*
X35519252Y-67927500D01*
X35516242Y-67928099D01*
X35516239Y-67928099D01*
X35466805Y-67937932D01*
X35466803Y-67937933D01*
X35460769Y-67939133D01*
X35455655Y-67942550D01*
X35455653Y-67942551D01*
X35411320Y-67972174D01*
X35394448Y-67983448D01*
X35350133Y-68049769D01*
X35338500Y-68108252D01*
X35338500Y-68797748D01*
X35350133Y-68856231D01*
X35394448Y-68922552D01*
X35399562Y-68925969D01*
X35455653Y-68963449D01*
X35455655Y-68963450D01*
X35460769Y-68966867D01*
X35466803Y-68968067D01*
X35466805Y-68968068D01*
X35516239Y-68977901D01*
X35516242Y-68977901D01*
X35519252Y-68978500D01*
X36882641Y-68978500D01*
X36926835Y-68996806D01*
X36945141Y-69041000D01*
X36926835Y-69085194D01*
X36832835Y-69179194D01*
X36788641Y-69197500D01*
X35519252Y-69197500D01*
X35516242Y-69198099D01*
X35516239Y-69198099D01*
X35466805Y-69207932D01*
X35466803Y-69207933D01*
X35460769Y-69209133D01*
X35455655Y-69212550D01*
X35455653Y-69212551D01*
X35411320Y-69242174D01*
X35394448Y-69253448D01*
X35350133Y-69319769D01*
X35338500Y-69378252D01*
X35338500Y-70067748D01*
X35350133Y-70126231D01*
X35394448Y-70192552D01*
X35399562Y-70195969D01*
X35455653Y-70233449D01*
X35455655Y-70233450D01*
X35460769Y-70236867D01*
X35466803Y-70238067D01*
X35466805Y-70238068D01*
X35516239Y-70247901D01*
X35516242Y-70247901D01*
X35519252Y-70248500D01*
X37058748Y-70248500D01*
X37061758Y-70247901D01*
X37061761Y-70247901D01*
X37111195Y-70238068D01*
X37111197Y-70238067D01*
X37117231Y-70236867D01*
X37122345Y-70233450D01*
X37122347Y-70233449D01*
X37178438Y-70195969D01*
X37183552Y-70192552D01*
X37227867Y-70126231D01*
X37239500Y-70067748D01*
X37239500Y-69648359D01*
X37257806Y-69604165D01*
X39416555Y-67445416D01*
X39421180Y-67441424D01*
X39425269Y-67439425D01*
X39459380Y-67402653D01*
X39461007Y-67400964D01*
X39475248Y-67386723D01*
X39476875Y-67384352D01*
X39478719Y-67382133D01*
X39478789Y-67382192D01*
X39481468Y-67378842D01*
X39484283Y-67375808D01*
X39501401Y-67357354D01*
X39507172Y-67342889D01*
X39513682Y-67330697D01*
X39519228Y-67322613D01*
X39519229Y-67322610D01*
X39522492Y-67317854D01*
X39529261Y-67289330D01*
X39532017Y-67280613D01*
X39542883Y-67253378D01*
X39543500Y-67247085D01*
X39543500Y-67236643D01*
X39545189Y-67222212D01*
X39547008Y-67214547D01*
X39548340Y-67208934D01*
X39544071Y-67177565D01*
X39543500Y-67169138D01*
X39543500Y-62085464D01*
X39559663Y-62043522D01*
X39611663Y-61986073D01*
X39654892Y-61965592D01*
X39699942Y-61981678D01*
X39720500Y-62028015D01*
X39720500Y-63344948D01*
X39720053Y-63351036D01*
X39718575Y-63355342D01*
X39720430Y-63404769D01*
X39720456Y-63405454D01*
X39720500Y-63407798D01*
X39720500Y-63427948D01*
X39721026Y-63430775D01*
X39721291Y-63433642D01*
X39721200Y-63433650D01*
X39721674Y-63437912D01*
X39722774Y-63467208D01*
X39725051Y-63472507D01*
X39728922Y-63481518D01*
X39732940Y-63494746D01*
X39735791Y-63510053D01*
X39751178Y-63535016D01*
X39755387Y-63543117D01*
X39766964Y-63570063D01*
X39770978Y-63574949D01*
X39778360Y-63582331D01*
X39787370Y-63593730D01*
X39794532Y-63605348D01*
X39799126Y-63608841D01*
X39819734Y-63624512D01*
X39826097Y-63630068D01*
X40720194Y-64524165D01*
X40738500Y-64568359D01*
X40738500Y-64987748D01*
X40750133Y-65046231D01*
X40794448Y-65112552D01*
X40799562Y-65115969D01*
X40855653Y-65153449D01*
X40855655Y-65153450D01*
X40860769Y-65156867D01*
X40866803Y-65158067D01*
X40866805Y-65158068D01*
X40916239Y-65167901D01*
X40916242Y-65167901D01*
X40919252Y-65168500D01*
X42458748Y-65168500D01*
X42461758Y-65167901D01*
X42461761Y-65167901D01*
X42511195Y-65158068D01*
X42511197Y-65158067D01*
X42517231Y-65156867D01*
X42522345Y-65153450D01*
X42522347Y-65153449D01*
X42578438Y-65115969D01*
X42583552Y-65112552D01*
X42627867Y-65046231D01*
X42639500Y-64987748D01*
X42639500Y-64298252D01*
X42627867Y-64239769D01*
X42583552Y-64173448D01*
X42566680Y-64162174D01*
X42522347Y-64132551D01*
X42522345Y-64132550D01*
X42517231Y-64129133D01*
X42511197Y-64127933D01*
X42511195Y-64127932D01*
X42461761Y-64118099D01*
X42461758Y-64118099D01*
X42458748Y-64117500D01*
X41189359Y-64117500D01*
X41145165Y-64099194D01*
X41051165Y-64005194D01*
X41032859Y-63961000D01*
X41051165Y-63916806D01*
X41095359Y-63898500D01*
X42458748Y-63898500D01*
X42461758Y-63897901D01*
X42461761Y-63897901D01*
X42511195Y-63888068D01*
X42511197Y-63888067D01*
X42517231Y-63886867D01*
X42522345Y-63883450D01*
X42522347Y-63883449D01*
X42578438Y-63845969D01*
X42583552Y-63842552D01*
X42597987Y-63820949D01*
X42624449Y-63781347D01*
X42624450Y-63781345D01*
X42627867Y-63776231D01*
X42629068Y-63770194D01*
X42638295Y-63723807D01*
X42664871Y-63684033D01*
X42699594Y-63673500D01*
X43576921Y-63673500D01*
X43621115Y-63691806D01*
X43624757Y-63695777D01*
X43638639Y-63712291D01*
X43642344Y-63714757D01*
X43642346Y-63714759D01*
X43723902Y-63769047D01*
X43746060Y-63783796D01*
X43869233Y-63822278D01*
X43873683Y-63822360D01*
X43873686Y-63822360D01*
X43993809Y-63824562D01*
X43993812Y-63824562D01*
X43998255Y-63824643D01*
X44002546Y-63823473D01*
X44002547Y-63823473D01*
X44060505Y-63807671D01*
X44122755Y-63790700D01*
X44232724Y-63723179D01*
X44319322Y-63627507D01*
X44375588Y-63511375D01*
X44376766Y-63504378D01*
X44388904Y-63432227D01*
X44396997Y-63384120D01*
X44397133Y-63373000D01*
X44378839Y-63245259D01*
X44325428Y-63127788D01*
X44241193Y-63030028D01*
X44132906Y-62959841D01*
X44128641Y-62958566D01*
X44128638Y-62958564D01*
X44013541Y-62924142D01*
X44013538Y-62924142D01*
X44009273Y-62922866D01*
X43945721Y-62922478D01*
X43884684Y-62922105D01*
X43884683Y-62922105D01*
X43880231Y-62922078D01*
X43756155Y-62957539D01*
X43647019Y-63026399D01*
X43644076Y-63029731D01*
X43644074Y-63029733D01*
X43624963Y-63051373D01*
X43578117Y-63072500D01*
X42699594Y-63072500D01*
X42655400Y-63054194D01*
X42638295Y-63022193D01*
X42629068Y-62975806D01*
X42629068Y-62975805D01*
X42627867Y-62969769D01*
X42621234Y-62959841D01*
X42586969Y-62908562D01*
X42583552Y-62903448D01*
X42566680Y-62892174D01*
X42522347Y-62862551D01*
X42522345Y-62862550D01*
X42517231Y-62859133D01*
X42511197Y-62857933D01*
X42511195Y-62857932D01*
X42461761Y-62848099D01*
X42461758Y-62848099D01*
X42458748Y-62847500D01*
X40919252Y-62847500D01*
X40916242Y-62848099D01*
X40916239Y-62848099D01*
X40866805Y-62857932D01*
X40866803Y-62857933D01*
X40860769Y-62859133D01*
X40855655Y-62862550D01*
X40855653Y-62862551D01*
X40811320Y-62892174D01*
X40794448Y-62903448D01*
X40791031Y-62908562D01*
X40756767Y-62959841D01*
X40750133Y-62969769D01*
X40748933Y-62975803D01*
X40748932Y-62975805D01*
X40739099Y-63025239D01*
X40738500Y-63028252D01*
X40738500Y-63541641D01*
X40720194Y-63585835D01*
X40676000Y-63604141D01*
X40631806Y-63585835D01*
X40339806Y-63293835D01*
X40321500Y-63249641D01*
X40321500Y-61034000D01*
X40339806Y-60989806D01*
X40384000Y-60971500D01*
X40424834Y-60971500D01*
X40426290Y-60971362D01*
X40426298Y-60971362D01*
X40439942Y-60970072D01*
X40456369Y-60968519D01*
X40510176Y-60949623D01*
X40579774Y-60925183D01*
X40579776Y-60925182D01*
X40584184Y-60923634D01*
X40693150Y-60843150D01*
X40773634Y-60734184D01*
X40781650Y-60711359D01*
X40817257Y-60609962D01*
X40818519Y-60606369D01*
X40821500Y-60574834D01*
X40821500Y-59567166D01*
X40818519Y-59535631D01*
X40773634Y-59407816D01*
X40693150Y-59298850D01*
X40584184Y-59218366D01*
X40579776Y-59216818D01*
X40579774Y-59216817D01*
X40507743Y-59191522D01*
X40456369Y-59173481D01*
X40439942Y-59171928D01*
X40426298Y-59170638D01*
X40426290Y-59170638D01*
X40424834Y-59170500D01*
X39703359Y-59170500D01*
X39659165Y-59152194D01*
X39640859Y-59108000D01*
X39659165Y-59063806D01*
X40559555Y-58163416D01*
X40564180Y-58159424D01*
X40568269Y-58157425D01*
X40577622Y-58147343D01*
X40602380Y-58120653D01*
X40604007Y-58118964D01*
X40618248Y-58104723D01*
X40619875Y-58102352D01*
X40621719Y-58100133D01*
X40621789Y-58100192D01*
X40624468Y-58096842D01*
X40640476Y-58079585D01*
X40644401Y-58075354D01*
X40650171Y-58060892D01*
X40656679Y-58048702D01*
X40665493Y-58035854D01*
X40672262Y-58007330D01*
X40675022Y-57998602D01*
X40684249Y-57975473D01*
X40685883Y-57971378D01*
X40686500Y-57965085D01*
X40686500Y-57954643D01*
X40688189Y-57940212D01*
X40690008Y-57932547D01*
X40691340Y-57926934D01*
X40687071Y-57895565D01*
X40686500Y-57887138D01*
X40686500Y-57554786D01*
X40704806Y-57510592D01*
X40722841Y-57498541D01*
X40726231Y-57497867D01*
X40731343Y-57494451D01*
X40731346Y-57494450D01*
X40787437Y-57456970D01*
X40787438Y-57456969D01*
X40792552Y-57453552D01*
X40803416Y-57437293D01*
X40843190Y-57410717D01*
X40852981Y-57409562D01*
X40853240Y-57409552D01*
X40853405Y-57409546D01*
X40855799Y-57409500D01*
X40875948Y-57409500D01*
X40878775Y-57408974D01*
X40881642Y-57408709D01*
X40881650Y-57408800D01*
X40885912Y-57408326D01*
X40887725Y-57408258D01*
X40915208Y-57407226D01*
X40929518Y-57401078D01*
X40942746Y-57397060D01*
X40952378Y-57395266D01*
X40958053Y-57394209D01*
X40983016Y-57378822D01*
X40991117Y-57374613D01*
X41018063Y-57363036D01*
X41022949Y-57359022D01*
X41030331Y-57351640D01*
X41041730Y-57342630D01*
X41048433Y-57338498D01*
X41048434Y-57338497D01*
X41053348Y-57335468D01*
X41072512Y-57310266D01*
X41078068Y-57303903D01*
X41321555Y-57060416D01*
X41326180Y-57056424D01*
X41330269Y-57054425D01*
X41364380Y-57017653D01*
X41366007Y-57015964D01*
X41380248Y-57001723D01*
X41381875Y-56999352D01*
X41383719Y-56997133D01*
X41383789Y-56997192D01*
X41386468Y-56993842D01*
X41386552Y-56993752D01*
X41406401Y-56972354D01*
X41412172Y-56957889D01*
X41418682Y-56945697D01*
X41424228Y-56937613D01*
X41424229Y-56937610D01*
X41427492Y-56932854D01*
X41434261Y-56904330D01*
X41437017Y-56895613D01*
X41447883Y-56868378D01*
X41448500Y-56862085D01*
X41448500Y-56851643D01*
X41450189Y-56837212D01*
X41452008Y-56829547D01*
X41453340Y-56823934D01*
X41449071Y-56792565D01*
X41448500Y-56784138D01*
X41448500Y-55735464D01*
X41464663Y-55693522D01*
X41478020Y-55678766D01*
X41525322Y-55626507D01*
X41542919Y-55590187D01*
X41578663Y-55558397D01*
X41611357Y-55556140D01*
X41620964Y-55558050D01*
X41628252Y-55559500D01*
X42167748Y-55559500D01*
X42170758Y-55558901D01*
X42170761Y-55558901D01*
X42220195Y-55549068D01*
X42220197Y-55549067D01*
X42226231Y-55547867D01*
X42231345Y-55544450D01*
X42231347Y-55544449D01*
X42287437Y-55506970D01*
X42287438Y-55506969D01*
X42292552Y-55503552D01*
X42295972Y-55498434D01*
X42303428Y-55487276D01*
X42343202Y-55460701D01*
X42355394Y-55459500D01*
X42954000Y-55459500D01*
X42998194Y-55477806D01*
G37*
%TD.AperFunction*%
%TA.AperFunction,Conductor*%
G36*
X41115835Y-54801806D02*
G01*
X41128702Y-54814673D01*
X41147008Y-54858867D01*
X41128702Y-54903061D01*
X41092992Y-54920789D01*
X41090684Y-54921105D01*
X41086231Y-54921078D01*
X40962155Y-54956539D01*
X40853019Y-55025399D01*
X40850076Y-55028731D01*
X40850074Y-55028733D01*
X40842306Y-55037529D01*
X40767596Y-55122122D01*
X40712754Y-55238932D01*
X40692901Y-55366440D01*
X40709633Y-55494394D01*
X40711426Y-55498469D01*
X40751783Y-55590187D01*
X40761605Y-55612510D01*
X40764469Y-55615917D01*
X40832843Y-55697258D01*
X40847500Y-55737474D01*
X40847500Y-56034233D01*
X40829194Y-56078427D01*
X40785000Y-56096733D01*
X40750276Y-56086199D01*
X40731351Y-56073553D01*
X40731347Y-56073551D01*
X40726231Y-56070133D01*
X40720197Y-56068933D01*
X40720195Y-56068932D01*
X40670761Y-56059099D01*
X40670758Y-56059099D01*
X40667748Y-56058500D01*
X40128252Y-56058500D01*
X40125242Y-56059099D01*
X40125239Y-56059099D01*
X40075805Y-56068932D01*
X40075803Y-56068933D01*
X40069769Y-56070133D01*
X40064655Y-56073550D01*
X40064653Y-56073551D01*
X40008563Y-56111030D01*
X40003448Y-56114448D01*
X40000029Y-56119565D01*
X40000028Y-56119566D01*
X39992572Y-56130724D01*
X39952798Y-56157299D01*
X39940606Y-56158500D01*
X39595643Y-56158500D01*
X39581212Y-56156811D01*
X39573547Y-56154992D01*
X39567934Y-56153660D01*
X39558147Y-56154992D01*
X39536566Y-56157929D01*
X39528138Y-56158500D01*
X39525052Y-56158500D01*
X39522220Y-56159027D01*
X39522213Y-56159028D01*
X39506686Y-56161920D01*
X39503681Y-56162404D01*
X39457011Y-56168756D01*
X39451972Y-56171532D01*
X39451145Y-56171745D01*
X39449372Y-56172380D01*
X39448604Y-56172738D01*
X39442947Y-56173791D01*
X39438037Y-56176818D01*
X39438036Y-56176818D01*
X39402847Y-56198509D01*
X39400210Y-56200047D01*
X39358960Y-56222771D01*
X39355256Y-56227177D01*
X39354564Y-56227671D01*
X39353147Y-56228894D01*
X39352551Y-56229512D01*
X39347652Y-56232532D01*
X39331931Y-56253206D01*
X39319140Y-56270027D01*
X39317241Y-56272402D01*
X39286928Y-56308463D01*
X39285059Y-56313906D01*
X39284592Y-56314616D01*
X39283703Y-56316281D01*
X39283374Y-56317062D01*
X39279892Y-56321641D01*
X39278288Y-56327180D01*
X39266791Y-56366883D01*
X39265870Y-56369795D01*
X39255012Y-56401419D01*
X39250575Y-56414342D01*
X39250791Y-56420092D01*
X39250609Y-56420927D01*
X39250381Y-56422792D01*
X39250355Y-56423640D01*
X39248754Y-56429168D01*
X39249252Y-56434919D01*
X39252818Y-56476100D01*
X39253007Y-56479147D01*
X39253806Y-56500410D01*
X39254774Y-56526208D01*
X39257045Y-56531495D01*
X39257176Y-56532341D01*
X39257633Y-56534156D01*
X39257916Y-56534961D01*
X39258413Y-56540696D01*
X39260947Y-56545880D01*
X39279100Y-56583017D01*
X39280370Y-56585785D01*
X39298964Y-56629063D01*
X39302978Y-56633949D01*
X39303556Y-56634527D01*
X39305343Y-56636702D01*
X39307575Y-56641269D01*
X39311303Y-56644727D01*
X39323500Y-56681610D01*
X39323500Y-56786000D01*
X39307846Y-56827373D01*
X39243596Y-56900122D01*
X39188754Y-57016932D01*
X39168901Y-57144440D01*
X39169478Y-57148855D01*
X39169424Y-57153306D01*
X39166940Y-57153276D01*
X39156612Y-57191672D01*
X39151258Y-57197771D01*
X38482315Y-57866714D01*
X38438121Y-57885020D01*
X36872880Y-57885020D01*
X36828686Y-57866714D01*
X36700416Y-57738445D01*
X36696424Y-57733820D01*
X36694425Y-57729731D01*
X36657667Y-57695632D01*
X36655980Y-57694008D01*
X36643753Y-57681782D01*
X36641723Y-57679752D01*
X36639356Y-57678128D01*
X36637137Y-57676284D01*
X36637195Y-57676214D01*
X36633842Y-57673532D01*
X36616583Y-57657522D01*
X36612354Y-57653599D01*
X36597889Y-57647828D01*
X36585697Y-57641318D01*
X36577613Y-57635772D01*
X36577610Y-57635771D01*
X36572854Y-57632508D01*
X36544331Y-57625739D01*
X36535613Y-57622983D01*
X36508378Y-57612117D01*
X36503987Y-57611686D01*
X36503985Y-57611686D01*
X36503845Y-57611673D01*
X36502085Y-57611500D01*
X36491643Y-57611500D01*
X36477212Y-57609811D01*
X36469547Y-57607992D01*
X36463934Y-57606660D01*
X36454147Y-57607992D01*
X36432566Y-57610929D01*
X36424138Y-57611500D01*
X35923000Y-57611500D01*
X35878806Y-57593194D01*
X35860500Y-57549000D01*
X35860500Y-57398904D01*
X35871033Y-57364181D01*
X35882947Y-57346350D01*
X35882948Y-57346348D01*
X35886367Y-57341231D01*
X35892329Y-57311261D01*
X35897401Y-57285761D01*
X35897401Y-57285758D01*
X35898000Y-57282748D01*
X35898000Y-56993252D01*
X35897401Y-56990239D01*
X35887568Y-56940805D01*
X35887567Y-56940803D01*
X35886367Y-56934769D01*
X35860987Y-56896785D01*
X35845469Y-56873562D01*
X35842052Y-56868448D01*
X35805956Y-56844329D01*
X35780847Y-56827551D01*
X35780845Y-56827550D01*
X35775731Y-56824133D01*
X35769697Y-56822933D01*
X35769695Y-56822932D01*
X35720261Y-56813099D01*
X35720258Y-56813099D01*
X35717248Y-56812500D01*
X35402752Y-56812500D01*
X35399742Y-56813099D01*
X35399739Y-56813099D01*
X35350306Y-56822932D01*
X35350305Y-56822932D01*
X35344269Y-56824133D01*
X35336167Y-56829547D01*
X35332099Y-56832265D01*
X35285183Y-56841597D01*
X35262654Y-56832265D01*
X35256351Y-56828054D01*
X35256350Y-56828054D01*
X35251231Y-56824633D01*
X35245195Y-56823432D01*
X35245194Y-56823432D01*
X35195761Y-56813599D01*
X35195758Y-56813599D01*
X35192748Y-56813000D01*
X34903252Y-56813000D01*
X34900242Y-56813599D01*
X34900239Y-56813599D01*
X34850805Y-56823432D01*
X34850803Y-56823433D01*
X34844769Y-56824633D01*
X34839655Y-56828050D01*
X34839653Y-56828051D01*
X34819415Y-56841574D01*
X34778448Y-56868948D01*
X34775031Y-56874062D01*
X34737886Y-56929653D01*
X34734133Y-56935269D01*
X34732933Y-56941303D01*
X34732932Y-56941305D01*
X34723099Y-56990739D01*
X34722500Y-56993752D01*
X34722500Y-57308248D01*
X34723099Y-57311258D01*
X34723099Y-57311261D01*
X34732793Y-57359992D01*
X34734133Y-57366731D01*
X34737550Y-57371845D01*
X34737551Y-57371847D01*
X34762752Y-57409562D01*
X34778448Y-57433052D01*
X34783562Y-57436469D01*
X34839653Y-57473949D01*
X34839655Y-57473950D01*
X34844769Y-57477367D01*
X34850805Y-57478568D01*
X34850806Y-57478568D01*
X34896721Y-57487701D01*
X34936495Y-57514277D01*
X34945827Y-57561193D01*
X34919251Y-57600967D01*
X34884528Y-57611500D01*
X34097837Y-57611500D01*
X34053643Y-57593194D01*
X33611326Y-57150877D01*
X33593020Y-57106683D01*
X33593020Y-56873188D01*
X33611326Y-56828994D01*
X33655520Y-56810688D01*
X33699714Y-56828994D01*
X33708119Y-56841574D01*
X33708633Y-56841231D01*
X33752948Y-56907552D01*
X33758062Y-56910969D01*
X33814153Y-56948449D01*
X33814155Y-56948450D01*
X33819269Y-56951867D01*
X33825303Y-56953067D01*
X33825305Y-56953068D01*
X33874739Y-56962901D01*
X33874742Y-56962901D01*
X33877752Y-56963500D01*
X34192248Y-56963500D01*
X34195258Y-56962901D01*
X34195261Y-56962901D01*
X34244695Y-56953068D01*
X34244697Y-56953067D01*
X34250731Y-56951867D01*
X34255845Y-56948450D01*
X34255847Y-56948449D01*
X34311938Y-56910969D01*
X34317052Y-56907552D01*
X34347433Y-56862085D01*
X34357949Y-56846347D01*
X34357950Y-56846345D01*
X34361367Y-56841231D01*
X34363151Y-56832265D01*
X34372401Y-56785761D01*
X34372401Y-56785758D01*
X34373000Y-56782748D01*
X34373000Y-56497000D01*
X34391306Y-56452806D01*
X34435500Y-56434500D01*
X35299317Y-56434500D01*
X35334040Y-56445033D01*
X35339150Y-56448447D01*
X35339152Y-56448448D01*
X35344269Y-56451867D01*
X35350303Y-56453067D01*
X35350305Y-56453068D01*
X35399739Y-56462901D01*
X35399742Y-56462901D01*
X35402752Y-56463500D01*
X35717248Y-56463500D01*
X35720258Y-56462901D01*
X35720261Y-56462901D01*
X35769695Y-56453068D01*
X35769697Y-56453067D01*
X35775731Y-56451867D01*
X35780848Y-56448448D01*
X35780850Y-56448447D01*
X35785960Y-56445033D01*
X35820683Y-56434500D01*
X36774948Y-56434500D01*
X36781036Y-56434947D01*
X36785342Y-56436425D01*
X36835454Y-56434544D01*
X36837798Y-56434500D01*
X36857948Y-56434500D01*
X36860775Y-56433974D01*
X36863642Y-56433709D01*
X36863650Y-56433800D01*
X36867912Y-56433326D01*
X36869725Y-56433258D01*
X36897208Y-56432226D01*
X36911518Y-56426078D01*
X36924746Y-56422060D01*
X36934378Y-56420266D01*
X36940053Y-56419209D01*
X36965016Y-56403822D01*
X36973117Y-56399613D01*
X37000063Y-56388036D01*
X37004949Y-56384022D01*
X37012331Y-56376640D01*
X37023730Y-56367630D01*
X37030433Y-56363498D01*
X37030434Y-56363497D01*
X37035348Y-56360468D01*
X37054512Y-56335266D01*
X37060068Y-56328903D01*
X37359166Y-56029806D01*
X37403360Y-56011500D01*
X38374834Y-56011500D01*
X38376290Y-56011362D01*
X38376298Y-56011362D01*
X38389942Y-56010072D01*
X38406369Y-56008519D01*
X38460176Y-55989623D01*
X38529774Y-55965183D01*
X38529776Y-55965182D01*
X38534184Y-55963634D01*
X38643150Y-55883150D01*
X38701739Y-55803827D01*
X38742719Y-55779156D01*
X38749668Y-55778505D01*
X38755656Y-55778280D01*
X38761954Y-55778044D01*
X38764297Y-55778000D01*
X38784448Y-55778000D01*
X38787275Y-55777474D01*
X38790142Y-55777209D01*
X38790150Y-55777300D01*
X38794412Y-55776826D01*
X38796225Y-55776758D01*
X38823708Y-55775726D01*
X38838018Y-55769578D01*
X38851246Y-55765560D01*
X38860878Y-55763766D01*
X38866553Y-55762709D01*
X38891516Y-55747322D01*
X38899617Y-55743113D01*
X38926563Y-55731536D01*
X38931449Y-55727522D01*
X38938831Y-55720140D01*
X38950230Y-55711130D01*
X38956933Y-55706998D01*
X38956934Y-55706997D01*
X38961848Y-55703968D01*
X38981012Y-55678766D01*
X38986568Y-55672403D01*
X39857166Y-54801806D01*
X39901360Y-54783500D01*
X41071641Y-54783500D01*
X41115835Y-54801806D01*
G37*
%TD.AperFunction*%
%TA.AperFunction,Conductor*%
G36*
X34687194Y-35905013D02*
G01*
X34790289Y-36008108D01*
X34793973Y-36012128D01*
X34819980Y-36043122D01*
X34855021Y-36063353D01*
X34859613Y-36066278D01*
X34892751Y-36089482D01*
X34898028Y-36090896D01*
X34898030Y-36090897D01*
X34898849Y-36091116D01*
X34913922Y-36097360D01*
X34914653Y-36097782D01*
X34914657Y-36097784D01*
X34919390Y-36100516D01*
X34959255Y-36107546D01*
X34964531Y-36108716D01*
X35003629Y-36119192D01*
X35043933Y-36115666D01*
X35049381Y-36115428D01*
X36303343Y-36115428D01*
X36325571Y-36121385D01*
X36326081Y-36119984D01*
X36331220Y-36121854D01*
X36335955Y-36124588D01*
X36341339Y-36125537D01*
X36341341Y-36125538D01*
X36378019Y-36132005D01*
X36420525Y-36139500D01*
X40587069Y-36139500D01*
X40631263Y-36157806D01*
X40649569Y-36202000D01*
X40631263Y-36246194D01*
X40619025Y-36255713D01*
X40605492Y-36263764D01*
X40441806Y-36361147D01*
X40441802Y-36361150D01*
X40439341Y-36362614D01*
X40273457Y-36508090D01*
X40136863Y-36681360D01*
X40034131Y-36876620D01*
X40033284Y-36879347D01*
X40033283Y-36879350D01*
X39970271Y-37082284D01*
X39968703Y-37087333D01*
X39942770Y-37306440D01*
X39942958Y-37309304D01*
X39951173Y-37434641D01*
X39957200Y-37526604D01*
X40011511Y-37740452D01*
X40103883Y-37940821D01*
X40231222Y-38121002D01*
X40389264Y-38274961D01*
X40572717Y-38397540D01*
X40775436Y-38484635D01*
X40778222Y-38485265D01*
X40778227Y-38485267D01*
X40987842Y-38532698D01*
X40987845Y-38532698D01*
X40990632Y-38533329D01*
X41099061Y-38537589D01*
X41132454Y-38538901D01*
X41175895Y-38558928D01*
X41192500Y-38601353D01*
X41192500Y-38923000D01*
X41174194Y-38967194D01*
X41130000Y-38985500D01*
X40823252Y-38985500D01*
X40820242Y-38986099D01*
X40820239Y-38986099D01*
X40770805Y-38995932D01*
X40770803Y-38995933D01*
X40764769Y-38997133D01*
X40759655Y-39000550D01*
X40759653Y-39000551D01*
X40715320Y-39030174D01*
X40698448Y-39041448D01*
X40695031Y-39046562D01*
X40695029Y-39046564D01*
X40670868Y-39082723D01*
X40631094Y-39109299D01*
X40618901Y-39110500D01*
X37867099Y-39110500D01*
X37822905Y-39092194D01*
X37815132Y-39082723D01*
X37790971Y-39046564D01*
X37790969Y-39046562D01*
X37787552Y-39041448D01*
X37770680Y-39030174D01*
X37726347Y-39000551D01*
X37726345Y-39000550D01*
X37721231Y-38997133D01*
X37715197Y-38995933D01*
X37715195Y-38995932D01*
X37665761Y-38986099D01*
X37665758Y-38986099D01*
X37662748Y-38985500D01*
X36323252Y-38985500D01*
X36320242Y-38986099D01*
X36320239Y-38986099D01*
X36270805Y-38995932D01*
X36270803Y-38995933D01*
X36264769Y-38997133D01*
X36259655Y-39000550D01*
X36259653Y-39000551D01*
X36215320Y-39030174D01*
X36198448Y-39041448D01*
X36154133Y-39107769D01*
X36152933Y-39113803D01*
X36152932Y-39113805D01*
X36143099Y-39163239D01*
X36142500Y-39166252D01*
X36142500Y-39533358D01*
X36124194Y-39577552D01*
X36080000Y-39595858D01*
X36065571Y-39594169D01*
X36055327Y-39591738D01*
X36046613Y-39588983D01*
X36019378Y-39578117D01*
X36020061Y-39576406D01*
X35986605Y-39551933D01*
X35977500Y-39519449D01*
X35977500Y-39486666D01*
X35974519Y-39455131D01*
X35929634Y-39327316D01*
X35849150Y-39218350D01*
X35740184Y-39137866D01*
X35735776Y-39136318D01*
X35735774Y-39136317D01*
X35639911Y-39102653D01*
X35612369Y-39092981D01*
X35595942Y-39091428D01*
X35582298Y-39090138D01*
X35582290Y-39090138D01*
X35580834Y-39090000D01*
X34523166Y-39090000D01*
X34521710Y-39090138D01*
X34521702Y-39090138D01*
X34508058Y-39091428D01*
X34491631Y-39092981D01*
X34464089Y-39102653D01*
X34368226Y-39136317D01*
X34368224Y-39136318D01*
X34363816Y-39137866D01*
X34254850Y-39218350D01*
X34174366Y-39327316D01*
X34129481Y-39455131D01*
X34126500Y-39486666D01*
X34126500Y-40269334D01*
X34129481Y-40300869D01*
X34143455Y-40340662D01*
X34172609Y-40423680D01*
X34174366Y-40428684D01*
X34254850Y-40537650D01*
X34363816Y-40618134D01*
X34368224Y-40619682D01*
X34368226Y-40619683D01*
X34437824Y-40644123D01*
X34491631Y-40663019D01*
X34508058Y-40664572D01*
X34521702Y-40665862D01*
X34521710Y-40665862D01*
X34523166Y-40666000D01*
X35580834Y-40666000D01*
X35582290Y-40665862D01*
X35582298Y-40665862D01*
X35595942Y-40664572D01*
X35612369Y-40663019D01*
X35666176Y-40644123D01*
X35735774Y-40619683D01*
X35735776Y-40619682D01*
X35740184Y-40618134D01*
X35849150Y-40537650D01*
X35929634Y-40428684D01*
X35931183Y-40424274D01*
X35931185Y-40424270D01*
X35946463Y-40380764D01*
X35978378Y-40345132D01*
X36019863Y-40340662D01*
X36036810Y-40344684D01*
X36047670Y-40347261D01*
X36056387Y-40350017D01*
X36083622Y-40360883D01*
X36085761Y-40361093D01*
X36123702Y-40388840D01*
X36131038Y-40436110D01*
X36114505Y-40465524D01*
X36111669Y-40468360D01*
X36100270Y-40477370D01*
X36093567Y-40481502D01*
X36088652Y-40484532D01*
X36080981Y-40494620D01*
X36069488Y-40509734D01*
X36063932Y-40516097D01*
X35433335Y-41146694D01*
X35389141Y-41165000D01*
X34523166Y-41165000D01*
X34521710Y-41165138D01*
X34521702Y-41165138D01*
X34508058Y-41166428D01*
X34491631Y-41167981D01*
X34437824Y-41186877D01*
X34368226Y-41211317D01*
X34368224Y-41211318D01*
X34363816Y-41212866D01*
X34254850Y-41293350D01*
X34174366Y-41402316D01*
X34129481Y-41530131D01*
X34126500Y-41561666D01*
X34126500Y-42344334D01*
X34129481Y-42375869D01*
X34174366Y-42503684D01*
X34254850Y-42612650D01*
X34363816Y-42693134D01*
X34368224Y-42694682D01*
X34368226Y-42694683D01*
X34437824Y-42719123D01*
X34491631Y-42738019D01*
X34508058Y-42739572D01*
X34521702Y-42740862D01*
X34521710Y-42740862D01*
X34523166Y-42741000D01*
X35580834Y-42741000D01*
X35582290Y-42740862D01*
X35582298Y-42740862D01*
X35595942Y-42739572D01*
X35612369Y-42738019D01*
X35666176Y-42719123D01*
X35735774Y-42694683D01*
X35735776Y-42694682D01*
X35740184Y-42693134D01*
X35849150Y-42612650D01*
X35929634Y-42503684D01*
X35974519Y-42375869D01*
X35977500Y-42344334D01*
X35977500Y-41561666D01*
X35974519Y-41530131D01*
X35973260Y-41526545D01*
X35973257Y-41526533D01*
X35968139Y-41511961D01*
X35970767Y-41464198D01*
X35982914Y-41447058D01*
X36275515Y-41154457D01*
X36319709Y-41136151D01*
X36322084Y-41136268D01*
X36323252Y-41136500D01*
X37662748Y-41136500D01*
X37665758Y-41135901D01*
X37665761Y-41135901D01*
X37715195Y-41126068D01*
X37715197Y-41126067D01*
X37721231Y-41124867D01*
X37726345Y-41121450D01*
X37726347Y-41121449D01*
X37782438Y-41083969D01*
X37787552Y-41080552D01*
X37831867Y-41014231D01*
X37843500Y-40955748D01*
X37843500Y-40466252D01*
X37840785Y-40452599D01*
X37833068Y-40413806D01*
X37833068Y-40413805D01*
X37831867Y-40407769D01*
X37831458Y-40407157D01*
X37831458Y-40364843D01*
X37831867Y-40364231D01*
X37835666Y-40345132D01*
X37842901Y-40308761D01*
X37842901Y-40308758D01*
X37843500Y-40305748D01*
X37843500Y-39816252D01*
X37837521Y-39786193D01*
X37846853Y-39739277D01*
X37886627Y-39712701D01*
X37898820Y-39711500D01*
X39255701Y-39711500D01*
X39299895Y-39729806D01*
X39318201Y-39774000D01*
X39302547Y-39815373D01*
X39243596Y-39882122D01*
X39188754Y-39998932D01*
X39168901Y-40126440D01*
X39185633Y-40254394D01*
X39187426Y-40258469D01*
X39233346Y-40362830D01*
X39237605Y-40372510D01*
X39240469Y-40375917D01*
X39313871Y-40463239D01*
X39320639Y-40471291D01*
X39324344Y-40473757D01*
X39324346Y-40473759D01*
X39378391Y-40509734D01*
X39428060Y-40542796D01*
X39551233Y-40581278D01*
X39555683Y-40581360D01*
X39555686Y-40581360D01*
X39675809Y-40583562D01*
X39675812Y-40583562D01*
X39680255Y-40583643D01*
X39684546Y-40582473D01*
X39684547Y-40582473D01*
X39742505Y-40566672D01*
X39804755Y-40549700D01*
X39914724Y-40482179D01*
X39937948Y-40456522D01*
X39941083Y-40453058D01*
X39987420Y-40432500D01*
X40580000Y-40432500D01*
X40624194Y-40450806D01*
X40642500Y-40495000D01*
X40642500Y-40955748D01*
X40654133Y-41014231D01*
X40698448Y-41080552D01*
X40703562Y-41083969D01*
X40759653Y-41121449D01*
X40759655Y-41121450D01*
X40764769Y-41124867D01*
X40770803Y-41126067D01*
X40770805Y-41126068D01*
X40820239Y-41135901D01*
X40820242Y-41135901D01*
X40823252Y-41136500D01*
X42162748Y-41136500D01*
X42165758Y-41135901D01*
X42165761Y-41135901D01*
X42215195Y-41126068D01*
X42215197Y-41126067D01*
X42221231Y-41124867D01*
X42226348Y-41121448D01*
X42226350Y-41121447D01*
X42244921Y-41109038D01*
X42291837Y-41099705D01*
X42323839Y-41116810D01*
X42909584Y-41702555D01*
X42913576Y-41707180D01*
X42915575Y-41711269D01*
X42919805Y-41715193D01*
X42952347Y-41745380D01*
X42954036Y-41747007D01*
X42968277Y-41761248D01*
X42970648Y-41762875D01*
X42972867Y-41764719D01*
X42972808Y-41764789D01*
X42976156Y-41767466D01*
X42997646Y-41787401D01*
X43003004Y-41789539D01*
X43003006Y-41789540D01*
X43012108Y-41793171D01*
X43024298Y-41799679D01*
X43037146Y-41808493D01*
X43063468Y-41814739D01*
X43065670Y-41815262D01*
X43074399Y-41818022D01*
X43101622Y-41828883D01*
X43107915Y-41829500D01*
X43118357Y-41829500D01*
X43132787Y-41831189D01*
X43146066Y-41834340D01*
X43177435Y-41830071D01*
X43185862Y-41829500D01*
X43833000Y-41829500D01*
X43877194Y-41847806D01*
X43895500Y-41892000D01*
X43895500Y-42400648D01*
X43877194Y-42444842D01*
X43870133Y-42450921D01*
X43804669Y-42499274D01*
X43790350Y-42509850D01*
X43709866Y-42618816D01*
X43664981Y-42746631D01*
X43662000Y-42778166D01*
X43662000Y-42931776D01*
X43657551Y-42954936D01*
X43643749Y-42989530D01*
X43643748Y-42989534D01*
X43642117Y-42993622D01*
X43641500Y-42999915D01*
X43641500Y-43610448D01*
X43656791Y-43692553D01*
X43658329Y-43695048D01*
X43662000Y-43714758D01*
X43662000Y-43835834D01*
X43664981Y-43867369D01*
X43709866Y-43995184D01*
X43790350Y-44104150D01*
X43794107Y-44106925D01*
X43846717Y-44145784D01*
X43871389Y-44186765D01*
X43859857Y-44233190D01*
X43853778Y-44240251D01*
X43708835Y-44385194D01*
X43664641Y-44403500D01*
X40943000Y-44403500D01*
X40898806Y-44385194D01*
X40880500Y-44341000D01*
X40880500Y-44009252D01*
X40877702Y-43995184D01*
X40870068Y-43956805D01*
X40870067Y-43956803D01*
X40868867Y-43950769D01*
X40824552Y-43884448D01*
X40798992Y-43867369D01*
X40763347Y-43843551D01*
X40763345Y-43843550D01*
X40758231Y-43840133D01*
X40752197Y-43838933D01*
X40752195Y-43838932D01*
X40702761Y-43829099D01*
X40702758Y-43829099D01*
X40699748Y-43828500D01*
X39310252Y-43828500D01*
X39307242Y-43829099D01*
X39307239Y-43829099D01*
X39257805Y-43838932D01*
X39257803Y-43838933D01*
X39251769Y-43840133D01*
X39246655Y-43843550D01*
X39246653Y-43843551D01*
X39211008Y-43867369D01*
X39185448Y-43884448D01*
X39141133Y-43950769D01*
X39139933Y-43956803D01*
X39139932Y-43956805D01*
X39132298Y-43995184D01*
X39129500Y-44009252D01*
X39129500Y-45398748D01*
X39141133Y-45457231D01*
X39185448Y-45523552D01*
X39190562Y-45526969D01*
X39246653Y-45564449D01*
X39246655Y-45564450D01*
X39251769Y-45567867D01*
X39257803Y-45569067D01*
X39257805Y-45569068D01*
X39307239Y-45578901D01*
X39307242Y-45578901D01*
X39310252Y-45579500D01*
X40699748Y-45579500D01*
X40702758Y-45578901D01*
X40702761Y-45578901D01*
X40752195Y-45569068D01*
X40752197Y-45569067D01*
X40758231Y-45567867D01*
X40763345Y-45564450D01*
X40763347Y-45564449D01*
X40819438Y-45526969D01*
X40824552Y-45523552D01*
X40868867Y-45457231D01*
X40880500Y-45398748D01*
X40880500Y-45067000D01*
X40898806Y-45022806D01*
X40943000Y-45004500D01*
X43759948Y-45004500D01*
X43766036Y-45004947D01*
X43770342Y-45006425D01*
X43820454Y-45004544D01*
X43822798Y-45004500D01*
X43842948Y-45004500D01*
X43845775Y-45003974D01*
X43848642Y-45003709D01*
X43848650Y-45003800D01*
X43852912Y-45003326D01*
X43854725Y-45003258D01*
X43882208Y-45002226D01*
X43896518Y-44996078D01*
X43909746Y-44992060D01*
X43919378Y-44990266D01*
X43925053Y-44989209D01*
X43950016Y-44973822D01*
X43958117Y-44969613D01*
X43985063Y-44958036D01*
X43989949Y-44954022D01*
X43997331Y-44946640D01*
X44008730Y-44937630D01*
X44015433Y-44933498D01*
X44015434Y-44933497D01*
X44020348Y-44930468D01*
X44039512Y-44905266D01*
X44045068Y-44898903D01*
X44369559Y-44574413D01*
X44374181Y-44570423D01*
X44378269Y-44568425D01*
X44412368Y-44531666D01*
X44413995Y-44529977D01*
X44428248Y-44515724D01*
X44429878Y-44513347D01*
X44431720Y-44511131D01*
X44431792Y-44511191D01*
X44434470Y-44507840D01*
X44450474Y-44490588D01*
X44450475Y-44490586D01*
X44454401Y-44486354D01*
X44456539Y-44480996D01*
X44456541Y-44480992D01*
X44460171Y-44471891D01*
X44466680Y-44459699D01*
X44475492Y-44446854D01*
X44482261Y-44418330D01*
X44485017Y-44409613D01*
X44495883Y-44382378D01*
X44496500Y-44376085D01*
X44496500Y-44365643D01*
X44498189Y-44351212D01*
X44500008Y-44343547D01*
X44501340Y-44337934D01*
X44497071Y-44306565D01*
X44496500Y-44298138D01*
X44496500Y-44295000D01*
X44514806Y-44250806D01*
X44559000Y-44232500D01*
X44841334Y-44232500D01*
X44842790Y-44232362D01*
X44842798Y-44232362D01*
X44856442Y-44231072D01*
X44872869Y-44229519D01*
X44926676Y-44210623D01*
X44996274Y-44186183D01*
X44996276Y-44186182D01*
X45000684Y-44184634D01*
X45109650Y-44104150D01*
X45110534Y-44105347D01*
X45149500Y-44089206D01*
X45193694Y-44107512D01*
X45212000Y-44151706D01*
X45212000Y-53780140D01*
X45193694Y-53824334D01*
X45149500Y-53842640D01*
X45105306Y-53824334D01*
X42609806Y-51328835D01*
X42591500Y-51284641D01*
X42591500Y-48879859D01*
X42609806Y-48835665D01*
X43104665Y-48340806D01*
X43148859Y-48322500D01*
X44264834Y-48322500D01*
X44266290Y-48322362D01*
X44266298Y-48322362D01*
X44279942Y-48321072D01*
X44296369Y-48319519D01*
X44350176Y-48300623D01*
X44419774Y-48276183D01*
X44419776Y-48276182D01*
X44424184Y-48274634D01*
X44533150Y-48194150D01*
X44613634Y-48085184D01*
X44627070Y-48046925D01*
X44657257Y-47960962D01*
X44658519Y-47957369D01*
X44661500Y-47925834D01*
X44661500Y-46993166D01*
X44658519Y-46961631D01*
X44613634Y-46833816D01*
X44533150Y-46724850D01*
X44424184Y-46644366D01*
X44419776Y-46642818D01*
X44419774Y-46642817D01*
X44350176Y-46618377D01*
X44296369Y-46599481D01*
X44279942Y-46597928D01*
X44266298Y-46596638D01*
X44266290Y-46596638D01*
X44264834Y-46596500D01*
X42857166Y-46596500D01*
X42855710Y-46596638D01*
X42855702Y-46596638D01*
X42842058Y-46597928D01*
X42825631Y-46599481D01*
X42771824Y-46618377D01*
X42702226Y-46642817D01*
X42702224Y-46642818D01*
X42697816Y-46644366D01*
X42588850Y-46724850D01*
X42508366Y-46833816D01*
X42463481Y-46961631D01*
X42460500Y-46993166D01*
X42460500Y-46996500D01*
X42442194Y-47040694D01*
X42398000Y-47059000D01*
X42234000Y-47059000D01*
X42189806Y-47040694D01*
X42171500Y-46996500D01*
X42171500Y-46943166D01*
X42168519Y-46911631D01*
X42123634Y-46783816D01*
X42043150Y-46674850D01*
X41934184Y-46594366D01*
X41929776Y-46592818D01*
X41929774Y-46592817D01*
X41860176Y-46568377D01*
X41806369Y-46549481D01*
X41789942Y-46547928D01*
X41776298Y-46546638D01*
X41776290Y-46546638D01*
X41774834Y-46546500D01*
X40267166Y-46546500D01*
X40265710Y-46546638D01*
X40265702Y-46546638D01*
X40252058Y-46547928D01*
X40235631Y-46549481D01*
X40181824Y-46568377D01*
X40112226Y-46592817D01*
X40112224Y-46592818D01*
X40107816Y-46594366D01*
X39998850Y-46674850D01*
X39918366Y-46783816D01*
X39873481Y-46911631D01*
X39870500Y-46943166D01*
X39870500Y-47402300D01*
X39852194Y-47446494D01*
X39808000Y-47464800D01*
X39763806Y-47446494D01*
X39756033Y-47437024D01*
X39716969Y-47378562D01*
X39713552Y-47373448D01*
X39696680Y-47362174D01*
X39652347Y-47332551D01*
X39652345Y-47332550D01*
X39647231Y-47329133D01*
X39641197Y-47327933D01*
X39641195Y-47327932D01*
X39591761Y-47318099D01*
X39591758Y-47318099D01*
X39588748Y-47317500D01*
X38649252Y-47317500D01*
X38646242Y-47318099D01*
X38646239Y-47318099D01*
X38596805Y-47327932D01*
X38596803Y-47327933D01*
X38590769Y-47329133D01*
X38585655Y-47332550D01*
X38585653Y-47332551D01*
X38541320Y-47362174D01*
X38524448Y-47373448D01*
X38480133Y-47439769D01*
X38468500Y-47498252D01*
X38468500Y-48137748D01*
X38469099Y-48140758D01*
X38469099Y-48140761D01*
X38475413Y-48172500D01*
X38480133Y-48196231D01*
X38524448Y-48262552D01*
X38529562Y-48265969D01*
X38585653Y-48303449D01*
X38585655Y-48303450D01*
X38590769Y-48306867D01*
X38596803Y-48308067D01*
X38596805Y-48308068D01*
X38646239Y-48317901D01*
X38646242Y-48317901D01*
X38649252Y-48318500D01*
X39588748Y-48318500D01*
X39591758Y-48317901D01*
X39591761Y-48317901D01*
X39641195Y-48308068D01*
X39641197Y-48308067D01*
X39647231Y-48306867D01*
X39652345Y-48303450D01*
X39652347Y-48303449D01*
X39708438Y-48265969D01*
X39713552Y-48262552D01*
X39757867Y-48196231D01*
X39763322Y-48168807D01*
X39789898Y-48129033D01*
X39824621Y-48118500D01*
X40082190Y-48118500D01*
X40107741Y-48124847D01*
X40107816Y-48124634D01*
X40108423Y-48124847D01*
X40235631Y-48169519D01*
X40252058Y-48171072D01*
X40265702Y-48172362D01*
X40265710Y-48172362D01*
X40267166Y-48172500D01*
X41774834Y-48172500D01*
X41776290Y-48172362D01*
X41776298Y-48172362D01*
X41789942Y-48171072D01*
X41806369Y-48169519D01*
X41888261Y-48140761D01*
X41929774Y-48126183D01*
X41929776Y-48126182D01*
X41934184Y-48124634D01*
X42043150Y-48044150D01*
X42123634Y-47935184D01*
X42126404Y-47927298D01*
X42167257Y-47810962D01*
X42168519Y-47807369D01*
X42171500Y-47775834D01*
X42171500Y-47722500D01*
X42189806Y-47678306D01*
X42234000Y-47660000D01*
X42398000Y-47660000D01*
X42442194Y-47678306D01*
X42460500Y-47722500D01*
X42460500Y-47925834D01*
X42463481Y-47957369D01*
X42464743Y-47960962D01*
X42464744Y-47960967D01*
X42495852Y-48049549D01*
X42493224Y-48097312D01*
X42481077Y-48114452D01*
X42117445Y-48478084D01*
X42112820Y-48482076D01*
X42108731Y-48484075D01*
X42104807Y-48488305D01*
X42074620Y-48520847D01*
X42072993Y-48522536D01*
X42058752Y-48536777D01*
X42057125Y-48539148D01*
X42055281Y-48541367D01*
X42055211Y-48541308D01*
X42052534Y-48544656D01*
X42032599Y-48566146D01*
X42026829Y-48580609D01*
X42020318Y-48592803D01*
X42014772Y-48600887D01*
X42014771Y-48600890D01*
X42011508Y-48605646D01*
X42010176Y-48611261D01*
X42004739Y-48634170D01*
X42001983Y-48642887D01*
X41991117Y-48670122D01*
X41990500Y-48676415D01*
X41990500Y-48686857D01*
X41988811Y-48701288D01*
X41985660Y-48714566D01*
X41986438Y-48720282D01*
X41989929Y-48745934D01*
X41990500Y-48754362D01*
X41990500Y-49850952D01*
X41972194Y-49895146D01*
X41928000Y-49913452D01*
X41907292Y-49909922D01*
X41853833Y-49891149D01*
X41806369Y-49874481D01*
X41789942Y-49872928D01*
X41776298Y-49871638D01*
X41776290Y-49871638D01*
X41774834Y-49871500D01*
X40658859Y-49871500D01*
X40614665Y-49853194D01*
X40305916Y-49544445D01*
X40301924Y-49539820D01*
X40299925Y-49535731D01*
X40276302Y-49513817D01*
X40263153Y-49501620D01*
X40261464Y-49499993D01*
X40247223Y-49485752D01*
X40244852Y-49484125D01*
X40242633Y-49482281D01*
X40242692Y-49482211D01*
X40239342Y-49479532D01*
X40230946Y-49471743D01*
X40217854Y-49459599D01*
X40203389Y-49453828D01*
X40191197Y-49447318D01*
X40183113Y-49441772D01*
X40183110Y-49441771D01*
X40178354Y-49438508D01*
X40149831Y-49431739D01*
X40141113Y-49428983D01*
X40113878Y-49418117D01*
X40109487Y-49417686D01*
X40109485Y-49417686D01*
X40109345Y-49417673D01*
X40107585Y-49417500D01*
X40097143Y-49417500D01*
X40082712Y-49415811D01*
X40075047Y-49413992D01*
X40069434Y-49412660D01*
X40038066Y-49416929D01*
X40029638Y-49417500D01*
X39824621Y-49417500D01*
X39780427Y-49399194D01*
X39763322Y-49367193D01*
X39759068Y-49345806D01*
X39759068Y-49345805D01*
X39757867Y-49339769D01*
X39742923Y-49317403D01*
X39716969Y-49278562D01*
X39713552Y-49273448D01*
X39696680Y-49262174D01*
X39652347Y-49232551D01*
X39652345Y-49232550D01*
X39647231Y-49229133D01*
X39641197Y-49227933D01*
X39641195Y-49227932D01*
X39591761Y-49218099D01*
X39591758Y-49218099D01*
X39588748Y-49217500D01*
X38649252Y-49217500D01*
X38646242Y-49218099D01*
X38646239Y-49218099D01*
X38596805Y-49227932D01*
X38596803Y-49227933D01*
X38590769Y-49229133D01*
X38585655Y-49232550D01*
X38585653Y-49232551D01*
X38541320Y-49262174D01*
X38524448Y-49273448D01*
X38521031Y-49278562D01*
X38495078Y-49317403D01*
X38480133Y-49339769D01*
X38478933Y-49345803D01*
X38478932Y-49345805D01*
X38470393Y-49388736D01*
X38468500Y-49398252D01*
X38468500Y-50037748D01*
X38469099Y-50040758D01*
X38469099Y-50040761D01*
X38473986Y-50065327D01*
X38480133Y-50096231D01*
X38483550Y-50101345D01*
X38483551Y-50101347D01*
X38513174Y-50145680D01*
X38524448Y-50162552D01*
X38529562Y-50165969D01*
X38585653Y-50203449D01*
X38585655Y-50203450D01*
X38590769Y-50206867D01*
X38596803Y-50208067D01*
X38596805Y-50208068D01*
X38646239Y-50217901D01*
X38646242Y-50217901D01*
X38649252Y-50218500D01*
X39588748Y-50218500D01*
X39591758Y-50217901D01*
X39591761Y-50217901D01*
X39641195Y-50208068D01*
X39641197Y-50208067D01*
X39647231Y-50206867D01*
X39652345Y-50203450D01*
X39652347Y-50203449D01*
X39708438Y-50165969D01*
X39713552Y-50162552D01*
X39724826Y-50145680D01*
X39754449Y-50101347D01*
X39754450Y-50101345D01*
X39757867Y-50096231D01*
X39763322Y-50068807D01*
X39789898Y-50029033D01*
X39824621Y-50018500D01*
X39863160Y-50018500D01*
X39907354Y-50036806D01*
X39925660Y-50081000D01*
X39918945Y-50108033D01*
X39918366Y-50108816D01*
X39873481Y-50236631D01*
X39870500Y-50268166D01*
X39870500Y-51100834D01*
X39873481Y-51132369D01*
X39918366Y-51260184D01*
X39998850Y-51369150D01*
X40107816Y-51449634D01*
X40112224Y-51451182D01*
X40112226Y-51451183D01*
X40145729Y-51462948D01*
X40235631Y-51494519D01*
X40252058Y-51496072D01*
X40265702Y-51497362D01*
X40265710Y-51497362D01*
X40267166Y-51497500D01*
X41774834Y-51497500D01*
X41776290Y-51497362D01*
X41776298Y-51497362D01*
X41789942Y-51496072D01*
X41806369Y-51494519D01*
X41896271Y-51462948D01*
X41912258Y-51457334D01*
X41960021Y-51459963D01*
X41991936Y-51495596D01*
X41992614Y-51497959D01*
X41992774Y-51502208D01*
X41995051Y-51507507D01*
X41998922Y-51516518D01*
X42002940Y-51529746D01*
X42005791Y-51545053D01*
X42021178Y-51570016D01*
X42025387Y-51578117D01*
X42036964Y-51605063D01*
X42040978Y-51609949D01*
X42048360Y-51617331D01*
X42057370Y-51628730D01*
X42064532Y-51640348D01*
X42069126Y-51643841D01*
X42089734Y-51659512D01*
X42096097Y-51665068D01*
X44766194Y-54335165D01*
X44784500Y-54379359D01*
X44784500Y-54473483D01*
X44766194Y-54517677D01*
X44722000Y-54535983D01*
X44684867Y-54523756D01*
X44633944Y-54486143D01*
X44633943Y-54486143D01*
X44630184Y-54483366D01*
X44625776Y-54481818D01*
X44625774Y-54481817D01*
X44556176Y-54457377D01*
X44502369Y-54438481D01*
X44485942Y-54436928D01*
X44472298Y-54435638D01*
X44472290Y-54435638D01*
X44470834Y-54435500D01*
X43413166Y-54435500D01*
X43411710Y-54435638D01*
X43411702Y-54435638D01*
X43398058Y-54436928D01*
X43381631Y-54438481D01*
X43327824Y-54457377D01*
X43258226Y-54481817D01*
X43258224Y-54481818D01*
X43253816Y-54483366D01*
X43144850Y-54563850D01*
X43064366Y-54672816D01*
X43062818Y-54677224D01*
X43062817Y-54677226D01*
X43041648Y-54737507D01*
X43019481Y-54800631D01*
X43019123Y-54804422D01*
X43018306Y-54808144D01*
X43016279Y-54807699D01*
X42996989Y-54844149D01*
X42957140Y-54858500D01*
X42355394Y-54858500D01*
X42311200Y-54840194D01*
X42303428Y-54830724D01*
X42295972Y-54819566D01*
X42295971Y-54819565D01*
X42292552Y-54814448D01*
X42287437Y-54811030D01*
X42231347Y-54773551D01*
X42231345Y-54773550D01*
X42226231Y-54770133D01*
X42220197Y-54768933D01*
X42220195Y-54768932D01*
X42170761Y-54759099D01*
X42170758Y-54759099D01*
X42167748Y-54758500D01*
X41948359Y-54758500D01*
X41904165Y-54740194D01*
X41473416Y-54309445D01*
X41469424Y-54304820D01*
X41467425Y-54300731D01*
X41446630Y-54281441D01*
X41426679Y-54237965D01*
X41442798Y-54193678D01*
X41522335Y-54105807D01*
X41525322Y-54102507D01*
X41581588Y-53986375D01*
X41590900Y-53931028D01*
X41602597Y-53861496D01*
X41602997Y-53859120D01*
X41603133Y-53848000D01*
X41584839Y-53720259D01*
X41531428Y-53602788D01*
X41463652Y-53524130D01*
X41448500Y-53483333D01*
X41448500Y-53456767D01*
X41466806Y-53412573D01*
X41473867Y-53406494D01*
X41546393Y-53352925D01*
X41550150Y-53350150D01*
X41630634Y-53241184D01*
X41675519Y-53113369D01*
X41678500Y-53081834D01*
X41678500Y-52074166D01*
X41675519Y-52042631D01*
X41630634Y-51914816D01*
X41550150Y-51805850D01*
X41441184Y-51725366D01*
X41436776Y-51723818D01*
X41436774Y-51723817D01*
X41367176Y-51699377D01*
X41313369Y-51680481D01*
X41296942Y-51678928D01*
X41283298Y-51677638D01*
X41283290Y-51677638D01*
X41281834Y-51677500D01*
X40474166Y-51677500D01*
X40472710Y-51677638D01*
X40472702Y-51677638D01*
X40459058Y-51678928D01*
X40442631Y-51680481D01*
X40388824Y-51699377D01*
X40319226Y-51723817D01*
X40319224Y-51723818D01*
X40314816Y-51725366D01*
X40205850Y-51805850D01*
X40125366Y-51914816D01*
X40080481Y-52042631D01*
X40077500Y-52074166D01*
X40077500Y-53081834D01*
X40080481Y-53113369D01*
X40125366Y-53241184D01*
X40205850Y-53350150D01*
X40314816Y-53430634D01*
X40319224Y-53432182D01*
X40319226Y-53432183D01*
X40388824Y-53456623D01*
X40442631Y-53475519D01*
X40459058Y-53477072D01*
X40472702Y-53478362D01*
X40472710Y-53478362D01*
X40474166Y-53478500D01*
X40734659Y-53478500D01*
X40778853Y-53496806D01*
X40797159Y-53541000D01*
X40781505Y-53582373D01*
X40767596Y-53598122D01*
X40712754Y-53714932D01*
X40692901Y-53842440D01*
X40709633Y-53970394D01*
X40761605Y-54088510D01*
X40761655Y-54088569D01*
X40769205Y-54134163D01*
X40741361Y-54173059D01*
X40708331Y-54182500D01*
X39901359Y-54182500D01*
X39857165Y-54164194D01*
X39274920Y-53581949D01*
X39256614Y-53537755D01*
X39274920Y-53493561D01*
X39306314Y-53478781D01*
X39305856Y-53476694D01*
X39309577Y-53475877D01*
X39313369Y-53475519D01*
X39367176Y-53456623D01*
X39436774Y-53432183D01*
X39436776Y-53432182D01*
X39441184Y-53430634D01*
X39550150Y-53350150D01*
X39630634Y-53241184D01*
X39675519Y-53113369D01*
X39678500Y-53081834D01*
X39678500Y-52074166D01*
X39675519Y-52042631D01*
X39630634Y-51914816D01*
X39550150Y-51805850D01*
X39441184Y-51725366D01*
X39436776Y-51723818D01*
X39436774Y-51723817D01*
X39367176Y-51699377D01*
X39313369Y-51680481D01*
X39296942Y-51678928D01*
X39283298Y-51677638D01*
X39283290Y-51677638D01*
X39281834Y-51677500D01*
X38474166Y-51677500D01*
X38472710Y-51677638D01*
X38472702Y-51677638D01*
X38459058Y-51678928D01*
X38442631Y-51680481D01*
X38388824Y-51699377D01*
X38319226Y-51723817D01*
X38319224Y-51723818D01*
X38314816Y-51725366D01*
X38205850Y-51805850D01*
X38125366Y-51914816D01*
X38080481Y-52042631D01*
X38077500Y-52074166D01*
X38077500Y-52215000D01*
X38059194Y-52259194D01*
X38015000Y-52277500D01*
X37677000Y-52277500D01*
X37632806Y-52259194D01*
X37614500Y-52215000D01*
X37614500Y-52074166D01*
X37611519Y-52042631D01*
X37566634Y-51914816D01*
X37486150Y-51805850D01*
X37377184Y-51725366D01*
X37372776Y-51723818D01*
X37372774Y-51723817D01*
X37303176Y-51699377D01*
X37249369Y-51680481D01*
X37232942Y-51678928D01*
X37219298Y-51677638D01*
X37219290Y-51677638D01*
X37217834Y-51677500D01*
X36410166Y-51677500D01*
X36408710Y-51677638D01*
X36408702Y-51677638D01*
X36395058Y-51678928D01*
X36378631Y-51680481D01*
X36324824Y-51699377D01*
X36255226Y-51723817D01*
X36255224Y-51723818D01*
X36250816Y-51725366D01*
X36141850Y-51805850D01*
X36061366Y-51914816D01*
X36016481Y-52042631D01*
X36013500Y-52074166D01*
X36013500Y-53081834D01*
X36016481Y-53113369D01*
X36061366Y-53241184D01*
X36141850Y-53350150D01*
X36250816Y-53430634D01*
X36255224Y-53432182D01*
X36255226Y-53432183D01*
X36324824Y-53456623D01*
X36378631Y-53475519D01*
X36395058Y-53477072D01*
X36408702Y-53478362D01*
X36408710Y-53478362D01*
X36410166Y-53478500D01*
X37217834Y-53478500D01*
X37219290Y-53478362D01*
X37219298Y-53478362D01*
X37232942Y-53477072D01*
X37249369Y-53475519D01*
X37303176Y-53456623D01*
X37372774Y-53432183D01*
X37372776Y-53432182D01*
X37377184Y-53430634D01*
X37486150Y-53350150D01*
X37566634Y-53241184D01*
X37611519Y-53113369D01*
X37614500Y-53081834D01*
X37614500Y-52941000D01*
X37632806Y-52896806D01*
X37677000Y-52878500D01*
X38015000Y-52878500D01*
X38059194Y-52896806D01*
X38077500Y-52941000D01*
X38077500Y-53081834D01*
X38080481Y-53113369D01*
X38125366Y-53241184D01*
X38205850Y-53350150D01*
X38314816Y-53430634D01*
X38319224Y-53432182D01*
X38319226Y-53432183D01*
X38388824Y-53456623D01*
X38442631Y-53475519D01*
X38459058Y-53477072D01*
X38472702Y-53478362D01*
X38472710Y-53478362D01*
X38474166Y-53478500D01*
X38515000Y-53478500D01*
X38559194Y-53496806D01*
X38577500Y-53541000D01*
X38577500Y-53554948D01*
X38577053Y-53561036D01*
X38575575Y-53565342D01*
X38576854Y-53599413D01*
X38577456Y-53615454D01*
X38577500Y-53617798D01*
X38577500Y-53637948D01*
X38578026Y-53640775D01*
X38578291Y-53643642D01*
X38578200Y-53643650D01*
X38578674Y-53647912D01*
X38579774Y-53677208D01*
X38585922Y-53691518D01*
X38589940Y-53704746D01*
X38592791Y-53720053D01*
X38608178Y-53745016D01*
X38612387Y-53753117D01*
X38623964Y-53780063D01*
X38627978Y-53784949D01*
X38635360Y-53792331D01*
X38644370Y-53803730D01*
X38651532Y-53815348D01*
X38673149Y-53831786D01*
X38676734Y-53834512D01*
X38683097Y-53840068D01*
X39281835Y-54438806D01*
X39300141Y-54483000D01*
X39281835Y-54527194D01*
X38878194Y-54930835D01*
X38834000Y-54949141D01*
X38789806Y-54930835D01*
X38771500Y-54886641D01*
X38771500Y-54832166D01*
X38768519Y-54800631D01*
X38746352Y-54737507D01*
X38725183Y-54677226D01*
X38725182Y-54677224D01*
X38723634Y-54672816D01*
X38643150Y-54563850D01*
X38534184Y-54483366D01*
X38529776Y-54481818D01*
X38529774Y-54481817D01*
X38460176Y-54457377D01*
X38406369Y-54438481D01*
X38389942Y-54436928D01*
X38376298Y-54435638D01*
X38376290Y-54435638D01*
X38374834Y-54435500D01*
X37317166Y-54435500D01*
X37315710Y-54435638D01*
X37315702Y-54435638D01*
X37302058Y-54436928D01*
X37285631Y-54438481D01*
X37231824Y-54457377D01*
X37162226Y-54481817D01*
X37162224Y-54481818D01*
X37157816Y-54483366D01*
X37048850Y-54563850D01*
X36968366Y-54672816D01*
X36966818Y-54677224D01*
X36966817Y-54677226D01*
X36945648Y-54737507D01*
X36923481Y-54800631D01*
X36920500Y-54832166D01*
X36920500Y-55592641D01*
X36902194Y-55636835D01*
X36723835Y-55815194D01*
X36679641Y-55833500D01*
X35960500Y-55833500D01*
X35916306Y-55815194D01*
X35898000Y-55771000D01*
X35898000Y-55493252D01*
X35897349Y-55489978D01*
X35887568Y-55440805D01*
X35887567Y-55440803D01*
X35886367Y-55434769D01*
X35880997Y-55426732D01*
X35871033Y-55411819D01*
X35860500Y-55377096D01*
X35860500Y-54846464D01*
X35876663Y-54804522D01*
X35879122Y-54801806D01*
X35937322Y-54737507D01*
X35993588Y-54621375D01*
X36014997Y-54494120D01*
X36015133Y-54483000D01*
X35996839Y-54355259D01*
X35956176Y-54265825D01*
X35945272Y-54241843D01*
X35945271Y-54241841D01*
X35943428Y-54237788D01*
X35859193Y-54140028D01*
X35750906Y-54069841D01*
X35746641Y-54068566D01*
X35746638Y-54068564D01*
X35631541Y-54034142D01*
X35631538Y-54034142D01*
X35627273Y-54032866D01*
X35563721Y-54032478D01*
X35502684Y-54032105D01*
X35502683Y-54032105D01*
X35498231Y-54032078D01*
X35374155Y-54067539D01*
X35265019Y-54136399D01*
X35262076Y-54139731D01*
X35262074Y-54139733D01*
X35182543Y-54229785D01*
X35179596Y-54233122D01*
X35124754Y-54349932D01*
X35104901Y-54477440D01*
X35121633Y-54605394D01*
X35123426Y-54609469D01*
X35153240Y-54677226D01*
X35173605Y-54723510D01*
X35185371Y-54737507D01*
X35244843Y-54808258D01*
X35259500Y-54848474D01*
X35259500Y-55225919D01*
X35241194Y-55270113D01*
X35197000Y-55288419D01*
X35194151Y-55288279D01*
X35192748Y-55288000D01*
X34903252Y-55288000D01*
X34900242Y-55288599D01*
X34900239Y-55288599D01*
X34850806Y-55298432D01*
X34850805Y-55298432D01*
X34844769Y-55299633D01*
X34839650Y-55303053D01*
X34839651Y-55303053D01*
X34832723Y-55307682D01*
X34785806Y-55317014D01*
X34763277Y-55307682D01*
X34756349Y-55303053D01*
X34756350Y-55303053D01*
X34751231Y-55299633D01*
X34745195Y-55298432D01*
X34745194Y-55298432D01*
X34695761Y-55288599D01*
X34695758Y-55288599D01*
X34692748Y-55288000D01*
X34403252Y-55288000D01*
X34400242Y-55288599D01*
X34400239Y-55288599D01*
X34350806Y-55298432D01*
X34350805Y-55298432D01*
X34344769Y-55299633D01*
X34339653Y-55303052D01*
X34339652Y-55303052D01*
X34312723Y-55321046D01*
X34265807Y-55330378D01*
X34255313Y-55327195D01*
X34250731Y-55324133D01*
X34224011Y-55318818D01*
X34195261Y-55313099D01*
X34195258Y-55313099D01*
X34192248Y-55312500D01*
X33877752Y-55312500D01*
X33874742Y-55313099D01*
X33874739Y-55313099D01*
X33825305Y-55322932D01*
X33825303Y-55322933D01*
X33819269Y-55324133D01*
X33814155Y-55327550D01*
X33814153Y-55327551D01*
X33769820Y-55357174D01*
X33752948Y-55368448D01*
X33708633Y-55434769D01*
X33706588Y-55433403D01*
X33679440Y-55460554D01*
X33631605Y-55460555D01*
X33597778Y-55426732D01*
X33593020Y-55402812D01*
X33593020Y-54249839D01*
X33611326Y-54205645D01*
X34324347Y-53492624D01*
X34368541Y-53474318D01*
X34378192Y-53475365D01*
X34378631Y-53475519D01*
X34382429Y-53475878D01*
X34408702Y-53478362D01*
X34408710Y-53478362D01*
X34410166Y-53478500D01*
X35217834Y-53478500D01*
X35219290Y-53478362D01*
X35219298Y-53478362D01*
X35232942Y-53477072D01*
X35249369Y-53475519D01*
X35303176Y-53456623D01*
X35372774Y-53432183D01*
X35372776Y-53432182D01*
X35377184Y-53430634D01*
X35486150Y-53350150D01*
X35566634Y-53241184D01*
X35611519Y-53113369D01*
X35614500Y-53081834D01*
X35614500Y-52074166D01*
X35611519Y-52042631D01*
X35566634Y-51914816D01*
X35486150Y-51805850D01*
X35377184Y-51725366D01*
X35372776Y-51723818D01*
X35372774Y-51723817D01*
X35303176Y-51699377D01*
X35249369Y-51680481D01*
X35232942Y-51678928D01*
X35219298Y-51677638D01*
X35219290Y-51677638D01*
X35217834Y-51677500D01*
X34410166Y-51677500D01*
X34408710Y-51677638D01*
X34408702Y-51677638D01*
X34395058Y-51678928D01*
X34378631Y-51680481D01*
X34324824Y-51699377D01*
X34255226Y-51723817D01*
X34255224Y-51723818D01*
X34250816Y-51725366D01*
X34141850Y-51805850D01*
X34061366Y-51914816D01*
X34016481Y-52042631D01*
X34013500Y-52074166D01*
X34013500Y-52927640D01*
X33995194Y-52971834D01*
X33614104Y-53352925D01*
X33300194Y-53666835D01*
X33256000Y-53685141D01*
X33211806Y-53666835D01*
X33193500Y-53622641D01*
X33193500Y-51750859D01*
X33211806Y-51706665D01*
X33706665Y-51211806D01*
X33750859Y-51193500D01*
X34866834Y-51193500D01*
X34868290Y-51193362D01*
X34868298Y-51193362D01*
X34881942Y-51192072D01*
X34898369Y-51190519D01*
X34952176Y-51171623D01*
X35021774Y-51147183D01*
X35021776Y-51147182D01*
X35026184Y-51145634D01*
X35135150Y-51065150D01*
X35215634Y-50956184D01*
X35260519Y-50828369D01*
X35263500Y-50796834D01*
X35263500Y-50106000D01*
X35281806Y-50061806D01*
X35326000Y-50043500D01*
X35618352Y-50043500D01*
X35662546Y-50061806D01*
X35675024Y-50085151D01*
X35676577Y-50084508D01*
X35678932Y-50090194D01*
X35680133Y-50096231D01*
X35683550Y-50101345D01*
X35683551Y-50101347D01*
X35713174Y-50145680D01*
X35724448Y-50162552D01*
X35729562Y-50165969D01*
X35785653Y-50203449D01*
X35785655Y-50203450D01*
X35790769Y-50206867D01*
X35796803Y-50208067D01*
X35796805Y-50208068D01*
X35846239Y-50217901D01*
X35846242Y-50217901D01*
X35849252Y-50218500D01*
X36788748Y-50218500D01*
X36791758Y-50217901D01*
X36791761Y-50217901D01*
X36841195Y-50208068D01*
X36841197Y-50208067D01*
X36847231Y-50206867D01*
X36852345Y-50203450D01*
X36852347Y-50203449D01*
X36908438Y-50165969D01*
X36913552Y-50162552D01*
X36924826Y-50145680D01*
X36954449Y-50101347D01*
X36954450Y-50101345D01*
X36957867Y-50096231D01*
X36963322Y-50068807D01*
X36968901Y-50040762D01*
X36968902Y-50040757D01*
X36969500Y-50037748D01*
X36969669Y-50037782D01*
X36991640Y-49996684D01*
X37031286Y-49982500D01*
X37377296Y-49982500D01*
X37415187Y-49996970D01*
X37415639Y-49996291D01*
X37419344Y-49998757D01*
X37419346Y-49998759D01*
X37449003Y-50018500D01*
X37523060Y-50067796D01*
X37646233Y-50106278D01*
X37650683Y-50106360D01*
X37650686Y-50106360D01*
X37770809Y-50108562D01*
X37770812Y-50108562D01*
X37775255Y-50108643D01*
X37779546Y-50107473D01*
X37779547Y-50107473D01*
X37842924Y-50090194D01*
X37899755Y-50074700D01*
X38009724Y-50007179D01*
X38096322Y-49911507D01*
X38152588Y-49795375D01*
X38173997Y-49668120D01*
X38174133Y-49657000D01*
X38155839Y-49529259D01*
X38116061Y-49441772D01*
X38104272Y-49415843D01*
X38104271Y-49415841D01*
X38102428Y-49411788D01*
X38085809Y-49392500D01*
X38021101Y-49317403D01*
X38018193Y-49314028D01*
X37909906Y-49243841D01*
X37905641Y-49242566D01*
X37905638Y-49242564D01*
X37790541Y-49208142D01*
X37790538Y-49208142D01*
X37786273Y-49206866D01*
X37722721Y-49206478D01*
X37661684Y-49206105D01*
X37661683Y-49206105D01*
X37657231Y-49206078D01*
X37533155Y-49241539D01*
X37424019Y-49310399D01*
X37421070Y-49313738D01*
X37417712Y-49316596D01*
X37377204Y-49331500D01*
X36985748Y-49331500D01*
X36941554Y-49313194D01*
X36933784Y-49303727D01*
X36913552Y-49273448D01*
X36908437Y-49270030D01*
X36852347Y-49232551D01*
X36852345Y-49232550D01*
X36847231Y-49229133D01*
X36841197Y-49227933D01*
X36841195Y-49227932D01*
X36791761Y-49218099D01*
X36791758Y-49218099D01*
X36788748Y-49217500D01*
X35849252Y-49217500D01*
X35846242Y-49218099D01*
X35846239Y-49218099D01*
X35796805Y-49227932D01*
X35796803Y-49227933D01*
X35790769Y-49229133D01*
X35785655Y-49232550D01*
X35785653Y-49232551D01*
X35741320Y-49262174D01*
X35724448Y-49273448D01*
X35721031Y-49278562D01*
X35695078Y-49317403D01*
X35680133Y-49339769D01*
X35678932Y-49345805D01*
X35676577Y-49351492D01*
X35674118Y-49350473D01*
X35653079Y-49381965D01*
X35618352Y-49392500D01*
X34792441Y-49392500D01*
X34786994Y-49392262D01*
X34784951Y-49392083D01*
X34746693Y-49388736D01*
X34741413Y-49390151D01*
X34741411Y-49390151D01*
X34707617Y-49399207D01*
X34702296Y-49400387D01*
X34662455Y-49407412D01*
X34657721Y-49410145D01*
X34657716Y-49410147D01*
X34656987Y-49410568D01*
X34641914Y-49416812D01*
X34641095Y-49417031D01*
X34641093Y-49417032D01*
X34635816Y-49418446D01*
X34631341Y-49421580D01*
X34631340Y-49421580D01*
X34602678Y-49441650D01*
X34598086Y-49444575D01*
X34572880Y-49459128D01*
X34541633Y-49467500D01*
X33459166Y-49467500D01*
X33457710Y-49467638D01*
X33457702Y-49467638D01*
X33444058Y-49468928D01*
X33427631Y-49470481D01*
X33394229Y-49482211D01*
X33304226Y-49513817D01*
X33304224Y-49513818D01*
X33299816Y-49515366D01*
X33190850Y-49595850D01*
X33110366Y-49704816D01*
X33065481Y-49832631D01*
X33062500Y-49864166D01*
X33062500Y-50796834D01*
X33065481Y-50828369D01*
X33066743Y-50831962D01*
X33066744Y-50831967D01*
X33097852Y-50920549D01*
X33095224Y-50968312D01*
X33083077Y-50985452D01*
X32745694Y-51322835D01*
X32701500Y-51341141D01*
X32657306Y-51322835D01*
X32639000Y-51278641D01*
X32639000Y-36569779D01*
X32657306Y-36525585D01*
X32701500Y-36507279D01*
X32745694Y-36525585D01*
X32760469Y-36549069D01*
X32777366Y-36597184D01*
X32857850Y-36706150D01*
X32966816Y-36786634D01*
X32971224Y-36788182D01*
X32971226Y-36788183D01*
X33008274Y-36801193D01*
X33094631Y-36831519D01*
X33111058Y-36833072D01*
X33124702Y-36834362D01*
X33124710Y-36834362D01*
X33126166Y-36834500D01*
X34183834Y-36834500D01*
X34185290Y-36834362D01*
X34185298Y-36834362D01*
X34198942Y-36833072D01*
X34215369Y-36831519D01*
X34301726Y-36801193D01*
X34338774Y-36788183D01*
X34338776Y-36788182D01*
X34343184Y-36786634D01*
X34452150Y-36706150D01*
X34532634Y-36597184D01*
X34534618Y-36591536D01*
X34576257Y-36472962D01*
X34577519Y-36469369D01*
X34580500Y-36437834D01*
X34580500Y-35949207D01*
X34598806Y-35905013D01*
X34643000Y-35886707D01*
X34687194Y-35905013D01*
G37*
%TD.AperFunction*%
%TA.AperFunction,Conductor*%
G36*
X43698480Y-36157806D02*
G01*
X44487194Y-36946520D01*
X44505500Y-36990714D01*
X44505500Y-41166000D01*
X44487194Y-41210194D01*
X44443000Y-41228500D01*
X44247636Y-41228500D01*
X44235170Y-41226731D01*
X44231374Y-41226359D01*
X44225832Y-41224754D01*
X44203005Y-41226731D01*
X44185269Y-41228267D01*
X44179876Y-41228500D01*
X43311360Y-41228500D01*
X43267166Y-41210194D01*
X42594416Y-40537445D01*
X42590424Y-40532820D01*
X42588425Y-40528731D01*
X42574806Y-40516097D01*
X42551653Y-40494620D01*
X42549964Y-40492993D01*
X42535723Y-40478752D01*
X42533352Y-40477125D01*
X42531133Y-40475281D01*
X42531192Y-40475211D01*
X42527842Y-40472532D01*
X42522832Y-40467884D01*
X42506354Y-40452599D01*
X42491889Y-40446828D01*
X42479697Y-40440318D01*
X42471613Y-40434772D01*
X42471610Y-40434771D01*
X42466854Y-40431508D01*
X42438331Y-40424739D01*
X42429613Y-40421983D01*
X42402378Y-40411117D01*
X42397987Y-40410686D01*
X42397985Y-40410686D01*
X42397652Y-40410654D01*
X42396085Y-40410500D01*
X42395616Y-40410500D01*
X42393916Y-40409696D01*
X42393698Y-40409643D01*
X42393709Y-40409598D01*
X42352491Y-40390112D01*
X42336369Y-40345075D01*
X42337495Y-40335940D01*
X42342901Y-40308763D01*
X42342902Y-40308756D01*
X42343500Y-40305748D01*
X42343500Y-39816252D01*
X42331867Y-39757769D01*
X42331458Y-39757157D01*
X42331458Y-39714843D01*
X42331867Y-39714231D01*
X42343500Y-39655748D01*
X42343500Y-39365859D01*
X42361806Y-39321665D01*
X43052665Y-38630806D01*
X43096859Y-38612500D01*
X43962834Y-38612500D01*
X43964290Y-38612362D01*
X43964298Y-38612362D01*
X43977942Y-38611072D01*
X43994369Y-38609519D01*
X44048176Y-38590623D01*
X44117774Y-38566183D01*
X44117776Y-38566182D01*
X44122184Y-38564634D01*
X44231150Y-38484150D01*
X44311634Y-38375184D01*
X44356519Y-38247369D01*
X44359500Y-38215834D01*
X44359500Y-37433166D01*
X44356519Y-37401631D01*
X44337623Y-37347824D01*
X44313183Y-37278226D01*
X44313182Y-37278224D01*
X44311634Y-37273816D01*
X44231150Y-37164850D01*
X44122184Y-37084366D01*
X44117776Y-37082818D01*
X44117774Y-37082817D01*
X44048176Y-37058377D01*
X43994369Y-37039481D01*
X43977942Y-37037928D01*
X43964298Y-37036638D01*
X43964290Y-37036638D01*
X43962834Y-37036500D01*
X42985929Y-37036500D01*
X42971498Y-37034811D01*
X42968047Y-37033992D01*
X42962434Y-37032660D01*
X42952647Y-37033992D01*
X42938414Y-37035929D01*
X42929986Y-37036500D01*
X42905166Y-37036500D01*
X42898974Y-37037085D01*
X42897516Y-37037223D01*
X42891635Y-37037500D01*
X42357981Y-37037500D01*
X42313787Y-37019194D01*
X42297827Y-36991965D01*
X42274342Y-36908691D01*
X42273565Y-36905936D01*
X42260455Y-36879350D01*
X42177248Y-36710624D01*
X42177247Y-36710623D01*
X42175980Y-36708053D01*
X42173225Y-36704363D01*
X42045684Y-36533566D01*
X42045683Y-36533564D01*
X42043967Y-36531267D01*
X41881949Y-36381499D01*
X41695350Y-36263764D01*
X41692697Y-36262706D01*
X41692690Y-36262702D01*
X41686044Y-36260051D01*
X41651779Y-36226672D01*
X41651152Y-36178841D01*
X41684531Y-36144576D01*
X41709203Y-36139500D01*
X43654286Y-36139500D01*
X43698480Y-36157806D01*
G37*
%TD.AperFunction*%
%TA.AperFunction,Conductor*%
G36*
X45193694Y-24021306D02*
G01*
X45212000Y-24065500D01*
X45212000Y-36605659D01*
X45193694Y-36649853D01*
X45149500Y-36668159D01*
X45105306Y-36649853D01*
X45095375Y-36636912D01*
X45084194Y-36617545D01*
X45053198Y-36591536D01*
X45049178Y-36587852D01*
X44057146Y-35595820D01*
X44053462Y-35591800D01*
X44030970Y-35564995D01*
X44027455Y-35560806D01*
X43992414Y-35540575D01*
X43987822Y-35537650D01*
X43959160Y-35517580D01*
X43959159Y-35517580D01*
X43954684Y-35514446D01*
X43949407Y-35513032D01*
X43949405Y-35513031D01*
X43948586Y-35512812D01*
X43933513Y-35506568D01*
X43932784Y-35506147D01*
X43932779Y-35506145D01*
X43928045Y-35503412D01*
X43888204Y-35496387D01*
X43882883Y-35495207D01*
X43849089Y-35486151D01*
X43849087Y-35486151D01*
X43843807Y-35484736D01*
X43805549Y-35488083D01*
X43803506Y-35488262D01*
X43798059Y-35488500D01*
X36618729Y-35488500D01*
X36587473Y-35480123D01*
X36586141Y-35479354D01*
X36557028Y-35441400D01*
X36563279Y-35393974D01*
X36580268Y-35374960D01*
X36607393Y-35354925D01*
X36611150Y-35352150D01*
X36691634Y-35243184D01*
X36733386Y-35124291D01*
X36765300Y-35088659D01*
X36792355Y-35082500D01*
X36934391Y-35082500D01*
X36969115Y-35093034D01*
X37010769Y-35120867D01*
X37016805Y-35122068D01*
X37016806Y-35122068D01*
X37066239Y-35131901D01*
X37066242Y-35131901D01*
X37069252Y-35132500D01*
X37908748Y-35132500D01*
X37911758Y-35131901D01*
X37911761Y-35131901D01*
X37961195Y-35122068D01*
X37961197Y-35122067D01*
X37967231Y-35120867D01*
X37972345Y-35117450D01*
X37972347Y-35117449D01*
X38028438Y-35079969D01*
X38033552Y-35076552D01*
X38058198Y-35039667D01*
X38074449Y-35015347D01*
X38074450Y-35015345D01*
X38077867Y-35010231D01*
X38089500Y-34951748D01*
X39888500Y-34951748D01*
X39900133Y-35010231D01*
X39903550Y-35015345D01*
X39903551Y-35015347D01*
X39919802Y-35039667D01*
X39944448Y-35076552D01*
X39949562Y-35079969D01*
X40005653Y-35117449D01*
X40005655Y-35117450D01*
X40010769Y-35120867D01*
X40016803Y-35122067D01*
X40016805Y-35122068D01*
X40066239Y-35131901D01*
X40066242Y-35131901D01*
X40069252Y-35132500D01*
X40908748Y-35132500D01*
X40911758Y-35131901D01*
X40911761Y-35131901D01*
X40961195Y-35122068D01*
X40961197Y-35122067D01*
X40967231Y-35120867D01*
X40972345Y-35117450D01*
X40972347Y-35117449D01*
X41028438Y-35079969D01*
X41033552Y-35076552D01*
X41058198Y-35039667D01*
X41074449Y-35015347D01*
X41074450Y-35015345D01*
X41077867Y-35010231D01*
X41089500Y-34951748D01*
X41089500Y-34612252D01*
X41077867Y-34553769D01*
X41033552Y-34487448D01*
X40997254Y-34463194D01*
X40972347Y-34446551D01*
X40972345Y-34446550D01*
X40967231Y-34443133D01*
X40961197Y-34441933D01*
X40961195Y-34441932D01*
X40911761Y-34432099D01*
X40911758Y-34432099D01*
X40908748Y-34431500D01*
X40069252Y-34431500D01*
X40066242Y-34432099D01*
X40066239Y-34432099D01*
X40016805Y-34441932D01*
X40016803Y-34441933D01*
X40010769Y-34443133D01*
X40005655Y-34446550D01*
X40005653Y-34446551D01*
X39980746Y-34463194D01*
X39944448Y-34487448D01*
X39900133Y-34553769D01*
X39888500Y-34612252D01*
X39888500Y-34951748D01*
X38089500Y-34951748D01*
X38089500Y-34612252D01*
X38077867Y-34553769D01*
X38033552Y-34487448D01*
X37997254Y-34463194D01*
X37972347Y-34446551D01*
X37972345Y-34446550D01*
X37967231Y-34443133D01*
X37961197Y-34441933D01*
X37961195Y-34441932D01*
X37911761Y-34432099D01*
X37911758Y-34432099D01*
X37908748Y-34431500D01*
X37069252Y-34431500D01*
X37066242Y-34432099D01*
X37066239Y-34432099D01*
X37016806Y-34441932D01*
X37016805Y-34441932D01*
X37010769Y-34443133D01*
X37005650Y-34446553D01*
X37005651Y-34446553D01*
X36969115Y-34470966D01*
X36934391Y-34481500D01*
X36802000Y-34481500D01*
X36757806Y-34463194D01*
X36739500Y-34419000D01*
X36739500Y-34301166D01*
X36736519Y-34269631D01*
X36735257Y-34266037D01*
X36735256Y-34266033D01*
X36709971Y-34194032D01*
X36712599Y-34146269D01*
X36748231Y-34114354D01*
X36763493Y-34111061D01*
X36801476Y-34107738D01*
X36806923Y-34107500D01*
X36971805Y-34107500D01*
X36999613Y-34115936D01*
X36999963Y-34115091D01*
X37005650Y-34117446D01*
X37010769Y-34120867D01*
X37037489Y-34126182D01*
X37066239Y-34131901D01*
X37066242Y-34131901D01*
X37069252Y-34132500D01*
X37908748Y-34132500D01*
X37911758Y-34131901D01*
X37911761Y-34131901D01*
X37961195Y-34122068D01*
X37961197Y-34122067D01*
X37967231Y-34120867D01*
X37972345Y-34117450D01*
X37972347Y-34117449D01*
X38028438Y-34079969D01*
X38033552Y-34076552D01*
X38077867Y-34010231D01*
X38083952Y-33979643D01*
X38088901Y-33954761D01*
X38088901Y-33954758D01*
X38089500Y-33951748D01*
X39888500Y-33951748D01*
X39889099Y-33954758D01*
X39889099Y-33954761D01*
X39894049Y-33979643D01*
X39900133Y-34010231D01*
X39944448Y-34076552D01*
X39949562Y-34079969D01*
X40005653Y-34117449D01*
X40005655Y-34117450D01*
X40010769Y-34120867D01*
X40016803Y-34122067D01*
X40016805Y-34122068D01*
X40066239Y-34131901D01*
X40066242Y-34131901D01*
X40069252Y-34132500D01*
X40908748Y-34132500D01*
X40911758Y-34131901D01*
X40911761Y-34131901D01*
X40961195Y-34122068D01*
X40961197Y-34122067D01*
X40967231Y-34120867D01*
X40972345Y-34117450D01*
X40972347Y-34117449D01*
X41028438Y-34079969D01*
X41033552Y-34076552D01*
X41077867Y-34010231D01*
X41083952Y-33979643D01*
X41088901Y-33954761D01*
X41088901Y-33954758D01*
X41089500Y-33951748D01*
X41089500Y-33916000D01*
X41107806Y-33871806D01*
X41152000Y-33853500D01*
X41441296Y-33853500D01*
X41479187Y-33867970D01*
X41479639Y-33867291D01*
X41483344Y-33869757D01*
X41483346Y-33869759D01*
X41552814Y-33916000D01*
X41587060Y-33938796D01*
X41710233Y-33977278D01*
X41714683Y-33977360D01*
X41714686Y-33977360D01*
X41834809Y-33979562D01*
X41834812Y-33979562D01*
X41839255Y-33979643D01*
X41843546Y-33978473D01*
X41843547Y-33978473D01*
X41941571Y-33951748D01*
X41963755Y-33945700D01*
X42073724Y-33878179D01*
X42077453Y-33874059D01*
X42077980Y-33873825D01*
X42080136Y-33872035D01*
X42080642Y-33872644D01*
X42123791Y-33853500D01*
X42252559Y-33853500D01*
X42258006Y-33853738D01*
X42298307Y-33857264D01*
X42303587Y-33855849D01*
X42303589Y-33855849D01*
X42337383Y-33846793D01*
X42342704Y-33845613D01*
X42382545Y-33838588D01*
X42387279Y-33835855D01*
X42387284Y-33835853D01*
X42388013Y-33835432D01*
X42403086Y-33829188D01*
X42403905Y-33828969D01*
X42403907Y-33828968D01*
X42409184Y-33827554D01*
X42442322Y-33804350D01*
X42446914Y-33801425D01*
X42481955Y-33781194D01*
X42507963Y-33750199D01*
X42511647Y-33746179D01*
X42707020Y-33550806D01*
X42751214Y-33532500D01*
X43581834Y-33532500D01*
X43583290Y-33532362D01*
X43583298Y-33532362D01*
X43596942Y-33531072D01*
X43613369Y-33529519D01*
X43674419Y-33508080D01*
X43736774Y-33486183D01*
X43736776Y-33486182D01*
X43741184Y-33484634D01*
X43850150Y-33404150D01*
X43930634Y-33295184D01*
X43975519Y-33167369D01*
X43977766Y-33143598D01*
X43978362Y-33137298D01*
X43978362Y-33137290D01*
X43978500Y-33135834D01*
X43978500Y-32353166D01*
X43975519Y-32321631D01*
X43956623Y-32267824D01*
X43932183Y-32198226D01*
X43932182Y-32198224D01*
X43930634Y-32193816D01*
X43850150Y-32084850D01*
X43818229Y-32061273D01*
X43793557Y-32020292D01*
X43805088Y-31973868D01*
X43846070Y-31949195D01*
X43855362Y-31948500D01*
X43981296Y-31948500D01*
X44019187Y-31962970D01*
X44019639Y-31962291D01*
X44023344Y-31964757D01*
X44023346Y-31964759D01*
X44067141Y-31993911D01*
X44127060Y-32033796D01*
X44250233Y-32072278D01*
X44254683Y-32072360D01*
X44254686Y-32072360D01*
X44374809Y-32074562D01*
X44374812Y-32074562D01*
X44379255Y-32074643D01*
X44383546Y-32073473D01*
X44383547Y-32073473D01*
X44488199Y-32044941D01*
X44503755Y-32040700D01*
X44613724Y-31973179D01*
X44700322Y-31877507D01*
X44756588Y-31761375D01*
X44758627Y-31749259D01*
X44777597Y-31636496D01*
X44777997Y-31634120D01*
X44778133Y-31623000D01*
X44759839Y-31495259D01*
X44728941Y-31427302D01*
X44708272Y-31381843D01*
X44708271Y-31381841D01*
X44706428Y-31377788D01*
X44622193Y-31280028D01*
X44513906Y-31209841D01*
X44509641Y-31208566D01*
X44509638Y-31208564D01*
X44394541Y-31174142D01*
X44394538Y-31174142D01*
X44390273Y-31172866D01*
X44326721Y-31172478D01*
X44265684Y-31172105D01*
X44265683Y-31172105D01*
X44261231Y-31172078D01*
X44137155Y-31207539D01*
X44028019Y-31276399D01*
X44025070Y-31279738D01*
X44021712Y-31282596D01*
X43981204Y-31297500D01*
X40910930Y-31297500D01*
X40905483Y-31297262D01*
X40897155Y-31296533D01*
X40865193Y-31293737D01*
X40826114Y-31304209D01*
X40820811Y-31305385D01*
X40806451Y-31307917D01*
X40786335Y-31311463D01*
X40786333Y-31311464D01*
X40780955Y-31312412D01*
X40776223Y-31315144D01*
X40775480Y-31315573D01*
X40760417Y-31321812D01*
X40759598Y-31322031D01*
X40759595Y-31322032D01*
X40754316Y-31323447D01*
X40721166Y-31346658D01*
X40716590Y-31349573D01*
X40686281Y-31367071D01*
X40686278Y-31367073D01*
X40681545Y-31369806D01*
X40678031Y-31373994D01*
X40655541Y-31400796D01*
X40651857Y-31404816D01*
X40270819Y-31785855D01*
X40266799Y-31789539D01*
X40235806Y-31815545D01*
X40233073Y-31820279D01*
X40215580Y-31850579D01*
X40212650Y-31855178D01*
X40199821Y-31873500D01*
X40189446Y-31888316D01*
X40188032Y-31893593D01*
X40188031Y-31893595D01*
X40187812Y-31894414D01*
X40181568Y-31909487D01*
X40181147Y-31910216D01*
X40181145Y-31910221D01*
X40178412Y-31914955D01*
X40172498Y-31948500D01*
X40171388Y-31954793D01*
X40170207Y-31960117D01*
X40169443Y-31962970D01*
X40159736Y-31999193D01*
X40162880Y-32035124D01*
X40163262Y-32039494D01*
X40163500Y-32044941D01*
X40163500Y-32369000D01*
X40145194Y-32413194D01*
X40101000Y-32431500D01*
X40069252Y-32431500D01*
X40066242Y-32432099D01*
X40066239Y-32432099D01*
X40016805Y-32441932D01*
X40016803Y-32441933D01*
X40010769Y-32443133D01*
X40005655Y-32446550D01*
X40005653Y-32446551D01*
X39961320Y-32476174D01*
X39944448Y-32487448D01*
X39900133Y-32553769D01*
X39888500Y-32612252D01*
X39888500Y-32951748D01*
X39900133Y-33010231D01*
X39900542Y-33010843D01*
X39900542Y-33053157D01*
X39900133Y-33053769D01*
X39898932Y-33059805D01*
X39898932Y-33059806D01*
X39891056Y-33099404D01*
X39888500Y-33112252D01*
X39888500Y-33451748D01*
X39889099Y-33454758D01*
X39889099Y-33454761D01*
X39898919Y-33504130D01*
X39900133Y-33510231D01*
X39900542Y-33510843D01*
X39900542Y-33553157D01*
X39900133Y-33553769D01*
X39888500Y-33612252D01*
X39888500Y-33951748D01*
X38089500Y-33951748D01*
X38089500Y-33612252D01*
X38077867Y-33553769D01*
X38077458Y-33553157D01*
X38077458Y-33510843D01*
X38077867Y-33510231D01*
X38079081Y-33504130D01*
X38088901Y-33454761D01*
X38088901Y-33454758D01*
X38089500Y-33451748D01*
X38089500Y-33112252D01*
X38086945Y-33099404D01*
X38079068Y-33059806D01*
X38079068Y-33059805D01*
X38077867Y-33053769D01*
X38077458Y-33053157D01*
X38077458Y-33010843D01*
X38077867Y-33010231D01*
X38089500Y-32951748D01*
X38089500Y-32612252D01*
X38077867Y-32553769D01*
X38033552Y-32487448D01*
X38016680Y-32476174D01*
X37972347Y-32446551D01*
X37972345Y-32446550D01*
X37967231Y-32443133D01*
X37961197Y-32441933D01*
X37961195Y-32441932D01*
X37911761Y-32432099D01*
X37911758Y-32432099D01*
X37908748Y-32431500D01*
X37877000Y-32431500D01*
X37832806Y-32413194D01*
X37814500Y-32369000D01*
X37814500Y-32186330D01*
X37830663Y-32144388D01*
X37839334Y-32134808D01*
X37842322Y-32131507D01*
X37898588Y-32015375D01*
X37900441Y-32004366D01*
X37915482Y-31914955D01*
X37919997Y-31888120D01*
X37920133Y-31877000D01*
X37901839Y-31749259D01*
X37848428Y-31631788D01*
X37764193Y-31534028D01*
X37655906Y-31463841D01*
X37651641Y-31462566D01*
X37651638Y-31462564D01*
X37536541Y-31428142D01*
X37536538Y-31428142D01*
X37532273Y-31426866D01*
X37468721Y-31426478D01*
X37407684Y-31426105D01*
X37407683Y-31426105D01*
X37403231Y-31426078D01*
X37279155Y-31461539D01*
X37170019Y-31530399D01*
X37167076Y-31533731D01*
X37167074Y-31533733D01*
X37088236Y-31623000D01*
X37084596Y-31627122D01*
X37029754Y-31743932D01*
X37009901Y-31871440D01*
X37026633Y-31999394D01*
X37028426Y-32003469D01*
X37063014Y-32082076D01*
X37078605Y-32117510D01*
X37093146Y-32134808D01*
X37148843Y-32201068D01*
X37163500Y-32241284D01*
X37163500Y-32369000D01*
X37145194Y-32413194D01*
X37101000Y-32431500D01*
X37069252Y-32431500D01*
X37066242Y-32432099D01*
X37066239Y-32432099D01*
X37016805Y-32441932D01*
X37016803Y-32441933D01*
X37010769Y-32443133D01*
X37005655Y-32446550D01*
X37005653Y-32446551D01*
X36961320Y-32476174D01*
X36944448Y-32487448D01*
X36900133Y-32553769D01*
X36888500Y-32612252D01*
X36888500Y-32951748D01*
X36900133Y-33010231D01*
X36900542Y-33010843D01*
X36900542Y-33053157D01*
X36900133Y-33053769D01*
X36898932Y-33059805D01*
X36898932Y-33059806D01*
X36891056Y-33099404D01*
X36888500Y-33112252D01*
X36888500Y-33390195D01*
X36870194Y-33434389D01*
X36826000Y-33452695D01*
X36822158Y-33452527D01*
X36817265Y-33451216D01*
X36779007Y-33454563D01*
X36776964Y-33454742D01*
X36771517Y-33454980D01*
X34863968Y-33454980D01*
X34858521Y-33454742D01*
X34856478Y-33454563D01*
X34818220Y-33451216D01*
X34812940Y-33452631D01*
X34812938Y-33452631D01*
X34779144Y-33461687D01*
X34773823Y-33462867D01*
X34733982Y-33469892D01*
X34729248Y-33472625D01*
X34729243Y-33472627D01*
X34728514Y-33473048D01*
X34713441Y-33479292D01*
X34712622Y-33479511D01*
X34712620Y-33479512D01*
X34707343Y-33480926D01*
X34702868Y-33484060D01*
X34702867Y-33484060D01*
X34674205Y-33504130D01*
X34669613Y-33507055D01*
X34634572Y-33527286D01*
X34631057Y-33531475D01*
X34608563Y-33558282D01*
X34604879Y-33562302D01*
X34198820Y-33968361D01*
X34194800Y-33972045D01*
X34163806Y-33998052D01*
X34160260Y-34004195D01*
X34143580Y-34033086D01*
X34140650Y-34037685D01*
X34117446Y-34070823D01*
X34116032Y-34076100D01*
X34116031Y-34076102D01*
X34115812Y-34076921D01*
X34109568Y-34091994D01*
X34109147Y-34092723D01*
X34109145Y-34092728D01*
X34106412Y-34097462D01*
X34103979Y-34111264D01*
X34099388Y-34137300D01*
X34098207Y-34142624D01*
X34094438Y-34156691D01*
X34087736Y-34181700D01*
X34088213Y-34187147D01*
X34091262Y-34222001D01*
X34091500Y-34227448D01*
X34091500Y-35049133D01*
X34073194Y-35093327D01*
X33926327Y-35240194D01*
X33882133Y-35258500D01*
X33126166Y-35258500D01*
X33124710Y-35258638D01*
X33124702Y-35258638D01*
X33111058Y-35259928D01*
X33094631Y-35261481D01*
X33040824Y-35280377D01*
X32971226Y-35304817D01*
X32971224Y-35304818D01*
X32966816Y-35306366D01*
X32857850Y-35386850D01*
X32777366Y-35495816D01*
X32775818Y-35500224D01*
X32774040Y-35505287D01*
X32771398Y-35512812D01*
X32760470Y-35543930D01*
X32728555Y-35579562D01*
X32680791Y-35582191D01*
X32645159Y-35550276D01*
X32639000Y-35523221D01*
X32639000Y-24065500D01*
X32657306Y-24021306D01*
X32701500Y-24003000D01*
X45149500Y-24003000D01*
X45193694Y-24021306D01*
G37*
%TD.AperFunction*%
%TD*%
M02*
