M48
; DRILL file {KiCad (6.0.2)} date Mon Mar 28 23:16:37 2022
; FORMAT={-:-/ absolute / metric / decimal}
; #@! TF.CreationDate,2022-03-28T23:16:37-04:00
; #@! TF.GenerationSoftware,Kicad,Pcbnew,(6.0.2)
; #@! TF.FileFunction,Plated,1,2,PTH
FMAT,2
METRIC
; #@! TA.AperFunction,Plated,PTH,ViaDrill
T1C0.200
; #@! TA.AperFunction,Plated,PTH,ComponentDrill
T2C0.800
; #@! TA.AperFunction,Plated,PTH,ComponentDrill
T3C1.000
; #@! TA.AperFunction,Plated,PTH,ComponentDrill
T4C1.329
%
G90
G05
T1
X33.147Y-58.801
X35.075Y-31.4
X35.2Y-29.6
X35.56Y-54.483
X36.068Y-58.801
X36.1Y-28.6
X36.8Y-31.2
X36.8Y-54.4
X36.83Y-43.434
X37.465Y-31.877
X37.694Y-41.707
X37.7Y-30.4
X37.719Y-49.657
X37.8Y-53.3
X38.075Y-39.243
X38.354Y-58.941
X38.354Y-61.595
X38.557Y-42.723
X38.8Y-35.9
X38.9Y-54.4
X39.243Y-61.722
X39.497Y-55.753
X39.624Y-57.15
X39.9Y-32.0
X40.1Y-48.7
X40.462Y-44.069
X40.925Y-31.85
X40.925Y-39.8
X41.148Y-53.848
X41.148Y-55.372
X41.225Y-35.425
X41.227Y-42.415
X41.5Y-49.1
X41.6Y-33.528
X41.656Y-58.039
X42.062Y-39.268
X42.4Y-30.7
X42.4Y-52.4
X43.028Y-45.974
X43.3Y-49.0
X43.3Y-51.5
X43.8Y-39.4
X43.8Y-42.0
X43.942Y-63.373
X44.577Y-45.898
X44.6Y-51.5
X44.7Y-49.0
T2
X36.148Y-37.338
X41.148Y-37.338
T3
X34.18Y-44.7
X36.337Y-72.009
X36.72Y-44.7
X38.877Y-72.009
X39.26Y-44.7
X41.417Y-72.009
X41.8Y-44.7
T4
X36.75Y-26.8
X43.9Y-26.8
T0
M30
