%TF.GenerationSoftware,KiCad,Pcbnew,(6.0.2)*%
%TF.CreationDate,2022-03-28T23:16:35-04:00*%
%TF.ProjectId,Altimeter,416c7469-6d65-4746-9572-2e6b69636164,rev?*%
%TF.SameCoordinates,Original*%
%TF.FileFunction,Copper,L2,Bot*%
%TF.FilePolarity,Positive*%
%FSLAX46Y46*%
G04 Gerber Fmt 4.6, Leading zero omitted, Abs format (unit mm)*
G04 Created by KiCad (PCBNEW (6.0.2)) date 2022-03-28 23:16:35*
%MOMM*%
%LPD*%
G01*
G04 APERTURE LIST*
G04 Aperture macros list*
%AMRoundRect*
0 Rectangle with rounded corners*
0 $1 Rounding radius*
0 $2 $3 $4 $5 $6 $7 $8 $9 X,Y pos of 4 corners*
0 Add a 4 corners polygon primitive as box body*
4,1,4,$2,$3,$4,$5,$6,$7,$8,$9,$2,$3,0*
0 Add four circle primitives for the rounded corners*
1,1,$1+$1,$2,$3*
1,1,$1+$1,$4,$5*
1,1,$1+$1,$6,$7*
1,1,$1+$1,$8,$9*
0 Add four rect primitives between the rounded corners*
20,1,$1+$1,$2,$3,$4,$5,0*
20,1,$1+$1,$4,$5,$6,$7,0*
20,1,$1+$1,$6,$7,$8,$9,0*
20,1,$1+$1,$8,$9,$2,$3,0*%
G04 Aperture macros list end*
%TA.AperFunction,ComponentPad*%
%ADD10C,1.850000*%
%TD*%
%TA.AperFunction,ComponentPad*%
%ADD11R,1.700000X1.700000*%
%TD*%
%TA.AperFunction,ComponentPad*%
%ADD12O,1.700000X1.700000*%
%TD*%
%TA.AperFunction,ComponentPad*%
%ADD13C,2.000000*%
%TD*%
%TA.AperFunction,SMDPad,CuDef*%
%ADD14RoundRect,0.250000X0.337500X0.475000X-0.337500X0.475000X-0.337500X-0.475000X0.337500X-0.475000X0*%
%TD*%
%TA.AperFunction,SMDPad,CuDef*%
%ADD15R,0.800000X0.300000*%
%TD*%
%TA.AperFunction,SMDPad,CuDef*%
%ADD16R,1.750000X2.450000*%
%TD*%
%TA.AperFunction,SMDPad,CuDef*%
%ADD17RoundRect,0.250000X-0.475000X0.337500X-0.475000X-0.337500X0.475000X-0.337500X0.475000X0.337500X0*%
%TD*%
%TA.AperFunction,SMDPad,CuDef*%
%ADD18R,0.850000X0.300000*%
%TD*%
%TA.AperFunction,SMDPad,CuDef*%
%ADD19R,1.700000X1.600000*%
%TD*%
%TA.AperFunction,SMDPad,CuDef*%
%ADD20R,0.275000X0.250000*%
%TD*%
%TA.AperFunction,SMDPad,CuDef*%
%ADD21R,0.250000X0.275000*%
%TD*%
%TA.AperFunction,SMDPad,CuDef*%
%ADD22RoundRect,0.250000X-0.650000X0.412500X-0.650000X-0.412500X0.650000X-0.412500X0.650000X0.412500X0*%
%TD*%
%TA.AperFunction,SMDPad,CuDef*%
%ADD23RoundRect,0.250000X0.475000X-0.337500X0.475000X0.337500X-0.475000X0.337500X-0.475000X-0.337500X0*%
%TD*%
%TA.AperFunction,SMDPad,CuDef*%
%ADD24RoundRect,0.250000X-0.350000X-0.450000X0.350000X-0.450000X0.350000X0.450000X-0.350000X0.450000X0*%
%TD*%
%TA.AperFunction,SMDPad,CuDef*%
%ADD25RoundRect,0.250000X0.650000X-0.412500X0.650000X0.412500X-0.650000X0.412500X-0.650000X-0.412500X0*%
%TD*%
%TA.AperFunction,SMDPad,CuDef*%
%ADD26RoundRect,0.250000X0.700000X-0.362500X0.700000X0.362500X-0.700000X0.362500X-0.700000X-0.362500X0*%
%TD*%
%TA.AperFunction,SMDPad,CuDef*%
%ADD27R,0.500000X0.400000*%
%TD*%
%TA.AperFunction,SMDPad,CuDef*%
%ADD28RoundRect,0.250000X0.275000X0.350000X-0.275000X0.350000X-0.275000X-0.350000X0.275000X-0.350000X0*%
%TD*%
%TA.AperFunction,SMDPad,CuDef*%
%ADD29R,1.500000X0.650000*%
%TD*%
%TA.AperFunction,SMDPad,CuDef*%
%ADD30RoundRect,0.250000X0.350000X0.450000X-0.350000X0.450000X-0.350000X-0.450000X0.350000X-0.450000X0*%
%TD*%
%TA.AperFunction,SMDPad,CuDef*%
%ADD31R,0.900000X0.600000*%
%TD*%
%TA.AperFunction,ViaPad*%
%ADD32C,0.460000*%
%TD*%
%TA.AperFunction,Conductor*%
%ADD33C,0.200000*%
%TD*%
%TA.AperFunction,Conductor*%
%ADD34C,0.250000*%
%TD*%
G04 APERTURE END LIST*
D10*
%TO.P,J1,MH1,MH1*%
%TO.N,Earth*%
X43900000Y-26800000D03*
%TO.P,J1,MH2,MH2*%
X36750000Y-26800000D03*
%TD*%
D11*
%TO.P,J2,1,Pin_1*%
%TO.N,/BAT*%
X41800000Y-44700000D03*
D12*
%TO.P,J2,2,Pin_2*%
X39260000Y-44700000D03*
%TO.P,J2,3,Pin_3*%
X36720000Y-44700000D03*
%TO.P,J2,4,Pin_4*%
%TO.N,Earth*%
X34180000Y-44700000D03*
%TD*%
%TO.P,J3,3,Pin_3*%
%TO.N,/TX*%
X41417000Y-72009000D03*
%TO.P,J3,2,Pin_2*%
%TO.N,/RX*%
X38877000Y-72009000D03*
D11*
%TO.P,J3,1,Pin_1*%
%TO.N,/PROG*%
X36337000Y-72009000D03*
%TD*%
D13*
%TO.P,LS1,1,+*%
%TO.N,Net-(C2-Pad1)*%
X41148000Y-37338000D03*
%TO.P,LS1,2,-*%
%TO.N,Earth*%
X36148000Y-37338000D03*
%TD*%
D14*
%TO.P,C1,1*%
%TO.N,Earth*%
X43762500Y-40675000D03*
%TO.P,C1,2*%
%TO.N,/BAT*%
X41687500Y-40675000D03*
%TD*%
D15*
%TO.P,IC4,1,STAT1*%
%TO.N,Net-(IC4-Pad1)*%
X40489000Y-32782000D03*
%TO.P,IC4,2,VSET*%
%TO.N,/5V*%
X40489000Y-33282000D03*
%TO.P,IC4,3,VDD1*%
X40489000Y-33782000D03*
%TO.P,IC4,4,VSS1*%
%TO.N,Earth*%
X40489000Y-34282000D03*
%TO.P,IC4,5,PROG*%
%TO.N,unconnected-(IC4-Pad5)*%
X40489000Y-34782000D03*
%TO.P,IC4,6,TIMER*%
%TO.N,Net-(C8-Pad1)*%
X37489000Y-34782000D03*
%TO.P,IC4,7,VSS2*%
%TO.N,Earth*%
X37489000Y-34282000D03*
%TO.P,IC4,8,VBAT1*%
%TO.N,/BAT*%
X37489000Y-33782000D03*
%TO.P,IC4,9,VBAT2*%
X37489000Y-33282000D03*
%TO.P,IC4,10,EN*%
%TO.N,/5V*%
X37489000Y-32782000D03*
D16*
%TO.P,IC4,11,EP*%
%TO.N,Earth*%
X38989000Y-33782000D03*
%TD*%
D17*
%TO.P,C4,1*%
%TO.N,/1.8V*%
X37846000Y-55223500D03*
%TO.P,C4,2*%
%TO.N,Earth*%
X37846000Y-57298500D03*
%TD*%
D18*
%TO.P,IC1,1,EN*%
%TO.N,/BUZZER*%
X40058000Y-39636000D03*
%TO.P,IC1,2,AGND*%
%TO.N,Earth*%
X40058000Y-40136000D03*
%TO.P,IC1,3,PGND*%
X40058000Y-40636000D03*
%TO.P,IC1,4,SW*%
%TO.N,Net-(IC1-Pad4)*%
X40058000Y-41136000D03*
%TO.P,IC1,5,VIN*%
%TO.N,/BAT*%
X37158000Y-41136000D03*
%TO.P,IC1,6,NC_1*%
%TO.N,unconnected-(IC1-Pad6)*%
X37158000Y-40636000D03*
%TO.P,IC1,7,VOUT*%
%TO.N,Net-(C2-Pad1)*%
X37158000Y-40136000D03*
%TO.P,IC1,8,NC_2*%
%TO.N,unconnected-(IC1-Pad8)*%
X37158000Y-39636000D03*
D19*
%TO.P,IC1,9,GND*%
%TO.N,Earth*%
X38608000Y-40386000D03*
%TD*%
D17*
%TO.P,C5,1*%
%TO.N,/5V*%
X42225000Y-32612500D03*
%TO.P,C5,2*%
%TO.N,Earth*%
X42225000Y-34687500D03*
%TD*%
D20*
%TO.P,IC3,1,SCK_SCL*%
%TO.N,/SCL*%
X35560000Y-55638000D03*
%TO.P,IC3,2,CSN*%
%TO.N,/1.8V*%
X35560000Y-56138000D03*
%TO.P,IC3,3,DOUT_A6*%
%TO.N,Earth*%
X35560000Y-56638000D03*
%TO.P,IC3,4,DIN_SDA*%
%TO.N,/SDA*%
X35560000Y-57138000D03*
D21*
%TO.P,IC3,5,NC_1*%
%TO.N,unconnected-(IC3-Pad5)*%
X35048000Y-57151000D03*
%TO.P,IC3,6,GND*%
%TO.N,Earth*%
X34548000Y-57151000D03*
D20*
%TO.P,IC3,7,VPP*%
X34035000Y-57138000D03*
%TO.P,IC3,8,NC_2*%
%TO.N,unconnected-(IC3-Pad8)*%
X34035000Y-56638000D03*
%TO.P,IC3,9,VDD*%
%TO.N,/1.8V*%
X34035000Y-56138000D03*
%TO.P,IC3,10,NC_3*%
%TO.N,unconnected-(IC3-Pad10)*%
X34035000Y-55638000D03*
D21*
%TO.P,IC3,11,INTN_2*%
%TO.N,unconnected-(IC3-Pad11)*%
X34548000Y-55626000D03*
%TO.P,IC3,12,INTN_1*%
%TO.N,unconnected-(IC3-Pad12)*%
X35048000Y-55626000D03*
%TD*%
D22*
%TO.P,C10,1*%
%TO.N,/1.8V*%
X43561000Y-47237500D03*
%TO.P,C10,2*%
%TO.N,Earth*%
X43561000Y-50362500D03*
%TD*%
D23*
%TO.P,C11,1*%
%TO.N,/1.8V*%
X43925000Y-61175000D03*
%TO.P,C11,2*%
%TO.N,Earth*%
X43925000Y-59100000D03*
%TD*%
D17*
%TO.P,C2,1*%
%TO.N,Net-(C2-Pad1)*%
X35450000Y-39805700D03*
%TO.P,C2,2*%
%TO.N,Earth*%
X35450000Y-41880700D03*
%TD*%
D24*
%TO.P,R1,1*%
%TO.N,/BAT*%
X36084000Y-60071000D03*
%TO.P,R1,2*%
%TO.N,/BAT_DIV*%
X38084000Y-60071000D03*
%TD*%
D25*
%TO.P,C7,1*%
%TO.N,/BAT*%
X34400000Y-49662500D03*
%TO.P,C7,2*%
%TO.N,Earth*%
X34400000Y-46537500D03*
%TD*%
D26*
%TO.P,L1,1,1*%
%TO.N,Net-(IC5-Pad5)*%
X41100000Y-50462500D03*
%TO.P,L1,2,2*%
%TO.N,/1.8V*%
X41100000Y-47137500D03*
%TD*%
D27*
%TO.P,U1,1,GND_1*%
%TO.N,Earth*%
X40398000Y-55159000D03*
%TO.P,U1,2,RESV_1*%
X40398000Y-55809000D03*
%TO.P,U1,3,SDA*%
%TO.N,/SDA*%
X40398000Y-56459000D03*
%TO.P,U1,4,SCL*%
%TO.N,/SCL*%
X40398000Y-57109000D03*
%TO.P,U1,5,RESV_2*%
%TO.N,Earth*%
X41898000Y-57109000D03*
%TO.P,U1,6,RESV_3*%
X41898000Y-56459000D03*
%TO.P,U1,7,GND_2*%
X41898000Y-55809000D03*
%TO.P,U1,8,VDD*%
%TO.N,/1.8V*%
X41898000Y-55159000D03*
%TD*%
D24*
%TO.P,R2,1*%
%TO.N,/BAT_DIV*%
X40021000Y-60071000D03*
%TO.P,R2,2*%
%TO.N,Earth*%
X42021000Y-60071000D03*
%TD*%
D17*
%TO.P,C6,1*%
%TO.N,/1.8V*%
X43942000Y-55223500D03*
%TO.P,C6,2*%
%TO.N,Earth*%
X43942000Y-57298500D03*
%TD*%
D28*
%TO.P,L2,1,1*%
%TO.N,/BAT*%
X42425000Y-42575000D03*
%TO.P,L2,2,2*%
%TO.N,Net-(IC1-Pad4)*%
X40125000Y-42575000D03*
%TD*%
D29*
%TO.P,IC2,14,GND*%
%TO.N,Earth*%
X36289000Y-62103000D03*
%TO.P,IC2,13,PA3(EXTCLK)*%
X36289000Y-63373000D03*
%TO.P,IC2,12,PA2*%
X36289000Y-64643000D03*
%TO.P,IC2,11,PA1*%
X36289000Y-65913000D03*
%TO.P,IC2,10,PA0(~{RESET}/UPDI)*%
%TO.N,/PROG*%
X36289000Y-67183000D03*
%TO.P,IC2,9,PB0*%
%TO.N,/SCL*%
X36289000Y-68453000D03*
%TO.P,IC2,8,PB1*%
%TO.N,/SDA*%
X36289000Y-69723000D03*
%TO.P,IC2,7,PB2*%
%TO.N,/TX*%
X41689000Y-69723000D03*
%TO.P,IC2,6,PB3*%
%TO.N,/RX*%
X41689000Y-68453000D03*
%TO.P,IC2,5,PA7*%
%TO.N,Earth*%
X41689000Y-67183000D03*
%TO.P,IC2,4,PA6*%
X41689000Y-65913000D03*
%TO.P,IC2,3,PA5*%
%TO.N,/BAT_DIV*%
X41689000Y-64643000D03*
%TO.P,IC2,2,PA4*%
%TO.N,/BUZZER*%
X41689000Y-63373000D03*
%TO.P,IC2,1,VDD*%
%TO.N,/1.8V*%
X41689000Y-62103000D03*
%TD*%
D23*
%TO.P,C8,1*%
%TO.N,Net-(C8-Pad1)*%
X35814000Y-34692500D03*
%TO.P,C8,2*%
%TO.N,Earth*%
X35814000Y-32617500D03*
%TD*%
D30*
%TO.P,R3,1*%
%TO.N,/SCL*%
X40878000Y-52578000D03*
%TO.P,R3,2*%
%TO.N,/1.8V*%
X38878000Y-52578000D03*
%TD*%
D31*
%TO.P,IC5,1,VIN*%
%TO.N,/BAT*%
X36319000Y-49718000D03*
%TO.P,IC5,2,GND*%
%TO.N,Earth*%
X36319000Y-48768000D03*
%TO.P,IC5,3,CE*%
X36319000Y-47818000D03*
%TO.P,IC5,4,VOUT*%
%TO.N,/1.8V*%
X39119000Y-47818000D03*
%TO.P,IC5,5,LX*%
%TO.N,Net-(IC5-Pad5)*%
X39119000Y-49718000D03*
%TD*%
D17*
%TO.P,C9,1*%
%TO.N,/BAT*%
X33625000Y-34262500D03*
%TO.P,C9,2*%
%TO.N,Earth*%
X33625000Y-36337500D03*
%TD*%
D24*
%TO.P,R4,1*%
%TO.N,/SDA*%
X34814000Y-52578000D03*
%TO.P,R4,2*%
%TO.N,/1.8V*%
X36814000Y-52578000D03*
%TD*%
D32*
%TO.N,Earth*%
X43800000Y-42000000D03*
X43800000Y-39400000D03*
X40925000Y-39800000D03*
X35075000Y-31400000D03*
X35200000Y-29600000D03*
X36800000Y-31200000D03*
X37693600Y-41706800D03*
X37700000Y-30400000D03*
X39497000Y-55753000D03*
X44577000Y-45897800D03*
X36800000Y-54400000D03*
X44600000Y-51500000D03*
X42400000Y-52400000D03*
X41225000Y-35425000D03*
X43300000Y-51500000D03*
X42400000Y-30700000D03*
X41656000Y-58039000D03*
X38557200Y-42722800D03*
X36100000Y-28600000D03*
X43027600Y-45974000D03*
X41500000Y-49100000D03*
X38074600Y-39243000D03*
X43300000Y-49000000D03*
X38900000Y-54400000D03*
X40925000Y-31850000D03*
X37800000Y-53300000D03*
X44700000Y-49000000D03*
X40462200Y-44069000D03*
X40100000Y-48700000D03*
X41226983Y-42415478D03*
%TO.N,/BAT*%
X33147000Y-58801000D03*
X36068000Y-58801000D03*
X38800000Y-35900000D03*
X37719000Y-49657000D03*
X36830000Y-43434000D03*
%TO.N,/5V*%
X37465000Y-31877000D03*
X41600000Y-33528000D03*
%TO.N,/BUZZER*%
X42062400Y-39268400D03*
X43942000Y-63373000D03*
%TO.N,/SDA*%
X39624000Y-57150000D03*
X39243000Y-61722000D03*
%TO.N,/SCL*%
X41148000Y-53848000D03*
X38354000Y-61595000D03*
X35560000Y-54483000D03*
X41148000Y-55372000D03*
X38354000Y-58941500D03*
%TO.N,Net-(IC4-Pad1)*%
X39900000Y-32000000D03*
%TD*%
D33*
%TO.N,/SDA*%
X39695000Y-56459000D02*
X40398000Y-56459000D01*
X39624000Y-56530000D02*
X39695000Y-56459000D01*
%TO.N,/BAT*%
X41687500Y-40675000D02*
X41687500Y-41837500D01*
X41687500Y-41837500D02*
X42425000Y-42575000D01*
X42391400Y-42608600D02*
X42425000Y-42575000D01*
X42391400Y-43408600D02*
X42391400Y-42608600D01*
%TO.N,Net-(IC1-Pad4)*%
X40125000Y-41203000D02*
X40058000Y-41136000D01*
X40125000Y-42575000D02*
X40125000Y-41203000D01*
%TO.N,Net-(C2-Pad1)*%
X36351300Y-39805700D02*
X35450000Y-39805700D01*
%TO.N,/1.8V*%
X43097000Y-62003000D02*
X43097000Y-62103000D01*
X43925000Y-61175000D02*
X43097000Y-62003000D01*
%TO.N,/BAT*%
X34475000Y-34375000D02*
X34362500Y-34262500D01*
X34475000Y-35325000D02*
X34475000Y-34375000D01*
X34362500Y-34262500D02*
X35064000Y-33561000D01*
X33625000Y-34262500D02*
X34362500Y-34262500D01*
X35064000Y-33561000D02*
X37489000Y-33561000D01*
X35050000Y-35900000D02*
X34475000Y-35325000D01*
X38800000Y-35900000D02*
X35050000Y-35900000D01*
D34*
X37489000Y-33561000D02*
X37489000Y-33282000D01*
X37489000Y-33782000D02*
X37489000Y-33561000D01*
%TO.N,/5V*%
X42097000Y-33528000D02*
X42225000Y-33400000D01*
X41600000Y-33528000D02*
X42097000Y-33528000D01*
X42225000Y-33400000D02*
X42225000Y-32612500D01*
X41600000Y-33528000D02*
X40513000Y-33528000D01*
X40513000Y-33528000D02*
X40489000Y-33504000D01*
D33*
%TO.N,Earth*%
X36319000Y-47818000D02*
X36319000Y-48768000D01*
%TO.N,/BAT*%
X36084000Y-58817000D02*
X36068000Y-58801000D01*
X36720000Y-44700000D02*
X39260000Y-44700000D01*
X42391400Y-43408600D02*
X42391400Y-44108600D01*
%TO.N,Earth*%
X33782000Y-36046500D02*
X33782000Y-35809493D01*
D34*
%TO.N,/BAT*%
X41800000Y-44700000D02*
X41800000Y-44000000D01*
D33*
X36720000Y-43580000D02*
X36720000Y-44700000D01*
X38430200Y-43408600D02*
X37158000Y-42136400D01*
X36084000Y-60071000D02*
X36084000Y-58817000D01*
X42391400Y-43408600D02*
X38430200Y-43408600D01*
X37158000Y-42136400D02*
X37158000Y-41136000D01*
D34*
X36319000Y-49718000D02*
X35012500Y-49718000D01*
D33*
X32893000Y-51169500D02*
X34400000Y-49662500D01*
X42391400Y-44108600D02*
X41800000Y-44700000D01*
D34*
X37719000Y-49657000D02*
X36380000Y-49657000D01*
D33*
X36830000Y-43434000D02*
X36830000Y-43470000D01*
X32893000Y-58547000D02*
X32893000Y-51169500D01*
X33147000Y-58801000D02*
X32893000Y-58547000D01*
X36830000Y-43470000D02*
X36720000Y-43580000D01*
D34*
X36380000Y-49657000D02*
X36319000Y-49718000D01*
D33*
%TO.N,Net-(C2-Pad1)*%
X36372800Y-39878000D02*
X36372800Y-38989000D01*
X36372800Y-40024822D02*
X36372800Y-39878000D01*
X36372800Y-39827200D02*
X36372800Y-39878000D01*
X36372800Y-38989000D02*
X36703000Y-38658800D01*
X37158000Y-40136000D02*
X36483978Y-40136000D01*
X36368900Y-39881900D02*
X36372800Y-39878000D01*
X40563800Y-38658800D02*
X41148000Y-38074600D01*
X36483978Y-40136000D02*
X36372800Y-40024822D01*
X41493000Y-37683000D02*
X41148000Y-37338000D01*
X36351300Y-39805700D02*
X36372800Y-39827200D01*
X41148000Y-38074600D02*
X41148000Y-37338000D01*
X36703000Y-38658800D02*
X40563800Y-38658800D01*
%TO.N,/1.8V*%
X45085000Y-62103000D02*
X43097000Y-62103000D01*
X37486500Y-55477500D02*
X36830000Y-56134000D01*
X38878000Y-53610000D02*
X39751000Y-54483000D01*
X39751000Y-54483000D02*
X38756500Y-55477500D01*
X36830000Y-56134000D02*
X34039000Y-56134000D01*
X41021000Y-47359500D02*
X43461000Y-47359500D01*
X38878000Y-52578000D02*
X38878000Y-53610000D01*
X41898000Y-55159000D02*
X43877500Y-55159000D01*
X34039000Y-56134000D02*
X34035000Y-56138000D01*
X44047500Y-55118000D02*
X43942000Y-55223500D01*
X39119000Y-47818000D02*
X40419500Y-47818000D01*
X45085000Y-55118000D02*
X45085000Y-62103000D01*
X43097000Y-62103000D02*
X41689000Y-62103000D01*
X39751000Y-54483000D02*
X41222000Y-54483000D01*
X45085000Y-54229000D02*
X42361480Y-51505480D01*
X42361480Y-48437020D02*
X43561000Y-47237500D01*
X43369500Y-55159000D02*
X43434000Y-55223500D01*
X40419500Y-47818000D02*
X41100000Y-47137500D01*
X38756500Y-55477500D02*
X37486500Y-55477500D01*
X45085000Y-54229000D02*
X45085000Y-55118000D01*
D34*
X44000000Y-61175000D02*
X44000000Y-61200000D01*
D33*
X42361480Y-51505480D02*
X42361480Y-48437020D01*
X41222000Y-54483000D02*
X41898000Y-55159000D01*
X43461000Y-47359500D02*
X43561000Y-47459500D01*
X36814000Y-52578000D02*
X38878000Y-52578000D01*
X43877500Y-55159000D02*
X43942000Y-55223500D01*
X45085000Y-55118000D02*
X44047500Y-55118000D01*
D34*
%TO.N,/5V*%
X37489000Y-31901000D02*
X37465000Y-31877000D01*
X40489000Y-33504000D02*
X40489000Y-33282000D01*
X40489000Y-33782000D02*
X40489000Y-33504000D01*
X37489000Y-32782000D02*
X37489000Y-31901000D01*
D33*
%TO.N,Net-(C8-Pad1)*%
X37489000Y-34782000D02*
X35649500Y-34782000D01*
X35649500Y-34782000D02*
X35560000Y-34692500D01*
%TO.N,/BUZZER*%
X41689000Y-63373000D02*
X43942000Y-63373000D01*
X42062400Y-39268400D02*
X40425600Y-39268400D01*
X40425600Y-39268400D02*
X40058000Y-39636000D01*
%TO.N,/BAT_DIV*%
X40021000Y-60071000D02*
X40021000Y-63400000D01*
X40021000Y-63400000D02*
X41264000Y-64643000D01*
X38084000Y-60071000D02*
X40021000Y-60071000D01*
X41264000Y-64643000D02*
X41689000Y-64643000D01*
%TO.N,/RX*%
X38830000Y-72009000D02*
X38830000Y-70887000D01*
X38830000Y-70887000D02*
X41264000Y-68453000D01*
X41264000Y-68453000D02*
X41689000Y-68453000D01*
%TO.N,/TX*%
X41689000Y-71150000D02*
X41689000Y-69723000D01*
X40830000Y-72009000D02*
X41689000Y-71150000D01*
%TO.N,/SDA*%
X33947478Y-57912000D02*
X33292520Y-57257042D01*
X35616011Y-57912000D02*
X36449000Y-57912000D01*
X35560000Y-57855989D02*
X35560000Y-57138000D01*
X36289000Y-69723000D02*
X36714000Y-69723000D01*
X35616011Y-57912000D02*
X33947478Y-57912000D01*
X36449000Y-57912000D02*
X36722520Y-58185520D01*
X33292520Y-54099480D02*
X34814000Y-52578000D01*
X36722520Y-58185520D02*
X38588480Y-58185520D01*
X39624000Y-57150000D02*
X39624000Y-56530000D01*
X39243000Y-67194000D02*
X39243000Y-61722000D01*
X33292520Y-57257042D02*
X33292520Y-54099480D01*
X36714000Y-69723000D02*
X39243000Y-67194000D01*
X38588480Y-58185520D02*
X39624000Y-57150000D01*
X35616011Y-57912000D02*
X35560000Y-57855989D01*
%TO.N,/SCL*%
X38354000Y-61595000D02*
X38354000Y-66813000D01*
X38354000Y-58941500D02*
X39356500Y-58941500D01*
X40848000Y-57109000D02*
X41148000Y-56809000D01*
X39356500Y-58941500D02*
X40386000Y-57912000D01*
X40386000Y-57912000D02*
X40386000Y-57121000D01*
X40386000Y-57121000D02*
X40398000Y-57109000D01*
X36714000Y-68453000D02*
X36289000Y-68453000D01*
X41148000Y-52848000D02*
X40878000Y-52578000D01*
X40398000Y-57109000D02*
X40848000Y-57109000D01*
X38354000Y-66813000D02*
X36714000Y-68453000D01*
X41148000Y-56809000D02*
X41148000Y-55372000D01*
X35560000Y-54483000D02*
X35560000Y-55638000D01*
X41148000Y-53848000D02*
X41148000Y-52848000D01*
%TO.N,/PROG*%
X35687000Y-72009000D02*
X34671000Y-70993000D01*
X34671000Y-70993000D02*
X34671000Y-67564000D01*
X36830000Y-72009000D02*
X35687000Y-72009000D01*
X34671000Y-67564000D02*
X35052000Y-67183000D01*
X35052000Y-67183000D02*
X36289000Y-67183000D01*
%TO.N,Net-(IC4-Pad1)*%
X40489000Y-32782000D02*
X40489000Y-32589000D01*
X40489000Y-32589000D02*
X39900000Y-32000000D01*
%TO.N,Net-(IC5-Pad5)*%
X39119000Y-49718000D02*
X40355500Y-49718000D01*
X40355500Y-49718000D02*
X41100000Y-50462500D01*
%TD*%
%TA.AperFunction,Conductor*%
%TO.N,Earth*%
G36*
X43071195Y-55404806D02*
G01*
X43089501Y-55449000D01*
X43089501Y-55596780D01*
X43100422Y-55670979D01*
X43102562Y-55675337D01*
X43102562Y-55675338D01*
X43153265Y-55778606D01*
X43155810Y-55783790D01*
X43159462Y-55787436D01*
X43159463Y-55787437D01*
X43241098Y-55868930D01*
X43241100Y-55868932D01*
X43244753Y-55872578D01*
X43249393Y-55874846D01*
X43343973Y-55921078D01*
X43357661Y-55927769D01*
X43362464Y-55928470D01*
X43362465Y-55928470D01*
X43384440Y-55931676D01*
X43431219Y-55938500D01*
X43940651Y-55938500D01*
X44452780Y-55938499D01*
X44526979Y-55927578D01*
X44531338Y-55925438D01*
X44635155Y-55874466D01*
X44635156Y-55874465D01*
X44639790Y-55872190D01*
X44667931Y-55844000D01*
X44724930Y-55786902D01*
X44724932Y-55786900D01*
X44728578Y-55783247D01*
X44738849Y-55762235D01*
X44774704Y-55730569D01*
X44822447Y-55733531D01*
X44854113Y-55769386D01*
X44857500Y-55789682D01*
X44857500Y-60643597D01*
X44839194Y-60687791D01*
X44795000Y-60706097D01*
X44750806Y-60687791D01*
X44738897Y-60671142D01*
X44713466Y-60619345D01*
X44713465Y-60619344D01*
X44711190Y-60614710D01*
X44650876Y-60554501D01*
X44625902Y-60529570D01*
X44625900Y-60529568D01*
X44622247Y-60525922D01*
X44509339Y-60470731D01*
X44504536Y-60470030D01*
X44504535Y-60470030D01*
X44482560Y-60466824D01*
X44435781Y-60460000D01*
X43926349Y-60460000D01*
X43414220Y-60460001D01*
X43340021Y-60470922D01*
X43335663Y-60473062D01*
X43335662Y-60473062D01*
X43231845Y-60524034D01*
X43231844Y-60524035D01*
X43227210Y-60526310D01*
X43223564Y-60529962D01*
X43223563Y-60529963D01*
X43142070Y-60611598D01*
X43142068Y-60611600D01*
X43138422Y-60615253D01*
X43083231Y-60728161D01*
X43072500Y-60801719D01*
X43072501Y-61548280D01*
X43083422Y-61622479D01*
X43085560Y-61626834D01*
X43085563Y-61626843D01*
X43087550Y-61630890D01*
X43090593Y-61678629D01*
X43075640Y-61702626D01*
X42941493Y-61836773D01*
X42939119Y-61839026D01*
X42916439Y-61859447D01*
X42874619Y-61875500D01*
X42629000Y-61875500D01*
X42584806Y-61857194D01*
X42566500Y-61813000D01*
X42566500Y-61765442D01*
X42559102Y-61728252D01*
X42530922Y-61686078D01*
X42488748Y-61657898D01*
X42482715Y-61656698D01*
X42482713Y-61656697D01*
X42454569Y-61651099D01*
X42451558Y-61650500D01*
X40926442Y-61650500D01*
X40923431Y-61651099D01*
X40895287Y-61656697D01*
X40895285Y-61656698D01*
X40889252Y-61657898D01*
X40847078Y-61686078D01*
X40818898Y-61728252D01*
X40811500Y-61765442D01*
X40811500Y-62440558D01*
X40818898Y-62477748D01*
X40847078Y-62519922D01*
X40889252Y-62548102D01*
X40895285Y-62549302D01*
X40895287Y-62549303D01*
X40921384Y-62554494D01*
X40926442Y-62555500D01*
X42451558Y-62555500D01*
X42456616Y-62554494D01*
X42482713Y-62549303D01*
X42482715Y-62549302D01*
X42488748Y-62548102D01*
X42530922Y-62519922D01*
X42559102Y-62477748D01*
X42566500Y-62440558D01*
X42566500Y-62393000D01*
X42584806Y-62348806D01*
X42629000Y-62330500D01*
X43081800Y-62330500D01*
X43088333Y-62330842D01*
X43114782Y-62333622D01*
X43114783Y-62333622D01*
X43121311Y-62334308D01*
X43127556Y-62332279D01*
X43134090Y-62331592D01*
X43134122Y-62331895D01*
X43142929Y-62330500D01*
X45069800Y-62330500D01*
X45076333Y-62330842D01*
X45102782Y-62333622D01*
X45102783Y-62333622D01*
X45109311Y-62334308D01*
X45130187Y-62327525D01*
X45177874Y-62331278D01*
X45208941Y-62367652D01*
X45212000Y-62386966D01*
X45212000Y-73343500D01*
X45193694Y-73387694D01*
X45149500Y-73406000D01*
X32701500Y-73406000D01*
X32657306Y-73387694D01*
X32639000Y-73343500D01*
X32639000Y-59585219D01*
X35356500Y-59585219D01*
X35356501Y-60556780D01*
X35367422Y-60630979D01*
X35369562Y-60635337D01*
X35369562Y-60635338D01*
X35395316Y-60687791D01*
X35422810Y-60743790D01*
X35426462Y-60747436D01*
X35426463Y-60747437D01*
X35508098Y-60828930D01*
X35508100Y-60828932D01*
X35511753Y-60832578D01*
X35624661Y-60887769D01*
X35629464Y-60888470D01*
X35629465Y-60888470D01*
X35651440Y-60891676D01*
X35698219Y-60898500D01*
X36082981Y-60898500D01*
X36469780Y-60898499D01*
X36543979Y-60887578D01*
X36548338Y-60885438D01*
X36652155Y-60834466D01*
X36652156Y-60834465D01*
X36656790Y-60832190D01*
X36689450Y-60799473D01*
X36741930Y-60746902D01*
X36741932Y-60746900D01*
X36745578Y-60743247D01*
X36780824Y-60671142D01*
X36798638Y-60634699D01*
X36798638Y-60634698D01*
X36800769Y-60630339D01*
X36811500Y-60556781D01*
X36811499Y-59585220D01*
X36800578Y-59511021D01*
X36745190Y-59398210D01*
X36741537Y-59394563D01*
X36659902Y-59313070D01*
X36659900Y-59313068D01*
X36656247Y-59309422D01*
X36543339Y-59254231D01*
X36538536Y-59253530D01*
X36538535Y-59253530D01*
X36507132Y-59248949D01*
X36469781Y-59243500D01*
X36416032Y-59243500D01*
X36371838Y-59225194D01*
X36353532Y-59181000D01*
X36369695Y-59139058D01*
X36369826Y-59138914D01*
X36445322Y-59055507D01*
X36501588Y-58939375D01*
X36522997Y-58812120D01*
X36523133Y-58801000D01*
X36504839Y-58673259D01*
X36451428Y-58555788D01*
X36367193Y-58458028D01*
X36258906Y-58387841D01*
X36254641Y-58386566D01*
X36254638Y-58386564D01*
X36139541Y-58352142D01*
X36139538Y-58352142D01*
X36135273Y-58350866D01*
X36071721Y-58350478D01*
X36010684Y-58350105D01*
X36010683Y-58350105D01*
X36006231Y-58350078D01*
X35882155Y-58385539D01*
X35773019Y-58454399D01*
X35770076Y-58457731D01*
X35770074Y-58457733D01*
X35707683Y-58528378D01*
X35687596Y-58551122D01*
X35632754Y-58667932D01*
X35612901Y-58795440D01*
X35629633Y-58923394D01*
X35631426Y-58927469D01*
X35679401Y-59036500D01*
X35681605Y-59041510D01*
X35693371Y-59055507D01*
X35764639Y-59140291D01*
X35762640Y-59141972D01*
X35779750Y-59177485D01*
X35763960Y-59222639D01*
X35717349Y-59243501D01*
X35698220Y-59243501D01*
X35624021Y-59254422D01*
X35619663Y-59256562D01*
X35619662Y-59256562D01*
X35515845Y-59307534D01*
X35515844Y-59307535D01*
X35511210Y-59309810D01*
X35507564Y-59313462D01*
X35507563Y-59313463D01*
X35426070Y-59395098D01*
X35426068Y-59395100D01*
X35422422Y-59398753D01*
X35420154Y-59403393D01*
X35369675Y-59506662D01*
X35367231Y-59511661D01*
X35356500Y-59585219D01*
X32639000Y-59585219D01*
X32639000Y-59062368D01*
X32657306Y-59018174D01*
X32701500Y-58999868D01*
X32745694Y-59018174D01*
X32756336Y-59033732D01*
X32756459Y-59033655D01*
X32758230Y-59036500D01*
X32758708Y-59037199D01*
X32760605Y-59041510D01*
X32843639Y-59140291D01*
X32847344Y-59142757D01*
X32847346Y-59142759D01*
X32906313Y-59182010D01*
X32951060Y-59211796D01*
X33074233Y-59250278D01*
X33078683Y-59250360D01*
X33078686Y-59250360D01*
X33198809Y-59252562D01*
X33198812Y-59252562D01*
X33203255Y-59252643D01*
X33207546Y-59251473D01*
X33207547Y-59251473D01*
X33265505Y-59235672D01*
X33327755Y-59218700D01*
X33437724Y-59151179D01*
X33450957Y-59136560D01*
X33521335Y-59058807D01*
X33524322Y-59055507D01*
X33580588Y-58939375D01*
X33601997Y-58812120D01*
X33602133Y-58801000D01*
X33583839Y-58673259D01*
X33530428Y-58555788D01*
X33446193Y-58458028D01*
X33337906Y-58387841D01*
X33333641Y-58386566D01*
X33333638Y-58386564D01*
X33218541Y-58352142D01*
X33218538Y-58352142D01*
X33214273Y-58350866D01*
X33182618Y-58350673D01*
X33138537Y-58332098D01*
X33120500Y-58288174D01*
X33120500Y-57557643D01*
X33138806Y-57513449D01*
X33183000Y-57495143D01*
X33227194Y-57513449D01*
X33505623Y-57791879D01*
X33781251Y-58067507D01*
X33783485Y-58069859D01*
X33810770Y-58100163D01*
X33816768Y-58102833D01*
X33816770Y-58102835D01*
X33834093Y-58110547D01*
X33842714Y-58115228D01*
X33858615Y-58125554D01*
X33864128Y-58129134D01*
X33874180Y-58130726D01*
X33889818Y-58135358D01*
X33899121Y-58139500D01*
X33924655Y-58139500D01*
X33934432Y-58140269D01*
X33953164Y-58143236D01*
X33953165Y-58143236D01*
X33959650Y-58144263D01*
X33969483Y-58141628D01*
X33985653Y-58139500D01*
X35593189Y-58139500D01*
X35602968Y-58140270D01*
X35628183Y-58144264D01*
X35638019Y-58141628D01*
X35654190Y-58139500D01*
X36328879Y-58139500D01*
X36373073Y-58157806D01*
X36556274Y-58341007D01*
X36558527Y-58343380D01*
X36585812Y-58373683D01*
X36606590Y-58382934D01*
X36609141Y-58384070D01*
X36617759Y-58388749D01*
X36633662Y-58399077D01*
X36633664Y-58399078D01*
X36639171Y-58402654D01*
X36649222Y-58404246D01*
X36664864Y-58408880D01*
X36668163Y-58410349D01*
X36668165Y-58410349D01*
X36674163Y-58413020D01*
X36699698Y-58413020D01*
X36709477Y-58413790D01*
X36734692Y-58417784D01*
X36744528Y-58415148D01*
X36760699Y-58413020D01*
X38131097Y-58413020D01*
X38175291Y-58431326D01*
X38193597Y-58475520D01*
X38175291Y-58519714D01*
X38164448Y-58528378D01*
X38059019Y-58594899D01*
X38056076Y-58598231D01*
X38056074Y-58598233D01*
X37989448Y-58673673D01*
X37973596Y-58691622D01*
X37918754Y-58808432D01*
X37898901Y-58935940D01*
X37915633Y-59063894D01*
X37917426Y-59067970D01*
X37917427Y-59067972D01*
X37956085Y-59155830D01*
X37957128Y-59203654D01*
X37924049Y-59238208D01*
X37898878Y-59243501D01*
X37698220Y-59243501D01*
X37624021Y-59254422D01*
X37619663Y-59256562D01*
X37619662Y-59256562D01*
X37515845Y-59307534D01*
X37515844Y-59307535D01*
X37511210Y-59309810D01*
X37507564Y-59313462D01*
X37507563Y-59313463D01*
X37426070Y-59395098D01*
X37426068Y-59395100D01*
X37422422Y-59398753D01*
X37420154Y-59403393D01*
X37369675Y-59506662D01*
X37367231Y-59511661D01*
X37356500Y-59585219D01*
X37356501Y-60556780D01*
X37367422Y-60630979D01*
X37369562Y-60635337D01*
X37369562Y-60635338D01*
X37395316Y-60687791D01*
X37422810Y-60743790D01*
X37426462Y-60747436D01*
X37426463Y-60747437D01*
X37508098Y-60828930D01*
X37508100Y-60828932D01*
X37511753Y-60832578D01*
X37624661Y-60887769D01*
X37629464Y-60888470D01*
X37629465Y-60888470D01*
X37651440Y-60891676D01*
X37698219Y-60898500D01*
X38082981Y-60898500D01*
X38469780Y-60898499D01*
X38543979Y-60887578D01*
X38548338Y-60885438D01*
X38652155Y-60834466D01*
X38652156Y-60834465D01*
X38656790Y-60832190D01*
X38689450Y-60799473D01*
X38741930Y-60746902D01*
X38741932Y-60746900D01*
X38745578Y-60743247D01*
X38780824Y-60671142D01*
X38798638Y-60634699D01*
X38798638Y-60634698D01*
X38800769Y-60630339D01*
X38811500Y-60556781D01*
X38811500Y-60361000D01*
X38829806Y-60316806D01*
X38874000Y-60298500D01*
X39231001Y-60298500D01*
X39275195Y-60316806D01*
X39293501Y-60361000D01*
X39293501Y-60556780D01*
X39304422Y-60630979D01*
X39306562Y-60635337D01*
X39306562Y-60635338D01*
X39332316Y-60687791D01*
X39359810Y-60743790D01*
X39363462Y-60747436D01*
X39363463Y-60747437D01*
X39445098Y-60828930D01*
X39445100Y-60828932D01*
X39448753Y-60832578D01*
X39561661Y-60887769D01*
X39566464Y-60888470D01*
X39566465Y-60888470D01*
X39588440Y-60891676D01*
X39635219Y-60898500D01*
X39731000Y-60898500D01*
X39775194Y-60916806D01*
X39793500Y-60961000D01*
X39793500Y-61555779D01*
X39775194Y-61599973D01*
X39731000Y-61618279D01*
X39686806Y-61599973D01*
X39674105Y-61581648D01*
X39628272Y-61480843D01*
X39628271Y-61480841D01*
X39626428Y-61476788D01*
X39623025Y-61472838D01*
X39545101Y-61382403D01*
X39542193Y-61379028D01*
X39433906Y-61308841D01*
X39429641Y-61307566D01*
X39429638Y-61307564D01*
X39314541Y-61273142D01*
X39314538Y-61273142D01*
X39310273Y-61271866D01*
X39246721Y-61271478D01*
X39185684Y-61271105D01*
X39185683Y-61271105D01*
X39181231Y-61271078D01*
X39057155Y-61306539D01*
X38948019Y-61375399D01*
X38945076Y-61378731D01*
X38945074Y-61378733D01*
X38880516Y-61451831D01*
X38837540Y-61472838D01*
X38792297Y-61457304D01*
X38776775Y-61436327D01*
X38739272Y-61353843D01*
X38739271Y-61353841D01*
X38737428Y-61349788D01*
X38653193Y-61252028D01*
X38544906Y-61181841D01*
X38540641Y-61180566D01*
X38540638Y-61180564D01*
X38425541Y-61146142D01*
X38425538Y-61146142D01*
X38421273Y-61144866D01*
X38357721Y-61144478D01*
X38296684Y-61144105D01*
X38296683Y-61144105D01*
X38292231Y-61144078D01*
X38168155Y-61179539D01*
X38059019Y-61248399D01*
X38056076Y-61251731D01*
X38056074Y-61251733D01*
X38007671Y-61306539D01*
X37973596Y-61345122D01*
X37918754Y-61461932D01*
X37898901Y-61589440D01*
X37915633Y-61717394D01*
X37917426Y-61721469D01*
X37936775Y-61765442D01*
X37967605Y-61835510D01*
X38050639Y-61934291D01*
X38054344Y-61936757D01*
X38054347Y-61936760D01*
X38098632Y-61966239D01*
X38125278Y-62005966D01*
X38126500Y-62018266D01*
X38126500Y-66692879D01*
X38108194Y-66737073D01*
X37272394Y-67572872D01*
X37228200Y-67591178D01*
X37184006Y-67572872D01*
X37165700Y-67528678D01*
X37165967Y-67523236D01*
X37166500Y-67520558D01*
X37166500Y-66845442D01*
X37164587Y-66835823D01*
X37160303Y-66814287D01*
X37160302Y-66814285D01*
X37159102Y-66808252D01*
X37130922Y-66766078D01*
X37088748Y-66737898D01*
X37082715Y-66736698D01*
X37082713Y-66736697D01*
X37054569Y-66731099D01*
X37051558Y-66730500D01*
X35526442Y-66730500D01*
X35523431Y-66731099D01*
X35495287Y-66736697D01*
X35495285Y-66736698D01*
X35489252Y-66737898D01*
X35447078Y-66766078D01*
X35418898Y-66808252D01*
X35417698Y-66814285D01*
X35417697Y-66814287D01*
X35413413Y-66835823D01*
X35411500Y-66845442D01*
X35411500Y-66893000D01*
X35393194Y-66937194D01*
X35349000Y-66955500D01*
X35059573Y-66955500D01*
X35056302Y-66955414D01*
X35053135Y-66955248D01*
X35015616Y-66953282D01*
X34991769Y-66962435D01*
X34982381Y-66965216D01*
X34957400Y-66970526D01*
X34952084Y-66974388D01*
X34952082Y-66974389D01*
X34949165Y-66976508D01*
X34934832Y-66984291D01*
X34931459Y-66985586D01*
X34925327Y-66987940D01*
X34907273Y-67005994D01*
X34899816Y-67012363D01*
X34879158Y-67027372D01*
X34875875Y-67033059D01*
X34875871Y-67033063D01*
X34874067Y-67036188D01*
X34864135Y-67049132D01*
X34515493Y-67397773D01*
X34513141Y-67400007D01*
X34482837Y-67427292D01*
X34480167Y-67433290D01*
X34480165Y-67433292D01*
X34472453Y-67450615D01*
X34467772Y-67459236D01*
X34458834Y-67473000D01*
X34453866Y-67480650D01*
X34452274Y-67490702D01*
X34447642Y-67506340D01*
X34443500Y-67515643D01*
X34443500Y-67541177D01*
X34442731Y-67550954D01*
X34438737Y-67576172D01*
X34441372Y-67586005D01*
X34443500Y-67602175D01*
X34443500Y-70985427D01*
X34443414Y-70988698D01*
X34441282Y-71029384D01*
X34450435Y-71053231D01*
X34453216Y-71062619D01*
X34458526Y-71087600D01*
X34462388Y-71092916D01*
X34462389Y-71092918D01*
X34464508Y-71095835D01*
X34472291Y-71110168D01*
X34475940Y-71119673D01*
X34493994Y-71137727D01*
X34500363Y-71145184D01*
X34515372Y-71165842D01*
X34521059Y-71169125D01*
X34521063Y-71169129D01*
X34524188Y-71170933D01*
X34537132Y-71180865D01*
X35341194Y-71984928D01*
X35359500Y-72029122D01*
X35359500Y-72871558D01*
X35366898Y-72908748D01*
X35395078Y-72950922D01*
X35437252Y-72979102D01*
X35443285Y-72980302D01*
X35443287Y-72980303D01*
X35469384Y-72985494D01*
X35474442Y-72986500D01*
X37199558Y-72986500D01*
X37204616Y-72985494D01*
X37230713Y-72980303D01*
X37230715Y-72980302D01*
X37236748Y-72979102D01*
X37278922Y-72950922D01*
X37307102Y-72908748D01*
X37314500Y-72871558D01*
X37314500Y-71995286D01*
X37894866Y-71995286D01*
X37910907Y-72186311D01*
X37963746Y-72370583D01*
X38051370Y-72541082D01*
X38170443Y-72691314D01*
X38316428Y-72815557D01*
X38319092Y-72817046D01*
X38319095Y-72817048D01*
X38411136Y-72868488D01*
X38483765Y-72909079D01*
X38486669Y-72910023D01*
X38486670Y-72910023D01*
X38663168Y-72967371D01*
X38663173Y-72967372D01*
X38666081Y-72968317D01*
X38856430Y-72991015D01*
X38859472Y-72990781D01*
X38859475Y-72990781D01*
X39044514Y-72976543D01*
X39044519Y-72976542D01*
X39047562Y-72976308D01*
X39076182Y-72968317D01*
X39229260Y-72925577D01*
X39229264Y-72925576D01*
X39232199Y-72924756D01*
X39403305Y-72838324D01*
X39405703Y-72836451D01*
X39405707Y-72836448D01*
X39484523Y-72774869D01*
X39554365Y-72720303D01*
X39581455Y-72688919D01*
X39677630Y-72577500D01*
X39677634Y-72577495D01*
X39679624Y-72575189D01*
X39700544Y-72538364D01*
X39772801Y-72411170D01*
X39772803Y-72411165D01*
X39774312Y-72408509D01*
X39834821Y-72226612D01*
X39839542Y-72189247D01*
X39858627Y-72038167D01*
X39858627Y-72038166D01*
X39858847Y-72036425D01*
X39859230Y-72009000D01*
X39857886Y-71995286D01*
X39840822Y-71821257D01*
X39840524Y-71818217D01*
X39785117Y-71634701D01*
X39695120Y-71465442D01*
X39573962Y-71316887D01*
X39426256Y-71194694D01*
X39257629Y-71103518D01*
X39194541Y-71083989D01*
X39110401Y-71057943D01*
X39073597Y-71027387D01*
X39069178Y-70979756D01*
X39084689Y-70954044D01*
X40705606Y-69333127D01*
X40749800Y-69314821D01*
X40793994Y-69333127D01*
X40812300Y-69377321D01*
X40812033Y-69382765D01*
X40811500Y-69385442D01*
X40811500Y-70060558D01*
X40818898Y-70097748D01*
X40847078Y-70139922D01*
X40889252Y-70168102D01*
X40895285Y-70169302D01*
X40895287Y-70169303D01*
X40921384Y-70174494D01*
X40926442Y-70175500D01*
X41399000Y-70175500D01*
X41443194Y-70193806D01*
X41461500Y-70238000D01*
X41461500Y-70966298D01*
X41443194Y-71010492D01*
X41404665Y-71028541D01*
X41334297Y-71034945D01*
X41235987Y-71043891D01*
X41235983Y-71043892D01*
X41232948Y-71044168D01*
X41049050Y-71098292D01*
X40879167Y-71187105D01*
X40729770Y-71307223D01*
X40606549Y-71454072D01*
X40514198Y-71622058D01*
X40456234Y-71804783D01*
X40434866Y-71995286D01*
X40450907Y-72186311D01*
X40503746Y-72370583D01*
X40591370Y-72541082D01*
X40710443Y-72691314D01*
X40856428Y-72815557D01*
X40859092Y-72817046D01*
X40859095Y-72817048D01*
X40951136Y-72868488D01*
X41023765Y-72909079D01*
X41026669Y-72910023D01*
X41026670Y-72910023D01*
X41203168Y-72967371D01*
X41203173Y-72967372D01*
X41206081Y-72968317D01*
X41396430Y-72991015D01*
X41399472Y-72990781D01*
X41399475Y-72990781D01*
X41584514Y-72976543D01*
X41584519Y-72976542D01*
X41587562Y-72976308D01*
X41616182Y-72968317D01*
X41769260Y-72925577D01*
X41769264Y-72925576D01*
X41772199Y-72924756D01*
X41943305Y-72838324D01*
X41945703Y-72836451D01*
X41945707Y-72836448D01*
X42024523Y-72774869D01*
X42094365Y-72720303D01*
X42121455Y-72688919D01*
X42217630Y-72577500D01*
X42217634Y-72577495D01*
X42219624Y-72575189D01*
X42240544Y-72538364D01*
X42312801Y-72411170D01*
X42312803Y-72411165D01*
X42314312Y-72408509D01*
X42374821Y-72226612D01*
X42379542Y-72189247D01*
X42398627Y-72038167D01*
X42398627Y-72038166D01*
X42398847Y-72036425D01*
X42399230Y-72009000D01*
X42397886Y-71995286D01*
X42380822Y-71821257D01*
X42380524Y-71818217D01*
X42325117Y-71634701D01*
X42235120Y-71465442D01*
X42113962Y-71316887D01*
X41966256Y-71194694D01*
X41952462Y-71187235D01*
X41922294Y-71150113D01*
X41920741Y-71141123D01*
X41921263Y-71137828D01*
X41918628Y-71127995D01*
X41916500Y-71111825D01*
X41916500Y-70238000D01*
X41934806Y-70193806D01*
X41979000Y-70175500D01*
X42451558Y-70175500D01*
X42456616Y-70174494D01*
X42482713Y-70169303D01*
X42482715Y-70169302D01*
X42488748Y-70168102D01*
X42530922Y-70139922D01*
X42559102Y-70097748D01*
X42566500Y-70060558D01*
X42566500Y-69385442D01*
X42559102Y-69348252D01*
X42530922Y-69306078D01*
X42488748Y-69277898D01*
X42482715Y-69276698D01*
X42482713Y-69276697D01*
X42454569Y-69271099D01*
X42451558Y-69270500D01*
X40926442Y-69270500D01*
X40924244Y-69270937D01*
X40878672Y-69257114D01*
X40856122Y-69214927D01*
X40870007Y-69169151D01*
X40874127Y-69164606D01*
X41114927Y-68923806D01*
X41159121Y-68905500D01*
X42451558Y-68905500D01*
X42456616Y-68904494D01*
X42482713Y-68899303D01*
X42482715Y-68899302D01*
X42488748Y-68898102D01*
X42530922Y-68869922D01*
X42559102Y-68827748D01*
X42566500Y-68790558D01*
X42566500Y-68115442D01*
X42559102Y-68078252D01*
X42530922Y-68036078D01*
X42488748Y-68007898D01*
X42482715Y-68006698D01*
X42482713Y-68006697D01*
X42454569Y-68001099D01*
X42451558Y-68000500D01*
X40926442Y-68000500D01*
X40923431Y-68001099D01*
X40895287Y-68006697D01*
X40895285Y-68006698D01*
X40889252Y-68007898D01*
X40847078Y-68036078D01*
X40818898Y-68078252D01*
X40811500Y-68115442D01*
X40811500Y-68557879D01*
X40793194Y-68602073D01*
X38674493Y-70720773D01*
X38672141Y-70723007D01*
X38641837Y-70750292D01*
X38639167Y-70756290D01*
X38639165Y-70756292D01*
X38631453Y-70773615D01*
X38626772Y-70782236D01*
X38616446Y-70798137D01*
X38612866Y-70803650D01*
X38611274Y-70813702D01*
X38606642Y-70829340D01*
X38602500Y-70838643D01*
X38602500Y-70864177D01*
X38601731Y-70873954D01*
X38597737Y-70899172D01*
X38600372Y-70909005D01*
X38602500Y-70925175D01*
X38602500Y-71024032D01*
X38584194Y-71068226D01*
X38557647Y-71083989D01*
X38509050Y-71098292D01*
X38339167Y-71187105D01*
X38189770Y-71307223D01*
X38066549Y-71454072D01*
X37974198Y-71622058D01*
X37916234Y-71804783D01*
X37894866Y-71995286D01*
X37314500Y-71995286D01*
X37314500Y-71146442D01*
X37313458Y-71141206D01*
X37308303Y-71115287D01*
X37308302Y-71115285D01*
X37307102Y-71109252D01*
X37278922Y-71067078D01*
X37236748Y-71038898D01*
X37230715Y-71037698D01*
X37230713Y-71037697D01*
X37202569Y-71032099D01*
X37199558Y-71031500D01*
X35474442Y-71031500D01*
X35471431Y-71032099D01*
X35443287Y-71037697D01*
X35443285Y-71037698D01*
X35437252Y-71038898D01*
X35395078Y-71067078D01*
X35366898Y-71109252D01*
X35365698Y-71115285D01*
X35365697Y-71115287D01*
X35360542Y-71141206D01*
X35359500Y-71146442D01*
X35359500Y-71208879D01*
X35341194Y-71253073D01*
X35297000Y-71271379D01*
X35252806Y-71253073D01*
X35127734Y-71128000D01*
X34916806Y-70917072D01*
X34898500Y-70872878D01*
X34898500Y-67684121D01*
X34916806Y-67639927D01*
X35127928Y-67428806D01*
X35172122Y-67410500D01*
X35349000Y-67410500D01*
X35393194Y-67428806D01*
X35411500Y-67473000D01*
X35411500Y-67520558D01*
X35412099Y-67523569D01*
X35417547Y-67550954D01*
X35418898Y-67557748D01*
X35447078Y-67599922D01*
X35489252Y-67628102D01*
X35495285Y-67629302D01*
X35495287Y-67629303D01*
X35521384Y-67634494D01*
X35526442Y-67635500D01*
X37051558Y-67635500D01*
X37053755Y-67635063D01*
X37099326Y-67648886D01*
X37121877Y-67691072D01*
X37107992Y-67736848D01*
X37103872Y-67741394D01*
X36863072Y-67982194D01*
X36818878Y-68000500D01*
X35526442Y-68000500D01*
X35523431Y-68001099D01*
X35495287Y-68006697D01*
X35495285Y-68006698D01*
X35489252Y-68007898D01*
X35447078Y-68036078D01*
X35418898Y-68078252D01*
X35411500Y-68115442D01*
X35411500Y-68790558D01*
X35418898Y-68827748D01*
X35447078Y-68869922D01*
X35489252Y-68898102D01*
X35495285Y-68899302D01*
X35495287Y-68899303D01*
X35521384Y-68904494D01*
X35526442Y-68905500D01*
X37051558Y-68905500D01*
X37053755Y-68905063D01*
X37099326Y-68918886D01*
X37121877Y-68961072D01*
X37107992Y-69006848D01*
X37103872Y-69011394D01*
X36863072Y-69252194D01*
X36818878Y-69270500D01*
X35526442Y-69270500D01*
X35523431Y-69271099D01*
X35495287Y-69276697D01*
X35495285Y-69276698D01*
X35489252Y-69277898D01*
X35447078Y-69306078D01*
X35418898Y-69348252D01*
X35411500Y-69385442D01*
X35411500Y-70060558D01*
X35418898Y-70097748D01*
X35447078Y-70139922D01*
X35489252Y-70168102D01*
X35495285Y-70169302D01*
X35495287Y-70169303D01*
X35521384Y-70174494D01*
X35526442Y-70175500D01*
X37051558Y-70175500D01*
X37056616Y-70174494D01*
X37082713Y-70169303D01*
X37082715Y-70169302D01*
X37088748Y-70168102D01*
X37130922Y-70139922D01*
X37159102Y-70097748D01*
X37166500Y-70060558D01*
X37166500Y-69618121D01*
X37184806Y-69573927D01*
X39398507Y-67360227D01*
X39400859Y-67357993D01*
X39431163Y-67330708D01*
X39433833Y-67324710D01*
X39433835Y-67324708D01*
X39441547Y-67307385D01*
X39446228Y-67298764D01*
X39456554Y-67282863D01*
X39456554Y-67282862D01*
X39460134Y-67277350D01*
X39461726Y-67267298D01*
X39466358Y-67251660D01*
X39470500Y-67242357D01*
X39470500Y-67216823D01*
X39471269Y-67207046D01*
X39474236Y-67188314D01*
X39474236Y-67188313D01*
X39475263Y-67181828D01*
X39472628Y-67171995D01*
X39470500Y-67155825D01*
X39470500Y-62145964D01*
X39488806Y-62101770D01*
X39500293Y-62092706D01*
X39533724Y-62072179D01*
X39620322Y-61976507D01*
X39674754Y-61864160D01*
X39710497Y-61832370D01*
X39758251Y-61835165D01*
X39790041Y-61870908D01*
X39793500Y-61891411D01*
X39793500Y-63392427D01*
X39793414Y-63395698D01*
X39791282Y-63436384D01*
X39800435Y-63460231D01*
X39803216Y-63469619D01*
X39808526Y-63494600D01*
X39812388Y-63499916D01*
X39812389Y-63499918D01*
X39814508Y-63502835D01*
X39822291Y-63517168D01*
X39825940Y-63526673D01*
X39843994Y-63544727D01*
X39850363Y-63552184D01*
X39865372Y-63572842D01*
X39871059Y-63576125D01*
X39871063Y-63576129D01*
X39874188Y-63577933D01*
X39887132Y-63587865D01*
X40793194Y-64493928D01*
X40811500Y-64538122D01*
X40811500Y-64980558D01*
X40818898Y-65017748D01*
X40847078Y-65059922D01*
X40889252Y-65088102D01*
X40895285Y-65089302D01*
X40895287Y-65089303D01*
X40921384Y-65094494D01*
X40926442Y-65095500D01*
X42451558Y-65095500D01*
X42456616Y-65094494D01*
X42482713Y-65089303D01*
X42482715Y-65089302D01*
X42488748Y-65088102D01*
X42530922Y-65059922D01*
X42559102Y-65017748D01*
X42566500Y-64980558D01*
X42566500Y-64305442D01*
X42559102Y-64268252D01*
X42530922Y-64226078D01*
X42488748Y-64197898D01*
X42482715Y-64196698D01*
X42482713Y-64196697D01*
X42454569Y-64191099D01*
X42451558Y-64190500D01*
X41159122Y-64190500D01*
X41114928Y-64172194D01*
X40874128Y-63931394D01*
X40855822Y-63887200D01*
X40874128Y-63843006D01*
X40918322Y-63824700D01*
X40923764Y-63824967D01*
X40926442Y-63825500D01*
X42451558Y-63825500D01*
X42461748Y-63823473D01*
X42482713Y-63819303D01*
X42482715Y-63819302D01*
X42488748Y-63818102D01*
X42530922Y-63789922D01*
X42559102Y-63747748D01*
X42563990Y-63723179D01*
X42565901Y-63713569D01*
X42566500Y-63710558D01*
X42566500Y-63663000D01*
X42584806Y-63618806D01*
X42629000Y-63600500D01*
X43515558Y-63600500D01*
X43559752Y-63618806D01*
X43563396Y-63622779D01*
X43638639Y-63712291D01*
X43642344Y-63714757D01*
X43642346Y-63714759D01*
X43699591Y-63752864D01*
X43746060Y-63783796D01*
X43869233Y-63822278D01*
X43873683Y-63822360D01*
X43873686Y-63822360D01*
X43993809Y-63824562D01*
X43993812Y-63824562D01*
X43998255Y-63824643D01*
X44002546Y-63823473D01*
X44002547Y-63823473D01*
X44113068Y-63793341D01*
X44122755Y-63790700D01*
X44232724Y-63723179D01*
X44319322Y-63627507D01*
X44375588Y-63511375D01*
X44377516Y-63499918D01*
X44396597Y-63386496D01*
X44396997Y-63384120D01*
X44397133Y-63373000D01*
X44378839Y-63245259D01*
X44333481Y-63145500D01*
X44327272Y-63131843D01*
X44327271Y-63131841D01*
X44325428Y-63127788D01*
X44241193Y-63030028D01*
X44132906Y-62959841D01*
X44128641Y-62958566D01*
X44128638Y-62958564D01*
X44013541Y-62924142D01*
X44013538Y-62924142D01*
X44009273Y-62922866D01*
X43945721Y-62922478D01*
X43884684Y-62922105D01*
X43884683Y-62922105D01*
X43880231Y-62922078D01*
X43756155Y-62957539D01*
X43647019Y-63026399D01*
X43644076Y-63029731D01*
X43644074Y-63029733D01*
X43561596Y-63123122D01*
X43559868Y-63121596D01*
X43526594Y-63144203D01*
X43513928Y-63145500D01*
X42629000Y-63145500D01*
X42584806Y-63127194D01*
X42566500Y-63083000D01*
X42566500Y-63035442D01*
X42559102Y-62998252D01*
X42530922Y-62956078D01*
X42488748Y-62927898D01*
X42482715Y-62926698D01*
X42482713Y-62926697D01*
X42454569Y-62921099D01*
X42451558Y-62920500D01*
X40926442Y-62920500D01*
X40923431Y-62921099D01*
X40895287Y-62926697D01*
X40895285Y-62926698D01*
X40889252Y-62927898D01*
X40847078Y-62956078D01*
X40818898Y-62998252D01*
X40811500Y-63035442D01*
X40811500Y-63710558D01*
X40811937Y-63712755D01*
X40798114Y-63758326D01*
X40755928Y-63780877D01*
X40710152Y-63766992D01*
X40705606Y-63762872D01*
X40266806Y-63324072D01*
X40248500Y-63279878D01*
X40248500Y-60960999D01*
X40266806Y-60916805D01*
X40311000Y-60898499D01*
X40406780Y-60898499D01*
X40480979Y-60887578D01*
X40485338Y-60885438D01*
X40589155Y-60834466D01*
X40589156Y-60834465D01*
X40593790Y-60832190D01*
X40626450Y-60799473D01*
X40678930Y-60746902D01*
X40678932Y-60746900D01*
X40682578Y-60743247D01*
X40717824Y-60671142D01*
X40735638Y-60634699D01*
X40735638Y-60634698D01*
X40737769Y-60630339D01*
X40748500Y-60556781D01*
X40748499Y-59585220D01*
X40737578Y-59511021D01*
X40682190Y-59398210D01*
X40678537Y-59394563D01*
X40596902Y-59313070D01*
X40596900Y-59313068D01*
X40593247Y-59309422D01*
X40480339Y-59254231D01*
X40475536Y-59253530D01*
X40475535Y-59253530D01*
X40444132Y-59248949D01*
X40406781Y-59243500D01*
X40022019Y-59243500D01*
X39635220Y-59243501D01*
X39561021Y-59254422D01*
X39556663Y-59256562D01*
X39556662Y-59256562D01*
X39452845Y-59307534D01*
X39452844Y-59307535D01*
X39448210Y-59309810D01*
X39444564Y-59313462D01*
X39444563Y-59313463D01*
X39363070Y-59395098D01*
X39363068Y-59395100D01*
X39359422Y-59398753D01*
X39357154Y-59403393D01*
X39306675Y-59506662D01*
X39304231Y-59511661D01*
X39293500Y-59585219D01*
X39293500Y-59781000D01*
X39275194Y-59825194D01*
X39231000Y-59843500D01*
X38873999Y-59843500D01*
X38829805Y-59825194D01*
X38811499Y-59781000D01*
X38811499Y-59585220D01*
X38800578Y-59511021D01*
X38745190Y-59398210D01*
X38683879Y-59337006D01*
X38665535Y-59292828D01*
X38681698Y-59250831D01*
X38728336Y-59199306D01*
X38731322Y-59196007D01*
X38731467Y-59195708D01*
X38770084Y-59170148D01*
X38782009Y-59169000D01*
X39348927Y-59169000D01*
X39352198Y-59169086D01*
X39392884Y-59171218D01*
X39416731Y-59162065D01*
X39426119Y-59159284D01*
X39451100Y-59153974D01*
X39456416Y-59150112D01*
X39456418Y-59150111D01*
X39459335Y-59147992D01*
X39473668Y-59140209D01*
X39477041Y-59138914D01*
X39483173Y-59136560D01*
X39501227Y-59118506D01*
X39508685Y-59112136D01*
X39524028Y-59100989D01*
X39524028Y-59100988D01*
X39529342Y-59097128D01*
X39532625Y-59091441D01*
X39532629Y-59091437D01*
X39534433Y-59088312D01*
X39544365Y-59075368D01*
X40541487Y-58078246D01*
X40543860Y-58075993D01*
X40569283Y-58053102D01*
X40574163Y-58048708D01*
X40584550Y-58025378D01*
X40589229Y-58016761D01*
X40599557Y-58000858D01*
X40599558Y-58000856D01*
X40603134Y-57995349D01*
X40604726Y-57985298D01*
X40609360Y-57969656D01*
X40610829Y-57966357D01*
X40610829Y-57966355D01*
X40613500Y-57960357D01*
X40613500Y-57934822D01*
X40614269Y-57925045D01*
X40617236Y-57906312D01*
X40618263Y-57899828D01*
X40615629Y-57889997D01*
X40613500Y-57873822D01*
X40613500Y-57497153D01*
X40631806Y-57452959D01*
X40663806Y-57435854D01*
X40691713Y-57430303D01*
X40691715Y-57430302D01*
X40697748Y-57429102D01*
X40739922Y-57400922D01*
X40746620Y-57390898D01*
X40764409Y-57364276D01*
X40804183Y-57337701D01*
X40816375Y-57336500D01*
X40840427Y-57336500D01*
X40843698Y-57336586D01*
X40884384Y-57338718D01*
X40908231Y-57329565D01*
X40917619Y-57326784D01*
X40942600Y-57321474D01*
X40947916Y-57317612D01*
X40947918Y-57317611D01*
X40950835Y-57315492D01*
X40965168Y-57307709D01*
X40968541Y-57306414D01*
X40974673Y-57304060D01*
X40992727Y-57286006D01*
X41000185Y-57279636D01*
X41015528Y-57268489D01*
X41015528Y-57268488D01*
X41020842Y-57264628D01*
X41024125Y-57258941D01*
X41024129Y-57258937D01*
X41025933Y-57255812D01*
X41035865Y-57242868D01*
X41303506Y-56975228D01*
X41305879Y-56972976D01*
X41331282Y-56950103D01*
X41336163Y-56945708D01*
X41338833Y-56939710D01*
X41338835Y-56939708D01*
X41346547Y-56922385D01*
X41351228Y-56913764D01*
X41361554Y-56897863D01*
X41361554Y-56897862D01*
X41365134Y-56892350D01*
X41366726Y-56882298D01*
X41371358Y-56866660D01*
X41371718Y-56865851D01*
X41375500Y-56857357D01*
X41375500Y-56831823D01*
X41376269Y-56822046D01*
X41379236Y-56803314D01*
X41379236Y-56803313D01*
X41380263Y-56796828D01*
X41377628Y-56786995D01*
X41375500Y-56770825D01*
X41375500Y-55795964D01*
X41393806Y-55751770D01*
X41405293Y-55742706D01*
X41438724Y-55722179D01*
X41525322Y-55626507D01*
X41576219Y-55521456D01*
X41611962Y-55489666D01*
X41635442Y-55486881D01*
X41635442Y-55486500D01*
X42160558Y-55486500D01*
X42165616Y-55485494D01*
X42191713Y-55480303D01*
X42191715Y-55480302D01*
X42197748Y-55479102D01*
X42239922Y-55450922D01*
X42248054Y-55438752D01*
X42264409Y-55414276D01*
X42304183Y-55387701D01*
X42316375Y-55386500D01*
X43027001Y-55386500D01*
X43071195Y-55404806D01*
G37*
%TD.AperFunction*%
%TA.AperFunction,Conductor*%
G36*
X45193694Y-25421306D02*
G01*
X45212000Y-25465500D01*
X45212000Y-53883379D01*
X45193694Y-53927573D01*
X45149500Y-53945879D01*
X45105306Y-53927573D01*
X42607286Y-51429552D01*
X42588980Y-51385358D01*
X42588980Y-48557141D01*
X42607286Y-48512947D01*
X43074428Y-48045806D01*
X43118622Y-48027500D01*
X44153406Y-48027499D01*
X44246780Y-48027499D01*
X44320979Y-48016578D01*
X44325338Y-48014438D01*
X44429155Y-47963466D01*
X44429156Y-47963465D01*
X44433790Y-47961190D01*
X44487691Y-47907195D01*
X44518930Y-47875902D01*
X44518932Y-47875900D01*
X44522578Y-47872247D01*
X44554209Y-47807537D01*
X44575638Y-47763699D01*
X44575638Y-47763698D01*
X44577769Y-47759339D01*
X44588500Y-47685781D01*
X44588499Y-46789220D01*
X44577578Y-46715021D01*
X44522190Y-46602210D01*
X44472103Y-46552210D01*
X44436902Y-46517070D01*
X44436900Y-46517068D01*
X44433247Y-46513422D01*
X44338422Y-46467070D01*
X44324699Y-46460362D01*
X44324698Y-46460362D01*
X44320339Y-46458231D01*
X44315536Y-46457530D01*
X44315535Y-46457530D01*
X44293560Y-46454324D01*
X44246781Y-46447500D01*
X43562811Y-46447500D01*
X42875220Y-46447501D01*
X42801021Y-46458422D01*
X42796663Y-46460562D01*
X42796662Y-46460562D01*
X42692845Y-46511534D01*
X42692844Y-46511535D01*
X42688210Y-46513810D01*
X42684564Y-46517462D01*
X42684563Y-46517463D01*
X42603070Y-46599098D01*
X42603068Y-46599100D01*
X42599422Y-46602753D01*
X42597154Y-46607393D01*
X42546675Y-46710662D01*
X42544231Y-46715661D01*
X42533500Y-46789219D01*
X42533500Y-47069500D01*
X42515194Y-47113694D01*
X42471000Y-47132000D01*
X42239999Y-47132000D01*
X42195805Y-47113694D01*
X42177499Y-47069500D01*
X42177499Y-46739220D01*
X42166578Y-46665021D01*
X42134211Y-46599098D01*
X42113466Y-46556845D01*
X42113465Y-46556844D01*
X42111190Y-46552210D01*
X42107537Y-46548563D01*
X42025902Y-46467070D01*
X42025900Y-46467068D01*
X42022247Y-46463422D01*
X41909339Y-46408231D01*
X41904536Y-46407530D01*
X41904535Y-46407530D01*
X41882560Y-46404324D01*
X41835781Y-46397500D01*
X41101943Y-46397500D01*
X40364220Y-46397501D01*
X40290021Y-46408422D01*
X40285663Y-46410562D01*
X40285662Y-46410562D01*
X40181845Y-46461534D01*
X40181844Y-46461535D01*
X40177210Y-46463810D01*
X40173564Y-46467462D01*
X40173563Y-46467463D01*
X40092070Y-46549098D01*
X40092068Y-46549100D01*
X40088422Y-46552753D01*
X40086154Y-46557393D01*
X40035675Y-46660662D01*
X40033231Y-46665661D01*
X40022500Y-46739219D01*
X40022500Y-46741486D01*
X40022501Y-47528000D01*
X40004195Y-47572194D01*
X39960001Y-47590500D01*
X39759000Y-47590500D01*
X39714806Y-47572194D01*
X39696500Y-47528000D01*
X39696500Y-47505442D01*
X39689102Y-47468252D01*
X39660922Y-47426078D01*
X39618748Y-47397898D01*
X39612715Y-47396698D01*
X39612713Y-47396697D01*
X39584569Y-47391099D01*
X39581558Y-47390500D01*
X38656442Y-47390500D01*
X38653431Y-47391099D01*
X38625287Y-47396697D01*
X38625285Y-47396698D01*
X38619252Y-47397898D01*
X38577078Y-47426078D01*
X38548898Y-47468252D01*
X38541500Y-47505442D01*
X38541500Y-48130558D01*
X38548898Y-48167748D01*
X38577078Y-48209922D01*
X38619252Y-48238102D01*
X38625285Y-48239302D01*
X38625287Y-48239303D01*
X38651384Y-48244494D01*
X38656442Y-48245500D01*
X39581558Y-48245500D01*
X39586616Y-48244494D01*
X39612713Y-48239303D01*
X39612715Y-48239302D01*
X39618748Y-48238102D01*
X39660922Y-48209922D01*
X39689102Y-48167748D01*
X39696500Y-48130558D01*
X39696500Y-48108000D01*
X39714806Y-48063806D01*
X39759000Y-48045500D01*
X40411927Y-48045500D01*
X40415198Y-48045586D01*
X40455884Y-48047718D01*
X40479731Y-48038565D01*
X40489119Y-48035784D01*
X40514100Y-48030474D01*
X40519416Y-48026612D01*
X40519418Y-48026611D01*
X40522335Y-48024492D01*
X40536668Y-48016709D01*
X40540041Y-48015414D01*
X40546173Y-48013060D01*
X40564227Y-47995006D01*
X40571685Y-47988636D01*
X40587028Y-47977489D01*
X40587028Y-47977488D01*
X40592342Y-47973628D01*
X40595625Y-47967941D01*
X40595629Y-47967937D01*
X40597433Y-47964812D01*
X40607365Y-47951868D01*
X40663427Y-47895806D01*
X40707621Y-47877500D01*
X41742406Y-47877499D01*
X41835780Y-47877499D01*
X41909979Y-47866578D01*
X41914338Y-47864438D01*
X42018155Y-47813466D01*
X42018156Y-47813465D01*
X42022790Y-47811190D01*
X42026437Y-47807537D01*
X42107930Y-47725902D01*
X42107932Y-47725900D01*
X42111578Y-47722247D01*
X42160554Y-47622053D01*
X42196408Y-47590387D01*
X42216705Y-47587000D01*
X42471001Y-47587000D01*
X42515195Y-47605306D01*
X42533501Y-47649500D01*
X42533501Y-47685780D01*
X42544422Y-47759979D01*
X42546562Y-47764337D01*
X42546562Y-47764338D01*
X42581480Y-47835456D01*
X42584525Y-47883194D01*
X42569571Y-47907195D01*
X42205973Y-48270793D01*
X42203621Y-48273027D01*
X42173317Y-48300312D01*
X42170647Y-48306310D01*
X42170645Y-48306312D01*
X42162933Y-48323635D01*
X42158252Y-48332256D01*
X42147926Y-48348157D01*
X42144346Y-48353670D01*
X42142754Y-48363722D01*
X42138122Y-48379360D01*
X42133980Y-48388663D01*
X42133980Y-48414197D01*
X42133211Y-48423974D01*
X42129217Y-48449192D01*
X42131852Y-48459025D01*
X42133980Y-48475195D01*
X42133980Y-49749257D01*
X42115674Y-49793451D01*
X42071480Y-49811757D01*
X42030347Y-49794740D01*
X42030110Y-49795072D01*
X42028675Y-49794049D01*
X42027325Y-49793490D01*
X42025906Y-49792073D01*
X42025900Y-49792069D01*
X42022247Y-49788422D01*
X41986764Y-49771077D01*
X41913699Y-49735362D01*
X41913698Y-49735362D01*
X41909339Y-49733231D01*
X41904536Y-49732530D01*
X41904535Y-49732530D01*
X41882560Y-49729324D01*
X41835781Y-49722500D01*
X41742859Y-49722500D01*
X40707623Y-49722501D01*
X40663429Y-49704195D01*
X40521727Y-49562493D01*
X40519493Y-49560141D01*
X40492208Y-49529837D01*
X40486210Y-49527167D01*
X40486208Y-49527165D01*
X40468885Y-49519453D01*
X40460264Y-49514772D01*
X40444363Y-49504446D01*
X40444362Y-49504446D01*
X40438850Y-49500866D01*
X40428798Y-49499274D01*
X40413160Y-49494642D01*
X40403857Y-49490500D01*
X40378323Y-49490500D01*
X40368546Y-49489731D01*
X40349814Y-49486764D01*
X40349813Y-49486764D01*
X40343328Y-49485737D01*
X40333495Y-49488372D01*
X40317325Y-49490500D01*
X39759000Y-49490500D01*
X39714806Y-49472194D01*
X39696500Y-49428000D01*
X39696500Y-49405442D01*
X39689102Y-49368252D01*
X39660922Y-49326078D01*
X39618748Y-49297898D01*
X39612715Y-49296698D01*
X39612713Y-49296697D01*
X39584569Y-49291099D01*
X39581558Y-49290500D01*
X38656442Y-49290500D01*
X38653431Y-49291099D01*
X38625287Y-49296697D01*
X38625285Y-49296698D01*
X38619252Y-49297898D01*
X38577078Y-49326078D01*
X38548898Y-49368252D01*
X38541500Y-49405442D01*
X38541500Y-50030558D01*
X38548898Y-50067748D01*
X38577078Y-50109922D01*
X38619252Y-50138102D01*
X38625285Y-50139302D01*
X38625287Y-50139303D01*
X38651384Y-50144494D01*
X38656442Y-50145500D01*
X39581558Y-50145500D01*
X39586616Y-50144494D01*
X39612713Y-50139303D01*
X39612715Y-50139302D01*
X39618748Y-50138102D01*
X39660922Y-50109922D01*
X39689102Y-50067748D01*
X39696500Y-50030558D01*
X39696500Y-50008000D01*
X39714806Y-49963806D01*
X39759000Y-49945500D01*
X39967540Y-49945500D01*
X40011734Y-49963806D01*
X40030040Y-50008000D01*
X40029385Y-50017022D01*
X40027858Y-50027488D01*
X40022500Y-50064219D01*
X40022501Y-50860780D01*
X40033422Y-50934979D01*
X40035562Y-50939337D01*
X40035562Y-50939338D01*
X40067522Y-51004431D01*
X40088810Y-51047790D01*
X40092462Y-51051436D01*
X40092463Y-51051437D01*
X40174098Y-51132930D01*
X40174100Y-51132932D01*
X40177753Y-51136578D01*
X40290661Y-51191769D01*
X40295464Y-51192470D01*
X40295465Y-51192470D01*
X40317440Y-51195676D01*
X40364219Y-51202500D01*
X41098057Y-51202500D01*
X41835780Y-51202499D01*
X41909979Y-51191578D01*
X41991406Y-51151599D01*
X42018155Y-51138466D01*
X42018156Y-51138465D01*
X42022790Y-51136190D01*
X42027246Y-51131726D01*
X42028016Y-51131406D01*
X42030641Y-51129527D01*
X42031077Y-51130135D01*
X42071424Y-51113381D01*
X42115635Y-51131647D01*
X42133980Y-51175881D01*
X42133980Y-51497907D01*
X42133894Y-51501178D01*
X42131762Y-51541864D01*
X42140915Y-51565711D01*
X42143696Y-51575099D01*
X42149006Y-51600080D01*
X42152868Y-51605396D01*
X42152869Y-51605398D01*
X42154988Y-51608315D01*
X42162771Y-51622648D01*
X42166420Y-51632153D01*
X42184474Y-51650207D01*
X42190843Y-51657664D01*
X42205852Y-51678322D01*
X42211539Y-51681605D01*
X42211543Y-51681609D01*
X42214668Y-51683413D01*
X42227612Y-51693345D01*
X44839194Y-54304928D01*
X44857500Y-54349122D01*
X44857500Y-54657472D01*
X44839194Y-54701666D01*
X44795000Y-54719972D01*
X44750806Y-54701666D01*
X44738898Y-54685018D01*
X44730467Y-54667847D01*
X44730466Y-54667845D01*
X44728190Y-54663210D01*
X44686282Y-54621375D01*
X44642902Y-54578070D01*
X44642900Y-54578068D01*
X44639247Y-54574422D01*
X44603764Y-54557077D01*
X44530699Y-54521362D01*
X44530698Y-54521362D01*
X44526339Y-54519231D01*
X44521536Y-54518530D01*
X44521535Y-54518530D01*
X44499560Y-54515324D01*
X44452781Y-54508500D01*
X43943349Y-54508500D01*
X43431220Y-54508501D01*
X43357021Y-54519422D01*
X43352663Y-54521562D01*
X43352662Y-54521562D01*
X43248845Y-54572534D01*
X43248844Y-54572535D01*
X43244210Y-54574810D01*
X43240564Y-54578462D01*
X43240563Y-54578463D01*
X43159070Y-54660098D01*
X43159068Y-54660100D01*
X43155422Y-54663753D01*
X43153154Y-54668393D01*
X43102675Y-54771662D01*
X43100231Y-54776661D01*
X43089500Y-54850219D01*
X43089500Y-54869000D01*
X43071194Y-54913194D01*
X43027000Y-54931500D01*
X42316375Y-54931500D01*
X42272181Y-54913194D01*
X42264409Y-54903724D01*
X42243342Y-54872196D01*
X42243341Y-54872195D01*
X42239922Y-54867078D01*
X42197748Y-54838898D01*
X42191715Y-54837698D01*
X42191713Y-54837697D01*
X42163569Y-54832099D01*
X42160558Y-54831500D01*
X41918121Y-54831500D01*
X41873927Y-54813194D01*
X41639197Y-54578463D01*
X41388227Y-54327493D01*
X41385976Y-54325121D01*
X41381390Y-54320028D01*
X41365421Y-54274937D01*
X41386013Y-54231761D01*
X41395133Y-54224944D01*
X41434929Y-54200510D01*
X41434933Y-54200507D01*
X41438724Y-54198179D01*
X41442767Y-54193713D01*
X41522335Y-54105807D01*
X41525322Y-54102507D01*
X41581588Y-53986375D01*
X41602997Y-53859120D01*
X41603133Y-53848000D01*
X41584839Y-53720259D01*
X41531428Y-53602788D01*
X41447193Y-53505028D01*
X41404006Y-53477036D01*
X41376877Y-53437637D01*
X41375500Y-53424589D01*
X41375500Y-53415097D01*
X41393806Y-53370903D01*
X41410454Y-53358995D01*
X41446153Y-53341467D01*
X41446154Y-53341466D01*
X41450790Y-53339190D01*
X41454437Y-53335537D01*
X41535930Y-53253902D01*
X41535932Y-53253900D01*
X41539578Y-53250247D01*
X41556923Y-53214764D01*
X41592638Y-53141699D01*
X41592638Y-53141698D01*
X41594769Y-53137339D01*
X41605500Y-53063781D01*
X41605499Y-52092220D01*
X41594578Y-52018021D01*
X41539190Y-51905210D01*
X41535537Y-51901563D01*
X41453902Y-51820070D01*
X41453900Y-51820068D01*
X41450247Y-51816422D01*
X41337339Y-51761231D01*
X41332536Y-51760530D01*
X41332535Y-51760530D01*
X41310560Y-51757324D01*
X41263781Y-51750500D01*
X40879019Y-51750500D01*
X40492220Y-51750501D01*
X40418021Y-51761422D01*
X40413663Y-51763562D01*
X40413662Y-51763562D01*
X40309845Y-51814534D01*
X40309844Y-51814535D01*
X40305210Y-51816810D01*
X40301564Y-51820462D01*
X40301563Y-51820463D01*
X40220070Y-51902098D01*
X40220068Y-51902100D01*
X40216422Y-51905753D01*
X40214154Y-51910393D01*
X40163675Y-52013662D01*
X40161231Y-52018661D01*
X40150500Y-52092219D01*
X40150501Y-53063780D01*
X40161422Y-53137979D01*
X40216810Y-53250790D01*
X40220462Y-53254436D01*
X40220463Y-53254437D01*
X40302098Y-53335930D01*
X40302100Y-53335932D01*
X40305753Y-53339578D01*
X40310393Y-53341846D01*
X40394685Y-53383049D01*
X40418661Y-53394769D01*
X40423464Y-53395470D01*
X40423465Y-53395470D01*
X40445440Y-53398676D01*
X40492219Y-53405500D01*
X40500072Y-53405500D01*
X40799132Y-53405499D01*
X40843325Y-53423805D01*
X40861631Y-53467999D01*
X40845977Y-53509372D01*
X40767596Y-53598122D01*
X40712754Y-53714932D01*
X40692901Y-53842440D01*
X40709633Y-53970394D01*
X40711426Y-53974469D01*
X40752829Y-54068564D01*
X40761605Y-54088510D01*
X40804663Y-54139733D01*
X40815633Y-54152784D01*
X40830057Y-54198393D01*
X40808006Y-54240843D01*
X40767790Y-54255500D01*
X39871122Y-54255500D01*
X39826928Y-54237194D01*
X39123806Y-53534072D01*
X39105500Y-53489878D01*
X39105500Y-53467999D01*
X39123806Y-53423805D01*
X39168000Y-53405499D01*
X39263780Y-53405499D01*
X39337979Y-53394578D01*
X39386199Y-53370903D01*
X39446155Y-53341466D01*
X39446156Y-53341465D01*
X39450790Y-53339190D01*
X39454437Y-53335537D01*
X39535930Y-53253902D01*
X39535932Y-53253900D01*
X39539578Y-53250247D01*
X39556923Y-53214764D01*
X39592638Y-53141699D01*
X39592638Y-53141698D01*
X39594769Y-53137339D01*
X39605500Y-53063781D01*
X39605499Y-52092220D01*
X39594578Y-52018021D01*
X39539190Y-51905210D01*
X39535537Y-51901563D01*
X39453902Y-51820070D01*
X39453900Y-51820068D01*
X39450247Y-51816422D01*
X39337339Y-51761231D01*
X39332536Y-51760530D01*
X39332535Y-51760530D01*
X39310560Y-51757324D01*
X39263781Y-51750500D01*
X38879019Y-51750500D01*
X38492220Y-51750501D01*
X38418021Y-51761422D01*
X38413663Y-51763562D01*
X38413662Y-51763562D01*
X38309845Y-51814534D01*
X38309844Y-51814535D01*
X38305210Y-51816810D01*
X38301564Y-51820462D01*
X38301563Y-51820463D01*
X38220070Y-51902098D01*
X38220068Y-51902100D01*
X38216422Y-51905753D01*
X38214154Y-51910393D01*
X38163675Y-52013662D01*
X38161231Y-52018661D01*
X38150500Y-52092219D01*
X38150500Y-52288000D01*
X38132194Y-52332194D01*
X38088000Y-52350500D01*
X37603999Y-52350500D01*
X37559805Y-52332194D01*
X37541499Y-52288000D01*
X37541499Y-52092220D01*
X37530578Y-52018021D01*
X37475190Y-51905210D01*
X37471537Y-51901563D01*
X37389902Y-51820070D01*
X37389900Y-51820068D01*
X37386247Y-51816422D01*
X37273339Y-51761231D01*
X37268536Y-51760530D01*
X37268535Y-51760530D01*
X37246560Y-51757324D01*
X37199781Y-51750500D01*
X36815019Y-51750500D01*
X36428220Y-51750501D01*
X36354021Y-51761422D01*
X36349663Y-51763562D01*
X36349662Y-51763562D01*
X36245845Y-51814534D01*
X36245844Y-51814535D01*
X36241210Y-51816810D01*
X36237564Y-51820462D01*
X36237563Y-51820463D01*
X36156070Y-51902098D01*
X36156068Y-51902100D01*
X36152422Y-51905753D01*
X36150154Y-51910393D01*
X36099675Y-52013662D01*
X36097231Y-52018661D01*
X36086500Y-52092219D01*
X36086501Y-53063780D01*
X36097422Y-53137979D01*
X36152810Y-53250790D01*
X36156462Y-53254436D01*
X36156463Y-53254437D01*
X36238098Y-53335930D01*
X36238100Y-53335932D01*
X36241753Y-53339578D01*
X36246393Y-53341846D01*
X36330685Y-53383049D01*
X36354661Y-53394769D01*
X36359464Y-53395470D01*
X36359465Y-53395470D01*
X36381440Y-53398676D01*
X36428219Y-53405500D01*
X36812981Y-53405500D01*
X37199780Y-53405499D01*
X37273979Y-53394578D01*
X37322199Y-53370903D01*
X37382155Y-53341466D01*
X37382156Y-53341465D01*
X37386790Y-53339190D01*
X37390437Y-53335537D01*
X37471930Y-53253902D01*
X37471932Y-53253900D01*
X37475578Y-53250247D01*
X37492923Y-53214764D01*
X37528638Y-53141699D01*
X37528638Y-53141698D01*
X37530769Y-53137339D01*
X37541500Y-53063781D01*
X37541500Y-52868000D01*
X37559806Y-52823806D01*
X37604000Y-52805500D01*
X38088001Y-52805500D01*
X38132195Y-52823806D01*
X38150501Y-52868000D01*
X38150501Y-53063780D01*
X38161422Y-53137979D01*
X38216810Y-53250790D01*
X38220462Y-53254436D01*
X38220463Y-53254437D01*
X38302098Y-53335930D01*
X38302100Y-53335932D01*
X38305753Y-53339578D01*
X38310393Y-53341846D01*
X38394685Y-53383049D01*
X38418661Y-53394769D01*
X38423464Y-53395470D01*
X38423465Y-53395470D01*
X38445440Y-53398676D01*
X38492219Y-53405500D01*
X38588000Y-53405500D01*
X38632194Y-53423806D01*
X38650500Y-53468000D01*
X38650500Y-53602427D01*
X38650414Y-53605698D01*
X38648282Y-53646384D01*
X38657435Y-53670231D01*
X38660216Y-53679619D01*
X38665526Y-53704600D01*
X38669388Y-53709916D01*
X38669389Y-53709918D01*
X38671508Y-53712835D01*
X38679291Y-53727168D01*
X38682940Y-53736673D01*
X38700994Y-53754727D01*
X38707363Y-53762184D01*
X38722372Y-53782842D01*
X38728059Y-53786125D01*
X38728063Y-53786129D01*
X38731188Y-53787933D01*
X38744132Y-53797865D01*
X39385072Y-54438806D01*
X39403378Y-54483000D01*
X39385072Y-54527194D01*
X38805193Y-55107073D01*
X38760999Y-55125379D01*
X38716805Y-55107073D01*
X38698499Y-55062879D01*
X38698499Y-54850220D01*
X38687578Y-54776021D01*
X38670289Y-54740807D01*
X38634466Y-54667845D01*
X38634465Y-54667844D01*
X38632190Y-54663210D01*
X38590282Y-54621375D01*
X38546902Y-54578070D01*
X38546900Y-54578068D01*
X38543247Y-54574422D01*
X38507764Y-54557077D01*
X38434699Y-54521362D01*
X38434698Y-54521362D01*
X38430339Y-54519231D01*
X38425536Y-54518530D01*
X38425535Y-54518530D01*
X38403560Y-54515324D01*
X38356781Y-54508500D01*
X37847349Y-54508500D01*
X37335220Y-54508501D01*
X37261021Y-54519422D01*
X37256663Y-54521562D01*
X37256662Y-54521562D01*
X37152845Y-54572534D01*
X37152844Y-54572535D01*
X37148210Y-54574810D01*
X37144564Y-54578462D01*
X37144563Y-54578463D01*
X37063070Y-54660098D01*
X37063068Y-54660100D01*
X37059422Y-54663753D01*
X37057154Y-54668393D01*
X37006675Y-54771662D01*
X37004231Y-54776661D01*
X36993500Y-54850219D01*
X36993501Y-55596780D01*
X36993833Y-55599033D01*
X36993833Y-55599036D01*
X36995596Y-55611017D01*
X36983920Y-55657406D01*
X36977957Y-55664310D01*
X36863697Y-55778569D01*
X36754072Y-55888194D01*
X36709878Y-55906500D01*
X35871007Y-55906500D01*
X35826813Y-55888194D01*
X35808507Y-55844000D01*
X35813264Y-55820082D01*
X35814181Y-55817868D01*
X35817602Y-55812748D01*
X35825000Y-55775558D01*
X35825000Y-55500442D01*
X35823797Y-55494394D01*
X35818803Y-55469287D01*
X35818802Y-55469285D01*
X35817602Y-55463252D01*
X35798033Y-55433965D01*
X35787500Y-55399242D01*
X35787500Y-54906964D01*
X35805806Y-54862770D01*
X35817293Y-54853706D01*
X35850724Y-54833179D01*
X35937322Y-54737507D01*
X35993588Y-54621375D01*
X36000808Y-54578463D01*
X36012522Y-54508833D01*
X36014997Y-54494120D01*
X36015133Y-54483000D01*
X35996839Y-54355259D01*
X35960319Y-54274937D01*
X35945272Y-54241843D01*
X35945271Y-54241841D01*
X35943428Y-54237788D01*
X35859193Y-54140028D01*
X35750906Y-54069841D01*
X35746641Y-54068566D01*
X35746638Y-54068564D01*
X35631541Y-54034142D01*
X35631538Y-54034142D01*
X35627273Y-54032866D01*
X35563721Y-54032478D01*
X35502684Y-54032105D01*
X35502683Y-54032105D01*
X35498231Y-54032078D01*
X35374155Y-54067539D01*
X35265019Y-54136399D01*
X35262076Y-54139731D01*
X35262074Y-54139733D01*
X35182543Y-54229785D01*
X35179596Y-54233122D01*
X35124754Y-54349932D01*
X35104901Y-54477440D01*
X35121633Y-54605394D01*
X35123426Y-54609469D01*
X35147073Y-54663210D01*
X35173605Y-54723510D01*
X35256639Y-54822291D01*
X35260344Y-54824757D01*
X35260347Y-54824760D01*
X35304632Y-54854239D01*
X35331278Y-54893966D01*
X35332500Y-54906266D01*
X35332500Y-55324803D01*
X35314194Y-55368997D01*
X35270000Y-55387303D01*
X35235276Y-55376769D01*
X35227865Y-55371817D01*
X35222748Y-55368398D01*
X35216715Y-55367198D01*
X35216713Y-55367197D01*
X35188569Y-55361599D01*
X35185558Y-55361000D01*
X34910442Y-55361000D01*
X34907431Y-55361599D01*
X34879287Y-55367197D01*
X34879285Y-55367198D01*
X34873252Y-55368398D01*
X34836195Y-55393159D01*
X34832723Y-55395479D01*
X34785807Y-55404811D01*
X34763277Y-55395479D01*
X34759805Y-55393159D01*
X34722748Y-55368398D01*
X34716715Y-55367198D01*
X34716713Y-55367197D01*
X34688569Y-55361599D01*
X34685558Y-55361000D01*
X34410442Y-55361000D01*
X34407431Y-55361599D01*
X34379287Y-55367197D01*
X34379285Y-55367198D01*
X34373252Y-55368398D01*
X34331078Y-55396578D01*
X34327659Y-55401695D01*
X34326980Y-55402374D01*
X34282786Y-55420680D01*
X34248063Y-55410147D01*
X34240069Y-55404806D01*
X34222248Y-55392898D01*
X34216215Y-55391698D01*
X34216213Y-55391697D01*
X34188069Y-55386099D01*
X34185058Y-55385500D01*
X33884942Y-55385500D01*
X33881931Y-55386099D01*
X33853787Y-55391697D01*
X33853785Y-55391698D01*
X33847752Y-55392898D01*
X33805578Y-55421078D01*
X33777398Y-55463252D01*
X33776198Y-55469285D01*
X33776197Y-55469287D01*
X33771203Y-55494394D01*
X33770000Y-55500442D01*
X33770000Y-55775558D01*
X33770599Y-55778569D01*
X33776197Y-55806709D01*
X33777398Y-55812748D01*
X33798280Y-55844000D01*
X33804479Y-55853277D01*
X33813811Y-55900193D01*
X33804479Y-55922722D01*
X33777398Y-55963252D01*
X33770000Y-56000442D01*
X33770000Y-56275558D01*
X33770599Y-56278569D01*
X33775533Y-56303372D01*
X33777398Y-56312748D01*
X33790736Y-56332709D01*
X33804479Y-56353277D01*
X33813811Y-56400193D01*
X33804479Y-56422722D01*
X33777398Y-56463252D01*
X33776198Y-56469285D01*
X33776197Y-56469287D01*
X33772433Y-56488210D01*
X33770000Y-56500442D01*
X33770000Y-56775558D01*
X33770599Y-56778569D01*
X33775779Y-56804608D01*
X33777398Y-56812748D01*
X33805578Y-56854922D01*
X33847752Y-56883102D01*
X33853785Y-56884302D01*
X33853787Y-56884303D01*
X33879884Y-56889494D01*
X33884942Y-56890500D01*
X34185058Y-56890500D01*
X34190116Y-56889494D01*
X34216213Y-56884303D01*
X34216215Y-56884302D01*
X34222248Y-56883102D01*
X34264422Y-56854922D01*
X34292602Y-56812748D01*
X34294222Y-56804608D01*
X34299401Y-56778569D01*
X34300000Y-56775558D01*
X34300000Y-56500442D01*
X34297567Y-56488210D01*
X34293803Y-56469287D01*
X34293802Y-56469285D01*
X34292602Y-56463252D01*
X34289184Y-56458136D01*
X34286827Y-56452447D01*
X34288213Y-56451873D01*
X34280244Y-56411805D01*
X34306821Y-56372032D01*
X34341543Y-56361500D01*
X35321462Y-56361500D01*
X35356185Y-56372033D01*
X35367632Y-56379682D01*
X35367637Y-56379684D01*
X35372752Y-56383102D01*
X35409942Y-56390500D01*
X35710058Y-56390500D01*
X35747248Y-56383102D01*
X35752363Y-56379684D01*
X35752368Y-56379682D01*
X35763815Y-56372033D01*
X35798538Y-56361500D01*
X36822427Y-56361500D01*
X36825698Y-56361586D01*
X36866384Y-56363718D01*
X36890231Y-56354565D01*
X36899619Y-56351784D01*
X36924600Y-56346474D01*
X36929916Y-56342612D01*
X36929918Y-56342611D01*
X36932835Y-56340492D01*
X36947168Y-56332709D01*
X36950541Y-56331414D01*
X36956673Y-56329060D01*
X36974727Y-56311006D01*
X36982185Y-56304636D01*
X36997528Y-56293489D01*
X36997528Y-56293488D01*
X37002842Y-56289628D01*
X37006125Y-56283941D01*
X37006129Y-56283937D01*
X37007933Y-56280812D01*
X37017865Y-56267868D01*
X37328928Y-55956806D01*
X37373122Y-55938500D01*
X38275097Y-55938499D01*
X38356780Y-55938499D01*
X38430979Y-55927578D01*
X38435338Y-55925438D01*
X38539155Y-55874466D01*
X38539156Y-55874465D01*
X38543790Y-55872190D01*
X38571931Y-55844000D01*
X38628930Y-55786902D01*
X38628932Y-55786900D01*
X38632578Y-55783247D01*
X38647964Y-55751770D01*
X38653692Y-55740053D01*
X38689547Y-55708387D01*
X38709843Y-55705000D01*
X38748927Y-55705000D01*
X38752198Y-55705086D01*
X38792884Y-55707218D01*
X38816731Y-55698065D01*
X38826119Y-55695284D01*
X38851100Y-55689974D01*
X38856416Y-55686112D01*
X38856418Y-55686111D01*
X38859335Y-55683992D01*
X38873668Y-55676209D01*
X38877041Y-55674914D01*
X38883173Y-55672560D01*
X38901227Y-55654506D01*
X38908685Y-55648136D01*
X38924028Y-55636989D01*
X38924028Y-55636988D01*
X38929342Y-55633128D01*
X38932625Y-55627441D01*
X38932629Y-55627437D01*
X38934433Y-55624312D01*
X38944365Y-55611368D01*
X39826928Y-54728806D01*
X39871122Y-54710500D01*
X41101879Y-54710500D01*
X41146073Y-54728806D01*
X41232271Y-54815005D01*
X41250577Y-54859199D01*
X41232271Y-54903393D01*
X41187696Y-54921698D01*
X41121871Y-54921296D01*
X41090684Y-54921105D01*
X41090683Y-54921105D01*
X41086231Y-54921078D01*
X40962155Y-54956539D01*
X40853019Y-55025399D01*
X40850076Y-55028731D01*
X40850074Y-55028733D01*
X40784277Y-55103234D01*
X40767596Y-55122122D01*
X40712754Y-55238932D01*
X40692901Y-55366440D01*
X40709633Y-55494394D01*
X40711426Y-55498469D01*
X40754684Y-55596780D01*
X40761605Y-55612510D01*
X40844639Y-55711291D01*
X40848344Y-55713757D01*
X40848347Y-55713760D01*
X40892632Y-55743239D01*
X40919278Y-55782966D01*
X40920500Y-55795266D01*
X40920500Y-56688879D01*
X40902193Y-56733074D01*
X40874454Y-56760812D01*
X40830260Y-56779117D01*
X40786066Y-56760810D01*
X40767761Y-56716616D01*
X40768962Y-56704423D01*
X40772254Y-56687878D01*
X40775500Y-56671558D01*
X40775500Y-56246442D01*
X40772155Y-56229626D01*
X40769303Y-56215287D01*
X40769302Y-56215285D01*
X40768102Y-56209252D01*
X40739922Y-56167078D01*
X40697748Y-56138898D01*
X40691715Y-56137698D01*
X40691713Y-56137697D01*
X40663569Y-56132099D01*
X40660558Y-56131500D01*
X40135442Y-56131500D01*
X40132431Y-56132099D01*
X40104287Y-56137697D01*
X40104285Y-56137698D01*
X40098252Y-56138898D01*
X40056078Y-56167078D01*
X40052659Y-56172195D01*
X40052658Y-56172196D01*
X40031591Y-56203724D01*
X39991817Y-56230299D01*
X39979625Y-56231500D01*
X39702573Y-56231500D01*
X39699302Y-56231414D01*
X39696135Y-56231248D01*
X39658616Y-56229282D01*
X39634769Y-56238435D01*
X39625381Y-56241216D01*
X39600400Y-56246526D01*
X39595084Y-56250388D01*
X39595082Y-56250389D01*
X39592165Y-56252508D01*
X39577832Y-56260291D01*
X39574459Y-56261586D01*
X39568327Y-56263940D01*
X39550273Y-56281994D01*
X39542816Y-56288363D01*
X39522158Y-56303372D01*
X39517070Y-56312185D01*
X39507139Y-56325127D01*
X39468485Y-56363781D01*
X39466112Y-56366032D01*
X39435837Y-56393292D01*
X39433167Y-56399290D01*
X39433165Y-56399292D01*
X39425453Y-56416615D01*
X39420772Y-56425236D01*
X39410446Y-56441137D01*
X39406866Y-56446650D01*
X39405274Y-56456702D01*
X39400642Y-56472340D01*
X39396500Y-56481643D01*
X39396500Y-56507177D01*
X39395731Y-56516954D01*
X39391737Y-56542172D01*
X39394372Y-56552005D01*
X39396500Y-56568175D01*
X39396500Y-56726355D01*
X39378194Y-56770549D01*
X39367351Y-56779213D01*
X39329019Y-56803399D01*
X39326076Y-56806731D01*
X39326074Y-56806733D01*
X39257567Y-56884303D01*
X39243596Y-56900122D01*
X39188754Y-57016932D01*
X39168901Y-57144440D01*
X39169478Y-57148853D01*
X39169478Y-57148854D01*
X39180975Y-57236771D01*
X39168555Y-57282966D01*
X39163197Y-57289069D01*
X38512552Y-57939714D01*
X38468358Y-57958020D01*
X36842642Y-57958020D01*
X36798448Y-57939714D01*
X36615227Y-57756493D01*
X36612993Y-57754141D01*
X36585708Y-57723837D01*
X36579710Y-57721167D01*
X36579708Y-57721165D01*
X36562385Y-57713453D01*
X36553764Y-57708772D01*
X36537863Y-57698446D01*
X36537862Y-57698446D01*
X36532350Y-57694866D01*
X36522298Y-57693274D01*
X36506660Y-57688642D01*
X36497357Y-57684500D01*
X36471823Y-57684500D01*
X36462046Y-57683731D01*
X36443314Y-57680764D01*
X36443313Y-57680764D01*
X36436828Y-57679737D01*
X36426995Y-57682372D01*
X36410825Y-57684500D01*
X35850000Y-57684500D01*
X35805806Y-57666194D01*
X35787500Y-57622000D01*
X35787500Y-57376758D01*
X35798033Y-57342035D01*
X35808224Y-57326783D01*
X35817602Y-57312748D01*
X35819329Y-57304069D01*
X35824401Y-57278569D01*
X35825000Y-57275558D01*
X35825000Y-57000442D01*
X35822300Y-56986868D01*
X35818803Y-56969287D01*
X35818802Y-56969285D01*
X35817602Y-56963252D01*
X35789422Y-56921078D01*
X35747248Y-56892898D01*
X35741215Y-56891698D01*
X35741213Y-56891697D01*
X35713069Y-56886099D01*
X35710058Y-56885500D01*
X35409942Y-56885500D01*
X35406931Y-56886099D01*
X35378787Y-56891697D01*
X35378785Y-56891698D01*
X35372752Y-56892898D01*
X35332098Y-56920062D01*
X35285183Y-56929394D01*
X35262653Y-56920062D01*
X35259805Y-56918159D01*
X35222748Y-56893398D01*
X35216715Y-56892198D01*
X35216713Y-56892197D01*
X35188569Y-56886599D01*
X35185558Y-56886000D01*
X34910442Y-56886000D01*
X34907431Y-56886599D01*
X34879287Y-56892197D01*
X34879285Y-56892198D01*
X34873252Y-56893398D01*
X34831078Y-56921578D01*
X34802898Y-56963752D01*
X34801698Y-56969785D01*
X34801697Y-56969787D01*
X34796506Y-56995884D01*
X34795500Y-57000942D01*
X34795500Y-57301058D01*
X34796099Y-57304069D01*
X34800821Y-57327806D01*
X34802898Y-57338248D01*
X34831078Y-57380422D01*
X34873252Y-57408602D01*
X34879285Y-57409802D01*
X34879287Y-57409803D01*
X34905384Y-57414994D01*
X34910442Y-57416000D01*
X35185558Y-57416000D01*
X35190616Y-57414994D01*
X35216713Y-57409803D01*
X35216715Y-57409802D01*
X35222748Y-57408602D01*
X35235276Y-57400231D01*
X35282192Y-57390898D01*
X35321966Y-57417473D01*
X35332500Y-57452197D01*
X35332500Y-57622000D01*
X35314194Y-57666194D01*
X35270000Y-57684500D01*
X34067600Y-57684500D01*
X34023406Y-57666194D01*
X33538326Y-57181114D01*
X33520020Y-57136920D01*
X33520020Y-54219601D01*
X33538326Y-54175407D01*
X34301344Y-53412389D01*
X34345538Y-53394083D01*
X34354564Y-53395437D01*
X34354661Y-53394769D01*
X34428219Y-53405500D01*
X34812981Y-53405500D01*
X35199780Y-53405499D01*
X35273979Y-53394578D01*
X35322199Y-53370903D01*
X35382155Y-53341466D01*
X35382156Y-53341465D01*
X35386790Y-53339190D01*
X35390437Y-53335537D01*
X35471930Y-53253902D01*
X35471932Y-53253900D01*
X35475578Y-53250247D01*
X35492923Y-53214764D01*
X35528638Y-53141699D01*
X35528638Y-53141698D01*
X35530769Y-53137339D01*
X35541500Y-53063781D01*
X35541499Y-52092220D01*
X35530578Y-52018021D01*
X35475190Y-51905210D01*
X35471537Y-51901563D01*
X35389902Y-51820070D01*
X35389900Y-51820068D01*
X35386247Y-51816422D01*
X35273339Y-51761231D01*
X35268536Y-51760530D01*
X35268535Y-51760530D01*
X35246560Y-51757324D01*
X35199781Y-51750500D01*
X34815019Y-51750500D01*
X34428220Y-51750501D01*
X34354021Y-51761422D01*
X34349663Y-51763562D01*
X34349662Y-51763562D01*
X34245845Y-51814534D01*
X34245844Y-51814535D01*
X34241210Y-51816810D01*
X34237564Y-51820462D01*
X34237563Y-51820463D01*
X34156070Y-51902098D01*
X34156068Y-51902100D01*
X34152422Y-51905753D01*
X34150154Y-51910393D01*
X34099675Y-52013662D01*
X34097231Y-52018661D01*
X34086500Y-52092219D01*
X34086500Y-52094486D01*
X34086501Y-52957877D01*
X34068195Y-53002071D01*
X33227194Y-53843072D01*
X33183000Y-53861378D01*
X33138806Y-53843072D01*
X33120500Y-53798878D01*
X33120500Y-51289621D01*
X33138806Y-51245427D01*
X33913427Y-50470806D01*
X33957621Y-50452500D01*
X34992406Y-50452499D01*
X35085780Y-50452499D01*
X35159979Y-50441578D01*
X35164338Y-50439438D01*
X35268155Y-50388466D01*
X35268156Y-50388465D01*
X35272790Y-50386190D01*
X35326691Y-50332195D01*
X35357930Y-50300902D01*
X35357932Y-50300900D01*
X35361578Y-50297247D01*
X35379562Y-50260456D01*
X35414638Y-50188699D01*
X35414638Y-50188698D01*
X35416769Y-50184339D01*
X35427500Y-50110781D01*
X35427500Y-50033000D01*
X35445806Y-49988806D01*
X35490000Y-49970500D01*
X35679241Y-49970500D01*
X35723435Y-49988806D01*
X35741440Y-50026877D01*
X35741500Y-50027486D01*
X35741500Y-50030558D01*
X35748898Y-50067748D01*
X35777078Y-50109922D01*
X35819252Y-50138102D01*
X35825285Y-50139302D01*
X35825287Y-50139303D01*
X35851384Y-50144494D01*
X35856442Y-50145500D01*
X36781558Y-50145500D01*
X36786616Y-50144494D01*
X36812713Y-50139303D01*
X36812715Y-50139302D01*
X36818748Y-50138102D01*
X36860922Y-50109922D01*
X36889102Y-50067748D01*
X36896500Y-50030558D01*
X36896500Y-49972000D01*
X36914806Y-49927806D01*
X36959000Y-49909500D01*
X37313573Y-49909500D01*
X37357767Y-49927806D01*
X37361416Y-49931784D01*
X37410907Y-49990661D01*
X37415639Y-49996291D01*
X37419344Y-49998757D01*
X37419346Y-49998759D01*
X37461588Y-50026877D01*
X37523060Y-50067796D01*
X37646233Y-50106278D01*
X37650683Y-50106360D01*
X37650686Y-50106360D01*
X37770809Y-50108562D01*
X37770812Y-50108562D01*
X37775255Y-50108643D01*
X37779546Y-50107473D01*
X37779547Y-50107473D01*
X37837505Y-50091672D01*
X37899755Y-50074700D01*
X38009724Y-50007179D01*
X38041567Y-49972000D01*
X38093335Y-49914807D01*
X38096322Y-49911507D01*
X38152588Y-49795375D01*
X38154140Y-49786154D01*
X38173597Y-49670496D01*
X38173997Y-49668120D01*
X38174133Y-49657000D01*
X38155839Y-49529259D01*
X38102428Y-49411788D01*
X38018193Y-49314028D01*
X37909906Y-49243841D01*
X37905641Y-49242566D01*
X37905638Y-49242564D01*
X37790541Y-49208142D01*
X37790538Y-49208142D01*
X37786273Y-49206866D01*
X37722721Y-49206478D01*
X37661684Y-49206105D01*
X37661683Y-49206105D01*
X37657231Y-49206078D01*
X37533155Y-49241539D01*
X37424019Y-49310399D01*
X37421076Y-49313731D01*
X37421074Y-49313733D01*
X37359571Y-49383373D01*
X37312725Y-49404500D01*
X36944578Y-49404500D01*
X36900384Y-49386194D01*
X36889402Y-49369759D01*
X36889102Y-49368252D01*
X36885684Y-49363136D01*
X36885683Y-49363134D01*
X36864341Y-49331195D01*
X36860922Y-49326078D01*
X36818748Y-49297898D01*
X36812715Y-49296698D01*
X36812713Y-49296697D01*
X36784569Y-49291099D01*
X36781558Y-49290500D01*
X35856442Y-49290500D01*
X35853431Y-49291099D01*
X35825287Y-49296697D01*
X35825285Y-49296698D01*
X35819252Y-49297898D01*
X35777078Y-49326078D01*
X35748898Y-49368252D01*
X35741500Y-49405442D01*
X35741500Y-49408512D01*
X35741440Y-49409123D01*
X35718893Y-49451311D01*
X35679241Y-49465500D01*
X35489999Y-49465500D01*
X35445805Y-49447194D01*
X35427499Y-49403000D01*
X35427499Y-49214220D01*
X35416578Y-49140021D01*
X35361190Y-49027210D01*
X35357537Y-49023563D01*
X35275902Y-48942070D01*
X35275900Y-48942068D01*
X35272247Y-48938422D01*
X35159339Y-48883231D01*
X35154536Y-48882530D01*
X35154535Y-48882530D01*
X35132560Y-48879324D01*
X35085781Y-48872500D01*
X34401811Y-48872500D01*
X33714220Y-48872501D01*
X33640021Y-48883422D01*
X33635663Y-48885562D01*
X33635662Y-48885562D01*
X33531845Y-48936534D01*
X33531844Y-48936535D01*
X33527210Y-48938810D01*
X33523564Y-48942462D01*
X33523563Y-48942463D01*
X33442070Y-49024098D01*
X33442068Y-49024100D01*
X33438422Y-49027753D01*
X33436154Y-49032393D01*
X33385675Y-49135662D01*
X33383231Y-49140661D01*
X33372500Y-49214219D01*
X33372501Y-50110780D01*
X33383422Y-50184979D01*
X33385562Y-50189337D01*
X33385562Y-50189338D01*
X33420480Y-50260456D01*
X33423525Y-50308194D01*
X33408571Y-50332195D01*
X32745694Y-50995072D01*
X32701500Y-51013378D01*
X32657306Y-50995072D01*
X32639000Y-50950878D01*
X32639000Y-39432419D01*
X34597500Y-39432419D01*
X34597501Y-40178980D01*
X34608422Y-40253179D01*
X34610562Y-40257537D01*
X34610562Y-40257538D01*
X34658279Y-40354724D01*
X34663810Y-40365990D01*
X34667462Y-40369636D01*
X34667463Y-40369637D01*
X34749098Y-40451130D01*
X34749100Y-40451132D01*
X34752753Y-40454778D01*
X34865661Y-40509969D01*
X34870464Y-40510670D01*
X34870465Y-40510670D01*
X34892440Y-40513876D01*
X34939219Y-40520700D01*
X35448651Y-40520700D01*
X35960780Y-40520699D01*
X36034979Y-40509778D01*
X36039338Y-40507638D01*
X36143155Y-40456666D01*
X36143156Y-40456665D01*
X36147790Y-40454390D01*
X36163958Y-40438194D01*
X36232930Y-40369102D01*
X36232932Y-40369100D01*
X36236578Y-40365447D01*
X36248406Y-40341249D01*
X36284260Y-40309584D01*
X36332004Y-40312545D01*
X36341295Y-40318133D01*
X36342873Y-40319279D01*
X36347270Y-40324163D01*
X36353272Y-40326835D01*
X36353273Y-40326836D01*
X36370593Y-40334547D01*
X36379214Y-40339228D01*
X36395115Y-40349554D01*
X36400628Y-40353134D01*
X36410680Y-40354726D01*
X36426318Y-40359358D01*
X36435621Y-40363500D01*
X36461155Y-40363500D01*
X36470932Y-40364269D01*
X36489664Y-40367236D01*
X36489665Y-40367236D01*
X36496150Y-40368263D01*
X36505983Y-40365628D01*
X36522153Y-40363500D01*
X36551213Y-40363500D01*
X36595407Y-40381806D01*
X36613713Y-40426000D01*
X36612512Y-40438191D01*
X36605500Y-40473442D01*
X36605500Y-40798558D01*
X36612898Y-40835748D01*
X36616317Y-40840865D01*
X36623274Y-40851277D01*
X36632606Y-40898194D01*
X36623274Y-40920723D01*
X36612898Y-40936252D01*
X36605500Y-40973442D01*
X36605500Y-41298558D01*
X36612898Y-41335748D01*
X36641078Y-41377922D01*
X36683252Y-41406102D01*
X36689285Y-41407302D01*
X36689287Y-41407303D01*
X36715384Y-41412494D01*
X36720442Y-41413500D01*
X36868000Y-41413500D01*
X36912194Y-41431806D01*
X36930500Y-41476000D01*
X36930500Y-42128827D01*
X36930414Y-42132098D01*
X36928282Y-42172784D01*
X36937435Y-42196631D01*
X36940216Y-42206019D01*
X36945526Y-42231000D01*
X36949388Y-42236316D01*
X36949389Y-42236318D01*
X36951508Y-42239235D01*
X36959291Y-42253568D01*
X36962940Y-42263073D01*
X36980994Y-42281127D01*
X36987363Y-42288584D01*
X37002372Y-42309242D01*
X37008059Y-42312525D01*
X37008063Y-42312529D01*
X37011188Y-42314333D01*
X37024132Y-42324265D01*
X38263973Y-43564107D01*
X38266207Y-43566459D01*
X38293492Y-43596763D01*
X38299490Y-43599433D01*
X38299492Y-43599435D01*
X38316815Y-43607147D01*
X38325436Y-43611828D01*
X38341337Y-43622154D01*
X38346850Y-43625734D01*
X38356902Y-43627326D01*
X38372540Y-43631958D01*
X38381843Y-43636100D01*
X38407377Y-43636100D01*
X38417154Y-43636869D01*
X38435886Y-43639836D01*
X38435887Y-43639836D01*
X38442372Y-43640863D01*
X38452205Y-43638228D01*
X38468375Y-43636100D01*
X38978833Y-43636100D01*
X39023027Y-43654406D01*
X39041333Y-43698600D01*
X39023027Y-43742794D01*
X38996479Y-43758557D01*
X38892050Y-43789292D01*
X38722167Y-43878105D01*
X38572770Y-43998223D01*
X38449549Y-44145072D01*
X38357198Y-44313058D01*
X38352260Y-44328624D01*
X38320451Y-44428898D01*
X38289639Y-44465489D01*
X38260877Y-44472500D01*
X37718854Y-44472500D01*
X37674660Y-44454194D01*
X37659023Y-44428068D01*
X37628117Y-44325701D01*
X37538120Y-44156442D01*
X37416962Y-44007887D01*
X37269256Y-43885694D01*
X37177890Y-43836293D01*
X37147722Y-43799170D01*
X37152639Y-43751588D01*
X37161280Y-43739373D01*
X37165087Y-43735168D01*
X37207322Y-43688507D01*
X37263588Y-43572375D01*
X37264785Y-43565265D01*
X37284597Y-43447496D01*
X37284997Y-43445120D01*
X37285133Y-43434000D01*
X37266839Y-43306259D01*
X37236015Y-43238466D01*
X37215272Y-43192843D01*
X37215271Y-43192841D01*
X37213428Y-43188788D01*
X37180784Y-43150902D01*
X37132101Y-43094403D01*
X37129193Y-43091028D01*
X37020906Y-43020841D01*
X37016641Y-43019566D01*
X37016638Y-43019564D01*
X36901541Y-42985142D01*
X36901538Y-42985142D01*
X36897273Y-42983866D01*
X36833721Y-42983478D01*
X36772684Y-42983105D01*
X36772683Y-42983105D01*
X36768231Y-42983078D01*
X36644155Y-43018539D01*
X36535019Y-43087399D01*
X36532076Y-43090731D01*
X36532074Y-43090733D01*
X36452543Y-43180785D01*
X36449596Y-43184122D01*
X36394754Y-43300932D01*
X36374901Y-43428440D01*
X36391633Y-43556394D01*
X36393426Y-43560469D01*
X36438331Y-43662523D01*
X36443605Y-43674510D01*
X36446469Y-43677917D01*
X36447008Y-43678783D01*
X36454820Y-43725976D01*
X36426974Y-43764871D01*
X36411593Y-43771767D01*
X36352050Y-43789292D01*
X36182167Y-43878105D01*
X36032770Y-43998223D01*
X35909549Y-44145072D01*
X35817198Y-44313058D01*
X35759234Y-44495783D01*
X35737866Y-44686286D01*
X35753907Y-44877311D01*
X35806746Y-45061583D01*
X35894370Y-45232082D01*
X36013443Y-45382314D01*
X36159428Y-45506557D01*
X36162092Y-45508046D01*
X36162095Y-45508048D01*
X36254136Y-45559488D01*
X36326765Y-45600079D01*
X36329669Y-45601023D01*
X36329670Y-45601023D01*
X36506168Y-45658371D01*
X36506173Y-45658372D01*
X36509081Y-45659317D01*
X36699430Y-45682015D01*
X36702472Y-45681781D01*
X36702475Y-45681781D01*
X36887514Y-45667543D01*
X36887519Y-45667542D01*
X36890562Y-45667308D01*
X36919182Y-45659317D01*
X37072260Y-45616577D01*
X37072264Y-45616576D01*
X37075199Y-45615756D01*
X37246305Y-45529324D01*
X37248703Y-45527451D01*
X37248707Y-45527448D01*
X37327523Y-45465869D01*
X37397365Y-45411303D01*
X37424455Y-45379919D01*
X37520630Y-45268500D01*
X37520634Y-45268495D01*
X37522624Y-45266189D01*
X37543544Y-45229364D01*
X37615801Y-45102170D01*
X37615803Y-45102165D01*
X37617312Y-45099509D01*
X37660304Y-44970272D01*
X37691624Y-44934115D01*
X37719609Y-44927500D01*
X38261201Y-44927500D01*
X38305395Y-44945806D01*
X38321280Y-44972773D01*
X38346746Y-45061583D01*
X38434370Y-45232082D01*
X38553443Y-45382314D01*
X38699428Y-45506557D01*
X38702092Y-45508046D01*
X38702095Y-45508048D01*
X38794136Y-45559488D01*
X38866765Y-45600079D01*
X38869669Y-45601023D01*
X38869670Y-45601023D01*
X39046168Y-45658371D01*
X39046173Y-45658372D01*
X39049081Y-45659317D01*
X39239430Y-45682015D01*
X39242472Y-45681781D01*
X39242475Y-45681781D01*
X39427514Y-45667543D01*
X39427519Y-45667542D01*
X39430562Y-45667308D01*
X39459182Y-45659317D01*
X39612260Y-45616577D01*
X39612264Y-45616576D01*
X39615199Y-45615756D01*
X39786305Y-45529324D01*
X39788703Y-45527451D01*
X39788707Y-45527448D01*
X39867523Y-45465869D01*
X39937365Y-45411303D01*
X39964455Y-45379919D01*
X40060630Y-45268500D01*
X40060634Y-45268495D01*
X40062624Y-45266189D01*
X40083544Y-45229364D01*
X40155801Y-45102170D01*
X40155803Y-45102165D01*
X40157312Y-45099509D01*
X40217821Y-44917612D01*
X40222542Y-44880247D01*
X40241627Y-44729167D01*
X40241627Y-44729166D01*
X40241847Y-44727425D01*
X40242230Y-44700000D01*
X40240886Y-44686286D01*
X40223822Y-44512257D01*
X40223524Y-44509217D01*
X40168117Y-44325701D01*
X40078120Y-44156442D01*
X39956962Y-44007887D01*
X39809256Y-43885694D01*
X39640629Y-43794518D01*
X39523643Y-43758305D01*
X39486839Y-43727749D01*
X39482420Y-43680118D01*
X39512976Y-43643314D01*
X39542125Y-43636100D01*
X40834596Y-43636100D01*
X40878790Y-43654406D01*
X40897096Y-43698600D01*
X40878790Y-43742794D01*
X40869319Y-43750567D01*
X40858078Y-43758078D01*
X40829898Y-43800252D01*
X40822500Y-43837442D01*
X40822500Y-45562558D01*
X40829898Y-45599748D01*
X40858078Y-45641922D01*
X40900252Y-45670102D01*
X40906285Y-45671302D01*
X40906287Y-45671303D01*
X40932384Y-45676494D01*
X40937442Y-45677500D01*
X42662558Y-45677500D01*
X42667616Y-45676494D01*
X42693713Y-45671303D01*
X42693715Y-45671302D01*
X42699748Y-45670102D01*
X42741922Y-45641922D01*
X42770102Y-45599748D01*
X42777500Y-45562558D01*
X42777500Y-43837442D01*
X42770102Y-43800252D01*
X42741922Y-43758078D01*
X42699748Y-43729898D01*
X42677294Y-43725431D01*
X42669205Y-43723822D01*
X42629432Y-43697245D01*
X42618900Y-43662523D01*
X42618900Y-43423800D01*
X42619242Y-43417267D01*
X42622022Y-43390819D01*
X42622022Y-43390818D01*
X42622708Y-43384289D01*
X42620678Y-43378043D01*
X42619994Y-43371534D01*
X42633578Y-43325668D01*
X42675616Y-43302842D01*
X42682151Y-43302499D01*
X42735780Y-43302499D01*
X42809979Y-43291578D01*
X42814338Y-43289438D01*
X42918155Y-43238466D01*
X42918156Y-43238465D01*
X42922790Y-43236190D01*
X42926437Y-43232537D01*
X43007930Y-43150902D01*
X43007932Y-43150900D01*
X43011578Y-43147247D01*
X43041993Y-43085025D01*
X43064638Y-43038699D01*
X43064638Y-43038698D01*
X43066769Y-43034339D01*
X43068925Y-43019564D01*
X43073946Y-42985142D01*
X43077500Y-42960781D01*
X43077499Y-42189220D01*
X43066578Y-42115021D01*
X43018097Y-42016278D01*
X43013466Y-42006845D01*
X43013465Y-42006844D01*
X43011190Y-42002210D01*
X43007537Y-41998563D01*
X42925902Y-41917070D01*
X42925900Y-41917068D01*
X42922247Y-41913422D01*
X42853906Y-41880016D01*
X42813699Y-41860362D01*
X42813698Y-41860362D01*
X42809339Y-41858231D01*
X42804536Y-41857530D01*
X42804535Y-41857530D01*
X42782560Y-41854324D01*
X42735781Y-41847500D01*
X42425821Y-41847500D01*
X42114220Y-41847501D01*
X42079495Y-41852612D01*
X42062502Y-41855113D01*
X42016113Y-41843437D01*
X42009207Y-41837473D01*
X41933306Y-41761572D01*
X41915000Y-41717378D01*
X41915000Y-41589999D01*
X41933306Y-41545805D01*
X41977500Y-41527499D01*
X42060780Y-41527499D01*
X42134979Y-41516578D01*
X42217626Y-41476000D01*
X42243155Y-41463466D01*
X42243156Y-41463465D01*
X42247790Y-41461190D01*
X42295995Y-41412901D01*
X42332930Y-41375902D01*
X42332932Y-41375900D01*
X42336578Y-41372247D01*
X42374099Y-41295488D01*
X42389638Y-41263699D01*
X42389638Y-41263698D01*
X42391769Y-41259339D01*
X42402500Y-41185781D01*
X42402499Y-40164220D01*
X42391578Y-40090021D01*
X42336190Y-39977210D01*
X42332537Y-39973563D01*
X42250902Y-39892070D01*
X42250900Y-39892068D01*
X42247247Y-39888422D01*
X42171257Y-39851277D01*
X42138699Y-39835362D01*
X42138698Y-39835362D01*
X42134339Y-39833231D01*
X42134445Y-39833014D01*
X42099611Y-39804122D01*
X42095170Y-39756493D01*
X42125709Y-39719674D01*
X42138444Y-39714648D01*
X42191457Y-39700195D01*
X42243155Y-39686100D01*
X42353124Y-39618579D01*
X42439722Y-39522907D01*
X42495988Y-39406775D01*
X42497264Y-39399195D01*
X42516997Y-39281896D01*
X42517397Y-39279520D01*
X42517533Y-39268400D01*
X42499239Y-39140659D01*
X42457835Y-39049595D01*
X42447672Y-39027243D01*
X42447671Y-39027241D01*
X42445828Y-39023188D01*
X42432323Y-39007514D01*
X42364501Y-38928803D01*
X42361593Y-38925428D01*
X42253306Y-38855241D01*
X42249041Y-38853966D01*
X42249038Y-38853964D01*
X42133941Y-38819542D01*
X42133938Y-38819542D01*
X42129673Y-38818266D01*
X42066121Y-38817878D01*
X42005084Y-38817505D01*
X42005083Y-38817505D01*
X42000631Y-38817478D01*
X41876555Y-38852939D01*
X41767419Y-38921799D01*
X41764476Y-38925131D01*
X41764474Y-38925133D01*
X41681996Y-39018522D01*
X41680268Y-39016996D01*
X41646994Y-39039603D01*
X41634328Y-39040900D01*
X40433184Y-39040900D01*
X40429913Y-39040814D01*
X40389216Y-39038681D01*
X40368034Y-39046812D01*
X40365374Y-39047833D01*
X40355970Y-39050618D01*
X40331000Y-39055926D01*
X40325685Y-39059788D01*
X40325682Y-39059789D01*
X40322767Y-39061907D01*
X40308425Y-39069694D01*
X40305062Y-39070985D01*
X40298927Y-39073340D01*
X40280873Y-39091394D01*
X40273416Y-39097763D01*
X40269078Y-39100915D01*
X40265435Y-39103562D01*
X40252758Y-39112772D01*
X40249475Y-39118459D01*
X40249471Y-39118463D01*
X40247667Y-39121588D01*
X40237735Y-39134532D01*
X40032072Y-39340194D01*
X39987878Y-39358500D01*
X39620442Y-39358500D01*
X39617431Y-39359099D01*
X39589287Y-39364697D01*
X39589285Y-39364698D01*
X39583252Y-39365898D01*
X39541078Y-39394078D01*
X39512898Y-39436252D01*
X39505500Y-39473442D01*
X39505500Y-39798558D01*
X39506099Y-39801569D01*
X39510263Y-39822501D01*
X39512898Y-39835748D01*
X39541078Y-39877922D01*
X39583252Y-39906102D01*
X39589285Y-39907302D01*
X39589287Y-39907303D01*
X39615384Y-39912494D01*
X39620442Y-39913500D01*
X40495558Y-39913500D01*
X40500616Y-39912494D01*
X40526713Y-39907303D01*
X40526715Y-39907302D01*
X40532748Y-39906102D01*
X40574922Y-39877922D01*
X40603102Y-39835748D01*
X40605738Y-39822501D01*
X40609901Y-39801569D01*
X40610500Y-39798558D01*
X40610500Y-39558400D01*
X40628806Y-39514206D01*
X40673000Y-39495900D01*
X41635958Y-39495900D01*
X41680152Y-39514206D01*
X41683796Y-39518179D01*
X41759039Y-39607691D01*
X41762744Y-39610157D01*
X41762746Y-39610159D01*
X41844302Y-39664447D01*
X41866460Y-39679196D01*
X41934151Y-39700344D01*
X41970875Y-39730996D01*
X41975169Y-39778638D01*
X41944517Y-39815362D01*
X41915513Y-39822500D01*
X41325751Y-39822501D01*
X41314220Y-39822501D01*
X41240021Y-39833422D01*
X41235663Y-39835562D01*
X41235662Y-39835562D01*
X41131845Y-39886534D01*
X41131844Y-39886535D01*
X41127210Y-39888810D01*
X41123564Y-39892462D01*
X41123563Y-39892463D01*
X41042070Y-39974098D01*
X41042068Y-39974100D01*
X41038422Y-39977753D01*
X41036154Y-39982393D01*
X40985675Y-40085662D01*
X40983231Y-40090661D01*
X40972500Y-40164219D01*
X40972501Y-41185780D01*
X40983422Y-41259979D01*
X40985562Y-41264337D01*
X40985562Y-41264338D01*
X41002364Y-41298558D01*
X41038810Y-41372790D01*
X41042462Y-41376436D01*
X41042463Y-41376437D01*
X41124098Y-41457930D01*
X41124100Y-41457932D01*
X41127753Y-41461578D01*
X41240661Y-41516769D01*
X41245464Y-41517470D01*
X41245465Y-41517470D01*
X41267440Y-41520676D01*
X41314219Y-41527500D01*
X41397500Y-41527500D01*
X41441694Y-41545806D01*
X41460000Y-41590000D01*
X41460000Y-41829927D01*
X41459914Y-41833198D01*
X41457782Y-41873884D01*
X41466935Y-41897731D01*
X41469716Y-41907119D01*
X41475026Y-41932100D01*
X41478888Y-41937416D01*
X41478889Y-41937418D01*
X41481008Y-41940335D01*
X41488791Y-41954668D01*
X41492440Y-41964173D01*
X41510494Y-41982227D01*
X41516863Y-41989684D01*
X41531872Y-42010342D01*
X41537559Y-42013625D01*
X41537563Y-42013629D01*
X41540688Y-42015433D01*
X41553632Y-42025365D01*
X41754194Y-42225927D01*
X41772500Y-42270121D01*
X41772501Y-42960780D01*
X41783422Y-43034979D01*
X41785562Y-43039337D01*
X41785562Y-43039338D01*
X41810954Y-43091055D01*
X41813999Y-43138793D01*
X41782396Y-43174703D01*
X41754851Y-43181100D01*
X40795149Y-43181100D01*
X40750955Y-43162794D01*
X40732649Y-43118600D01*
X40738998Y-43091153D01*
X40764638Y-43038699D01*
X40764638Y-43038698D01*
X40766769Y-43034339D01*
X40768925Y-43019564D01*
X40773946Y-42985142D01*
X40777500Y-42960781D01*
X40777499Y-42189220D01*
X40766578Y-42115021D01*
X40718097Y-42016278D01*
X40713466Y-42006845D01*
X40713465Y-42006844D01*
X40711190Y-42002210D01*
X40707537Y-41998563D01*
X40625902Y-41917070D01*
X40625900Y-41917068D01*
X40622247Y-41913422D01*
X40553906Y-41880016D01*
X40513699Y-41860362D01*
X40513698Y-41860362D01*
X40509339Y-41858231D01*
X40504536Y-41857530D01*
X40504535Y-41857530D01*
X40482560Y-41854324D01*
X40435781Y-41847500D01*
X40415000Y-41847500D01*
X40370806Y-41829194D01*
X40352500Y-41785000D01*
X40352500Y-41476000D01*
X40370806Y-41431806D01*
X40415000Y-41413500D01*
X40495558Y-41413500D01*
X40500616Y-41412494D01*
X40526713Y-41407303D01*
X40526715Y-41407302D01*
X40532748Y-41406102D01*
X40574922Y-41377922D01*
X40603102Y-41335748D01*
X40610500Y-41298558D01*
X40610500Y-40973442D01*
X40603102Y-40936252D01*
X40574922Y-40894078D01*
X40532748Y-40865898D01*
X40526715Y-40864698D01*
X40526713Y-40864697D01*
X40498569Y-40859099D01*
X40495558Y-40858500D01*
X39620442Y-40858500D01*
X39617431Y-40859099D01*
X39589287Y-40864697D01*
X39589285Y-40864698D01*
X39583252Y-40865898D01*
X39541078Y-40894078D01*
X39512898Y-40936252D01*
X39505500Y-40973442D01*
X39505500Y-41298558D01*
X39512898Y-41335748D01*
X39541078Y-41377922D01*
X39583252Y-41406102D01*
X39589285Y-41407302D01*
X39589287Y-41407303D01*
X39615384Y-41412494D01*
X39620442Y-41413500D01*
X39835000Y-41413500D01*
X39879194Y-41431806D01*
X39897500Y-41476000D01*
X39897500Y-41785001D01*
X39879194Y-41829195D01*
X39835000Y-41847501D01*
X39814220Y-41847501D01*
X39740021Y-41858422D01*
X39735663Y-41860562D01*
X39735662Y-41860562D01*
X39631845Y-41911534D01*
X39631844Y-41911535D01*
X39627210Y-41913810D01*
X39623564Y-41917462D01*
X39623563Y-41917463D01*
X39542070Y-41999098D01*
X39542068Y-41999100D01*
X39538422Y-42002753D01*
X39536154Y-42007393D01*
X39485675Y-42110662D01*
X39483231Y-42115661D01*
X39472500Y-42189219D01*
X39472501Y-42960780D01*
X39483422Y-43034979D01*
X39485562Y-43039337D01*
X39485562Y-43039338D01*
X39510954Y-43091055D01*
X39513999Y-43138793D01*
X39482396Y-43174703D01*
X39454851Y-43181100D01*
X38550322Y-43181100D01*
X38506128Y-43162794D01*
X37403806Y-42060472D01*
X37385500Y-42016278D01*
X37385500Y-41476000D01*
X37403806Y-41431806D01*
X37448000Y-41413500D01*
X37595558Y-41413500D01*
X37600616Y-41412494D01*
X37626713Y-41407303D01*
X37626715Y-41407302D01*
X37632748Y-41406102D01*
X37674922Y-41377922D01*
X37703102Y-41335748D01*
X37710500Y-41298558D01*
X37710500Y-40973442D01*
X37703102Y-40936252D01*
X37692726Y-40920723D01*
X37683394Y-40873806D01*
X37692726Y-40851277D01*
X37699683Y-40840865D01*
X37703102Y-40835748D01*
X37710500Y-40798558D01*
X37710500Y-40473442D01*
X37709494Y-40468384D01*
X37704303Y-40442287D01*
X37704302Y-40442285D01*
X37703102Y-40436252D01*
X37692726Y-40420723D01*
X37683394Y-40373806D01*
X37692726Y-40351277D01*
X37699683Y-40340865D01*
X37703102Y-40335748D01*
X37710500Y-40298558D01*
X37710500Y-39973442D01*
X37703102Y-39936252D01*
X37692726Y-39920723D01*
X37683394Y-39873806D01*
X37692726Y-39851277D01*
X37699683Y-39840865D01*
X37703102Y-39835748D01*
X37705738Y-39822501D01*
X37709901Y-39801569D01*
X37710500Y-39798558D01*
X37710500Y-39473442D01*
X37703102Y-39436252D01*
X37674922Y-39394078D01*
X37632748Y-39365898D01*
X37626715Y-39364698D01*
X37626713Y-39364697D01*
X37598569Y-39359099D01*
X37595558Y-39358500D01*
X36720442Y-39358500D01*
X36717431Y-39359099D01*
X36689287Y-39364697D01*
X36689285Y-39364698D01*
X36683941Y-39365761D01*
X36683940Y-39365761D01*
X36683252Y-39365898D01*
X36683225Y-39365761D01*
X36638885Y-39365764D01*
X36605059Y-39331940D01*
X36600300Y-39308020D01*
X36600300Y-39109121D01*
X36618606Y-39064927D01*
X36778928Y-38904606D01*
X36823122Y-38886300D01*
X40556227Y-38886300D01*
X40559498Y-38886386D01*
X40600184Y-38888518D01*
X40624031Y-38879365D01*
X40633419Y-38876584D01*
X40658400Y-38871274D01*
X40663716Y-38867412D01*
X40663718Y-38867411D01*
X40666635Y-38865292D01*
X40680968Y-38857509D01*
X40684341Y-38856214D01*
X40690473Y-38853860D01*
X40708527Y-38835806D01*
X40715985Y-38829436D01*
X40731328Y-38818289D01*
X40731328Y-38818288D01*
X40736642Y-38814428D01*
X40739925Y-38808741D01*
X40739929Y-38808737D01*
X40741733Y-38805612D01*
X40751665Y-38792668D01*
X41061203Y-38483130D01*
X41107850Y-38464872D01*
X41147402Y-38466426D01*
X41204402Y-38468666D01*
X41204406Y-38468666D01*
X41207262Y-38468778D01*
X41412337Y-38439044D01*
X41608560Y-38372435D01*
X41789359Y-38271183D01*
X41948678Y-38138678D01*
X42081183Y-37979359D01*
X42182435Y-37798560D01*
X42249044Y-37602337D01*
X42261284Y-37517915D01*
X42278515Y-37399078D01*
X42278515Y-37399073D01*
X42278778Y-37397262D01*
X42280330Y-37338000D01*
X42277607Y-37308359D01*
X42261631Y-37134504D01*
X42261369Y-37131649D01*
X42260590Y-37128886D01*
X42205899Y-36934966D01*
X42205897Y-36934962D01*
X42205121Y-36932209D01*
X42113470Y-36746359D01*
X42096643Y-36723825D01*
X41991202Y-36582622D01*
X41991201Y-36582620D01*
X41989485Y-36580323D01*
X41837319Y-36439662D01*
X41662067Y-36329087D01*
X41469599Y-36252300D01*
X41466793Y-36251742D01*
X41466790Y-36251741D01*
X41269167Y-36212431D01*
X41269165Y-36212431D01*
X41266361Y-36211873D01*
X41168846Y-36210597D01*
X41062020Y-36209198D01*
X41062015Y-36209198D01*
X41059158Y-36209161D01*
X41056337Y-36209646D01*
X41056333Y-36209646D01*
X40936768Y-36230191D01*
X40854931Y-36244253D01*
X40852243Y-36245245D01*
X40852238Y-36245246D01*
X40663207Y-36314984D01*
X40663204Y-36314985D01*
X40660519Y-36315976D01*
X40658059Y-36317439D01*
X40658058Y-36317440D01*
X40640263Y-36328027D01*
X40482433Y-36421926D01*
X40326637Y-36558555D01*
X40324861Y-36560808D01*
X40324860Y-36560809D01*
X40309477Y-36580323D01*
X40198348Y-36721289D01*
X40101863Y-36904676D01*
X40101016Y-36907403D01*
X40101015Y-36907406D01*
X40042325Y-37096422D01*
X40040414Y-37102575D01*
X40016058Y-37308359D01*
X40029611Y-37515135D01*
X40080619Y-37715980D01*
X40167373Y-37904165D01*
X40286970Y-38073390D01*
X40435402Y-38217986D01*
X40480691Y-38248247D01*
X40520432Y-38274802D01*
X40547008Y-38314576D01*
X40537676Y-38361492D01*
X40529903Y-38370963D01*
X40487872Y-38412994D01*
X40443678Y-38431300D01*
X36710573Y-38431300D01*
X36707302Y-38431214D01*
X36704135Y-38431048D01*
X36666616Y-38429082D01*
X36642769Y-38438235D01*
X36633381Y-38441016D01*
X36608400Y-38446326D01*
X36603084Y-38450188D01*
X36603082Y-38450189D01*
X36600165Y-38452308D01*
X36585832Y-38460091D01*
X36582459Y-38461386D01*
X36576327Y-38463740D01*
X36558273Y-38481794D01*
X36550816Y-38488163D01*
X36530158Y-38503172D01*
X36526875Y-38508859D01*
X36526871Y-38508863D01*
X36525067Y-38511988D01*
X36515135Y-38524932D01*
X36217295Y-38822772D01*
X36214921Y-38825025D01*
X36189520Y-38847895D01*
X36189519Y-38847896D01*
X36184637Y-38852292D01*
X36181965Y-38858294D01*
X36181964Y-38858295D01*
X36174253Y-38875615D01*
X36169572Y-38884236D01*
X36159246Y-38900137D01*
X36155666Y-38905650D01*
X36154074Y-38915702D01*
X36149442Y-38931340D01*
X36145300Y-38940643D01*
X36145300Y-38966177D01*
X36144531Y-38975954D01*
X36140537Y-39001172D01*
X36143172Y-39011005D01*
X36145300Y-39027175D01*
X36145300Y-39055552D01*
X36126994Y-39099746D01*
X36082800Y-39118052D01*
X36055353Y-39111703D01*
X36038699Y-39103562D01*
X36038698Y-39103562D01*
X36034339Y-39101431D01*
X36029536Y-39100730D01*
X36029535Y-39100730D01*
X36007560Y-39097524D01*
X35960781Y-39090700D01*
X35451349Y-39090700D01*
X34939220Y-39090701D01*
X34865021Y-39101622D01*
X34860663Y-39103762D01*
X34860662Y-39103762D01*
X34756845Y-39154734D01*
X34756844Y-39154735D01*
X34752210Y-39157010D01*
X34748564Y-39160662D01*
X34748563Y-39160663D01*
X34667070Y-39242298D01*
X34667068Y-39242300D01*
X34663422Y-39245953D01*
X34608231Y-39358861D01*
X34607530Y-39363664D01*
X34607530Y-39363665D01*
X34607224Y-39365761D01*
X34597500Y-39432419D01*
X32639000Y-39432419D01*
X32639000Y-33889219D01*
X32772500Y-33889219D01*
X32772501Y-34635780D01*
X32783422Y-34709979D01*
X32838810Y-34822790D01*
X32842462Y-34826436D01*
X32842463Y-34826437D01*
X32924098Y-34907930D01*
X32924100Y-34907932D01*
X32927753Y-34911578D01*
X33040661Y-34966769D01*
X33045464Y-34967470D01*
X33045465Y-34967470D01*
X33067440Y-34970676D01*
X33114219Y-34977500D01*
X33623651Y-34977500D01*
X34135780Y-34977499D01*
X34175899Y-34971594D01*
X34222288Y-34983269D01*
X34246834Y-35024327D01*
X34247500Y-35033428D01*
X34247500Y-35317427D01*
X34247414Y-35320698D01*
X34245282Y-35361384D01*
X34254435Y-35385231D01*
X34257216Y-35394619D01*
X34262526Y-35419600D01*
X34266388Y-35424916D01*
X34266389Y-35424918D01*
X34268508Y-35427835D01*
X34276291Y-35442168D01*
X34279940Y-35451673D01*
X34297994Y-35469727D01*
X34304363Y-35477184D01*
X34319372Y-35497842D01*
X34325059Y-35501125D01*
X34325063Y-35501129D01*
X34328188Y-35502933D01*
X34341132Y-35512865D01*
X34883754Y-36055487D01*
X34886007Y-36057860D01*
X34913292Y-36088163D01*
X34919293Y-36090835D01*
X34936621Y-36098550D01*
X34945239Y-36103229D01*
X34961142Y-36113557D01*
X34961144Y-36113558D01*
X34966651Y-36117134D01*
X34976702Y-36118726D01*
X34992344Y-36123360D01*
X34995643Y-36124829D01*
X34995645Y-36124829D01*
X35001643Y-36127500D01*
X35027178Y-36127500D01*
X35036957Y-36128270D01*
X35062172Y-36132264D01*
X35072008Y-36129628D01*
X35088179Y-36127500D01*
X38373558Y-36127500D01*
X38417752Y-36145806D01*
X38421396Y-36149779D01*
X38496639Y-36239291D01*
X38500344Y-36241757D01*
X38500346Y-36241759D01*
X38581902Y-36296047D01*
X38604060Y-36310796D01*
X38727233Y-36349278D01*
X38731683Y-36349360D01*
X38731686Y-36349360D01*
X38851809Y-36351562D01*
X38851812Y-36351562D01*
X38856255Y-36351643D01*
X38860546Y-36350473D01*
X38860547Y-36350473D01*
X38942876Y-36328027D01*
X38980755Y-36317700D01*
X39090724Y-36250179D01*
X39177322Y-36154507D01*
X39233588Y-36038375D01*
X39254997Y-35911120D01*
X39255133Y-35900000D01*
X39236839Y-35772259D01*
X39191481Y-35672500D01*
X39185272Y-35658843D01*
X39185271Y-35658841D01*
X39183428Y-35654788D01*
X39099193Y-35557028D01*
X38990906Y-35486841D01*
X38986641Y-35485566D01*
X38986638Y-35485564D01*
X38871541Y-35451142D01*
X38871538Y-35451142D01*
X38867273Y-35449866D01*
X38803721Y-35449478D01*
X38742684Y-35449105D01*
X38742683Y-35449105D01*
X38738231Y-35449078D01*
X38614155Y-35484539D01*
X38505019Y-35553399D01*
X38502076Y-35556731D01*
X38502074Y-35556733D01*
X38419596Y-35650122D01*
X38417868Y-35648596D01*
X38384594Y-35671203D01*
X38371928Y-35672500D01*
X35170121Y-35672500D01*
X35125927Y-35654194D01*
X34720806Y-35249072D01*
X34702500Y-35204878D01*
X34702500Y-34382573D01*
X34702586Y-34379302D01*
X34704374Y-34345179D01*
X34704718Y-34338616D01*
X34697273Y-34319219D01*
X34961500Y-34319219D01*
X34961501Y-35065780D01*
X34972422Y-35139979D01*
X34974562Y-35144337D01*
X34974562Y-35144338D01*
X35016997Y-35230766D01*
X35027810Y-35252790D01*
X35031462Y-35256436D01*
X35031463Y-35256437D01*
X35113098Y-35337930D01*
X35113100Y-35337932D01*
X35116753Y-35341578D01*
X35121393Y-35343846D01*
X35225271Y-35394623D01*
X35229661Y-35396769D01*
X35234464Y-35397470D01*
X35234465Y-35397470D01*
X35256440Y-35400676D01*
X35303219Y-35407500D01*
X35812651Y-35407500D01*
X36324780Y-35407499D01*
X36398979Y-35396578D01*
X36412760Y-35389812D01*
X36507155Y-35343466D01*
X36507156Y-35343465D01*
X36511790Y-35341190D01*
X36515437Y-35337537D01*
X36596930Y-35255902D01*
X36596932Y-35255900D01*
X36600578Y-35252247D01*
X36623733Y-35204878D01*
X36653638Y-35143699D01*
X36653638Y-35143698D01*
X36655769Y-35139339D01*
X36666500Y-35065781D01*
X36667027Y-35065858D01*
X36687662Y-35024729D01*
X36728548Y-35009500D01*
X36958466Y-35009500D01*
X36996255Y-35025153D01*
X36997078Y-35023922D01*
X37039252Y-35052102D01*
X37045285Y-35053302D01*
X37045287Y-35053303D01*
X37071384Y-35058494D01*
X37076442Y-35059500D01*
X37901558Y-35059500D01*
X37906616Y-35058494D01*
X37932713Y-35053303D01*
X37932715Y-35053302D01*
X37938748Y-35052102D01*
X37980922Y-35023922D01*
X38009102Y-34981748D01*
X38011943Y-34967470D01*
X38015901Y-34947569D01*
X38016500Y-34944558D01*
X39961500Y-34944558D01*
X39962099Y-34947569D01*
X39966058Y-34967470D01*
X39968898Y-34981748D01*
X39997078Y-35023922D01*
X40039252Y-35052102D01*
X40045285Y-35053302D01*
X40045287Y-35053303D01*
X40071384Y-35058494D01*
X40076442Y-35059500D01*
X40901558Y-35059500D01*
X40906616Y-35058494D01*
X40932713Y-35053303D01*
X40932715Y-35053302D01*
X40938748Y-35052102D01*
X40980922Y-35023922D01*
X41009102Y-34981748D01*
X41011943Y-34967470D01*
X41015901Y-34947569D01*
X41016500Y-34944558D01*
X41016500Y-34619442D01*
X41009102Y-34582252D01*
X40980922Y-34540078D01*
X40938748Y-34511898D01*
X40932715Y-34510698D01*
X40932713Y-34510697D01*
X40904569Y-34505099D01*
X40901558Y-34504500D01*
X40076442Y-34504500D01*
X40073431Y-34505099D01*
X40045287Y-34510697D01*
X40045285Y-34510698D01*
X40039252Y-34511898D01*
X39997078Y-34540078D01*
X39968898Y-34582252D01*
X39961500Y-34619442D01*
X39961500Y-34944558D01*
X38016500Y-34944558D01*
X38016500Y-34619442D01*
X38009102Y-34582252D01*
X37980922Y-34540078D01*
X37938748Y-34511898D01*
X37932715Y-34510698D01*
X37932713Y-34510697D01*
X37904569Y-34505099D01*
X37901558Y-34504500D01*
X37076442Y-34504500D01*
X37073431Y-34505099D01*
X37045287Y-34510697D01*
X37045285Y-34510698D01*
X37039252Y-34511898D01*
X36997078Y-34540078D01*
X36996255Y-34538847D01*
X36958466Y-34554500D01*
X36728999Y-34554500D01*
X36684805Y-34536194D01*
X36666499Y-34492000D01*
X36666499Y-34319220D01*
X36655578Y-34245021D01*
X36600190Y-34132210D01*
X36596537Y-34128563D01*
X36514902Y-34047070D01*
X36514900Y-34047068D01*
X36511247Y-34043422D01*
X36398339Y-33988231D01*
X36393536Y-33987530D01*
X36393535Y-33987530D01*
X36371560Y-33984324D01*
X36324781Y-33977500D01*
X35815349Y-33977500D01*
X35303220Y-33977501D01*
X35229021Y-33988422D01*
X35224663Y-33990562D01*
X35224662Y-33990562D01*
X35120845Y-34041534D01*
X35120844Y-34041535D01*
X35116210Y-34043810D01*
X35112564Y-34047462D01*
X35112563Y-34047463D01*
X35031070Y-34129098D01*
X35031068Y-34129100D01*
X35027422Y-34132753D01*
X35025154Y-34137393D01*
X34974675Y-34240662D01*
X34972231Y-34245661D01*
X34961500Y-34319219D01*
X34697273Y-34319219D01*
X34695565Y-34314769D01*
X34692782Y-34305373D01*
X34690823Y-34296153D01*
X34699544Y-34249119D01*
X34707764Y-34238969D01*
X35139927Y-33806806D01*
X35184121Y-33788500D01*
X36899000Y-33788500D01*
X36943194Y-33806806D01*
X36961500Y-33851000D01*
X36961500Y-33944558D01*
X36968898Y-33981748D01*
X36997078Y-34023922D01*
X37039252Y-34052102D01*
X37045285Y-34053302D01*
X37045287Y-34053303D01*
X37071384Y-34058494D01*
X37076442Y-34059500D01*
X37901558Y-34059500D01*
X37906616Y-34058494D01*
X37932713Y-34053303D01*
X37932715Y-34053302D01*
X37938748Y-34052102D01*
X37980922Y-34023922D01*
X38009102Y-33981748D01*
X38016500Y-33944558D01*
X38016500Y-33619442D01*
X38009102Y-33582252D01*
X37998726Y-33566723D01*
X37989394Y-33519806D01*
X37998726Y-33497277D01*
X38005683Y-33486865D01*
X38009102Y-33481748D01*
X38016500Y-33444558D01*
X38016500Y-33119442D01*
X38009102Y-33082252D01*
X37998726Y-33066723D01*
X37989394Y-33019806D01*
X37998726Y-32997277D01*
X38005683Y-32986865D01*
X38009102Y-32981748D01*
X38016500Y-32944558D01*
X38016500Y-32619442D01*
X38009102Y-32582252D01*
X37980922Y-32540078D01*
X37938748Y-32511898D01*
X37932715Y-32510698D01*
X37932713Y-32510697D01*
X37904569Y-32505099D01*
X37901558Y-32504500D01*
X37804000Y-32504500D01*
X37759806Y-32486194D01*
X37741500Y-32442000D01*
X37741500Y-32266979D01*
X37757663Y-32225037D01*
X37839335Y-32134807D01*
X37842322Y-32131507D01*
X37898588Y-32015375D01*
X37900769Y-32002415D01*
X37902111Y-31994440D01*
X39444901Y-31994440D01*
X39445478Y-31998853D01*
X39445478Y-31998854D01*
X39450188Y-32034868D01*
X39461633Y-32122394D01*
X39463426Y-32126469D01*
X39506797Y-32225037D01*
X39513605Y-32240510D01*
X39596639Y-32339291D01*
X39600344Y-32341757D01*
X39600346Y-32341759D01*
X39681902Y-32396047D01*
X39704060Y-32410796D01*
X39827233Y-32449278D01*
X39831683Y-32449360D01*
X39831686Y-32449360D01*
X39940584Y-32451356D01*
X39984435Y-32470469D01*
X40001928Y-32514992D01*
X39991404Y-32548569D01*
X39968898Y-32582252D01*
X39961500Y-32619442D01*
X39961500Y-32944558D01*
X39968898Y-32981748D01*
X39972317Y-32986865D01*
X39979274Y-32997277D01*
X39988606Y-33044194D01*
X39979274Y-33066723D01*
X39968898Y-33082252D01*
X39961500Y-33119442D01*
X39961500Y-33444558D01*
X39968898Y-33481748D01*
X39972317Y-33486865D01*
X39979274Y-33497277D01*
X39988606Y-33544194D01*
X39979274Y-33566723D01*
X39968898Y-33582252D01*
X39961500Y-33619442D01*
X39961500Y-33944558D01*
X39968898Y-33981748D01*
X39997078Y-34023922D01*
X40039252Y-34052102D01*
X40045285Y-34053302D01*
X40045287Y-34053303D01*
X40071384Y-34058494D01*
X40076442Y-34059500D01*
X40901558Y-34059500D01*
X40906616Y-34058494D01*
X40932713Y-34053303D01*
X40932715Y-34053302D01*
X40938748Y-34052102D01*
X40980922Y-34023922D01*
X41009102Y-33981748D01*
X41016500Y-33944558D01*
X41016500Y-33843000D01*
X41034806Y-33798806D01*
X41079000Y-33780500D01*
X41194573Y-33780500D01*
X41238767Y-33798806D01*
X41242411Y-33802778D01*
X41296639Y-33867291D01*
X41300344Y-33869757D01*
X41300346Y-33869759D01*
X41381902Y-33924047D01*
X41404060Y-33938796D01*
X41527233Y-33977278D01*
X41531683Y-33977360D01*
X41531686Y-33977360D01*
X41651809Y-33979562D01*
X41651812Y-33979562D01*
X41656255Y-33979643D01*
X41660546Y-33978473D01*
X41660547Y-33978473D01*
X41718505Y-33962671D01*
X41780755Y-33945700D01*
X41890724Y-33878179D01*
X41960531Y-33801058D01*
X42006867Y-33780500D01*
X42065970Y-33780500D01*
X42078163Y-33781701D01*
X42097000Y-33785448D01*
X42103037Y-33784247D01*
X42111785Y-33782507D01*
X42182148Y-33768510D01*
X42195521Y-33765850D01*
X42279043Y-33710043D01*
X42289713Y-33694074D01*
X42297486Y-33684603D01*
X42381603Y-33600486D01*
X42391074Y-33592713D01*
X42401926Y-33585462D01*
X42407043Y-33582043D01*
X42462850Y-33498521D01*
X42477500Y-33424870D01*
X42482447Y-33400000D01*
X42481246Y-33393962D01*
X42481246Y-33389999D01*
X42499552Y-33345805D01*
X42543746Y-33327499D01*
X42735780Y-33327499D01*
X42809979Y-33316578D01*
X42814338Y-33314438D01*
X42918155Y-33263466D01*
X42918156Y-33263465D01*
X42922790Y-33261190D01*
X42929595Y-33254373D01*
X43007930Y-33175902D01*
X43007932Y-33175900D01*
X43011578Y-33172247D01*
X43061896Y-33069308D01*
X43064638Y-33063699D01*
X43064638Y-33063698D01*
X43066769Y-33059339D01*
X43068979Y-33044194D01*
X43077172Y-32988027D01*
X43077500Y-32985781D01*
X43077499Y-32239220D01*
X43066578Y-32165021D01*
X43011190Y-32052210D01*
X42974291Y-32015375D01*
X42925902Y-31967070D01*
X42925900Y-31967068D01*
X42922247Y-31963422D01*
X42809339Y-31908231D01*
X42804536Y-31907530D01*
X42804535Y-31907530D01*
X42782560Y-31904324D01*
X42735781Y-31897500D01*
X42226349Y-31897500D01*
X41714220Y-31897501D01*
X41640021Y-31908422D01*
X41635663Y-31910562D01*
X41635662Y-31910562D01*
X41531845Y-31961534D01*
X41531844Y-31961535D01*
X41527210Y-31963810D01*
X41523564Y-31967462D01*
X41523563Y-31967463D01*
X41442070Y-32049098D01*
X41442068Y-32049100D01*
X41438422Y-32052753D01*
X41436154Y-32057393D01*
X41385675Y-32160662D01*
X41383231Y-32165661D01*
X41372500Y-32239219D01*
X41372501Y-32985780D01*
X41383422Y-33059979D01*
X41385562Y-33064337D01*
X41385562Y-33064338D01*
X41385634Y-33064484D01*
X41385641Y-33064591D01*
X41387004Y-33068978D01*
X41385942Y-33069308D01*
X41388681Y-33112222D01*
X41362883Y-33144889D01*
X41305019Y-33181399D01*
X41302076Y-33184731D01*
X41302074Y-33184733D01*
X41240571Y-33254373D01*
X41193725Y-33275500D01*
X41079000Y-33275500D01*
X41034806Y-33257194D01*
X41016500Y-33213000D01*
X41016500Y-33119442D01*
X41009102Y-33082252D01*
X40998726Y-33066723D01*
X40989394Y-33019806D01*
X40998726Y-32997277D01*
X41005683Y-32986865D01*
X41009102Y-32981748D01*
X41016500Y-32944558D01*
X41016500Y-32619442D01*
X41009102Y-32582252D01*
X40980922Y-32540078D01*
X40938748Y-32511898D01*
X40932715Y-32510698D01*
X40932713Y-32510697D01*
X40904569Y-32505099D01*
X40901558Y-32504500D01*
X40743205Y-32504500D01*
X40699011Y-32486194D01*
X40690752Y-32473477D01*
X40689994Y-32473970D01*
X40686415Y-32468458D01*
X40684061Y-32462327D01*
X40666003Y-32444269D01*
X40659640Y-32436820D01*
X40644628Y-32416158D01*
X40635811Y-32411067D01*
X40622873Y-32401139D01*
X40360193Y-32138459D01*
X40341887Y-32094265D01*
X40342753Y-32083896D01*
X40347304Y-32056845D01*
X40354997Y-32011120D01*
X40355133Y-32000000D01*
X40336839Y-31872259D01*
X40283428Y-31754788D01*
X40199193Y-31657028D01*
X40090906Y-31586841D01*
X40086641Y-31585566D01*
X40086638Y-31585564D01*
X39971541Y-31551142D01*
X39971538Y-31551142D01*
X39967273Y-31549866D01*
X39903721Y-31549478D01*
X39842684Y-31549105D01*
X39842683Y-31549105D01*
X39838231Y-31549078D01*
X39714155Y-31584539D01*
X39605019Y-31653399D01*
X39602076Y-31656731D01*
X39602074Y-31656733D01*
X39598833Y-31660403D01*
X39519596Y-31750122D01*
X39464754Y-31866932D01*
X39444901Y-31994440D01*
X37902111Y-31994440D01*
X37916581Y-31908422D01*
X37919997Y-31888120D01*
X37920133Y-31877000D01*
X37901839Y-31749259D01*
X37875134Y-31690524D01*
X37850272Y-31635843D01*
X37850271Y-31635841D01*
X37848428Y-31631788D01*
X37764193Y-31534028D01*
X37655906Y-31463841D01*
X37651641Y-31462566D01*
X37651638Y-31462564D01*
X37536541Y-31428142D01*
X37536538Y-31428142D01*
X37532273Y-31426866D01*
X37468721Y-31426478D01*
X37407684Y-31426105D01*
X37407683Y-31426105D01*
X37403231Y-31426078D01*
X37279155Y-31461539D01*
X37170019Y-31530399D01*
X37167076Y-31533731D01*
X37167074Y-31533733D01*
X37118032Y-31589263D01*
X37084596Y-31627122D01*
X37029754Y-31743932D01*
X37009901Y-31871440D01*
X37010478Y-31875853D01*
X37010478Y-31875854D01*
X37010628Y-31877000D01*
X37026633Y-31999394D01*
X37028426Y-32003469D01*
X37063815Y-32083896D01*
X37078605Y-32117510D01*
X37161639Y-32216291D01*
X37165340Y-32218754D01*
X37165346Y-32218760D01*
X37208632Y-32247573D01*
X37235278Y-32287300D01*
X37236500Y-32299600D01*
X37236500Y-32442000D01*
X37218194Y-32486194D01*
X37174000Y-32504500D01*
X37076442Y-32504500D01*
X37073431Y-32505099D01*
X37045287Y-32510697D01*
X37045285Y-32510698D01*
X37039252Y-32511898D01*
X36997078Y-32540078D01*
X36968898Y-32582252D01*
X36961500Y-32619442D01*
X36961500Y-32944558D01*
X36968898Y-32981748D01*
X36972317Y-32986865D01*
X36979274Y-32997277D01*
X36988606Y-33044194D01*
X36979274Y-33066723D01*
X36968898Y-33082252D01*
X36961500Y-33119442D01*
X36961500Y-33271000D01*
X36943194Y-33315194D01*
X36899000Y-33333500D01*
X35071584Y-33333500D01*
X35068313Y-33333414D01*
X35027616Y-33331281D01*
X35006434Y-33339412D01*
X35003774Y-33340433D01*
X34994370Y-33343218D01*
X34969400Y-33348526D01*
X34964085Y-33352388D01*
X34964082Y-33352389D01*
X34961167Y-33354507D01*
X34946825Y-33362294D01*
X34943462Y-33363585D01*
X34937327Y-33365940D01*
X34919273Y-33383994D01*
X34911816Y-33390363D01*
X34891158Y-33405372D01*
X34887875Y-33411059D01*
X34887871Y-33411063D01*
X34886067Y-33414188D01*
X34876135Y-33427132D01*
X34535499Y-33767768D01*
X34491306Y-33786073D01*
X34447112Y-33767767D01*
X34435203Y-33751118D01*
X34413466Y-33706845D01*
X34413465Y-33706844D01*
X34411190Y-33702210D01*
X34397914Y-33688957D01*
X34325902Y-33617070D01*
X34325900Y-33617068D01*
X34322247Y-33613422D01*
X34265047Y-33585462D01*
X34213699Y-33560362D01*
X34213698Y-33560362D01*
X34209339Y-33558231D01*
X34204536Y-33557530D01*
X34204535Y-33557530D01*
X34182560Y-33554324D01*
X34135781Y-33547500D01*
X33626349Y-33547500D01*
X33114220Y-33547501D01*
X33040021Y-33558422D01*
X33035663Y-33560562D01*
X33035662Y-33560562D01*
X32931845Y-33611534D01*
X32931844Y-33611535D01*
X32927210Y-33613810D01*
X32923564Y-33617462D01*
X32923563Y-33617463D01*
X32842070Y-33699098D01*
X32842068Y-33699100D01*
X32838422Y-33702753D01*
X32836154Y-33707393D01*
X32798000Y-33785448D01*
X32783231Y-33815661D01*
X32772500Y-33889219D01*
X32639000Y-33889219D01*
X32639000Y-25465500D01*
X32657306Y-25421306D01*
X32701500Y-25403000D01*
X45149500Y-25403000D01*
X45193694Y-25421306D01*
G37*
%TD.AperFunction*%
%TD*%
M02*
