%TF.GenerationSoftware,KiCad,Pcbnew,(6.0.2)*%
%TF.CreationDate,2022-03-27T19:08:05-04:00*%
%TF.ProjectId,Altimeter,416c7469-6d65-4746-9572-2e6b69636164,rev?*%
%TF.SameCoordinates,Original*%
%TF.FileFunction,Legend,Top*%
%TF.FilePolarity,Positive*%
%FSLAX46Y46*%
G04 Gerber Fmt 4.6, Leading zero omitted, Abs format (unit mm)*
G04 Created by KiCad (PCBNEW (6.0.2)) date 2022-03-27 19:08:05*
%MOMM*%
%LPD*%
G01*
G04 APERTURE LIST*
%ADD10C,0.150000*%
%ADD11C,0.254000*%
%ADD12C,0.100000*%
%ADD13C,0.200000*%
%ADD14C,0.120000*%
G04 APERTURE END LIST*
D10*
X39700000Y-43200000D02*
X40500000Y-43200000D01*
X40100000Y-42800000D02*
X40100000Y-43600000D01*
X37600000Y-43300000D02*
X38400000Y-43300000D01*
X32831000Y-46228000D02*
X44831000Y-46228000D01*
X44831000Y-46228000D02*
X44831000Y-73228000D01*
X44831000Y-73228000D02*
X32831000Y-73228000D01*
X32831000Y-73228000D02*
X32831000Y-46228000D01*
D11*
%TO.C,J1*%
X38819666Y-29604523D02*
X38819666Y-30511666D01*
X38759190Y-30693095D01*
X38638238Y-30814047D01*
X38456809Y-30874523D01*
X38335857Y-30874523D01*
X40089666Y-30874523D02*
X39363952Y-30874523D01*
X39726809Y-30874523D02*
X39726809Y-29604523D01*
X39605857Y-29785952D01*
X39484904Y-29906904D01*
X39363952Y-29967380D01*
D10*
%TO.C,J2*%
X39452380Y-46733333D02*
X40166666Y-46733333D01*
X40309523Y-46780952D01*
X40404761Y-46876190D01*
X40452380Y-47019047D01*
X40452380Y-47114285D01*
X39547619Y-46304761D02*
X39500000Y-46257142D01*
X39452380Y-46161904D01*
X39452380Y-45923809D01*
X39500000Y-45828571D01*
X39547619Y-45780952D01*
X39642857Y-45733333D01*
X39738095Y-45733333D01*
X39880952Y-45780952D01*
X40452380Y-46352380D01*
X40452380Y-45733333D01*
%TO.C,D1*%
X33796904Y-46822380D02*
X33796904Y-45822380D01*
X34035000Y-45822380D01*
X34177857Y-45870000D01*
X34273095Y-45965238D01*
X34320714Y-46060476D01*
X34368333Y-46250952D01*
X34368333Y-46393809D01*
X34320714Y-46584285D01*
X34273095Y-46679523D01*
X34177857Y-46774761D01*
X34035000Y-46822380D01*
X33796904Y-46822380D01*
X35320714Y-46822380D02*
X34749285Y-46822380D01*
X35035000Y-46822380D02*
X35035000Y-45822380D01*
X34939761Y-45965238D01*
X34844523Y-46060476D01*
X34749285Y-46108095D01*
%TO.C,R5*%
X43283333Y-43379380D02*
X42950000Y-42903190D01*
X42711904Y-43379380D02*
X42711904Y-42379380D01*
X43092857Y-42379380D01*
X43188095Y-42427000D01*
X43235714Y-42474619D01*
X43283333Y-42569857D01*
X43283333Y-42712714D01*
X43235714Y-42807952D01*
X43188095Y-42855571D01*
X43092857Y-42903190D01*
X42711904Y-42903190D01*
X44188095Y-42379380D02*
X43711904Y-42379380D01*
X43664285Y-42855571D01*
X43711904Y-42807952D01*
X43807142Y-42760333D01*
X44045238Y-42760333D01*
X44140476Y-42807952D01*
X44188095Y-42855571D01*
X44235714Y-42950809D01*
X44235714Y-43188904D01*
X44188095Y-43284142D01*
X44140476Y-43331761D01*
X44045238Y-43379380D01*
X43807142Y-43379380D01*
X43711904Y-43331761D01*
X43664285Y-43284142D01*
%TO.C,J3*%
X33459380Y-72342333D02*
X34173666Y-72342333D01*
X34316523Y-72389952D01*
X34411761Y-72485190D01*
X34459380Y-72628047D01*
X34459380Y-72723285D01*
X33459380Y-71961380D02*
X33459380Y-71342333D01*
X33840333Y-71675666D01*
X33840333Y-71532809D01*
X33887952Y-71437571D01*
X33935571Y-71389952D01*
X34030809Y-71342333D01*
X34268904Y-71342333D01*
X34364142Y-71389952D01*
X34411761Y-71437571D01*
X34459380Y-71532809D01*
X34459380Y-71818523D01*
X34411761Y-71913761D01*
X34364142Y-71961380D01*
D11*
%TO.C,LS1*%
X39622523Y-38154428D02*
X39622523Y-38759190D01*
X38352523Y-38759190D01*
X39562047Y-37791571D02*
X39622523Y-37610142D01*
X39622523Y-37307761D01*
X39562047Y-37186809D01*
X39501571Y-37126333D01*
X39380619Y-37065857D01*
X39259666Y-37065857D01*
X39138714Y-37126333D01*
X39078238Y-37186809D01*
X39017761Y-37307761D01*
X38957285Y-37549666D01*
X38896809Y-37670619D01*
X38836333Y-37731095D01*
X38715380Y-37791571D01*
X38594428Y-37791571D01*
X38473476Y-37731095D01*
X38413000Y-37670619D01*
X38352523Y-37549666D01*
X38352523Y-37247285D01*
X38413000Y-37065857D01*
X39622523Y-35856333D02*
X39622523Y-36582047D01*
X39622523Y-36219190D02*
X38352523Y-36219190D01*
X38533952Y-36340142D01*
X38654904Y-36461095D01*
X38715380Y-36582047D01*
D12*
%TO.C,J1*%
X43143000Y-30217000D02*
X43143000Y-29067000D01*
D13*
X37643000Y-24242000D02*
X37643000Y-24242000D01*
X37743000Y-24242000D02*
X37743000Y-24242000D01*
D12*
X35343000Y-29067000D02*
X35343000Y-30217000D01*
X35343000Y-25267000D02*
X35343000Y-27067000D01*
X35818000Y-25267000D02*
X35343000Y-25267000D01*
X42318000Y-25267000D02*
X43143000Y-25267000D01*
X43143000Y-25267000D02*
X43143000Y-27067000D01*
X35343000Y-30217000D02*
X43143000Y-30217000D01*
D13*
X37743000Y-24242000D02*
G75*
G03*
X37643000Y-24242000I-50000J0D01*
G01*
X37643000Y-24242000D02*
G75*
G03*
X37743000Y-24242000I50000J0D01*
G01*
D14*
%TO.C,J2*%
X39005000Y-45764000D02*
X36945000Y-45764000D01*
X36945000Y-43644000D02*
X36945000Y-45764000D01*
X41065000Y-43644000D02*
X41065000Y-44704000D01*
X40005000Y-43644000D02*
X41065000Y-43644000D01*
X39005000Y-43644000D02*
X39005000Y-45764000D01*
X39005000Y-43644000D02*
X36945000Y-43644000D01*
%TO.C,D1*%
X36395000Y-43617000D02*
X33535000Y-43617000D01*
X33535000Y-45537000D02*
X36395000Y-45537000D01*
X36395000Y-45537000D02*
X36395000Y-43617000D01*
%TO.C,R5*%
X43222936Y-45312000D02*
X43677064Y-45312000D01*
X43222936Y-43842000D02*
X43677064Y-43842000D01*
%TO.C,J3*%
X37607000Y-73339000D02*
X37607000Y-70679000D01*
X36337000Y-73339000D02*
X35007000Y-73339000D01*
X37607000Y-73339000D02*
X42747000Y-73339000D01*
X37607000Y-70679000D02*
X42747000Y-70679000D01*
X35007000Y-73339000D02*
X35007000Y-72009000D01*
X42747000Y-73339000D02*
X42747000Y-70679000D01*
D12*
%TO.C,LS1*%
X44248000Y-36838000D02*
X44248000Y-36838000D01*
X38648000Y-42138000D02*
X38648000Y-42138000D01*
X38648000Y-32538000D02*
X38648000Y-32538000D01*
X44148000Y-36838000D02*
X44148000Y-36838000D01*
X38648000Y-32538000D02*
G75*
G03*
X38648000Y-42138000I0J-4800000D01*
G01*
X38648000Y-42138000D02*
G75*
G03*
X38648000Y-32538000I0J4800000D01*
G01*
X44248000Y-36838000D02*
G75*
G03*
X44148000Y-36838000I-50000J0D01*
G01*
X44148000Y-36838000D02*
G75*
G03*
X44248000Y-36838000I50000J0D01*
G01*
%TD*%
M02*
