%TF.GenerationSoftware,KiCad,Pcbnew,(6.0.2)*%
%TF.CreationDate,2022-03-27T21:46:32-04:00*%
%TF.ProjectId,Altimeter,416c7469-6d65-4746-9572-2e6b69636164,rev?*%
%TF.SameCoordinates,Original*%
%TF.FileFunction,Copper,L1,Top*%
%TF.FilePolarity,Positive*%
%FSLAX46Y46*%
G04 Gerber Fmt 4.6, Leading zero omitted, Abs format (unit mm)*
G04 Created by KiCad (PCBNEW (6.0.2)) date 2022-03-27 21:46:32*
%MOMM*%
%LPD*%
G01*
G04 APERTURE LIST*
G04 Aperture macros list*
%AMRoundRect*
0 Rectangle with rounded corners*
0 $1 Rounding radius*
0 $2 $3 $4 $5 $6 $7 $8 $9 X,Y pos of 4 corners*
0 Add a 4 corners polygon primitive as box body*
4,1,4,$2,$3,$4,$5,$6,$7,$8,$9,$2,$3,0*
0 Add four circle primitives for the rounded corners*
1,1,$1+$1,$2,$3*
1,1,$1+$1,$4,$5*
1,1,$1+$1,$6,$7*
1,1,$1+$1,$8,$9*
0 Add four rect primitives between the rounded corners*
20,1,$1+$1,$2,$3,$4,$5,0*
20,1,$1+$1,$4,$5,$6,$7,0*
20,1,$1+$1,$6,$7,$8,$9,0*
20,1,$1+$1,$8,$9,$2,$3,0*%
G04 Aperture macros list end*
%TA.AperFunction,ComponentPad*%
%ADD10C,2.000000*%
%TD*%
%TA.AperFunction,ComponentPad*%
%ADD11R,1.700000X1.700000*%
%TD*%
%TA.AperFunction,ComponentPad*%
%ADD12O,1.700000X1.700000*%
%TD*%
%TA.AperFunction,SMDPad,CuDef*%
%ADD13R,0.400000X1.400000*%
%TD*%
%TA.AperFunction,ComponentPad*%
%ADD14C,1.850000*%
%TD*%
%TA.AperFunction,SMDPad,CuDef*%
%ADD15R,1.750000X1.900000*%
%TD*%
%TA.AperFunction,SMDPad,CuDef*%
%ADD16R,1.150000X1.450000*%
%TD*%
%TA.AperFunction,SMDPad,CuDef*%
%ADD17RoundRect,0.250000X0.450000X-0.325000X0.450000X0.325000X-0.450000X0.325000X-0.450000X-0.325000X0*%
%TD*%
%TA.AperFunction,SMDPad,CuDef*%
%ADD18RoundRect,0.250000X-0.450000X0.350000X-0.450000X-0.350000X0.450000X-0.350000X0.450000X0.350000X0*%
%TD*%
%TA.AperFunction,ViaPad*%
%ADD19C,0.460000*%
%TD*%
%TA.AperFunction,Conductor*%
%ADD20C,0.200000*%
%TD*%
%TA.AperFunction,Conductor*%
%ADD21C,0.250000*%
%TD*%
G04 APERTURE END LIST*
D10*
%TO.P,LS1,1,+*%
%TO.N,Net-(C2-Pad1)*%
X41148000Y-37338000D03*
%TO.P,LS1,2,-*%
%TO.N,Earth*%
X36148000Y-37338000D03*
%TD*%
D11*
%TO.P,J2,1,Pin_1*%
%TO.N,/BAT*%
X40005000Y-44704000D03*
D12*
%TO.P,J2,2,Pin_2*%
X37465000Y-44704000D03*
%TO.P,J2,3,Pin_3*%
%TO.N,Earth*%
X34925000Y-44704000D03*
%TD*%
D13*
%TO.P,J1,1,1*%
%TO.N,/5V*%
X41000000Y-29450000D03*
%TO.P,J1,2,2*%
%TO.N,/D-*%
X40350000Y-29450000D03*
%TO.P,J1,3,3*%
%TO.N,/D+*%
X39700000Y-29450000D03*
%TO.P,J1,4,4*%
%TO.N,/ID*%
X39050000Y-29450000D03*
%TO.P,J1,5,5*%
%TO.N,Earth*%
X38400000Y-29450000D03*
D14*
%TO.P,J1,MH1,MH1*%
X43275000Y-26800000D03*
%TO.P,J1,MH2,MH2*%
X36125000Y-26800000D03*
D15*
%TO.P,J1,MP1,MP1*%
X40825000Y-26800000D03*
%TO.P,J1,MP2,MP2*%
X38575000Y-26800000D03*
D16*
%TO.P,J1,MP3,MP3*%
X42020000Y-29030000D03*
%TO.P,J1,MP4,MP4*%
X37380000Y-29030000D03*
%TD*%
D17*
%TO.P,D1,1,K*%
%TO.N,Net-(D1-Pad1)*%
X33600000Y-28725000D03*
%TO.P,D1,2,A*%
%TO.N,/5V*%
X33600000Y-26675000D03*
%TD*%
D18*
%TO.P,R5,1*%
%TO.N,Net-(D1-Pad1)*%
X33600000Y-30500000D03*
%TO.P,R5,2*%
%TO.N,Net-(IC4-Pad1)*%
X33600000Y-32500000D03*
%TD*%
D11*
%TO.P,J3,1,Pin_1*%
%TO.N,/PROG*%
X36337000Y-72009000D03*
D12*
%TO.P,J3,2,Pin_2*%
%TO.N,/RX*%
X38877000Y-72009000D03*
%TO.P,J3,3,Pin_3*%
%TO.N,/TX*%
X41417000Y-72009000D03*
%TD*%
D19*
%TO.N,Earth*%
X35200000Y-29600000D03*
X36100000Y-28600000D03*
%TO.N,Net-(IC4-Pad1)*%
X39900000Y-32000000D03*
%TO.N,Earth*%
X44600000Y-51500000D03*
X42400000Y-52400000D03*
X43300000Y-51500000D03*
X38200000Y-43100000D03*
X39497000Y-55753000D03*
X38100000Y-41700000D03*
X41800000Y-34700000D03*
X41656000Y-58039000D03*
X43561000Y-38989000D03*
%TO.N,/BAT*%
X33147000Y-58801000D03*
X36068000Y-58801000D03*
X37719000Y-49657000D03*
%TO.N,/5V*%
X37465000Y-31877000D03*
X41783000Y-33528000D03*
%TO.N,/BUZZER*%
X39624000Y-40132000D03*
X43942000Y-63373000D03*
%TO.N,/SDA*%
X39624000Y-57150000D03*
X39243000Y-61722000D03*
%TO.N,/SCL*%
X41148000Y-53848000D03*
X38354000Y-61595000D03*
X35560000Y-54483000D03*
X41148000Y-55372000D03*
X38354000Y-58941500D03*
%TD*%
D20*
%TO.N,/5V*%
X33600000Y-27123000D02*
X37465000Y-30988000D01*
X33600000Y-26675000D02*
X33600000Y-27123000D01*
%TO.N,Net-(D1-Pad1)*%
X33600000Y-30500000D02*
X33600000Y-28725000D01*
%TO.N,Net-(IC4-Pad1)*%
X37700000Y-32500000D02*
X33600000Y-32500000D01*
X38200000Y-32000000D02*
X37700000Y-32500000D01*
X39900000Y-32000000D02*
X38200000Y-32000000D01*
%TO.N,/5V*%
X41000000Y-29450000D02*
X41000000Y-30976000D01*
D21*
X41012000Y-30988000D02*
X41402000Y-30988000D01*
X40312000Y-30988000D02*
X41012000Y-30988000D01*
D20*
X41000000Y-30976000D02*
X41012000Y-30988000D01*
X40300000Y-30976000D02*
X40312000Y-30988000D01*
D21*
X37465000Y-30988000D02*
X40312000Y-30988000D01*
%TO.N,/BAT*%
X37719000Y-46990000D02*
X37719000Y-49657000D01*
D20*
X36068000Y-58801000D02*
X33147000Y-58801000D01*
D21*
X40005000Y-44704000D02*
X37719000Y-46990000D01*
%TO.N,/5V*%
X37465000Y-31877000D02*
X37465000Y-30988000D01*
X41402000Y-30988000D02*
X41783000Y-31369000D01*
X41783000Y-31369000D02*
X41783000Y-33528000D01*
D20*
%TO.N,/BUZZER*%
X39624000Y-41656000D02*
X39624000Y-40132000D01*
X43942000Y-63373000D02*
X43942000Y-45847000D01*
X41586006Y-41910000D02*
X39878000Y-41910000D01*
X43942000Y-45847000D02*
X43434000Y-45339000D01*
X43434000Y-45339000D02*
X43434000Y-43757994D01*
X43434000Y-43757994D02*
X41586006Y-41910000D01*
X39878000Y-41910000D02*
X39624000Y-41656000D01*
X39808006Y-40132000D02*
X39624000Y-40132000D01*
%TO.N,/SDA*%
X39243000Y-61722000D02*
X39243000Y-57531000D01*
X39243000Y-57531000D02*
X39624000Y-57150000D01*
%TO.N,/SCL*%
X38354000Y-58941500D02*
X38354000Y-61595000D01*
X35560000Y-54483000D02*
X36195000Y-53848000D01*
X36195000Y-53848000D02*
X41148000Y-53848000D01*
X41148000Y-55372000D02*
X41148000Y-53848000D01*
%TO.N,Earth*%
X41529000Y-42418000D02*
X42434000Y-43323000D01*
X37338000Y-42418000D02*
X41529000Y-42418000D01*
X35560000Y-44196000D02*
X37338000Y-42418000D01*
X35696000Y-44060000D02*
X35696000Y-44577000D01*
X42434000Y-43323000D02*
X42434000Y-44958000D01*
X35560000Y-44577000D02*
X35560000Y-44196000D01*
%TD*%
%TA.AperFunction,Conductor*%
%TO.N,Earth*%
G36*
X45193694Y-25421306D02*
G01*
X45212000Y-25465500D01*
X45212000Y-73343500D01*
X45193694Y-73387694D01*
X45149500Y-73406000D01*
X32701500Y-73406000D01*
X32657306Y-73387694D01*
X32639000Y-73343500D01*
X32639000Y-72878748D01*
X35286500Y-72878748D01*
X35287099Y-72881758D01*
X35287099Y-72881761D01*
X35290779Y-72900258D01*
X35298133Y-72937231D01*
X35342448Y-73003552D01*
X35347562Y-73006969D01*
X35403653Y-73044449D01*
X35403655Y-73044450D01*
X35408769Y-73047867D01*
X35414803Y-73049067D01*
X35414805Y-73049068D01*
X35464239Y-73058901D01*
X35464242Y-73058901D01*
X35467252Y-73059500D01*
X37206748Y-73059500D01*
X37209758Y-73058901D01*
X37209761Y-73058901D01*
X37259195Y-73049068D01*
X37259197Y-73049067D01*
X37265231Y-73047867D01*
X37270345Y-73044450D01*
X37270347Y-73044449D01*
X37326438Y-73006969D01*
X37331552Y-73003552D01*
X37375867Y-72937231D01*
X37383222Y-72900258D01*
X37386901Y-72881761D01*
X37386901Y-72881758D01*
X37387500Y-72878748D01*
X37387500Y-71994262D01*
X37821520Y-71994262D01*
X37838759Y-72199553D01*
X37895544Y-72397586D01*
X37989712Y-72580818D01*
X37991603Y-72583204D01*
X37991605Y-72583207D01*
X38020598Y-72619787D01*
X38117677Y-72742270D01*
X38274564Y-72875791D01*
X38454398Y-72976297D01*
X38457302Y-72977241D01*
X38457303Y-72977241D01*
X38647416Y-73039013D01*
X38647421Y-73039014D01*
X38650329Y-73039959D01*
X38653370Y-73040322D01*
X38653372Y-73040322D01*
X38722344Y-73048546D01*
X38854894Y-73064351D01*
X38857936Y-73064117D01*
X38857939Y-73064117D01*
X39057249Y-73048781D01*
X39057251Y-73048781D01*
X39060300Y-73048546D01*
X39258725Y-72993145D01*
X39261448Y-72991770D01*
X39261452Y-72991768D01*
X39439890Y-72901632D01*
X39442610Y-72900258D01*
X39445008Y-72898385D01*
X39445012Y-72898382D01*
X39530014Y-72831971D01*
X39604951Y-72773424D01*
X39633910Y-72739875D01*
X39657980Y-72711989D01*
X39739564Y-72617472D01*
X39841323Y-72438344D01*
X39906351Y-72242863D01*
X39911452Y-72202489D01*
X39931951Y-72040216D01*
X39931951Y-72040215D01*
X39932171Y-72038474D01*
X39932583Y-72009000D01*
X39932414Y-72007280D01*
X39932414Y-72007271D01*
X39931138Y-71994262D01*
X40361520Y-71994262D01*
X40378759Y-72199553D01*
X40435544Y-72397586D01*
X40529712Y-72580818D01*
X40531603Y-72583204D01*
X40531605Y-72583207D01*
X40560598Y-72619787D01*
X40657677Y-72742270D01*
X40814564Y-72875791D01*
X40994398Y-72976297D01*
X40997302Y-72977241D01*
X40997303Y-72977241D01*
X41187416Y-73039013D01*
X41187421Y-73039014D01*
X41190329Y-73039959D01*
X41193370Y-73040322D01*
X41193372Y-73040322D01*
X41262344Y-73048546D01*
X41394894Y-73064351D01*
X41397936Y-73064117D01*
X41397939Y-73064117D01*
X41597249Y-73048781D01*
X41597251Y-73048781D01*
X41600300Y-73048546D01*
X41798725Y-72993145D01*
X41801448Y-72991770D01*
X41801452Y-72991768D01*
X41979890Y-72901632D01*
X41982610Y-72900258D01*
X41985008Y-72898385D01*
X41985012Y-72898382D01*
X42070014Y-72831971D01*
X42144951Y-72773424D01*
X42173910Y-72739875D01*
X42197980Y-72711989D01*
X42279564Y-72617472D01*
X42381323Y-72438344D01*
X42446351Y-72242863D01*
X42451452Y-72202489D01*
X42471951Y-72040216D01*
X42471951Y-72040215D01*
X42472171Y-72038474D01*
X42472583Y-72009000D01*
X42472414Y-72007280D01*
X42472414Y-72007271D01*
X42452778Y-71807010D01*
X42452480Y-71803970D01*
X42392935Y-71606749D01*
X42296218Y-71424849D01*
X42166011Y-71265200D01*
X42007275Y-71133882D01*
X41826055Y-71035897D01*
X41745726Y-71011031D01*
X41632169Y-70975879D01*
X41632166Y-70975878D01*
X41629254Y-70974977D01*
X41626221Y-70974658D01*
X41626220Y-70974658D01*
X41571739Y-70968932D01*
X41424369Y-70953443D01*
X41421336Y-70953719D01*
X41421332Y-70953719D01*
X41308436Y-70963993D01*
X41219203Y-70972114D01*
X41216270Y-70972977D01*
X41216266Y-70972978D01*
X41086974Y-71011031D01*
X41021572Y-71030280D01*
X40839002Y-71125726D01*
X40678447Y-71254815D01*
X40546024Y-71412630D01*
X40446776Y-71593162D01*
X40384484Y-71789532D01*
X40384143Y-71792570D01*
X40384143Y-71792571D01*
X40382524Y-71807010D01*
X40361520Y-71994262D01*
X39931138Y-71994262D01*
X39912778Y-71807010D01*
X39912480Y-71803970D01*
X39852935Y-71606749D01*
X39756218Y-71424849D01*
X39626011Y-71265200D01*
X39467275Y-71133882D01*
X39286055Y-71035897D01*
X39205726Y-71011031D01*
X39092169Y-70975879D01*
X39092166Y-70975878D01*
X39089254Y-70974977D01*
X39086221Y-70974658D01*
X39086220Y-70974658D01*
X39031739Y-70968932D01*
X38884369Y-70953443D01*
X38881336Y-70953719D01*
X38881332Y-70953719D01*
X38768436Y-70963993D01*
X38679203Y-70972114D01*
X38676270Y-70972977D01*
X38676266Y-70972978D01*
X38546974Y-71011031D01*
X38481572Y-71030280D01*
X38299002Y-71125726D01*
X38138447Y-71254815D01*
X38006024Y-71412630D01*
X37906776Y-71593162D01*
X37844484Y-71789532D01*
X37844143Y-71792570D01*
X37844143Y-71792571D01*
X37842524Y-71807010D01*
X37821520Y-71994262D01*
X37387500Y-71994262D01*
X37387500Y-71139252D01*
X37386432Y-71133882D01*
X37377068Y-71086805D01*
X37377067Y-71086803D01*
X37375867Y-71080769D01*
X37331552Y-71014448D01*
X37314680Y-71003174D01*
X37270347Y-70973551D01*
X37270345Y-70973550D01*
X37265231Y-70970133D01*
X37259197Y-70968933D01*
X37259195Y-70968932D01*
X37209761Y-70959099D01*
X37209758Y-70959099D01*
X37206748Y-70958500D01*
X35467252Y-70958500D01*
X35464242Y-70959099D01*
X35464239Y-70959099D01*
X35414805Y-70968932D01*
X35414803Y-70968933D01*
X35408769Y-70970133D01*
X35403655Y-70973550D01*
X35403653Y-70973551D01*
X35359320Y-71003174D01*
X35342448Y-71014448D01*
X35298133Y-71080769D01*
X35296933Y-71086803D01*
X35296932Y-71086805D01*
X35287568Y-71133882D01*
X35286500Y-71139252D01*
X35286500Y-72878748D01*
X32639000Y-72878748D01*
X32639000Y-61589440D01*
X37898901Y-61589440D01*
X37915633Y-61717394D01*
X37917426Y-61721469D01*
X37922553Y-61733120D01*
X37967605Y-61835510D01*
X38050639Y-61934291D01*
X38054344Y-61936757D01*
X38054346Y-61936759D01*
X38119017Y-61979807D01*
X38158060Y-62005796D01*
X38281233Y-62044278D01*
X38285683Y-62044360D01*
X38285686Y-62044360D01*
X38405809Y-62046562D01*
X38405812Y-62046562D01*
X38410255Y-62046643D01*
X38414546Y-62045473D01*
X38414547Y-62045473D01*
X38472505Y-62029671D01*
X38534755Y-62012700D01*
X38644724Y-61945179D01*
X38717458Y-61864823D01*
X38760686Y-61844343D01*
X38805736Y-61860429D01*
X38821001Y-61881594D01*
X38847527Y-61941878D01*
X38856605Y-61962510D01*
X38939639Y-62061291D01*
X38943344Y-62063757D01*
X38943346Y-62063759D01*
X39024902Y-62118047D01*
X39047060Y-62132796D01*
X39170233Y-62171278D01*
X39174683Y-62171360D01*
X39174686Y-62171360D01*
X39294809Y-62173562D01*
X39294812Y-62173562D01*
X39299255Y-62173643D01*
X39303546Y-62172473D01*
X39303547Y-62172473D01*
X39361505Y-62156672D01*
X39423755Y-62139700D01*
X39533724Y-62072179D01*
X39620322Y-61976507D01*
X39676588Y-61860375D01*
X39678417Y-61849507D01*
X39697597Y-61735496D01*
X39697997Y-61733120D01*
X39698133Y-61722000D01*
X39679839Y-61594259D01*
X39626428Y-61476788D01*
X39623025Y-61472838D01*
X39558652Y-61398130D01*
X39543500Y-61357333D01*
X39543500Y-57681359D01*
X39561806Y-57637165D01*
X39580039Y-57618932D01*
X39625377Y-57600637D01*
X39680255Y-57601643D01*
X39804755Y-57567700D01*
X39914724Y-57500179D01*
X39918805Y-57495671D01*
X39998335Y-57407807D01*
X40001322Y-57404507D01*
X40057588Y-57288375D01*
X40058498Y-57282971D01*
X40078597Y-57163496D01*
X40078997Y-57161120D01*
X40079133Y-57150000D01*
X40060839Y-57022259D01*
X40007428Y-56904788D01*
X39923193Y-56807028D01*
X39814906Y-56736841D01*
X39810641Y-56735566D01*
X39810638Y-56735564D01*
X39695541Y-56701142D01*
X39695538Y-56701142D01*
X39691273Y-56699866D01*
X39627721Y-56699478D01*
X39566684Y-56699105D01*
X39566683Y-56699105D01*
X39562231Y-56699078D01*
X39438155Y-56734539D01*
X39329019Y-56803399D01*
X39326076Y-56806731D01*
X39326074Y-56806733D01*
X39322833Y-56810403D01*
X39243596Y-56900122D01*
X39188754Y-57016932D01*
X39168901Y-57144440D01*
X39169478Y-57148855D01*
X39169424Y-57153306D01*
X39166940Y-57153276D01*
X39156612Y-57191672D01*
X39151258Y-57197771D01*
X39069445Y-57279584D01*
X39064820Y-57283576D01*
X39060731Y-57285575D01*
X39056807Y-57289805D01*
X39026620Y-57322347D01*
X39024993Y-57324036D01*
X39010752Y-57338277D01*
X39009125Y-57340648D01*
X39007281Y-57342867D01*
X39007211Y-57342808D01*
X39004534Y-57346156D01*
X38984599Y-57367646D01*
X38978829Y-57382109D01*
X38972318Y-57394303D01*
X38966772Y-57402387D01*
X38966771Y-57402390D01*
X38963508Y-57407146D01*
X38962176Y-57412761D01*
X38956739Y-57435670D01*
X38953983Y-57444387D01*
X38943117Y-57471622D01*
X38942500Y-57477915D01*
X38942500Y-57488357D01*
X38940811Y-57502788D01*
X38937660Y-57516066D01*
X38938438Y-57521782D01*
X38941929Y-57547434D01*
X38942500Y-57555862D01*
X38942500Y-61358000D01*
X38926846Y-61399373D01*
X38880516Y-61451831D01*
X38837540Y-61472838D01*
X38792297Y-61457304D01*
X38776775Y-61436327D01*
X38739272Y-61353843D01*
X38739271Y-61353841D01*
X38737428Y-61349788D01*
X38669652Y-61271130D01*
X38654500Y-61230333D01*
X38654500Y-59304964D01*
X38670663Y-59263022D01*
X38682199Y-59250278D01*
X38731322Y-59196007D01*
X38787588Y-59079875D01*
X38790534Y-59062368D01*
X38808597Y-58954996D01*
X38808997Y-58952620D01*
X38809133Y-58941500D01*
X38790839Y-58813759D01*
X38737428Y-58696288D01*
X38653193Y-58598528D01*
X38544906Y-58528341D01*
X38540641Y-58527066D01*
X38540638Y-58527064D01*
X38425541Y-58492642D01*
X38425538Y-58492642D01*
X38421273Y-58491366D01*
X38357721Y-58490978D01*
X38296684Y-58490605D01*
X38296683Y-58490605D01*
X38292231Y-58490578D01*
X38168155Y-58526039D01*
X38059019Y-58594899D01*
X38056076Y-58598231D01*
X38056074Y-58598233D01*
X37985920Y-58677668D01*
X37973596Y-58691622D01*
X37918754Y-58808432D01*
X37898901Y-58935940D01*
X37915633Y-59063894D01*
X37917426Y-59067969D01*
X37952587Y-59147878D01*
X37967605Y-59182010D01*
X37979371Y-59196007D01*
X38038843Y-59266758D01*
X38053500Y-59306974D01*
X38053500Y-61231000D01*
X38037846Y-61272373D01*
X37973596Y-61345122D01*
X37918754Y-61461932D01*
X37898901Y-61589440D01*
X32639000Y-61589440D01*
X32639000Y-59062368D01*
X32657306Y-59018174D01*
X32701500Y-58999868D01*
X32745694Y-59018174D01*
X32756336Y-59033732D01*
X32756459Y-59033655D01*
X32758230Y-59036500D01*
X32758708Y-59037199D01*
X32760605Y-59041510D01*
X32772371Y-59055507D01*
X32828313Y-59122058D01*
X32843639Y-59140291D01*
X32847344Y-59142757D01*
X32847346Y-59142759D01*
X32906313Y-59182010D01*
X32951060Y-59211796D01*
X33074233Y-59250278D01*
X33078683Y-59250360D01*
X33078686Y-59250360D01*
X33198809Y-59252562D01*
X33198812Y-59252562D01*
X33203255Y-59252643D01*
X33207546Y-59251473D01*
X33207547Y-59251473D01*
X33265505Y-59235672D01*
X33327755Y-59218700D01*
X33437724Y-59151179D01*
X33464083Y-59122058D01*
X33510420Y-59101500D01*
X35702921Y-59101500D01*
X35747115Y-59119806D01*
X35750757Y-59123777D01*
X35764639Y-59140291D01*
X35768344Y-59142757D01*
X35768346Y-59142759D01*
X35827313Y-59182010D01*
X35872060Y-59211796D01*
X35995233Y-59250278D01*
X35999683Y-59250360D01*
X35999686Y-59250360D01*
X36119809Y-59252562D01*
X36119812Y-59252562D01*
X36124255Y-59252643D01*
X36128546Y-59251473D01*
X36128547Y-59251473D01*
X36186505Y-59235672D01*
X36248755Y-59218700D01*
X36358724Y-59151179D01*
X36445322Y-59055507D01*
X36501588Y-58939375D01*
X36522997Y-58812120D01*
X36523133Y-58801000D01*
X36504839Y-58673259D01*
X36472210Y-58601496D01*
X36453272Y-58559843D01*
X36453271Y-58559841D01*
X36451428Y-58555788D01*
X36440159Y-58542709D01*
X36370101Y-58461403D01*
X36367193Y-58458028D01*
X36258906Y-58387841D01*
X36254641Y-58386566D01*
X36254638Y-58386564D01*
X36139541Y-58352142D01*
X36139538Y-58352142D01*
X36135273Y-58350866D01*
X36071721Y-58350478D01*
X36010684Y-58350105D01*
X36010683Y-58350105D01*
X36006231Y-58350078D01*
X35882155Y-58385539D01*
X35773019Y-58454399D01*
X35770076Y-58457731D01*
X35770074Y-58457733D01*
X35750963Y-58479373D01*
X35704117Y-58500500D01*
X33511437Y-58500500D01*
X33464090Y-58478798D01*
X33449102Y-58461403D01*
X33449098Y-58461400D01*
X33446193Y-58458028D01*
X33337906Y-58387841D01*
X33333641Y-58386566D01*
X33333638Y-58386564D01*
X33218541Y-58352142D01*
X33218538Y-58352142D01*
X33214273Y-58350866D01*
X33150721Y-58350478D01*
X33089684Y-58350105D01*
X33089683Y-58350105D01*
X33085231Y-58350078D01*
X32961155Y-58385539D01*
X32852019Y-58454399D01*
X32849076Y-58457731D01*
X32849074Y-58457733D01*
X32786650Y-58528415D01*
X32766596Y-58551122D01*
X32764704Y-58555152D01*
X32758075Y-58569271D01*
X32722722Y-58601496D01*
X32674938Y-58599284D01*
X32642713Y-58563931D01*
X32639000Y-58542709D01*
X32639000Y-54477440D01*
X35104901Y-54477440D01*
X35105478Y-54481853D01*
X35105478Y-54481854D01*
X35106767Y-54491708D01*
X35121633Y-54605394D01*
X35173605Y-54723510D01*
X35256639Y-54822291D01*
X35260344Y-54824757D01*
X35260346Y-54824759D01*
X35341902Y-54879047D01*
X35364060Y-54893796D01*
X35487233Y-54932278D01*
X35491683Y-54932360D01*
X35491686Y-54932360D01*
X35611809Y-54934562D01*
X35611812Y-54934562D01*
X35616255Y-54934643D01*
X35620546Y-54933473D01*
X35620547Y-54933473D01*
X35678505Y-54917671D01*
X35740755Y-54900700D01*
X35850724Y-54833179D01*
X35937322Y-54737507D01*
X35993588Y-54621375D01*
X36014997Y-54494120D01*
X36015133Y-54483000D01*
X36015092Y-54482716D01*
X36033127Y-54434844D01*
X36301165Y-54166806D01*
X36345359Y-54148500D01*
X40782921Y-54148500D01*
X40827115Y-54166806D01*
X40830763Y-54170783D01*
X40832839Y-54173253D01*
X40832849Y-54173265D01*
X40847500Y-54213474D01*
X40847500Y-55008000D01*
X40831846Y-55049373D01*
X40767596Y-55122122D01*
X40712754Y-55238932D01*
X40692901Y-55366440D01*
X40709633Y-55494394D01*
X40761605Y-55612510D01*
X40844639Y-55711291D01*
X40848344Y-55713757D01*
X40848346Y-55713759D01*
X40929902Y-55768047D01*
X40952060Y-55782796D01*
X41075233Y-55821278D01*
X41079683Y-55821360D01*
X41079686Y-55821360D01*
X41199809Y-55823562D01*
X41199812Y-55823562D01*
X41204255Y-55823643D01*
X41208546Y-55822473D01*
X41208547Y-55822473D01*
X41266505Y-55806671D01*
X41328755Y-55789700D01*
X41438724Y-55722179D01*
X41525322Y-55626507D01*
X41581588Y-55510375D01*
X41602997Y-55383120D01*
X41603133Y-55372000D01*
X41584839Y-55244259D01*
X41531428Y-55126788D01*
X41463652Y-55048130D01*
X41448500Y-55007333D01*
X41448500Y-54211464D01*
X41464663Y-54169522D01*
X41467122Y-54166806D01*
X41525322Y-54102507D01*
X41581588Y-53986375D01*
X41602997Y-53859120D01*
X41603133Y-53848000D01*
X41584839Y-53720259D01*
X41542039Y-53626126D01*
X41533272Y-53606843D01*
X41533271Y-53606841D01*
X41531428Y-53602788D01*
X41447193Y-53505028D01*
X41338906Y-53434841D01*
X41334641Y-53433566D01*
X41334638Y-53433564D01*
X41219541Y-53399142D01*
X41219538Y-53399142D01*
X41215273Y-53397866D01*
X41151721Y-53397478D01*
X41090684Y-53397105D01*
X41090683Y-53397105D01*
X41086231Y-53397078D01*
X40962155Y-53432539D01*
X40853019Y-53501399D01*
X40850076Y-53504731D01*
X40850074Y-53504733D01*
X40830963Y-53526373D01*
X40784117Y-53547500D01*
X36250059Y-53547500D01*
X36243965Y-53547053D01*
X36239658Y-53545574D01*
X36189531Y-53547456D01*
X36187186Y-53547500D01*
X36167052Y-53547500D01*
X36164220Y-53548028D01*
X36161356Y-53548292D01*
X36161348Y-53548200D01*
X36157088Y-53548674D01*
X36152649Y-53548841D01*
X36127792Y-53549774D01*
X36113482Y-53555922D01*
X36100254Y-53559940D01*
X36090620Y-53561734D01*
X36090618Y-53561735D01*
X36084947Y-53562791D01*
X36065930Y-53574513D01*
X36059987Y-53578176D01*
X36051868Y-53582393D01*
X36024938Y-53593964D01*
X36020051Y-53597977D01*
X36012667Y-53605361D01*
X36001269Y-53614371D01*
X35989652Y-53621532D01*
X35986159Y-53626126D01*
X35970490Y-53646731D01*
X35964934Y-53653094D01*
X35603882Y-54014146D01*
X35559307Y-54032451D01*
X35522007Y-54032223D01*
X35502684Y-54032105D01*
X35502683Y-54032105D01*
X35498231Y-54032078D01*
X35374155Y-54067539D01*
X35265019Y-54136399D01*
X35262076Y-54139731D01*
X35262074Y-54139733D01*
X35182543Y-54229785D01*
X35179596Y-54233122D01*
X35124754Y-54349932D01*
X35104901Y-54477440D01*
X32639000Y-54477440D01*
X32639000Y-49651440D01*
X37263901Y-49651440D01*
X37280633Y-49779394D01*
X37332605Y-49897510D01*
X37415639Y-49996291D01*
X37419344Y-49998757D01*
X37419346Y-49998759D01*
X37500902Y-50053047D01*
X37523060Y-50067796D01*
X37646233Y-50106278D01*
X37650683Y-50106360D01*
X37650686Y-50106360D01*
X37770809Y-50108562D01*
X37770812Y-50108562D01*
X37775255Y-50108643D01*
X37779546Y-50107473D01*
X37779547Y-50107473D01*
X37837505Y-50091672D01*
X37899755Y-50074700D01*
X38009724Y-50007179D01*
X38096322Y-49911507D01*
X38152588Y-49795375D01*
X38173997Y-49668120D01*
X38174133Y-49657000D01*
X38155839Y-49529259D01*
X38102428Y-49411788D01*
X38059652Y-49362144D01*
X38044500Y-49321347D01*
X38044500Y-47150714D01*
X38062806Y-47106520D01*
X39396521Y-45772806D01*
X39440715Y-45754500D01*
X40874748Y-45754500D01*
X40877758Y-45753901D01*
X40877761Y-45753901D01*
X40927195Y-45744068D01*
X40927197Y-45744067D01*
X40933231Y-45742867D01*
X40938345Y-45739450D01*
X40938347Y-45739449D01*
X40994438Y-45701969D01*
X40999552Y-45698552D01*
X41013995Y-45676937D01*
X41040449Y-45637347D01*
X41040450Y-45637345D01*
X41043867Y-45632231D01*
X41046315Y-45619927D01*
X41054901Y-45576761D01*
X41054901Y-45576758D01*
X41055500Y-45573748D01*
X41055500Y-43834252D01*
X41054432Y-43828882D01*
X41045068Y-43781805D01*
X41045067Y-43781803D01*
X41043867Y-43775769D01*
X40999552Y-43709448D01*
X40950207Y-43676476D01*
X40938347Y-43668551D01*
X40938345Y-43668550D01*
X40933231Y-43665133D01*
X40927197Y-43663933D01*
X40927195Y-43663932D01*
X40877761Y-43654099D01*
X40877758Y-43654099D01*
X40874748Y-43653500D01*
X39135252Y-43653500D01*
X39132242Y-43654099D01*
X39132239Y-43654099D01*
X39082805Y-43663932D01*
X39082803Y-43663933D01*
X39076769Y-43665133D01*
X39071655Y-43668550D01*
X39071653Y-43668551D01*
X39059793Y-43676476D01*
X39010448Y-43709448D01*
X38966133Y-43775769D01*
X38964933Y-43781803D01*
X38964932Y-43781805D01*
X38955568Y-43828882D01*
X38954500Y-43834252D01*
X38954500Y-45268285D01*
X38936194Y-45312479D01*
X37500820Y-46747854D01*
X37496800Y-46751538D01*
X37465806Y-46777545D01*
X37463073Y-46782279D01*
X37445580Y-46812579D01*
X37442650Y-46817178D01*
X37419446Y-46850316D01*
X37418032Y-46855593D01*
X37418031Y-46855595D01*
X37417812Y-46856414D01*
X37411568Y-46871487D01*
X37411147Y-46872216D01*
X37411145Y-46872221D01*
X37408412Y-46876955D01*
X37407463Y-46882338D01*
X37401388Y-46916793D01*
X37400207Y-46922117D01*
X37389736Y-46961193D01*
X37390213Y-46966640D01*
X37393262Y-47001494D01*
X37393500Y-47006941D01*
X37393500Y-49321307D01*
X37377846Y-49362680D01*
X37338596Y-49407122D01*
X37283754Y-49523932D01*
X37263901Y-49651440D01*
X32639000Y-49651440D01*
X32639000Y-44689262D01*
X36409520Y-44689262D01*
X36426759Y-44894553D01*
X36483544Y-45092586D01*
X36577712Y-45275818D01*
X36579603Y-45278204D01*
X36579605Y-45278207D01*
X36606769Y-45312479D01*
X36705677Y-45437270D01*
X36708007Y-45439253D01*
X36831494Y-45544348D01*
X36862564Y-45570791D01*
X37042398Y-45671297D01*
X37045302Y-45672241D01*
X37045303Y-45672241D01*
X37235416Y-45734013D01*
X37235421Y-45734014D01*
X37238329Y-45734959D01*
X37241370Y-45735322D01*
X37241372Y-45735322D01*
X37310344Y-45743546D01*
X37442894Y-45759351D01*
X37445936Y-45759117D01*
X37445939Y-45759117D01*
X37645249Y-45743781D01*
X37645251Y-45743781D01*
X37648300Y-45743546D01*
X37846725Y-45688145D01*
X37849448Y-45686770D01*
X37849452Y-45686768D01*
X38027890Y-45596632D01*
X38030610Y-45595258D01*
X38033008Y-45593385D01*
X38033012Y-45593382D01*
X38140935Y-45509063D01*
X38192951Y-45468424D01*
X38205433Y-45453964D01*
X38280542Y-45366948D01*
X38327564Y-45312472D01*
X38429323Y-45133344D01*
X38494351Y-44937863D01*
X38499452Y-44897489D01*
X38519951Y-44735216D01*
X38519951Y-44735215D01*
X38520171Y-44733474D01*
X38520583Y-44704000D01*
X38520414Y-44702280D01*
X38520414Y-44702271D01*
X38500778Y-44502010D01*
X38500480Y-44498970D01*
X38440935Y-44301749D01*
X38344218Y-44119849D01*
X38214011Y-43960200D01*
X38055275Y-43828882D01*
X37874055Y-43730897D01*
X37793726Y-43706031D01*
X37680169Y-43670879D01*
X37680166Y-43670878D01*
X37677254Y-43669977D01*
X37674221Y-43669658D01*
X37674220Y-43669658D01*
X37613250Y-43663250D01*
X37472369Y-43648443D01*
X37469336Y-43648719D01*
X37469332Y-43648719D01*
X37356436Y-43658993D01*
X37267203Y-43667114D01*
X37264270Y-43667977D01*
X37264266Y-43667978D01*
X37134974Y-43706031D01*
X37069572Y-43725280D01*
X36887002Y-43820726D01*
X36726447Y-43949815D01*
X36594024Y-44107630D01*
X36494776Y-44288162D01*
X36432484Y-44484532D01*
X36432143Y-44487570D01*
X36432143Y-44487571D01*
X36430524Y-44502010D01*
X36409520Y-44689262D01*
X32639000Y-44689262D01*
X32639000Y-40126440D01*
X39168901Y-40126440D01*
X39185633Y-40254394D01*
X39187426Y-40258469D01*
X39226765Y-40347873D01*
X39237605Y-40372510D01*
X39289972Y-40434808D01*
X39308843Y-40457258D01*
X39323500Y-40497474D01*
X39323500Y-41600948D01*
X39323053Y-41607036D01*
X39321575Y-41611342D01*
X39322417Y-41633772D01*
X39323456Y-41661454D01*
X39323500Y-41663798D01*
X39323500Y-41683948D01*
X39324026Y-41686775D01*
X39324291Y-41689642D01*
X39324200Y-41689650D01*
X39324674Y-41693912D01*
X39325774Y-41723208D01*
X39328051Y-41728507D01*
X39331922Y-41737518D01*
X39335940Y-41750746D01*
X39338791Y-41766053D01*
X39354178Y-41791016D01*
X39358387Y-41799117D01*
X39369964Y-41826063D01*
X39373978Y-41830949D01*
X39381360Y-41838331D01*
X39390370Y-41849730D01*
X39397532Y-41861348D01*
X39402126Y-41864841D01*
X39422734Y-41880512D01*
X39429097Y-41886068D01*
X39626587Y-42083559D01*
X39630577Y-42088181D01*
X39632575Y-42092269D01*
X39636805Y-42096193D01*
X39669334Y-42126368D01*
X39671023Y-42127995D01*
X39685276Y-42142248D01*
X39687653Y-42143878D01*
X39689869Y-42145720D01*
X39689809Y-42145792D01*
X39693160Y-42148470D01*
X39710412Y-42164474D01*
X39710414Y-42164475D01*
X39714646Y-42168401D01*
X39720004Y-42170539D01*
X39720008Y-42170541D01*
X39729109Y-42174171D01*
X39741301Y-42180680D01*
X39754146Y-42189492D01*
X39774844Y-42194404D01*
X39782670Y-42196261D01*
X39791387Y-42199017D01*
X39818622Y-42209883D01*
X39823013Y-42210314D01*
X39823015Y-42210314D01*
X39823155Y-42210327D01*
X39824915Y-42210500D01*
X39835357Y-42210500D01*
X39849788Y-42212189D01*
X39863066Y-42215340D01*
X39894435Y-42211071D01*
X39902862Y-42210500D01*
X41435647Y-42210500D01*
X41479841Y-42228806D01*
X43115194Y-43864159D01*
X43133500Y-43908353D01*
X43133500Y-45283948D01*
X43133053Y-45290036D01*
X43131575Y-45294342D01*
X43133430Y-45343769D01*
X43133456Y-45344454D01*
X43133500Y-45346798D01*
X43133500Y-45366948D01*
X43134026Y-45369775D01*
X43134291Y-45372642D01*
X43134200Y-45372650D01*
X43134674Y-45376912D01*
X43135774Y-45406208D01*
X43138051Y-45411507D01*
X43141922Y-45420518D01*
X43145940Y-45433746D01*
X43148791Y-45449053D01*
X43164178Y-45474016D01*
X43168387Y-45482117D01*
X43179964Y-45509063D01*
X43183978Y-45513949D01*
X43191360Y-45521331D01*
X43200370Y-45532730D01*
X43207532Y-45544348D01*
X43212126Y-45547841D01*
X43232734Y-45563512D01*
X43239097Y-45569068D01*
X43623194Y-45953165D01*
X43641500Y-45997359D01*
X43641500Y-63009000D01*
X43625846Y-63050373D01*
X43561596Y-63123122D01*
X43506754Y-63239932D01*
X43486901Y-63367440D01*
X43503633Y-63495394D01*
X43555605Y-63613510D01*
X43638639Y-63712291D01*
X43642344Y-63714757D01*
X43642346Y-63714759D01*
X43723902Y-63769047D01*
X43746060Y-63783796D01*
X43869233Y-63822278D01*
X43873683Y-63822360D01*
X43873686Y-63822360D01*
X43993809Y-63824562D01*
X43993812Y-63824562D01*
X43998255Y-63824643D01*
X44002546Y-63823473D01*
X44002547Y-63823473D01*
X44060505Y-63807671D01*
X44122755Y-63790700D01*
X44232724Y-63723179D01*
X44319322Y-63627507D01*
X44375588Y-63511375D01*
X44396997Y-63384120D01*
X44397133Y-63373000D01*
X44378839Y-63245259D01*
X44325428Y-63127788D01*
X44257652Y-63049130D01*
X44242500Y-63008333D01*
X44242500Y-45902052D01*
X44242947Y-45895964D01*
X44244425Y-45891658D01*
X44242544Y-45841558D01*
X44242500Y-45839213D01*
X44242500Y-45819052D01*
X44241974Y-45816226D01*
X44241709Y-45813357D01*
X44241800Y-45813349D01*
X44241325Y-45809082D01*
X44240442Y-45785559D01*
X44240442Y-45785557D01*
X44240225Y-45779791D01*
X44234081Y-45765490D01*
X44230061Y-45752261D01*
X44228265Y-45742618D01*
X44227209Y-45736947D01*
X44211827Y-45711993D01*
X44207607Y-45703870D01*
X44197778Y-45680991D01*
X44197777Y-45680989D01*
X44196036Y-45676937D01*
X44192022Y-45672051D01*
X44184640Y-45664669D01*
X44175630Y-45653270D01*
X44171498Y-45646567D01*
X44171497Y-45646566D01*
X44168468Y-45641652D01*
X44143266Y-45622488D01*
X44136903Y-45616932D01*
X43752806Y-45232835D01*
X43734500Y-45188641D01*
X43734500Y-43813046D01*
X43734947Y-43806958D01*
X43736425Y-43802652D01*
X43734544Y-43752539D01*
X43734500Y-43750195D01*
X43734500Y-43730046D01*
X43733974Y-43727219D01*
X43733709Y-43724352D01*
X43733800Y-43724344D01*
X43733326Y-43720082D01*
X43732443Y-43696553D01*
X43732442Y-43696551D01*
X43732226Y-43690785D01*
X43729947Y-43685480D01*
X43726079Y-43676476D01*
X43722061Y-43663250D01*
X43720267Y-43653617D01*
X43720265Y-43653612D01*
X43719209Y-43647941D01*
X43703822Y-43622978D01*
X43699613Y-43614877D01*
X43688036Y-43587931D01*
X43684022Y-43583045D01*
X43676640Y-43575663D01*
X43667630Y-43564264D01*
X43663498Y-43557561D01*
X43663497Y-43557560D01*
X43660468Y-43552646D01*
X43635266Y-43533482D01*
X43628903Y-43527926D01*
X41837422Y-41736445D01*
X41833430Y-41731820D01*
X41831431Y-41727731D01*
X41820341Y-41717443D01*
X41794659Y-41693620D01*
X41792970Y-41691993D01*
X41778729Y-41677752D01*
X41776358Y-41676125D01*
X41774139Y-41674281D01*
X41774198Y-41674211D01*
X41770848Y-41671532D01*
X41753589Y-41655522D01*
X41749360Y-41651599D01*
X41734895Y-41645828D01*
X41722703Y-41639318D01*
X41714619Y-41633772D01*
X41714616Y-41633771D01*
X41709860Y-41630508D01*
X41681337Y-41623739D01*
X41672619Y-41620983D01*
X41645384Y-41610117D01*
X41640993Y-41609686D01*
X41640991Y-41609686D01*
X41640851Y-41609673D01*
X41639091Y-41609500D01*
X41628649Y-41609500D01*
X41614218Y-41607811D01*
X41606553Y-41605992D01*
X41600940Y-41604660D01*
X41591153Y-41605992D01*
X41569572Y-41608929D01*
X41561144Y-41609500D01*
X40028359Y-41609500D01*
X39984165Y-41591194D01*
X39942806Y-41549835D01*
X39924500Y-41505641D01*
X39924500Y-40495464D01*
X39940663Y-40453522D01*
X39998334Y-40389808D01*
X40001322Y-40386507D01*
X40014915Y-40358452D01*
X40021411Y-40347873D01*
X40077621Y-40273952D01*
X40081114Y-40269359D01*
X40086727Y-40249978D01*
X40110647Y-40167374D01*
X40112252Y-40161832D01*
X40102593Y-40050304D01*
X40053431Y-39949731D01*
X40032564Y-39930374D01*
X40018174Y-39910422D01*
X40009272Y-39890843D01*
X40009271Y-39890841D01*
X40007428Y-39886788D01*
X39923193Y-39789028D01*
X39814906Y-39718841D01*
X39810641Y-39717566D01*
X39810638Y-39717564D01*
X39695541Y-39683142D01*
X39695538Y-39683142D01*
X39691273Y-39681866D01*
X39627721Y-39681478D01*
X39566684Y-39681105D01*
X39566683Y-39681105D01*
X39562231Y-39681078D01*
X39438155Y-39716539D01*
X39329019Y-39785399D01*
X39326076Y-39788731D01*
X39326074Y-39788733D01*
X39322833Y-39792403D01*
X39243596Y-39882122D01*
X39188754Y-39998932D01*
X39168901Y-40126440D01*
X32639000Y-40126440D01*
X32639000Y-37306440D01*
X39942770Y-37306440D01*
X39957200Y-37526604D01*
X40011511Y-37740452D01*
X40103883Y-37940821D01*
X40231222Y-38121002D01*
X40389264Y-38274961D01*
X40572717Y-38397540D01*
X40775436Y-38484635D01*
X40778222Y-38485265D01*
X40778227Y-38485267D01*
X40987842Y-38532698D01*
X40987845Y-38532698D01*
X40990632Y-38533329D01*
X41088029Y-38537156D01*
X41208238Y-38541879D01*
X41208242Y-38541879D01*
X41211098Y-38541991D01*
X41429452Y-38510331D01*
X41638379Y-38439410D01*
X41830884Y-38331602D01*
X42000518Y-38190518D01*
X42141602Y-38020884D01*
X42249410Y-37828379D01*
X42320331Y-37619452D01*
X42351991Y-37401098D01*
X42353643Y-37338000D01*
X42350482Y-37303592D01*
X42333716Y-37121142D01*
X42333454Y-37118289D01*
X42323954Y-37084602D01*
X42274342Y-36908691D01*
X42273565Y-36905936D01*
X42260455Y-36879350D01*
X42177248Y-36710624D01*
X42177247Y-36710623D01*
X42175980Y-36708053D01*
X42157941Y-36683896D01*
X42045684Y-36533566D01*
X42045683Y-36533564D01*
X42043967Y-36531267D01*
X41881949Y-36381499D01*
X41695350Y-36263764D01*
X41490421Y-36182006D01*
X41487615Y-36181448D01*
X41487612Y-36181447D01*
X41276830Y-36139520D01*
X41276828Y-36139520D01*
X41274024Y-36138962D01*
X41170127Y-36137602D01*
X41056268Y-36136111D01*
X41056263Y-36136111D01*
X41053406Y-36136074D01*
X41050585Y-36136559D01*
X41050581Y-36136559D01*
X40923124Y-36158460D01*
X40835957Y-36173438D01*
X40833269Y-36174430D01*
X40833264Y-36174431D01*
X40631645Y-36248812D01*
X40631642Y-36248814D01*
X40628957Y-36249804D01*
X40626497Y-36251267D01*
X40626496Y-36251268D01*
X40441806Y-36361147D01*
X40441802Y-36361150D01*
X40439341Y-36362614D01*
X40273457Y-36508090D01*
X40136863Y-36681360D01*
X40034131Y-36876620D01*
X40033284Y-36879347D01*
X40033283Y-36879350D01*
X39970271Y-37082284D01*
X39968703Y-37087333D01*
X39942770Y-37306440D01*
X32639000Y-37306440D01*
X32639000Y-33106284D01*
X32657306Y-33062090D01*
X32701500Y-33043784D01*
X32745694Y-33062090D01*
X32751773Y-33069151D01*
X32827850Y-33172150D01*
X32936816Y-33252634D01*
X32941224Y-33254182D01*
X32941226Y-33254183D01*
X32999893Y-33274785D01*
X33064631Y-33297519D01*
X33081058Y-33299072D01*
X33094702Y-33300362D01*
X33094710Y-33300362D01*
X33096166Y-33300500D01*
X34103834Y-33300500D01*
X34105290Y-33300362D01*
X34105298Y-33300362D01*
X34118942Y-33299072D01*
X34135369Y-33297519D01*
X34200107Y-33274785D01*
X34258774Y-33254183D01*
X34258776Y-33254182D01*
X34263184Y-33252634D01*
X34372150Y-33172150D01*
X34452634Y-33063184D01*
X34497519Y-32935369D01*
X34500500Y-32903834D01*
X34500500Y-32863000D01*
X34518806Y-32818806D01*
X34563000Y-32800500D01*
X37644948Y-32800500D01*
X37651036Y-32800947D01*
X37655342Y-32802425D01*
X37705454Y-32800544D01*
X37707798Y-32800500D01*
X37727948Y-32800500D01*
X37730775Y-32799974D01*
X37733642Y-32799709D01*
X37733650Y-32799800D01*
X37737912Y-32799326D01*
X37739725Y-32799258D01*
X37767208Y-32798226D01*
X37781518Y-32792078D01*
X37794746Y-32788060D01*
X37804378Y-32786266D01*
X37810053Y-32785209D01*
X37835016Y-32769822D01*
X37843117Y-32765613D01*
X37870063Y-32754036D01*
X37874949Y-32750022D01*
X37882331Y-32742640D01*
X37893730Y-32733630D01*
X37900433Y-32729498D01*
X37900434Y-32729497D01*
X37905348Y-32726468D01*
X37924512Y-32701266D01*
X37930068Y-32694903D01*
X38306165Y-32318806D01*
X38350359Y-32300500D01*
X39534921Y-32300500D01*
X39579115Y-32318806D01*
X39582757Y-32322777D01*
X39596639Y-32339291D01*
X39600344Y-32341757D01*
X39600346Y-32341759D01*
X39681902Y-32396047D01*
X39704060Y-32410796D01*
X39827233Y-32449278D01*
X39831683Y-32449360D01*
X39831686Y-32449360D01*
X39951809Y-32451562D01*
X39951812Y-32451562D01*
X39956255Y-32451643D01*
X39960546Y-32450473D01*
X39960547Y-32450473D01*
X40018505Y-32434671D01*
X40080755Y-32417700D01*
X40190724Y-32350179D01*
X40277322Y-32254507D01*
X40333588Y-32138375D01*
X40337099Y-32117510D01*
X40354597Y-32013496D01*
X40354997Y-32011120D01*
X40355133Y-32000000D01*
X40336839Y-31872259D01*
X40297461Y-31785651D01*
X40285272Y-31758843D01*
X40285271Y-31758841D01*
X40283428Y-31754788D01*
X40280218Y-31751062D01*
X40202101Y-31660403D01*
X40199193Y-31657028D01*
X40090906Y-31586841D01*
X40086641Y-31585566D01*
X40086638Y-31585564D01*
X39971541Y-31551142D01*
X39971538Y-31551142D01*
X39967273Y-31549866D01*
X39903721Y-31549478D01*
X39842684Y-31549105D01*
X39842683Y-31549105D01*
X39838231Y-31549078D01*
X39714155Y-31584539D01*
X39605019Y-31653399D01*
X39602076Y-31656731D01*
X39602074Y-31656733D01*
X39582963Y-31678373D01*
X39536117Y-31699500D01*
X38255052Y-31699500D01*
X38248964Y-31699053D01*
X38244658Y-31697575D01*
X38195231Y-31699430D01*
X38194546Y-31699456D01*
X38192202Y-31699500D01*
X38172052Y-31699500D01*
X38169225Y-31700026D01*
X38166358Y-31700291D01*
X38166350Y-31700200D01*
X38162088Y-31700674D01*
X38160275Y-31700742D01*
X38132792Y-31701774D01*
X38118482Y-31707922D01*
X38105254Y-31711940D01*
X38095622Y-31713734D01*
X38089947Y-31714791D01*
X38064984Y-31730178D01*
X38056883Y-31734387D01*
X38029937Y-31745964D01*
X38025051Y-31749977D01*
X38017667Y-31757361D01*
X38006269Y-31766371D01*
X37994652Y-31773532D01*
X37993712Y-31772008D01*
X37955607Y-31785651D01*
X37912360Y-31765209D01*
X37901765Y-31749095D01*
X37850272Y-31635843D01*
X37850271Y-31635841D01*
X37848428Y-31631788D01*
X37805652Y-31582144D01*
X37790500Y-31541347D01*
X37790500Y-31376000D01*
X37808806Y-31331806D01*
X37853000Y-31313500D01*
X41241286Y-31313500D01*
X41285480Y-31331806D01*
X41439194Y-31485521D01*
X41457500Y-31529715D01*
X41457500Y-33192307D01*
X41441846Y-33233680D01*
X41402596Y-33278122D01*
X41347754Y-33394932D01*
X41327901Y-33522440D01*
X41344633Y-33650394D01*
X41396605Y-33768510D01*
X41479639Y-33867291D01*
X41483344Y-33869757D01*
X41483346Y-33869759D01*
X41564902Y-33924047D01*
X41587060Y-33938796D01*
X41710233Y-33977278D01*
X41714683Y-33977360D01*
X41714686Y-33977360D01*
X41834809Y-33979562D01*
X41834812Y-33979562D01*
X41839255Y-33979643D01*
X41843546Y-33978473D01*
X41843547Y-33978473D01*
X41901505Y-33962671D01*
X41963755Y-33945700D01*
X42073724Y-33878179D01*
X42160322Y-33782507D01*
X42216588Y-33666375D01*
X42237997Y-33539120D01*
X42238133Y-33528000D01*
X42219839Y-33400259D01*
X42174481Y-33300500D01*
X42168272Y-33286843D01*
X42168271Y-33286841D01*
X42166428Y-33282788D01*
X42123652Y-33233144D01*
X42108500Y-33192347D01*
X42108500Y-31385930D01*
X42108738Y-31380483D01*
X42111787Y-31345638D01*
X42111787Y-31345636D01*
X42112263Y-31340193D01*
X42101790Y-31301106D01*
X42100612Y-31295788D01*
X42094538Y-31261342D01*
X42093588Y-31255955D01*
X42090430Y-31250484D01*
X42084190Y-31235419D01*
X42083970Y-31234596D01*
X42083967Y-31234591D01*
X42082554Y-31229316D01*
X42059344Y-31196168D01*
X42056421Y-31191579D01*
X42046806Y-31174925D01*
X42036194Y-31156545D01*
X42005204Y-31130541D01*
X42001184Y-31126857D01*
X41644145Y-30769819D01*
X41640461Y-30765799D01*
X41617970Y-30738995D01*
X41614455Y-30734806D01*
X41579414Y-30714575D01*
X41574822Y-30711650D01*
X41546160Y-30691580D01*
X41546159Y-30691580D01*
X41541684Y-30688446D01*
X41536407Y-30687032D01*
X41536405Y-30687031D01*
X41535586Y-30686812D01*
X41520513Y-30680568D01*
X41519784Y-30680147D01*
X41519779Y-30680145D01*
X41515045Y-30677412D01*
X41475204Y-30670387D01*
X41469883Y-30669207D01*
X41436089Y-30660151D01*
X41436087Y-30660151D01*
X41430807Y-30658736D01*
X41392549Y-30662083D01*
X41390506Y-30662262D01*
X41385059Y-30662500D01*
X41363000Y-30662500D01*
X41318806Y-30644194D01*
X41300500Y-30600000D01*
X41300500Y-30357394D01*
X41318806Y-30313200D01*
X41328276Y-30305428D01*
X41339434Y-30297972D01*
X41339435Y-30297971D01*
X41344552Y-30294552D01*
X41388867Y-30228231D01*
X41400500Y-30169748D01*
X41400500Y-28730252D01*
X41388867Y-28671769D01*
X41344552Y-28605448D01*
X41304243Y-28578514D01*
X41283347Y-28564551D01*
X41283345Y-28564550D01*
X41278231Y-28561133D01*
X41272197Y-28559933D01*
X41272195Y-28559932D01*
X41222761Y-28550099D01*
X41222758Y-28550099D01*
X41219748Y-28549500D01*
X40780252Y-28549500D01*
X40777242Y-28550099D01*
X40777239Y-28550099D01*
X40727806Y-28559932D01*
X40727805Y-28559932D01*
X40721769Y-28561133D01*
X40716650Y-28564553D01*
X40716651Y-28564553D01*
X40709723Y-28569182D01*
X40662806Y-28578514D01*
X40640277Y-28569182D01*
X40633349Y-28564553D01*
X40633350Y-28564553D01*
X40628231Y-28561133D01*
X40622195Y-28559932D01*
X40622194Y-28559932D01*
X40572761Y-28550099D01*
X40572758Y-28550099D01*
X40569748Y-28549500D01*
X40130252Y-28549500D01*
X40127242Y-28550099D01*
X40127239Y-28550099D01*
X40077806Y-28559932D01*
X40077805Y-28559932D01*
X40071769Y-28561133D01*
X40066650Y-28564553D01*
X40066651Y-28564553D01*
X40059723Y-28569182D01*
X40012806Y-28578514D01*
X39990277Y-28569182D01*
X39983349Y-28564553D01*
X39983350Y-28564553D01*
X39978231Y-28561133D01*
X39972195Y-28559932D01*
X39972194Y-28559932D01*
X39922761Y-28550099D01*
X39922758Y-28550099D01*
X39919748Y-28549500D01*
X39480252Y-28549500D01*
X39477242Y-28550099D01*
X39477239Y-28550099D01*
X39427806Y-28559932D01*
X39427805Y-28559932D01*
X39421769Y-28561133D01*
X39416650Y-28564553D01*
X39416651Y-28564553D01*
X39409723Y-28569182D01*
X39362806Y-28578514D01*
X39340277Y-28569182D01*
X39333349Y-28564553D01*
X39333350Y-28564553D01*
X39328231Y-28561133D01*
X39322195Y-28559932D01*
X39322194Y-28559932D01*
X39272761Y-28550099D01*
X39272758Y-28550099D01*
X39269748Y-28549500D01*
X38830252Y-28549500D01*
X38827242Y-28550099D01*
X38827239Y-28550099D01*
X38777805Y-28559932D01*
X38777803Y-28559933D01*
X38771769Y-28561133D01*
X38766655Y-28564550D01*
X38766653Y-28564551D01*
X38745757Y-28578514D01*
X38705448Y-28605448D01*
X38661133Y-28671769D01*
X38649500Y-28730252D01*
X38649500Y-30169748D01*
X38661133Y-30228231D01*
X38705448Y-30294552D01*
X38710562Y-30297969D01*
X38766653Y-30335449D01*
X38766655Y-30335450D01*
X38771769Y-30338867D01*
X38777803Y-30340067D01*
X38777805Y-30340068D01*
X38827239Y-30349901D01*
X38827242Y-30349901D01*
X38830252Y-30350500D01*
X39269748Y-30350500D01*
X39272758Y-30349901D01*
X39272761Y-30349901D01*
X39322194Y-30340068D01*
X39322195Y-30340068D01*
X39328231Y-30338867D01*
X39340277Y-30330818D01*
X39387194Y-30321486D01*
X39409723Y-30330818D01*
X39421769Y-30338867D01*
X39427805Y-30340068D01*
X39427806Y-30340068D01*
X39477239Y-30349901D01*
X39477242Y-30349901D01*
X39480252Y-30350500D01*
X39919748Y-30350500D01*
X39922758Y-30349901D01*
X39922761Y-30349901D01*
X39972194Y-30340068D01*
X39972195Y-30340068D01*
X39978231Y-30338867D01*
X39990277Y-30330818D01*
X40037194Y-30321486D01*
X40059723Y-30330818D01*
X40071769Y-30338867D01*
X40077805Y-30340068D01*
X40077806Y-30340068D01*
X40127239Y-30349901D01*
X40127242Y-30349901D01*
X40130252Y-30350500D01*
X40569748Y-30350500D01*
X40572758Y-30349901D01*
X40572761Y-30349901D01*
X40624807Y-30339548D01*
X40671723Y-30348880D01*
X40698299Y-30388654D01*
X40699500Y-30400847D01*
X40699500Y-30600000D01*
X40681194Y-30644194D01*
X40637000Y-30662500D01*
X37590359Y-30662500D01*
X37546165Y-30644194D01*
X34338343Y-27436372D01*
X34320037Y-27392178D01*
X34338343Y-27347984D01*
X34345404Y-27341905D01*
X34368393Y-27324925D01*
X34372150Y-27322150D01*
X34452634Y-27213184D01*
X34497519Y-27085369D01*
X34500500Y-27053834D01*
X34500500Y-26296166D01*
X34497519Y-26264631D01*
X34452634Y-26136816D01*
X34372150Y-26027850D01*
X34263184Y-25947366D01*
X34258776Y-25945818D01*
X34258774Y-25945817D01*
X34189176Y-25921377D01*
X34135369Y-25902481D01*
X34118942Y-25900928D01*
X34105298Y-25899638D01*
X34105290Y-25899638D01*
X34103834Y-25899500D01*
X33096166Y-25899500D01*
X33094710Y-25899638D01*
X33094702Y-25899638D01*
X33081058Y-25900928D01*
X33064631Y-25902481D01*
X33010824Y-25921377D01*
X32941226Y-25945817D01*
X32941224Y-25945818D01*
X32936816Y-25947366D01*
X32827850Y-26027850D01*
X32825075Y-26031607D01*
X32751773Y-26130849D01*
X32710792Y-26155521D01*
X32664367Y-26143989D01*
X32639695Y-26103008D01*
X32639000Y-26093716D01*
X32639000Y-25465500D01*
X32657306Y-25421306D01*
X32701500Y-25403000D01*
X45149500Y-25403000D01*
X45193694Y-25421306D01*
G37*
%TD.AperFunction*%
%TA.AperFunction,Conductor*%
G36*
X34607194Y-28555165D02*
G01*
X37121194Y-31069166D01*
X37139500Y-31113360D01*
X37139500Y-31541307D01*
X37123846Y-31582680D01*
X37084596Y-31627122D01*
X37029754Y-31743932D01*
X37009901Y-31871440D01*
X37010478Y-31875853D01*
X37010478Y-31875854D01*
X37012814Y-31893716D01*
X37026633Y-31999394D01*
X37069863Y-32097641D01*
X37076105Y-32111828D01*
X37077148Y-32159652D01*
X37044070Y-32194207D01*
X37018898Y-32199500D01*
X34563000Y-32199500D01*
X34518806Y-32181194D01*
X34500500Y-32137000D01*
X34500500Y-32096166D01*
X34497519Y-32064631D01*
X34452634Y-31936816D01*
X34372150Y-31827850D01*
X34263184Y-31747366D01*
X34258776Y-31745818D01*
X34258774Y-31745817D01*
X34167413Y-31713734D01*
X34135369Y-31702481D01*
X34118942Y-31700928D01*
X34105298Y-31699638D01*
X34105290Y-31699638D01*
X34103834Y-31699500D01*
X33096166Y-31699500D01*
X33094710Y-31699638D01*
X33094702Y-31699638D01*
X33081058Y-31700928D01*
X33064631Y-31702481D01*
X33032587Y-31713734D01*
X32941226Y-31745817D01*
X32941224Y-31745818D01*
X32936816Y-31747366D01*
X32827850Y-31827850D01*
X32825075Y-31831607D01*
X32751773Y-31930849D01*
X32710792Y-31955521D01*
X32664367Y-31943989D01*
X32639695Y-31903008D01*
X32639000Y-31893716D01*
X32639000Y-31106284D01*
X32657306Y-31062090D01*
X32701500Y-31043784D01*
X32745694Y-31062090D01*
X32751773Y-31069151D01*
X32827850Y-31172150D01*
X32936816Y-31252634D01*
X32941224Y-31254182D01*
X32941226Y-31254183D01*
X33010824Y-31278623D01*
X33064631Y-31297519D01*
X33081058Y-31299072D01*
X33094702Y-31300362D01*
X33094710Y-31300362D01*
X33096166Y-31300500D01*
X34103834Y-31300500D01*
X34105290Y-31300362D01*
X34105298Y-31300362D01*
X34118942Y-31299072D01*
X34135369Y-31297519D01*
X34189176Y-31278623D01*
X34258774Y-31254183D01*
X34258776Y-31254182D01*
X34263184Y-31252634D01*
X34372150Y-31172150D01*
X34452634Y-31063184D01*
X34497519Y-30935369D01*
X34500500Y-30903834D01*
X34500500Y-30096166D01*
X34497519Y-30064631D01*
X34452634Y-29936816D01*
X34372150Y-29827850D01*
X34263184Y-29747366D01*
X34258776Y-29745818D01*
X34258774Y-29745817D01*
X34189176Y-29721377D01*
X34135369Y-29702481D01*
X34118942Y-29700928D01*
X34105298Y-29699638D01*
X34105290Y-29699638D01*
X34103834Y-29699500D01*
X33963000Y-29699500D01*
X33918806Y-29681194D01*
X33900500Y-29637000D01*
X33900500Y-29563000D01*
X33918806Y-29518806D01*
X33963000Y-29500500D01*
X34103834Y-29500500D01*
X34105290Y-29500362D01*
X34105298Y-29500362D01*
X34118942Y-29499072D01*
X34135369Y-29497519D01*
X34189176Y-29478623D01*
X34258774Y-29454183D01*
X34258776Y-29454182D01*
X34263184Y-29452634D01*
X34372150Y-29372150D01*
X34452634Y-29263184D01*
X34497519Y-29135369D01*
X34500500Y-29103834D01*
X34500500Y-28599359D01*
X34518806Y-28555165D01*
X34563000Y-28536859D01*
X34607194Y-28555165D01*
G37*
%TD.AperFunction*%
%TD*%
M02*
