%TF.GenerationSoftware,KiCad,Pcbnew,(6.0.2)*%
%TF.CreationDate,2022-03-27T21:46:32-04:00*%
%TF.ProjectId,Altimeter,416c7469-6d65-4746-9572-2e6b69636164,rev?*%
%TF.SameCoordinates,Original*%
%TF.FileFunction,Legend,Top*%
%TF.FilePolarity,Positive*%
%FSLAX46Y46*%
G04 Gerber Fmt 4.6, Leading zero omitted, Abs format (unit mm)*
G04 Created by KiCad (PCBNEW (6.0.2)) date 2022-03-27 21:46:32*
%MOMM*%
%LPD*%
G01*
G04 APERTURE LIST*
%ADD10C,0.150000*%
%ADD11C,0.254000*%
%ADD12C,0.100000*%
%ADD13C,0.120000*%
%ADD14C,0.200000*%
G04 APERTURE END LIST*
D10*
X32831000Y-46228000D02*
X44831000Y-46228000D01*
X44831000Y-46228000D02*
X44831000Y-73228000D01*
X44831000Y-73228000D02*
X32831000Y-73228000D01*
X32831000Y-73228000D02*
X32831000Y-46228000D01*
X40100000Y-42800000D02*
X40100000Y-43600000D01*
X37600000Y-43300000D02*
X38400000Y-43300000D01*
X39700000Y-43200000D02*
X40500000Y-43200000D01*
D11*
%TO.C,LS1*%
X39622523Y-38154428D02*
X39622523Y-38759190D01*
X38352523Y-38759190D01*
X39562047Y-37791571D02*
X39622523Y-37610142D01*
X39622523Y-37307761D01*
X39562047Y-37186809D01*
X39501571Y-37126333D01*
X39380619Y-37065857D01*
X39259666Y-37065857D01*
X39138714Y-37126333D01*
X39078238Y-37186809D01*
X39017761Y-37307761D01*
X38957285Y-37549666D01*
X38896809Y-37670619D01*
X38836333Y-37731095D01*
X38715380Y-37791571D01*
X38594428Y-37791571D01*
X38473476Y-37731095D01*
X38413000Y-37670619D01*
X38352523Y-37549666D01*
X38352523Y-37247285D01*
X38413000Y-37065857D01*
X39622523Y-35856333D02*
X39622523Y-36582047D01*
X39622523Y-36219190D02*
X38352523Y-36219190D01*
X38533952Y-36340142D01*
X38654904Y-36461095D01*
X38715380Y-36582047D01*
D10*
%TO.C,J2*%
X41787380Y-45037333D02*
X42501666Y-45037333D01*
X42644523Y-45084952D01*
X42739761Y-45180190D01*
X42787380Y-45323047D01*
X42787380Y-45418285D01*
X41882619Y-44608761D02*
X41835000Y-44561142D01*
X41787380Y-44465904D01*
X41787380Y-44227809D01*
X41835000Y-44132571D01*
X41882619Y-44084952D01*
X41977857Y-44037333D01*
X42073095Y-44037333D01*
X42215952Y-44084952D01*
X42787380Y-44656380D01*
X42787380Y-44037333D01*
D11*
%TO.C,J1*%
X39276666Y-23871523D02*
X39276666Y-24778666D01*
X39216190Y-24960095D01*
X39095238Y-25081047D01*
X38913809Y-25141523D01*
X38792857Y-25141523D01*
X40546666Y-25141523D02*
X39820952Y-25141523D01*
X40183809Y-25141523D02*
X40183809Y-23871523D01*
X40062857Y-24052952D01*
X39941904Y-24173904D01*
X39820952Y-24234380D01*
D10*
%TO.C,D1*%
X32259380Y-28438095D02*
X31259380Y-28438095D01*
X31259380Y-28200000D01*
X31307000Y-28057142D01*
X31402238Y-27961904D01*
X31497476Y-27914285D01*
X31687952Y-27866666D01*
X31830809Y-27866666D01*
X32021285Y-27914285D01*
X32116523Y-27961904D01*
X32211761Y-28057142D01*
X32259380Y-28200000D01*
X32259380Y-28438095D01*
X32259380Y-26914285D02*
X32259380Y-27485714D01*
X32259380Y-27200000D02*
X31259380Y-27200000D01*
X31402238Y-27295238D01*
X31497476Y-27390476D01*
X31545095Y-27485714D01*
%TO.C,R5*%
X35702380Y-31666666D02*
X35226190Y-32000000D01*
X35702380Y-32238095D02*
X34702380Y-32238095D01*
X34702380Y-31857142D01*
X34750000Y-31761904D01*
X34797619Y-31714285D01*
X34892857Y-31666666D01*
X35035714Y-31666666D01*
X35130952Y-31714285D01*
X35178571Y-31761904D01*
X35226190Y-31857142D01*
X35226190Y-32238095D01*
X34702380Y-30761904D02*
X34702380Y-31238095D01*
X35178571Y-31285714D01*
X35130952Y-31238095D01*
X35083333Y-31142857D01*
X35083333Y-30904761D01*
X35130952Y-30809523D01*
X35178571Y-30761904D01*
X35273809Y-30714285D01*
X35511904Y-30714285D01*
X35607142Y-30761904D01*
X35654761Y-30809523D01*
X35702380Y-30904761D01*
X35702380Y-31142857D01*
X35654761Y-31238095D01*
X35607142Y-31285714D01*
%TO.C,J3*%
X33459380Y-72342333D02*
X34173666Y-72342333D01*
X34316523Y-72389952D01*
X34411761Y-72485190D01*
X34459380Y-72628047D01*
X34459380Y-72723285D01*
X33459380Y-71961380D02*
X33459380Y-71342333D01*
X33840333Y-71675666D01*
X33840333Y-71532809D01*
X33887952Y-71437571D01*
X33935571Y-71389952D01*
X34030809Y-71342333D01*
X34268904Y-71342333D01*
X34364142Y-71389952D01*
X34411761Y-71437571D01*
X34459380Y-71532809D01*
X34459380Y-71818523D01*
X34411761Y-71913761D01*
X34364142Y-71961380D01*
D12*
%TO.C,LS1*%
X44248000Y-36838000D02*
X44248000Y-36838000D01*
X38648000Y-42138000D02*
X38648000Y-42138000D01*
X38648000Y-32538000D02*
X38648000Y-32538000D01*
X44148000Y-36838000D02*
X44148000Y-36838000D01*
X38648000Y-32538000D02*
G75*
G03*
X38648000Y-42138000I0J-4800000D01*
G01*
X38648000Y-42138000D02*
G75*
G03*
X38648000Y-32538000I0J4800000D01*
G01*
X44248000Y-36838000D02*
G75*
G03*
X44148000Y-36838000I-50000J0D01*
G01*
X44148000Y-36838000D02*
G75*
G03*
X44248000Y-36838000I50000J0D01*
G01*
D13*
%TO.C,J2*%
X33595000Y-43374000D02*
X33595000Y-46034000D01*
X38735000Y-43374000D02*
X33595000Y-43374000D01*
X40005000Y-43374000D02*
X41335000Y-43374000D01*
X38735000Y-46034000D02*
X33595000Y-46034000D01*
X41335000Y-43374000D02*
X41335000Y-44704000D01*
X38735000Y-43374000D02*
X38735000Y-46034000D01*
D12*
%TO.C,J1*%
X35800000Y-24650000D02*
X35800000Y-25800000D01*
D14*
X41300000Y-30625000D02*
X41300000Y-30625000D01*
X41200000Y-30625000D02*
X41200000Y-30625000D01*
D12*
X43600000Y-25800000D02*
X43600000Y-24650000D01*
X43600000Y-29600000D02*
X43600000Y-27800000D01*
X43125000Y-29600000D02*
X43600000Y-29600000D01*
X36625000Y-29600000D02*
X35800000Y-29600000D01*
X35800000Y-29600000D02*
X35800000Y-27800000D01*
X43600000Y-24650000D02*
X35800000Y-24650000D01*
D14*
X41200000Y-30625000D02*
G75*
G03*
X41300000Y-30625000I50000J0D01*
G01*
X41300000Y-30625000D02*
G75*
G03*
X41200000Y-30625000I-50000J0D01*
G01*
D13*
%TO.C,D1*%
X34560000Y-29560000D02*
X34560000Y-26700000D01*
X32640000Y-26700000D02*
X32640000Y-29560000D01*
X32640000Y-29560000D02*
X34560000Y-29560000D01*
%TO.C,R5*%
X32865000Y-31272936D02*
X32865000Y-31727064D01*
X34335000Y-31272936D02*
X34335000Y-31727064D01*
%TO.C,J3*%
X37607000Y-73339000D02*
X37607000Y-70679000D01*
X36337000Y-73339000D02*
X35007000Y-73339000D01*
X37607000Y-73339000D02*
X42747000Y-73339000D01*
X37607000Y-70679000D02*
X42747000Y-70679000D01*
X35007000Y-73339000D02*
X35007000Y-72009000D01*
X42747000Y-73339000D02*
X42747000Y-70679000D01*
%TD*%
M02*
