M48
; DRILL file {KiCad (6.0.2)} date Sun Mar 27 18:45:16 2022
; FORMAT={-:-/ absolute / inch / decimal}
; #@! TF.CreationDate,2022-03-27T18:45:16-04:00
; #@! TF.GenerationSoftware,Kicad,Pcbnew,(6.0.2)
; #@! TF.FileFunction,Plated,1,2,PTH
FMAT,2
INCH
; #@! TA.AperFunction,Plated,PTH,ViaDrill
T1C0.0079
; #@! TA.AperFunction,Plated,PTH,ComponentDrill
T2C0.0315
; #@! TA.AperFunction,Plated,PTH,ComponentDrill
T3C0.0523
%
G90
G05
T1
X1.305Y-2.315
X1.4Y-2.145
X1.42Y-2.315
X1.475Y-1.255
X1.485Y-1.955
X1.51Y-2.3205
X1.51Y-2.425
X1.545Y-2.43
X1.555Y-2.195
X1.56Y-1.58
X1.56Y-2.25
X1.62Y-2.12
X1.62Y-2.18
X1.64Y-2.285
X1.645Y-1.32
X1.715Y-1.535
X1.73Y-2.495
X1.745Y-1.245
T2
X1.4231Y-1.47
X1.45Y-2.835
X1.4963Y-1.76
X1.5287Y-2.835
X1.575Y-1.76
X1.6075Y-2.835
X1.62Y-1.47
T3
X1.4043Y-1.105
X1.6857Y-1.105
T0
M30
